<?xml version="1.0" encoding="UTF-8"?>
<svg width="1263px" height="725px" viewBox="0 0 1263 725" version="1.1" xmlns="http://www.w3.org/2000/svg" xmlns:xlink="http://www.w3.org/1999/xlink">
    <!-- Generator: Sketch 55.2 (78181) - https://sketchapp.com -->
    <title>Slice</title>
    <desc>Created with Sketch.</desc>
    <g id="Page-1" stroke="none" stroke-width="1" fill="none" fill-rule="evenodd">
        <g id="Group-4979">
            <g id="Group" transform="translate(125.000000, 100.000000)"></g>
            <g id="Group" opacity="0.7" stroke="#DCDCDC" stroke-linecap="square" stroke-width="0.25">
                <g id="Path">
                    <g transform="translate(0.830000, 0.830000)">
                        <path d="M48.67,420.17 L534.37,700.59"></path>
                        <path d="M41.74,424.17 L527.44,704.59"></path>
                        <path d="M34.81,428.17 L520.51,708.59"></path>
                        <path d="M492.07,164.17 L977.77,444.59"></path>
                        <path d="M485.14,168.17 L970.84,448.59"></path>
                        <path d="M478.22,172.17 L963.92,452.59"></path>
                        <path d="M471.29,176.17 L956.99,456.59"></path>
                        <path d="M464.36,180.17 L950.06,460.59"></path>
                        <path d="M457.43,184.17 L943.13,464.59"></path>
                        <path d="M547.5,132.17 L1033.2,412.59"></path>
                        <path d="M540.57,136.17 L1026.27,416.59"></path>
                        <path d="M533.64,140.17 L1019.34,420.59"></path>
                        <path d="M526.71,144.17 L1012.41,424.59"></path>
                        <path d="M519.79,148.17 L1005.49,428.59"></path>
                        <path d="M512.86,152.17 L998.56,432.59"></path>
                        <path d="M505.93,156.17 L991.63,436.59"></path>
                        <path d="M499,160.17 L984.7,440.59"></path>
                        <path d="M602.92,100.17 L1088.62,380.59"></path>
                        <path d="M596,104.17 L1081.7,384.59"></path>
                        <path d="M589.07,108.17 L1074.77,388.59"></path>
                        <path d="M582.14,112.17 L1067.84,392.59"></path>
                        <path d="M575.21,116.17 L1060.91,396.59"></path>
                        <path d="M568.28,120.17 L1053.98,400.59"></path>
                        <path d="M658.35,68.17 L1144.05,348.59"></path>
                        <path d="M651.42,72.17 L1137.12,352.59"></path>
                        <path d="M644.49,76.17 L1130.19,356.59"></path>
                        <path d="M637.57,80.17 L1123.27,360.59"></path>
                        <path d="M630.64,84.17 L1116.34,364.59"></path>
                        <path d="M623.71,88.17 L1109.41,368.59"></path>
                        <path d="M616.78,92.17 L1102.48,372.59"></path>
                        <path d="M609.85,96.17 L1095.55,376.59"></path>
                        <path d="M561.36,124.17 L1047.06,404.59"></path>
                        <path d="M554.43,128.17 L1040.13,408.59"></path>
                        <path d="M713.78,36.17 L1199.48,316.59"></path>
                        <path d="M706.85,40.17 L1192.55,320.59"></path>
                        <path d="M699.92,44.17 L1185.62,324.59"></path>
                        <path d="M692.99,48.17 L1178.69,328.59"></path>
                        <path d="M686.06,52.17 L1171.76,332.59"></path>
                        <path d="M679.13,56.17 L1164.83,336.59"></path>
                        <path d="M769.2,4.17 L1254.9,284.59"></path>
                        <path d="M762.27,8.17 L1247.97,288.59"></path>
                        <path d="M755.34,12.17 L1241.04,292.59"></path>
                        <path d="M748.42,16.17 L1234.12,296.59"></path>
                        <path d="M741.49,20.17 L1227.19,300.59"></path>
                        <path d="M734.56,24.17 L1220.26,304.59"></path>
                        <path d="M727.63,28.17 L1213.33,308.59"></path>
                        <path d="M720.7,32.17 L1206.4,312.59"></path>
                        <path d="M776.13,0.17 L1261.83,280.59"></path>
                        <path d="M672.21,60.17 L1157.91,340.59"></path>
                        <path d="M665.28,64.17 L1150.98,344.59"></path>
                        <path d="M450.5,188.17 L936.2,468.59"></path>
                        <path d="M443.58,192.17 L929.28,472.59"></path>
                        <path d="M27.88,432.17 L513.58,712.59"></path>
                        <path d="M20.96,436.17 L506.66,716.59"></path>
                        <path d="M14.03,440.17 L499.73,720.59"></path>
                        <path d="M104.09,388.17 L589.79,668.59"></path>
                        <path d="M97.17,392.17 L582.87,672.59"></path>
                        <path d="M90.24,396.17 L575.94,676.59"></path>
                        <path d="M83.31,400.17 L569.01,680.59"></path>
                        <path d="M76.38,404.17 L562.08,684.59"></path>
                        <path d="M69.45,408.17 L555.15,688.59"></path>
                        <path d="M62.52,412.17 L548.22,692.59"></path>
                        <path d="M55.6,416.17 L541.3,696.59"></path>
                        <path d="M159.52,356.17 L645.22,636.59"></path>
                        <path d="M152.59,360.17 L638.29,640.59"></path>
                        <path d="M145.66,364.17 L631.36,644.59"></path>
                        <path d="M138.73,368.17 L624.43,648.59"></path>
                        <path d="M131.81,372.17 L617.51,652.59"></path>
                        <path d="M124.88,376.17 L610.58,656.59"></path>
                        <path d="M214.95,324.17 L700.65,604.59"></path>
                        <path d="M208.02,328.17 L693.72,608.59"></path>
                        <path d="M201.09,332.17 L686.79,612.59"></path>
                        <path d="M194.16,336.17 L679.86,616.59"></path>
                        <path d="M187.23,340.17 L672.93,620.59"></path>
                        <path d="M180.3,344.17 L666,624.59"></path>
                        <path d="M173.38,348.17 L659.08,628.59"></path>
                        <path d="M166.45,352.17 L652.15,632.59"></path>
                        <path d="M117.95,380.17 L603.65,660.59"></path>
                        <path d="M111.02,384.17 L596.72,664.59"></path>
                        <path d="M270.37,292.17 L756.07,572.59"></path>
                        <path d="M263.44,296.17 L749.14,576.59"></path>
                        <path d="M256.51,300.17 L742.21,580.59"></path>
                        <path d="M249.59,304.17 L735.29,584.59"></path>
                        <path d="M242.66,308.17 L728.36,588.59"></path>
                        <path d="M235.73,312.17 L721.43,592.59"></path>
                        <path d="M325.8,260.17 L811.5,540.59"></path>
                        <path d="M318.87,264.17 L804.57,544.59"></path>
                        <path d="M311.94,268.17 L797.64,548.59"></path>
                        <path d="M305.01,272.17 L790.71,552.59"></path>
                        <path d="M298.08,276.17 L783.78,556.59"></path>
                        <path d="M291.16,280.17 L776.86,560.59"></path>
                        <path d="M284.23,284.17 L769.93,564.59"></path>
                        <path d="M277.3,288.17 L763,568.59"></path>
                        <path d="M381.22,228.17 L866.92,508.59"></path>
                        <path d="M374.29,232.17 L859.99,512.59"></path>
                        <path d="M367.37,236.17 L853.07,516.59"></path>
                        <path d="M360.44,240.17 L846.14,520.59"></path>
                        <path d="M353.51,244.17 L839.21,524.59"></path>
                        <path d="M346.58,248.17 L832.28,528.59"></path>
                        <path d="M436.65,196.17 L922.35,476.59"></path>
                        <path d="M429.72,200.17 L915.42,480.59"></path>
                        <path d="M422.79,204.17 L908.49,484.59"></path>
                        <path d="M415.86,208.17 L901.56,488.59"></path>
                        <path d="M408.93,212.17 L894.63,492.59"></path>
                        <path d="M402.01,216.17 L887.71,496.59"></path>
                        <path d="M395.08,220.17 L880.78,500.59"></path>
                        <path d="M388.15,224.17 L873.85,504.59"></path>
                        <path d="M339.65,252.17 L825.35,532.59"></path>
                        <path d="M332.72,256.17 L818.42,536.59"></path>
                        <path d="M228.8,316.17 L714.5,596.59"></path>
                        <path d="M221.87,320.17 L707.57,600.59"></path>
                        <path d="M7.1,444.17 L492.8,724.59"></path>
                        <path d="M0.17,448.17 L485.87,728.59"></path>
                        <path d="M119.79,516.83 L894.88,69.33"></path>
                        <path d="M127.79,521.45 L902.88,73.95"></path>
                        <path d="M135.79,526.07 L910.88,78.57"></path>
                        <path d="M143.69,530.63 L918.78,83.13"></path>
                        <path d="M151.69,535.25 L926.78,87.75"></path>
                        <path d="M159.68,539.87 L934.77,92.37"></path>
                        <path d="M167.58,544.43 L942.67,96.93"></path>
                        <path d="M175.58,549.04 L950.67,101.54"></path>
                        <path d="M183.58,553.66 L958.67,106.16"></path>
                        <path d="M191.48,558.22 L966.57,110.72"></path>
                        <path d="M199.48,562.84 L974.57,115.34"></path>
                        <path d="M207.47,567.46 L982.56,119.96"></path>
                        <path d="M215.47,572.08 L990.56,124.58"></path>
                        <path d="M223.37,576.64 L998.46,129.14"></path>
                        <path d="M231.37,581.25 L1006.46,133.75"></path>
                        <path d="M239.37,585.87 L1014.46,138.37"></path>
                        <path d="M247.27,590.43 L1022.36,142.93"></path>
                        <path d="M255.26,595.05 L1030.35,147.55"></path>
                        <path d="M263.26,599.67 L1038.35,152.17"></path>
                        <path d="M271.16,604.23 L1046.25,156.73"></path>
                        <path d="M279.16,608.85 L1054.25,161.35"></path>
                        <path d="M287.16,613.46 L1062.25,165.96"></path>
                        <path d="M295.06,618.02 L1070.15,170.52"></path>
                        <path d="M0.32,447.86 L775.41,0.36"></path>
                        <path d="M8.32,452.47 L783.41,4.97"></path>
                        <path d="M16.21,457.03 L791.31,9.53"></path>
                        <path d="M24.21,461.65 L799.3,14.15"></path>
                        <path d="M32.21,466.27 L807.3,18.77"></path>
                        <path d="M40.11,470.83 L815.2,23.33"></path>
                        <path d="M48.11,475.45 L823.2,27.95"></path>
                        <path d="M56.11,480.06 L831.2,32.56"></path>
                        <path d="M64.1,484.68 L839.2,37.18"></path>
                        <path d="M72,489.24 L847.1,41.74"></path>
                        <path d="M80,493.86 L855.09,46.36"></path>
                        <path d="M88,498.48 L863.09,50.98"></path>
                        <path d="M95.9,503.04 L870.99,55.54"></path>
                        <path d="M103.9,507.66 L878.99,60.16"></path>
                        <path d="M111.89,512.27 L886.98,64.77"></path>
                        <path d="M303.05,622.64 L1078.14,175.14"></path>
                        <path d="M311.05,627.26 L1086.14,179.76"></path>
                        <path d="M318.95,631.82 L1094.04,184.32"></path>
                        <path d="M326.95,636.44 L1102.04,188.94"></path>
                        <path d="M334.95,641.05 L1110.04,193.55"></path>
                        <path d="M342.95,645.67 L1118.04,198.17"></path>
                        <path d="M350.85,650.23 L1125.94,202.73"></path>
                        <path d="M358.84,654.85 L1133.93,207.35"></path>
                        <path d="M366.84,659.47 L1141.93,211.97"></path>
                        <path d="M374.74,664.03 L1149.83,216.53"></path>
                        <path d="M382.74,668.65 L1157.83,221.15"></path>
                        <path d="M390.74,673.26 L1165.83,225.76"></path>
                        <path d="M398.64,677.82 L1173.73,230.32"></path>
                        <path d="M406.63,682.44 L1181.72,234.94"></path>
                        <path d="M414.63,687.06 L1189.72,239.56"></path>
                        <path d="M422.53,691.62 L1197.62,244.12"></path>
                        <path d="M430.53,696.24 L1205.62,248.74"></path>
                        <path d="M438.53,700.86 L1213.62,253.36"></path>
                        <path d="M446.43,705.42 L1221.52,257.92"></path>
                        <path d="M454.42,710.03 L1229.51,262.53"></path>
                        <path d="M462.42,714.65 L1237.51,267.15"></path>
                        <path d="M470.42,719.27 L1245.51,271.77"></path>
                        <path d="M478.32,723.83 L1253.41,276.33"></path>
                        <path d="M486.32,728.45 L1261.41,280.95"></path>
                    </g>
                </g>
            </g>
            <g id="Group" transform="translate(379.000000, 146.000000)" fill="#FFFFFF" fill-rule="nonzero">
                <g transform="translate(60.860000, 248.170000)" id="Path">
                    <polygon points="0.74 12.645 21.584 0.61 45.557 14.455 24.713 26.49"></polygon>
                </g>
                <g transform="translate(101.660000, 211.950000)" id="Path">
                    <polygon points="0.34 16.117 28.17 0.05 60.206 18.55 32.376 34.617"></polygon>
                </g>
                <g transform="translate(148.884000, 170.723000)" id="Path">
                    <polygon points="0.77 20.829 35.421 0.82 75.275 23.826 40.624 43.835"></polygon>
                </g>
                <g transform="translate(195.477000, 117.381000)" id="Path">
                    <polygon points="0.15 28.776 48.881 0.64 104.981 33.026 56.25 61.162"></polygon>
                </g>
                <g transform="translate(270.830000, 61.275000)" id="Path">
                    <polygon points="0.39 32.519 55.919 0.46 119.799 37.339 64.27 69.4"></polygon>
                </g>
                <g transform="translate(353.330000, 0.509000)" id="Path">
                    <polygon points="0.38 36.311 62.9 0.22 134.784 41.72 72.269 77.811"></polygon>
                </g>
                <g transform="translate(27.830000, 280.770000)" id="Path">
                    <polygon points="0.17 8.511 14.129 0.23 30.144 9.739 16.185 18.02"></polygon>
                </g>
                <g transform="translate(0.470000, 309.150000)" id="Path">
                    <polygon points="0.53 4.978 7.685 0.85 15.94 5.62 8.785 9.748"></polygon>
                </g>
            </g>
            <g id="Group" transform="translate(430.000000, 238.000000)" fill="#FFFFFF" font-family="CorporateS-Regular, CorpoS" font-size="16" font-weight="normal">
                <g transform="translate(0.000000, 240.000000)" id="8px">
                    <text>
                        <tspan x="0" y="15">8px</tspan>
                    </text>
                </g>
                <g transform="translate(39.000000, 219.000000)" id="16px">
                    <text>
                        <tspan x="0" y="15">16px</tspan>
                    </text>
                </g>
                <g transform="translate(81.000000, 195.000000)" id="24px">
                    <text>
                        <tspan x="0" y="15">24px</tspan>
                    </text>
                </g>
                <g transform="translate(130.000000, 167.000000)" id="32px">
                    <text>
                        <tspan x="0" y="15">32px</tspan>
                    </text>
                </g>
                <g transform="translate(186.000000, 136.000000)" id="40px">
                    <text>
                        <tspan x="0" y="15">40px</tspan>
                    </text>
                </g>
                <g transform="translate(247.000000, 99.000000)" id="48px">
                    <text>
                        <tspan x="0" y="15">48px</tspan>
                    </text>
                </g>
                <g transform="translate(332.000000, 52.000000)" id="56px">
                    <text>
                        <tspan x="0" y="15">56px</tspan>
                    </text>
                </g>
                <g transform="translate(422.000000, 0.000000)" id="64px">
                    <text>
                        <tspan x="0" y="15">64px</tspan>
                    </text>
                </g>
            </g>
            <g id="Group" transform="translate(489.000000, 270.000000)" fill="#FFFFFF" font-family="CorporateS-Regular, CorpoS" font-size="16" font-weight="normal">
                <g transform="translate(0.000000, 241.000000)" id="2%">
                    <text>
                        <tspan x="0" y="15">2%</tspan>
                    </text>
                </g>
                <g transform="translate(35.000000, 220.000000)" id="4%">
                    <text>
                        <tspan x="0" y="15">4%</tspan>
                    </text>
                </g>
                <g transform="translate(78.000000, 196.000000)" id="6%">
                    <text>
                        <tspan x="0" y="15">6%</tspan>
                    </text>
                </g>
                <g transform="translate(124.000000, 169.000000)" id="8%">
                    <text>
                        <tspan x="0" y="15">8%</tspan>
                    </text>
                </g>
                <g transform="translate(177.000000, 136.000000)" id="10%">
                    <text>
                        <tspan x="0" y="15">10%</tspan>
                    </text>
                </g>
                <g transform="translate(240.000000, 100.000000)" id="12%">
                    <text>
                        <tspan x="0" y="15">12%</tspan>
                    </text>
                </g>
                <g transform="translate(323.000000, 52.000000)" id="14%">
                    <text>
                        <tspan x="0" y="15">14%</tspan>
                    </text>
                </g>
                <g transform="translate(413.000000, 0.000000)" id="16%">
                    <text>
                        <tspan x="0" y="15">16%</tspan>
                    </text>
                </g>
            </g>
            <g id="Group" transform="translate(371.955000, 506.665000)" fill="#FFFFFF" fill-rule="nonzero">
                <polygon id="Path" points="5.722 18.539 9.194 16.539 10.849 17.496 7.377 19.507 11.777 22.049 10.095 23.023 0 17.182 5.5 14.007 7.155 14.964 3.337 17.164"></polygon>
                <polygon id="Path" points="18.568 18.118 16.886 19.092 6.788 13.263 8.47 12.289"></polygon>
                <polygon id="Path" points="9.876 11.481 11.791 10.381 16.496 11.281 14.976 8.55 16.891 7.45 19.173 11.717 27.145 13.183 25.225 14.281 19.968 13.281 21.661 16.342 19.752 17.442 17.216 12.839"></polygon>
                <polygon id="Path" points="23.954 8.014 27.422 6.008 29.077 6.965 25.609 8.972 28.351 10.557 32.31 8.275 33.965 9.232 28.322 12.487 18.232 6.657 23.732 3.482 25.387 4.439 21.569 6.642"></polygon>
                <path d="M25.269,2.599 L27.405,1.366 C28.4011331,0.745089384 29.5032288,0.313200733 30.656,0.092 C31.7955094,-0.0666879564 32.9546074,-0.0117511863 34.074,0.254 C35.1896124,0.498719598 36.2606244,0.914643314 37.249,1.487 C38.3800752,2.02094857 39.2848199,2.93915988 39.802,4.078 C40.0634674,4.90220658 39.7171143,5.79740262 38.969,6.231 C38.4149137,6.63931116 37.8350407,7.01141861 37.233,7.345 L35.356,8.426 L25.269,2.599 Z M35.388,6.499 L36.156,6.056 C36.5194939,5.86042118 36.8605193,5.62569373 37.173,5.356 C37.5694513,5.05764787 37.6622587,4.5008038 37.384,4.09 C36.9085702,3.40240478 36.2688613,2.84450709 35.523,2.467 C34.7255451,1.997147 33.8557752,1.66262013 32.949,1.477 C32.1109367,1.29148093 31.2375557,1.34589396 30.429,1.634 C29.9243475,1.84383761 29.4362888,2.09154412 28.969,2.375 L28.612,2.581 L35.388,6.499 Z" id="Shape"></path>
            </g>
            <g id="Group" transform="translate(426.697000, 538.037000)" fill="#FFFFFF" fill-rule="nonzero">
                <polygon id="Path" points="5.495 18.167 8.83 16.24 10.419 17.159 7.084 19.086 11.307 21.527 9.692 22.462 0 16.868 5.282 13.819 6.871 14.738 3.204 16.852"></polygon>
                <polygon id="Path" points="6.524 13.099 8.181 12.143 16.281 16.823 19.922 14.723 21.511 15.642 16.218 18.701"></polygon>
                <path d="M12.673,9.546 L14.288,8.611 L19.856,11.826 C20.4059899,12.1662211 20.9889511,12.4499959 21.596,12.673 C22.4852993,12.9587142 23.4536076,12.8589821 24.266,12.398 C24.78,12.098 25.035,11.77 25.019,11.411 C25.003,11.089 24.692,10.736 24.084,10.346 C23.918,10.237 23.648,10.071 23.274,9.858 L17.706,6.643 L19.321,5.708 L24.915,8.939 C25.4407218,9.22836672 25.9474204,9.55102382 26.432,9.905 C27.0208119,10.2520488 27.3778502,10.8886081 27.367,11.572 C27.1734091,12.359036 26.6212305,13.009355 25.876,13.328 C24.0579497,14.3575168 21.8628078,14.4766732 19.944,13.65 C19.367632,13.3911115 18.8072945,13.0979195 18.266,12.772 L12.673,9.546 Z" id="Path"></path>
                <polygon id="Path" points="32.567 9.255 30.952 10.19 21.252 4.59 22.867 3.655"></polygon>
                <path d="M24.89,2.493 L26.942,1.309 C27.8984759,0.713696298 28.9564825,0.299782145 30.063,0.088 C31.1575281,-0.0642678676 32.2708416,-0.0113659755 33.346,0.244 C34.4173296,0.479005524 35.4458354,0.878399052 36.395,1.428 C37.4812513,1.9406903 38.3501953,2.82239209 38.847,3.916 C39.0977129,4.70734121 38.765136,5.56663661 38.047,5.983 C37.5149217,6.37514409 36.9580986,6.732553 36.38,7.053 L34.58,8.092 L24.89,2.493 Z M34.613,6.238 L35.351,5.812 C35.6997501,5.62485661 36.0270229,5.40019185 36.327,5.142 C36.7064065,4.85477487 36.7943229,4.32068264 36.527,3.927 C36.0704328,3.26690139 35.4561619,2.7313479 34.74,2.369 C33.9740954,1.91803706 33.1387948,1.59702751 32.268,1.419 C31.4631707,1.24092911 30.6244507,1.29326247 29.848,1.57 C29.3640693,1.77173935 28.8960709,2.00974996 28.448,2.282 L28.1,2.482 L34.613,6.238 Z" id="Shape"></path>
            </g>
        </g>
    </g>
</svg>