<svg xmlns="http://www.w3.org/2000/svg" width="248.816" height="48" viewBox="0 0 248.816 48"><g transform="translate(-864 -5632)"><g transform="translate(864 5632)"><path d="M410.3,144.053a1.427,1.427,0,0,0-1.423-1.423H385.448a1.427,1.427,0,0,0-1.423,1.423v2.007a1.458,1.458,0,0,0,1.423,1.458l14.731,0c.983,0,.934.435.934,1.585v.245c0,1.143.051,1.389-.928,1.389H370.2a1.419,1.419,0,0,1-1.414-1.424v-8.671a1.419,1.419,0,0,1,1.414-1.424h38.677a1.426,1.426,0,0,0,1.423-1.423v-3.2a1.426,1.426,0,0,0-1.423-1.423h-47.59a1.424,1.424,0,0,0-1.424,1.423v21.151a1.424,1.424,0,0,0,1.424,1.424h47.59a1.427,1.427,0,0,0,1.423-1.424V143.81" transform="translate(-161.761 -133.175)"/><path d="M339.3,149.9a3.448,3.448,0,0,1-1.916.835h-6.038a3.442,3.442,0,0,1-1.912-.835l-11.63-7.356c-.662-.422-1.208-.124-1.208.66v12.546a1.426,1.426,0,0,1-1.425,1.423H309.1a1.43,1.43,0,0,1-1.429-1.423V134.6a1.431,1.431,0,0,1,1.429-1.423h6.5a3.337,3.337,0,0,1,1.914.759l15.856,10.272a1.689,1.689,0,0,0,1.973-.009L351.2,133.936a3.346,3.346,0,0,1,1.915-.759h6.5a1.426,1.426,0,0,1,1.423,1.423v21.151a1.426,1.426,0,0,1-1.423,1.423h-6.075a1.428,1.428,0,0,1-1.425-1.423V143.205c0-.784-.547-1.082-1.208-.66l-11.572,7.329Z" transform="translate(-167.352 -133.175)"/><path d="M276.736,139.234a1.411,1.411,0,0,0-1.028.64l-3.749,4.848c-.269.351-.085.635.31.635h27.057c.852,0,.923-.331.93-1.175v-3.361c0-1.157.049-1.588-.93-1.588Zm-15.756,17.941h-7.854a.676.676,0,0,1-.567-1.072l16.974-21.98a2.173,2.173,0,0,1,1.571-.949h36.487a1.639,1.639,0,0,1,1.585,1.795v20.783a1.427,1.427,0,0,1-1.424,1.423h-6.075a1.428,1.428,0,0,1-1.423-1.423v-3.018c-.007-.848-.078-1.178-.93-1.178H267.382a1.937,1.937,0,0,0-1.423.928l-.094.118-2.437,3.154a3.227,3.227,0,0,1-2.243,1.418Z" transform="translate(-173.266 -133.175)"/><path d="M246.048,157.175a3.216,3.216,0,0,0,2.242-1.418L264.63,134.6c.607-.788.316-1.428-.467-1.428H260.9a2.177,2.177,0,0,0-1.57.949L242.357,156.1a.674.674,0,0,0,.566,1.072Z" transform="translate(-174.359 -133.175)"/><path d="M235.887,157.175a3.216,3.216,0,0,0,2.242-1.418L254.468,134.6c.608-.788.317-1.428-.466-1.428h-4.641a2.167,2.167,0,0,0-1.567.949L230.817,156.1a.677.677,0,0,0,.566,1.072Z" transform="translate(-175.595 -133.175)"/><path d="M218.63,157.175a.674.674,0,0,1-.566-1.072l16.97-21.98a2.183,2.183,0,0,1,1.572-.949h6.778c.782,0,1.074.64.468,1.428l-16.338,21.154a3.226,3.226,0,0,1-2.245,1.418Z" transform="translate(-176.962 -133.175)"/><path d="M204.624,157.175a.674.674,0,0,1-.566-1.072l16.97-21.98a2.175,2.175,0,0,1,1.574-.949h9.084c.783,0,1.069.64.467,1.428l-16.34,21.154a3.222,3.222,0,0,1-2.246,1.418Z" transform="translate(-178.462 -133.175)"/><path d="M181.6,157.175a.676.676,0,0,1-.566-1.072l16.972-21.98a2.183,2.183,0,0,1,1.572-.949h19.91c.784,0,1.074.64.466,1.428l-16.337,21.154a3.226,3.226,0,0,1-2.246,1.418Z" transform="translate(-180.927 -133.175)"/></g><g transform="translate(0 -0.391)"><path d="M252.481,167.417h2.034a14.012,14.012,0,0,1,2,.118,3.894,3.894,0,0,1,2.576,1.505,5.925,5.925,0,0,1-.022,6.828,3.843,3.843,0,0,1-2.7,1.482,17.415,17.415,0,0,1-2.063.088h-1.822Zm1.55,8.688h.808a9.092,9.092,0,0,0,1.4-.084,2.381,2.381,0,0,0,1.712-1.138,4.7,4.7,0,0,0,.61-2.471,4.354,4.354,0,0,0-.675-2.5,2.47,2.47,0,0,0-1.735-1.075,10.81,10.81,0,0,0-1.69-.092h-.433Z" transform="translate(691.519 5502.583)"/><path d="M261.458,167.417h2.159a15.332,15.332,0,0,1,1.9.088,2.983,2.983,0,0,1,1.939.973,2.877,2.877,0,0,1,.647,1.9,2.762,2.762,0,0,1-1.911,2.753l2.47,4.305h-1.831l-2.281-4.042h-1.543v4.042h-1.55Zm1.55,4.648h.7a6.058,6.058,0,0,0,1.821-.183,1.375,1.375,0,0,0,.757-.618,1.763,1.763,0,0,0,.221-.894,1.392,1.392,0,0,0-.787-1.373,2.74,2.74,0,0,0-1.088-.238c-.181-.011-.515-.015-1.005-.015h-.616Z" transform="translate(692.45 5502.583)"/><rect width="1.563" height="10.023" transform="translate(963.507 5670)"/><path d="M273.406,167.417h1.66l2.613,8.244,2.6-8.244h1.63l-3.466,10.052h-1.6Z" transform="translate(693.688 5502.583)"/><rect width="1.563" height="10.023" transform="translate(977.636 5670)"/><path d="M287.466,167.417h1.667l4.421,7.662v-7.662h1.468v10.024h-1.6l-4.48-7.646v7.646h-1.474Z" transform="translate(695.146 5502.583)"/><path d="M300.977,172.377h3.346v4.15a5.968,5.968,0,0,1-3.514,1.115,4.149,4.149,0,0,1-3.139-1.233,4.219,4.219,0,0,1-.989-1.683,7.337,7.337,0,0,1-.354-2.282,5.5,5.5,0,0,1,1.352-3.975,4.245,4.245,0,0,1,4.891-.76,3.183,3.183,0,0,1,1.614,2.736h-1.372a1.983,1.983,0,0,0-2.121-1.844,2.245,2.245,0,0,0-1.888.863,4.7,4.7,0,0,0-.844,2.981,4.615,4.615,0,0,0,.865,2.984,2.4,2.4,0,0,0,1.992.861,4.024,4.024,0,0,0,2.186-.653v-2.041h-2.025Z" transform="translate(696.064 5502.75)"/><path d="M310.579,167.416H312.6a9.8,9.8,0,0,1,2.813.286,2.475,2.475,0,0,1,1.418,1.16,3.326,3.326,0,0,1,.4,1.647,2.887,2.887,0,0,1-.813,2.158,3.227,3.227,0,0,1-2.086.826c-.4.025-.914.04-1.532.04h-.671v3.908h-1.55Zm1.55,4.781h.664a7.776,7.776,0,0,0,1.8-.143,1.359,1.359,0,0,0,.815-.64,1.8,1.8,0,0,0,.221-.9,1.5,1.5,0,0,0-.836-1.521,5.755,5.755,0,0,0-2.021-.243h-.647Z" transform="translate(697.542 5502.584)"/><path d="M320.147,171.583h4.025v1.332h-4.025v3.19h4.515v1.337h-6.067V167.418h5.936v1.328h-4.384Z" transform="translate(698.373 5502.583)"/><path d="M326.532,167.417h2.159a15.285,15.285,0,0,1,1.9.088,3,3,0,0,1,1.944.973,2.886,2.886,0,0,1,.642,1.9,2.761,2.761,0,0,1-1.906,2.753l2.466,4.305H331.91l-2.284-4.042h-1.543v4.042h-1.552Zm1.552,4.648h.7a6.038,6.038,0,0,0,1.821-.183,1.353,1.353,0,0,0,.757-.618,1.763,1.763,0,0,0,.223-.894,1.392,1.392,0,0,0-.787-1.373,2.748,2.748,0,0,0-1.086-.238c-.181-.011-.518-.015-1.01-.015h-.614Z" transform="translate(699.196 5502.583)"/><path d="M336.924,171.583h4.023v1.332h-4.023v4.526H335.37V167.418h5.938v1.328h-4.384Z" transform="translate(700.112 5502.583)"/><path d="M346.59,167.253a3.919,3.919,0,0,1,2.974,1.258,6.421,6.421,0,0,1,0,7.866,4.135,4.135,0,0,1-5.953,0,5.6,5.6,0,0,1-1.345-4.009,7,7,0,0,1,.36-2.211,4.156,4.156,0,0,1,1.792-2.306,4.03,4.03,0,0,1,2.172-.6m0,1.331a2.217,2.217,0,0,0-1.918.973,4.805,4.805,0,0,0-.774,2.834,5.054,5.054,0,0,0,.774,2.946,2.376,2.376,0,0,0,3.828,0,4.939,4.939,0,0,0,.778-2.894,4.823,4.823,0,0,0-.778-2.886,2.229,2.229,0,0,0-1.909-.973" transform="translate(700.827 5502.747)"/><path d="M352.379,167.417h2.159a15.334,15.334,0,0,1,1.9.088,2.977,2.977,0,0,1,1.939.973,2.877,2.877,0,0,1,.647,1.9,2.763,2.763,0,0,1-1.908,2.753l2.468,4.305h-1.829l-2.286-4.042h-1.543v4.042h-1.547Zm1.547,4.648h.7a6.021,6.021,0,0,0,1.819-.183,1.358,1.358,0,0,0,.759-.618,1.763,1.763,0,0,0,.221-.894,1.4,1.4,0,0,0-.787-1.373,2.75,2.75,0,0,0-1.088-.238c-.181-.011-.513-.015-1-.015h-.62Z" transform="translate(701.875 5502.583)"/><path d="M361.356,167.417h2.224l2.472,8.348,2.491-8.348h2.208v10.024h-1.424v-8.319l-2.488,8.319h-1.588l-2.473-8.319v8.319h-1.423Z" transform="translate(702.806 5502.583)"/><path d="M375.326,167.391h1.5l3.434,10.053h-1.611l-.737-2.352H374.26l-.756,2.352h-1.6Zm2.174,6.365-1.418-4.508-1.42,4.508Z" transform="translate(703.9 5502.609)"/><path d="M381.513,167.417h1.667l4.421,7.662v-7.662h1.47v10.024h-1.6l-4.48-7.646v7.646h-1.477Z" transform="translate(704.896 5502.583)"/><path d="M398.367,170.467h-1.374a1.976,1.976,0,0,0-2.063-1.866,2.2,2.2,0,0,0-1.893.979,4.9,4.9,0,0,0-.758,2.875,4.838,4.838,0,0,0,.785,2.9,2.195,2.195,0,0,0,1.88.937q1.935,0,2.16-2.406h1.407a4.834,4.834,0,0,1-.579,2.2A3.126,3.126,0,0,1,395,177.641a3.962,3.962,0,0,1-2.98-1.2,5.454,5.454,0,0,1-1.373-3.964,5.4,5.4,0,0,1,1.534-4.18,3.931,3.931,0,0,1,2.756-1.042,3.726,3.726,0,0,1,1.819.438,3.252,3.252,0,0,1,1.609,2.778" transform="translate(705.843 5502.359)"/><path d="M401.492,171.583h4.025v1.332h-4.025v3.19h4.517v1.337h-6.067V167.418h5.936v1.328h-4.386Z" transform="translate(706.806 5502.583)"/></g></g></svg>