<svg xmlns="http://www.w3.org/2000/svg" width="221.878" height="33" viewBox="0 0 221.878 33"><g transform="translate(-784 -5839.5)"><g transform="translate(392.816 -1248)"><g transform="translate(391.184 7088)"><g transform="translate(0 0)"><path d="M393.487,140.428a.951.951,0,0,0-.948-.948H376.92a.951.951,0,0,0-.948.948v1.338a.972.972,0,0,0,.948.972h9.821c.655,0,.623.29.623,1.057v.163c0,.762.034.926-.619.926H366.753a.946.946,0,0,1-.943-.949v-5.781a.946.946,0,0,1,.943-.949h25.785a.951.951,0,0,0,.948-.948v-2.13a.951.951,0,0,0-.948-.948H360.811a.949.949,0,0,0-.949.948v14.1a.949.949,0,0,0,.949.949h31.727a.951.951,0,0,0,.948-.949v-7.961" transform="translate(-227.794 -133.176)" fill="#fff"/><path d="M328.756,144.326a2.3,2.3,0,0,1-1.278.557h-4.025a2.3,2.3,0,0,1-1.275-.557l-7.754-4.9c-.441-.281-.805-.083-.805.44v8.364a.951.951,0,0,1-.95.948h-4.049a.953.953,0,0,1-.953-.948v-14.1a.954.954,0,0,1,.953-.948h4.334a2.225,2.225,0,0,1,1.276.506l10.571,6.848a1.126,1.126,0,0,0,1.315-.006l10.574-6.842a2.231,2.231,0,0,1,1.277-.506H342.3a.951.951,0,0,1,.948.948v14.1a.951.951,0,0,1-.948.948h-4.05a.952.952,0,0,1-.95-.948v-8.364c0-.523-.365-.721-.805-.44l-7.714,4.886Z" transform="translate(-214.123 -133.176)" fill="#fff"/><path d="M268.64,137.214a.941.941,0,0,0-.686.427l-2.5,3.232c-.179.234-.057.424.207.424H283.7c.568,0,.616-.221.62-.783v-2.241c0-.771.033-1.058-.62-1.058Zm-10.5,11.961H252.9a.451.451,0,0,1-.378-.714l11.316-14.653a1.449,1.449,0,0,1,1.047-.633H289.21a1.093,1.093,0,0,1,1.057,1.2v13.855a.951.951,0,0,1-.949.948h-4.05a.952.952,0,0,1-.948-.948v-2.012c0-.565-.052-.785-.62-.785H262.4a1.291,1.291,0,0,0-.948.619l-.063.079-1.625,2.1a2.151,2.151,0,0,1-1.5.945Z" transform="translate(-199.66 -133.175)" fill="#fff"/><path d="M244.78,149.175a2.144,2.144,0,0,0,1.495-.945l10.893-14.1c.4-.525.21-.952-.311-.952h-2.176a1.452,1.452,0,0,0-1.047.633l-11.315,14.653a.45.45,0,0,0,.377.714Z" transform="translate(-196.987 -133.175)" fill="#fff"/><path d="M234.16,149.175a2.144,2.144,0,0,0,1.495-.945l10.893-14.1c.405-.525.211-.952-.311-.952h-3.094a1.445,1.445,0,0,0-1.044.633L230.78,148.461a.451.451,0,0,0,.377.714Z" transform="translate(-193.965 -133.175)" fill="#fff"/><path d="M218.4,149.175a.449.449,0,0,1-.377-.714l11.313-14.653a1.456,1.456,0,0,1,1.048-.633h4.519c.521,0,.716.427.312.952l-10.892,14.1a2.151,2.151,0,0,1-1.5.945Z" transform="translate(-190.624 -133.175)" fill="#fff"/><path d="M204.4,149.175a.449.449,0,0,1-.377-.714l11.313-14.653a1.45,1.45,0,0,1,1.05-.633h6.056c.522,0,.713.427.311.952l-10.893,14.1a2.148,2.148,0,0,1-1.5.945Z" transform="translate(-186.956 -133.175)" fill="#fff"/><path d="M181.378,149.175a.451.451,0,0,1-.377-.714l11.315-14.653a1.456,1.456,0,0,1,1.048-.633h13.274c.523,0,.716.427.311.952l-10.891,14.1a2.151,2.151,0,0,1-1.5.945Z" transform="translate(-180.927 -133.175)" fill="#fff"/></g><g transform="translate(53.373 24.813)"><path d="M252.481,167.417h1.357a9.356,9.356,0,0,1,1.333.079,2.6,2.6,0,0,1,1.719,1,3.947,3.947,0,0,1-.015,4.552,2.565,2.565,0,0,1-1.8.988,11.626,11.626,0,0,1-1.376.059h-1.216Zm1.034,5.792h.539a6.07,6.07,0,0,0,.936-.056,1.588,1.588,0,0,0,1.142-.759,3.132,3.132,0,0,0,.407-1.647,2.9,2.9,0,0,0-.451-1.667,1.648,1.648,0,0,0-1.157-.717,7.217,7.217,0,0,0-1.127-.061h-.289Z" transform="translate(-252.481 -167.157)" fill="#fff"/><path d="M261.458,167.417h1.44a10.237,10.237,0,0,1,1.268.059,1.99,1.99,0,0,1,1.294.649,1.917,1.917,0,0,1,.431,1.269,1.842,1.842,0,0,1-1.275,1.835l1.648,2.87h-1.222l-1.522-2.694h-1.029V174.1h-1.034Zm1.034,3.1h.465a4.045,4.045,0,0,0,1.215-.122.917.917,0,0,0,.505-.412,1.175,1.175,0,0,0,.147-.6.928.928,0,0,0-.525-.915,1.829,1.829,0,0,0-.726-.159c-.121-.007-.344-.01-.671-.01h-.411Z" transform="translate(-254.848 -167.157)" fill="#fff"/><rect width="1.043" height="6.682" transform="translate(13.014 0.26)" fill="#fff"/><path d="M273.406,167.417h1.107l1.744,5.5,1.736-5.5h1.088l-2.312,6.7H275.7Z" transform="translate(-257.998 -167.157)" fill="#fff"/><rect width="1.043" height="6.682" transform="translate(22.44 0.26)" fill="#fff"/><path d="M287.466,167.417h1.112l2.95,5.108v-5.108h.979V174.1h-1.068L288.45,169v5.1h-.984Z" transform="translate(-261.706 -167.157)" fill="#fff"/><path d="M299.429,170.668h2.233v2.767a3.984,3.984,0,0,1-2.345.743,2.769,2.769,0,0,1-2.094-.822,2.813,2.813,0,0,1-.66-1.122,4.889,4.889,0,0,1-.236-1.522,3.663,3.663,0,0,1,.9-2.65,2.834,2.834,0,0,1,3.263-.507,2.122,2.122,0,0,1,1.077,1.824h-.915a1.323,1.323,0,0,0-1.415-1.229,1.5,1.5,0,0,0-1.26.575,3.132,3.132,0,0,0-.563,1.987,3.075,3.075,0,0,0,.577,1.99,1.6,1.6,0,0,0,1.329.574,2.686,2.686,0,0,0,1.459-.436v-1.36h-1.351Z" transform="translate(-264.042 -166.99)" fill="#fff"/><path d="M310.579,167.416h1.347a6.543,6.543,0,0,1,1.877.191,1.651,1.651,0,0,1,.946.773,2.216,2.216,0,0,1,.268,1.1,1.924,1.924,0,0,1-.543,1.438,2.154,2.154,0,0,1-1.392.55c-.269.017-.61.026-1.022.026h-.448V174.1h-1.034Zm1.034,3.187h.443a5.191,5.191,0,0,0,1.2-.1.907.907,0,0,0,.543-.427,1.2,1.2,0,0,0,.147-.6,1,1,0,0,0-.557-1.014,3.842,3.842,0,0,0-1.348-.162h-.432Z" transform="translate(-267.8 -167.156)" fill="#fff"/><path d="M319.63,170.194h2.685v.888H319.63v2.126h3.012v.891h-4.048v-6.682h3.96v.885H319.63Z" transform="translate(-269.914 -167.157)" fill="#fff"/><path d="M326.532,167.417h1.44a10.206,10.206,0,0,1,1.268.059,2,2,0,0,1,1.3.649,1.923,1.923,0,0,1,.429,1.269,1.841,1.841,0,0,1-1.272,1.835l1.645,2.87H330.12L328.6,171.4h-1.029V174.1h-1.035Zm1.035,3.1h.464a4.031,4.031,0,0,0,1.215-.122.9.9,0,0,0,.505-.412,1.175,1.175,0,0,0,.149-.6.928.928,0,0,0-.525-.915,1.834,1.834,0,0,0-.725-.159c-.121-.007-.345-.01-.674-.01h-.409Z" transform="translate(-272.006 -167.157)" fill="#fff"/><path d="M336.407,170.194h2.684v.888h-2.684V174.1H335.37v-6.682h3.961v.885h-2.925Z" transform="translate(-274.337 -167.157)" fill="#fff"/><path d="M345.151,167.253a2.615,2.615,0,0,1,1.984.839,4.278,4.278,0,0,1,0,5.244,2.76,2.76,0,0,1-3.972,0,3.73,3.73,0,0,1-.9-2.672,4.664,4.664,0,0,1,.24-1.474,2.771,2.771,0,0,1,1.2-1.537,2.69,2.69,0,0,1,1.449-.4m0,.887a1.48,1.48,0,0,0-1.28.649,3.2,3.2,0,0,0-.516,1.889,3.367,3.367,0,0,0,.516,1.964,1.586,1.586,0,0,0,2.554,0,3.291,3.291,0,0,0,.519-1.929,3.214,3.214,0,0,0-.519-1.924,1.487,1.487,0,0,0-1.274-.649" transform="translate(-276.155 -166.993)" fill="#fff"/><path d="M352.379,167.417h1.44a10.239,10.239,0,0,1,1.268.059,1.987,1.987,0,0,1,1.294.649,1.917,1.917,0,0,1,.431,1.269,1.842,1.842,0,0,1-1.273,1.835l1.646,2.87h-1.22l-1.525-2.694h-1.029V174.1h-1.032Zm1.032,3.1h.467a4.02,4.02,0,0,0,1.213-.122.906.906,0,0,0,.507-.412,1.175,1.175,0,0,0,.147-.6.93.93,0,0,0-.525-.915,1.836,1.836,0,0,0-.726-.159c-.121-.007-.342-.01-.669-.01h-.414Z" transform="translate(-278.822 -167.157)" fill="#fff"/><path d="M361.356,167.417h1.484l1.649,5.565,1.662-5.565h1.473V174.1h-.95v-5.546l-1.66,5.546h-1.06l-1.65-5.546V174.1h-.949Z" transform="translate(-281.189 -167.157)" fill="#fff"/><path d="M374.188,167.391h1l2.291,6.7h-1.075l-.492-1.568h-2.437l-.5,1.568h-1.065Zm1.451,4.243-.946-3.006-.948,3.006Z" transform="translate(-283.971 -167.131)" fill="#fff"/><path d="M381.513,167.417h1.112l2.95,5.108v-5.108h.981V174.1h-1.068L382.5,169v5.1h-.985Z" transform="translate(-286.503 -167.157)" fill="#fff"/><path d="M395.8,169.4h-.917a1.318,1.318,0,0,0-1.376-1.244,1.469,1.469,0,0,0-1.263.653,3.262,3.262,0,0,0-.506,1.917,3.224,3.224,0,0,0,.523,1.931,1.465,1.465,0,0,0,1.254.625q1.291,0,1.441-1.6h.939a3.221,3.221,0,0,1-.387,1.467,2.086,2.086,0,0,1-1.954,1.039,2.644,2.644,0,0,1-1.988-.8,3.634,3.634,0,0,1-.916-2.643,3.6,3.6,0,0,1,1.023-2.786,2.624,2.624,0,0,1,1.839-.695,2.488,2.488,0,0,1,1.213.292A2.167,2.167,0,0,1,395.8,169.4" transform="translate(-288.913 -167.251)" fill="#fff"/><path d="M400.977,170.194h2.685v.888h-2.685v2.126h3.014v.891h-4.048v-6.682h3.96v.885h-2.926Z" transform="translate(-291.363 -167.157)" fill="#fff"/></g></g></g><g transform="translate(-534.122 6624) rotate(-90)"><line x1="32" transform="translate(752 1500)" fill="none" stroke="#009bd5" stroke-width="1"/><line y2="8" transform="translate(752 1496)" fill="none" stroke="#009bd5" stroke-linecap="round" stroke-width="1"/><line y2="8" transform="translate(784 1496)" fill="none" stroke="#009bd5" stroke-linecap="round" stroke-width="1"/></g><text transform="translate(977.878 5860)" fill="#009bd5" font-size="12" font-family="CorporateS-Bold, CorpoS" font-weight="700"><tspan x="0" y="0">32PX</tspan></text></g></svg>