<svg xmlns="http://www.w3.org/2000/svg" width="134.627" height="14" viewBox="0 0 134.627 14"><g transform="translate(-280 -5845)"><g transform="translate(-1120 6608) rotate(-90)"><line x1="8" transform="translate(752 1500)" fill="none" stroke="#009bd5" stroke-width="1"/><line y2="8" transform="translate(752 1496)" fill="none" stroke="#009bd5" stroke-linecap="round" stroke-width="1"/><line y2="8" transform="translate(760 1496)" fill="none" stroke="#009bd5" stroke-linecap="round" stroke-width="1"/></g><text transform="translate(393.627 5856)" fill="#009bd5" font-size="12" font-family="CorporateS-Bold, CorpoS" font-weight="700"><tspan x="0" y="0">8PX</tspan></text><g transform="translate(280 5848)"><path d="M-187.186,166.417a.474.474,0,0,0-.472-.475h-7.777a.475.475,0,0,0-.472.475v.668a.485.485,0,0,0,.472.486h4.891c.326,0,.31.144.31.528v.082c0,.381.018.463-.307.463H-200.5a.472.472,0,0,1-.469-.474v-2.891a.471.471,0,0,1,.469-.474h12.839a.474.474,0,0,0,.472-.475v-1.065a.474.474,0,0,0-.472-.475h-15.8a.474.474,0,0,0-.472.475v7.051a.474.474,0,0,0,.472.475h15.8a.474.474,0,0,0,.472-.475v-3.981" transform="translate(267.5 -162.791)" fill="#fff"/><path d="M-253.976,168.367a1.14,1.14,0,0,1-.635.278h-2a1.139,1.139,0,0,1-.636-.278l-3.86-2.452c-.22-.14-.4-.041-.4.22v4.182a.475.475,0,0,1-.473.474H-264a.475.475,0,0,1-.472-.474v-7.051a.474.474,0,0,1,.472-.474h2.16a1.108,1.108,0,0,1,.635.254l5.263,3.424a.561.561,0,0,0,.655,0l5.265-3.42a1.107,1.107,0,0,1,.635-.254h2.159a.474.474,0,0,1,.473.474v7.051a.475.475,0,0,1-.473.474h-2.017a.475.475,0,0,1-.472-.474v-4.182c0-.261-.182-.36-.4-.22l-3.842,2.443Z" transform="translate(308.865 -162.792)" fill="#fff"/><path d="M-325.707,170.792h-2.607a.226.226,0,0,1-.188-.358l5.634-7.325a.72.72,0,0,1,.522-.316h12.111a.545.545,0,0,1,.527.6v6.928a.475.475,0,0,1-.473.475H-312.2a.475.475,0,0,1-.472-.474v-1.006c0-.282-.025-.392-.309-.392h-10.6a.642.642,0,0,0-.472.31l-.033.04-.807,1.05a1.071,1.071,0,0,1-.746.473Zm5.23-5.981a.468.468,0,0,0-.34.213l-1.244,1.617c-.09.117-.029.213.1.213h8.981c.284,0,.308-.109.309-.392V165.34c0-.383.016-.528-.309-.528Z" transform="translate(352.634 -162.792)" fill="#fff"/><path d="M-338.287,170.791a1.068,1.068,0,0,0,.745-.473l5.423-7.051c.2-.262.106-.476-.155-.476h-1.083a.721.721,0,0,0-.522.317l-5.634,7.324a.226.226,0,0,0,.188.358Z" transform="translate(360.156 -162.791)" fill="#fff"/><path d="M-349.384,170.791a1.069,1.069,0,0,0,.745-.473l5.424-7.051c.2-.262.105-.476-.155-.476h-1.54a.721.721,0,0,0-.522.317l-5.634,7.324a.226.226,0,0,0,.188.358Z" transform="translate(368.05 -162.791)" fill="#fff"/><path d="M-363.855,170.791a.226.226,0,0,1-.188-.358l5.634-7.324a.721.721,0,0,1,.522-.317h2.25c.261,0,.357.213.155.476l-5.423,7.051a1.068,1.068,0,0,1-.745.473Z" transform="translate(376.915 -162.791)" fill="#fff"/><path d="M-378.759,170.791a.226.226,0,0,1-.188-.358l5.634-7.324a.721.721,0,0,1,.522-.317h3.015c.261,0,.357.213.156.476l-5.423,7.051a1.07,1.07,0,0,1-.745.473Z" transform="translate(387.098 -162.791)" fill="#fff"/><path d="M-404.372,170.791a.226.226,0,0,1-.188-.358l5.634-7.324a.721.721,0,0,1,.522-.317h6.609c.261,0,.357.213.155.476l-5.424,7.051a1.067,1.067,0,0,1-.745.473Z" transform="translate(404.597 -162.791)" fill="#fff"/></g></g></svg>