<svg xmlns="http://www.w3.org/2000/svg" width="296" height="72" viewBox="0 0 296 72"><g transform="translate(-952 -5424)"><g transform="translate(952 5424)" fill="none" stroke="#00b1f2" stroke-width="1" stroke-dasharray="2 2"><rect width="296" height="72" stroke="none"/><rect x="0.5" y="0.5" width="295" height="71" fill="none"/></g><g transform="translate(112 -184)"><g transform="translate(864 5632)"><path d="M410.3,144.053a1.427,1.427,0,0,0-1.423-1.423H385.448a1.427,1.427,0,0,0-1.423,1.423v2.007a1.458,1.458,0,0,0,1.423,1.458l14.731,0c.983,0,.934.435.934,1.585v.245c0,1.143.051,1.389-.928,1.389H370.2a1.419,1.419,0,0,1-1.414-1.424v-8.671a1.419,1.419,0,0,1,1.414-1.424h38.677a1.426,1.426,0,0,0,1.423-1.423v-3.2a1.426,1.426,0,0,0-1.423-1.423h-47.59a1.424,1.424,0,0,0-1.424,1.423v21.151a1.424,1.424,0,0,0,1.424,1.424h47.59a1.427,1.427,0,0,0,1.423-1.424V143.81" transform="translate(-161.761 -133.175)"/><path d="M339.3,149.9a3.448,3.448,0,0,1-1.916.835h-6.038a3.442,3.442,0,0,1-1.912-.835l-11.63-7.356c-.662-.422-1.208-.124-1.208.66v12.546a1.426,1.426,0,0,1-1.425,1.423H309.1a1.43,1.43,0,0,1-1.429-1.423V134.6a1.431,1.431,0,0,1,1.429-1.423h6.5a3.337,3.337,0,0,1,1.914.759l15.856,10.272a1.689,1.689,0,0,0,1.973-.009L351.2,133.936a3.346,3.346,0,0,1,1.915-.759h6.5a1.426,1.426,0,0,1,1.423,1.423v21.151a1.426,1.426,0,0,1-1.423,1.423h-6.075a1.428,1.428,0,0,1-1.425-1.423V143.205c0-.784-.547-1.082-1.208-.66l-11.572,7.329Z" transform="translate(-167.352 -133.175)"/><path d="M276.736,139.234a1.411,1.411,0,0,0-1.028.64l-3.749,4.848c-.269.351-.085.635.31.635h27.057c.852,0,.923-.331.93-1.175v-3.361c0-1.157.049-1.588-.93-1.588Zm-15.756,17.941h-7.854a.676.676,0,0,1-.567-1.072l16.974-21.98a2.173,2.173,0,0,1,1.571-.949h36.487a1.639,1.639,0,0,1,1.585,1.795v20.783a1.427,1.427,0,0,1-1.424,1.423h-6.075a1.428,1.428,0,0,1-1.423-1.423v-3.018c-.007-.848-.078-1.178-.93-1.178H267.382a1.937,1.937,0,0,0-1.423.928l-.094.118-2.437,3.154a3.227,3.227,0,0,1-2.243,1.418Z" transform="translate(-173.266 -133.175)"/><path d="M246.048,157.175a3.216,3.216,0,0,0,2.242-1.418L264.63,134.6c.607-.788.316-1.428-.467-1.428H260.9a2.177,2.177,0,0,0-1.57.949L242.357,156.1a.674.674,0,0,0,.566,1.072Z" transform="translate(-174.359 -133.175)"/><path d="M235.887,157.175a3.216,3.216,0,0,0,2.242-1.418L254.468,134.6c.608-.788.317-1.428-.466-1.428h-4.641a2.167,2.167,0,0,0-1.567.949L230.817,156.1a.677.677,0,0,0,.566,1.072Z" transform="translate(-175.595 -133.175)"/><path d="M218.63,157.175a.674.674,0,0,1-.566-1.072l16.97-21.98a2.183,2.183,0,0,1,1.572-.949h6.778c.782,0,1.074.64.468,1.428l-16.338,21.154a3.226,3.226,0,0,1-2.245,1.418Z" transform="translate(-176.962 -133.175)"/><path d="M204.624,157.175a.674.674,0,0,1-.566-1.072l16.97-21.98a2.175,2.175,0,0,1,1.574-.949h9.084c.783,0,1.069.64.467,1.428l-16.34,21.154a3.222,3.222,0,0,1-2.246,1.418Z" transform="translate(-178.462 -133.175)"/><path d="M181.6,157.175a.676.676,0,0,1-.566-1.072l16.972-21.98a2.183,2.183,0,0,1,1.572-.949h19.91c.784,0,1.074.64.466,1.428l-16.337,21.154a3.226,3.226,0,0,1-2.246,1.418Z" transform="translate(-180.927 -133.175)"/></g></g><text transform="translate(1233 5464)" fill="#009bd5" font-size="12" font-family="CorporateS-Bold, CorpoS" font-weight="700"><tspan x="0" y="0">Y</tspan></text><line x2="256" transform="translate(992 5448)" fill="none" stroke="#009bd5" stroke-width="1" stroke-dasharray="2 2"/><line x2="272" transform="translate(976 5472)" fill="none" stroke="#009bd5" stroke-width="1" stroke-dasharray="2 2"/><g transform="translate(584 -1048)"><rect width="24" height="24" transform="translate(640 6520)" fill="rgba(0,155,213,0.6)"/><text transform="translate(649 6536)" fill="#fff" font-size="12" font-family="CorporateS-Bold, CorpoS" font-weight="700"><tspan x="0" y="0">Y</tspan></text></g><g transform="translate(312 -1048)"><rect width="24" height="24" transform="translate(640 6520)" fill="rgba(0,155,213,0.6)"/><text transform="translate(649 6536)" fill="#fff" font-size="12" font-family="CorporateS-Bold, CorpoS" font-weight="700"><tspan x="0" y="0">Y</tspan></text></g><g transform="translate(312 -1096)"><rect width="24" height="24" transform="translate(640 6520)" fill="rgba(0,155,213,0.6)"/><text transform="translate(649 6536)" fill="#fff" font-size="12" font-family="CorporateS-Bold, CorpoS" font-weight="700"><tspan x="0" y="0">Y</tspan></text></g><g transform="translate(584 -1024)"><rect width="24" height="24" transform="translate(640 6448)" fill="rgba(0,155,213,0.6)"/><text transform="translate(649 6464)" fill="#fff" font-size="12" font-family="CorporateS-Bold, CorpoS" font-weight="700"><tspan x="0" y="0">Y</tspan></text></g></g></svg>