<?xml version="1.0" encoding="UTF-8"?>
<svg width="904px" height="192px" viewBox="0 0 904 192" version="1.1" xmlns="http://www.w3.org/2000/svg" xmlns:xlink="http://www.w3.org/1999/xlink">
    <!-- Generator: Sketch 62 (91390) - https://sketch.com -->
    <title>colors</title>
    <desc>Created with Sketch.</desc>
    <g id="Page-1" stroke="none" stroke-width="1" fill="none" fill-rule="evenodd">
        <g id="colors">
            <g id="Group" fill-rule="nonzero">
                <rect id="Rectangle" fill="#000000" x="0" y="0" width="92.726" height="96"></rect>
                <rect id="Rectangle" fill="#1C1C1C" x="92.9" y="0" width="92.726" height="96"></rect>
                <rect id="Rectangle" fill="#393939" x="180.459" y="0" width="92.726" height="96"></rect>
                <rect id="Rectangle" fill="#555555" x="270.334" y="0" width="92.726" height="96"></rect>
                <rect id="Rectangle" fill="#717171" x="360.562" y="0" width="92.726" height="96"></rect>
                <rect id="Rectangle" fill="#8E8E8E" x="450.793" y="0" width="92.726" height="96"></rect>
                <rect id="Rectangle" fill="#AAAAAA" x="541.02" y="0" width="92.726" height="96"></rect>
                <rect id="Rectangle" fill="#C6C6C6" x="630.896" y="0" width="92.726" height="96"></rect>
                <rect id="Rectangle" fill="#E3E3E3" x="718.457" y="0" width="92.726" height="96"></rect>
                <rect id="Rectangle" fill="#F1F1F1" x="811" y="0" width="92.726" height="96"></rect>
            </g>
            <g id="Group" transform="translate(0.000000, 96.000000)" fill-rule="nonzero">
                <rect id="Rectangle" fill="#176DB7" x="0" y="0" width="92.726" height="96"></rect>
                <rect id="Rectangle" fill="#317DBF" x="92.9" y="0" width="92.726" height="96"></rect>
                <rect id="Rectangle" fill="#4B8DC7" x="180.459" y="0" width="92.726" height="96"></rect>
                <rect id="Rectangle" fill="#649ECF" x="270.334" y="0" width="92.726" height="96"></rect>
                <rect id="Rectangle" fill="#7EAED7" x="360.562" y="0" width="92.726" height="96"></rect>
                <rect id="Rectangle" fill="#98BEDF" x="450.793" y="0" width="92.726" height="96"></rect>
                <rect id="Rectangle" fill="#B2CEE7" x="541.02" y="0" width="92.726" height="96"></rect>
                <rect id="Rectangle" fill="#CBDFEF" x="630.896" y="0" width="92.726" height="96"></rect>
                <rect id="Rectangle" fill="#E5EFF7" x="718.457" y="0" width="92.726" height="96"></rect>
                <rect id="Rectangle" fill="#F2F7FB" x="811" y="0" width="92.726" height="96"></rect>
            </g>
            <g id="Group" transform="translate(29.000000, 38.000000)" font-family="CorporateS-Regular, CorpoS" font-weight="normal">
                <g transform="translate(817.000000, 1.000000)" fill="#000000" font-size="15" id="10%">
                    <text>
                        <tspan x="0" y="14">10%</tspan>
                    </text>
                </g>
                <g fill="#FFFFFF" font-size="16" id="100%">
                    <text>
                        <tspan x="0" y="15">100%</tspan>
                    </text>
                </g>
            </g>
            <g id="Group" transform="translate(29.000000, 135.000000)" font-family="CorporateS-Regular, CorpoS" font-weight="normal">
                <g transform="translate(817.000000, 1.000000)" fill="#000000" font-size="15" id="10%">
                    <text>
                        <tspan x="0" y="14">10%</tspan>
                    </text>
                </g>
                <g fill="#FFFFFF" font-size="16" id="100%">
                    <text>
                        <tspan x="0" y="15">100%</tspan>
                    </text>
                </g>
            </g>
        </g>
    </g>
</svg>