<svg xmlns="http://www.w3.org/2000/svg" width="834.504" height="501.869" viewBox="0 0 834.504 501.869"><g transform="translate(-303 -176)"><path d="M4215.356,4428.44a.237.237,0,1,1,.237.237A.237.237,0,0,1,4215.356,4428.44Z" transform="translate(-3870.137 -3920.678)" fill="#fff" opacity="0"/><path d="M4031.031,3936.689v423.954a21.747,21.747,0,0,0,21.723,21.723h678.276a21.746,21.746,0,0,0,21.719-21.723V3936.689a21.746,21.746,0,0,0-21.719-21.723H4052.754A21.747,21.747,0,0,0,4031.031,3936.689Z" transform="translate(-3672.18 -3738.966)" opacity="0.15"/><path d="M1888.566,4947.416c0,19.5,15.81,24.333,35.313,24.333h763.878c19.5,0,35.313-4.831,35.313-24.333Zm459.9,17.657h-85.3a8.432,8.432,0,0,1-8.432-8.432H2356.9A8.431,8.431,0,0,1,2348.469,4965.073Z" transform="translate(-1585.566 -4293.881)" fill="#111" opacity="0.15"/><path d="M3.344,0A3.344,3.344,0,1,1,0,3.344,3.344,3.344,0,0,1,3.344,0Z" transform="translate(716.907 181.507)" fill="#fff"/><rect width="687.428" height="429.643" transform="translate(376.079 195.138)" fill="#fff"/><rect width="38" height="344" transform="translate(428 241.533)" fill="aqua"/><rect width="37" height="344" transform="translate(479 241.533)" fill="aqua"/><rect width="39" height="344" transform="translate(527 241.533)" fill="aqua"/><rect width="38" height="344" transform="translate(578 241.533)" fill="aqua"/><rect width="37" height="344" transform="translate(627 241.533)" fill="aqua"/><rect width="37" height="344" transform="translate(677 241.533)" fill="aqua"/><rect width="39" height="344" transform="translate(725 241.533)" fill="aqua"/><rect width="39" height="344" transform="translate(776 241.533)" fill="aqua"/><rect width="37" height="344" transform="translate(826 241.533)" fill="aqua"/><rect width="38" height="344" transform="translate(875 241.533)" fill="aqua"/><rect width="39" height="344" transform="translate(924 241.533)" fill="aqua"/><rect width="39" height="344" transform="translate(974 241.533)" fill="aqua"/><g transform="translate(466.503 590.844)"><line x2="10.98" transform="translate(0 1.91)" fill="none" stroke="#707070" stroke-width="1"/><line y2="3.819" transform="translate(0 0)" fill="none" stroke="#707070" stroke-width="1"/><line y2="3.819" transform="translate(10.98 0)" fill="none" stroke="#707070" stroke-width="1"/></g><g transform="translate(516.151 590.844)"><line x2="10.98" transform="translate(0 1.91)" fill="none" stroke="#707070" stroke-width="1"/><line y2="3.819" transform="translate(0 0)" fill="none" stroke="#707070" stroke-width="1"/><line y2="3.819" transform="translate(10.98 0)" fill="none" stroke="#707070" stroke-width="1"/></g><g transform="translate(565.797 590.844)"><line x2="10.98" transform="translate(0 1.91)" fill="none" stroke="#707070" stroke-width="1"/><line y2="3.819" transform="translate(0 0)" fill="none" stroke="#707070" stroke-width="1"/><line y2="3.819" transform="translate(10.98 0)" fill="none" stroke="#707070" stroke-width="1"/></g><g transform="translate(615.445 590.844)"><line x2="10.98" transform="translate(0 1.91)" fill="none" stroke="#707070" stroke-width="1"/><line y2="3.819" transform="translate(0 0)" fill="none" stroke="#707070" stroke-width="1"/><line y2="3.819" transform="translate(10.98 0)" fill="none" stroke="#707070" stroke-width="1"/></g><g transform="translate(665.094 590.844)"><line x2="10.98" transform="translate(0 1.91)" fill="none" stroke="#707070" stroke-width="1"/><line y2="3.819" transform="translate(0 0)" fill="none" stroke="#707070" stroke-width="1"/><line y2="3.819" transform="translate(10.98 0)" fill="none" stroke="#707070" stroke-width="1"/></g><g transform="translate(713.741 590.844)"><line x2="10.98" transform="translate(0 1.91)" fill="none" stroke="#707070" stroke-width="1"/><line y2="3.819" transform="translate(0 0)" fill="none" stroke="#707070" stroke-width="1"/><line y2="3.819" transform="translate(10.98 0)" fill="none" stroke="#707070" stroke-width="1"/></g><g transform="translate(764.389 590.844)"><line x2="10.98" transform="translate(0 1.91)" fill="none" stroke="#707070" stroke-width="1"/><line y2="3.819" transform="translate(0 0)" fill="none" stroke="#707070" stroke-width="1"/><line y2="3.819" transform="translate(10.98 0)" fill="none" stroke="#707070" stroke-width="1"/></g><g transform="translate(815.036 590.844)"><line x2="10.98" transform="translate(0 1.91)" fill="none" stroke="#707070" stroke-width="1"/><line y2="3.819" transform="translate(0 0)" fill="none" stroke="#707070" stroke-width="1"/><line y2="3.819" transform="translate(10.98 0)" fill="none" stroke="#707070" stroke-width="1"/></g><g transform="translate(863.685 590.844)"><line x2="10.98" transform="translate(0 1.91)" fill="none" stroke="#707070" stroke-width="1"/><line y2="3.819" transform="translate(0 0)" fill="none" stroke="#707070" stroke-width="1"/><line y2="3.819" transform="translate(10.98 0)" fill="none" stroke="#707070" stroke-width="1"/></g><g transform="translate(913.331 590.844)"><line x2="10.98" transform="translate(0 1.91)" fill="none" stroke="#707070" stroke-width="1"/><line y2="3.819" transform="translate(0 0)" fill="none" stroke="#707070" stroke-width="1"/><line y2="3.819" transform="translate(10.98 0)" fill="none" stroke="#707070" stroke-width="1"/></g><g transform="translate(962.979 590.844)"><line x2="10.98" transform="translate(0 1.91)" fill="none" stroke="#707070" stroke-width="1"/><line y2="3.819" transform="translate(0 0)" fill="none" stroke="#707070" stroke-width="1"/><line y2="3.819" transform="translate(10.98 0)" fill="none" stroke="#707070" stroke-width="1"/></g><g transform="translate(428.312 232.215)"><line x2="37.713" transform="translate(0 1.91)" fill="none" stroke="#707070" stroke-width="1"/><line y2="3.819" transform="translate(0 0)" fill="none" stroke="#707070" stroke-width="1"/><line y2="3.819" transform="translate(37.713 0)" fill="none" stroke="#707070" stroke-width="1"/></g><g transform="translate(477.96 232.215)"><line x2="37.713" transform="translate(0 1.91)" fill="none" stroke="#707070" stroke-width="1"/><line y2="3.819" transform="translate(0 0)" fill="none" stroke="#707070" stroke-width="1"/><line y2="3.819" transform="translate(37.713 0)" fill="none" stroke="#707070" stroke-width="1"/></g><g transform="translate(527.606 232.215)"><line x2="37.713" transform="translate(0 1.91)" fill="none" stroke="#707070" stroke-width="1"/><line y2="3.819" transform="translate(0 0)" fill="none" stroke="#707070" stroke-width="1"/><line y2="3.819" transform="translate(37.713 0)" fill="none" stroke="#707070" stroke-width="1"/></g><g transform="translate(577.254 232.215)"><line x2="37.713" transform="translate(0 1.91)" fill="none" stroke="#707070" stroke-width="1"/><line y2="3.819" transform="translate(0 0)" fill="none" stroke="#707070" stroke-width="1"/><line y2="3.819" transform="translate(37.713 0)" fill="none" stroke="#707070" stroke-width="1"/></g><g transform="translate(626.903 232.215)"><line x2="37.713" transform="translate(0 1.91)" fill="none" stroke="#707070" stroke-width="1"/><line y2="3.819" transform="translate(0 0)" fill="none" stroke="#707070" stroke-width="1"/><line y2="3.819" transform="translate(37.713 0)" fill="none" stroke="#707070" stroke-width="1"/></g><g transform="translate(676.551 232.215)"><line x2="37.713" transform="translate(0 1.91)" fill="none" stroke="#707070" stroke-width="1"/><line y2="3.819" transform="translate(0 0)" fill="none" stroke="#707070" stroke-width="1"/><line y2="3.819" transform="translate(37.713 0)" fill="none" stroke="#707070" stroke-width="1"/></g><g transform="translate(726.197 232.215)"><line x2="37.713" transform="translate(0 1.91)" fill="none" stroke="#707070" stroke-width="1"/><line y2="3.819" transform="translate(0 0)" fill="none" stroke="#707070" stroke-width="1"/><line y2="3.819" transform="translate(37.713 0)" fill="none" stroke="#707070" stroke-width="1"/></g><g transform="translate(775.846 232.215)"><line x2="37.713" transform="translate(0 1.91)" fill="none" stroke="#707070" stroke-width="1"/><line y2="3.819" transform="translate(0 0)" fill="none" stroke="#707070" stroke-width="1"/><line y2="3.819" transform="translate(37.713 0)" fill="none" stroke="#707070" stroke-width="1"/></g><g transform="translate(825.494 232.215)"><line x2="37.713" transform="translate(0 1.91)" fill="none" stroke="#707070" stroke-width="1"/><line y2="3.819" transform="translate(0 0)" fill="none" stroke="#707070" stroke-width="1"/><line y2="3.819" transform="translate(37.713 0)" fill="none" stroke="#707070" stroke-width="1"/></g><g transform="translate(875.14 232.215)"><line x2="37.713" transform="translate(0 1.91)" fill="none" stroke="#707070" stroke-width="1"/><line y2="3.819" transform="translate(0 0)" fill="none" stroke="#707070" stroke-width="1"/><line y2="3.819" transform="translate(37.713 0)" fill="none" stroke="#707070" stroke-width="1"/></g><line x2="37.713" transform="translate(924.789 234.125)" fill="none" stroke="#707070" stroke-width="1"/><line y2="3.819" transform="translate(924.789 232.215)" fill="none" stroke="#707070" stroke-width="1"/><line y2="3.819" transform="translate(962.501 232.215)" fill="none" stroke="#707070" stroke-width="1"/><g transform="translate(974.437 232.215)"><line x2="37.713" transform="translate(0 1.91)" fill="none" stroke="#707070" stroke-width="1"/><line y2="3.819" transform="translate(0 0)" fill="none" stroke="#707070" stroke-width="1"/><line y2="3.819" transform="translate(37.713 0)" fill="none" stroke="#707070" stroke-width="1"/></g><text transform="translate(442 227.533)" font-size="7" font-family="CorporateS-Bold, CorpoS" font-weight="700" opacity="0.004"><tspan x="0" y="0">64</tspan></text><text transform="translate(441 227.533)" font-size="7" font-family="CorporateS-Bold, CorpoS" font-weight="700" opacity="0"><tspan x="0" y="0">56</tspan></text><text transform="translate(441 226.533)" font-size="12" font-family="Arial-BoldMT, Arial" font-weight="700"><tspan x="0" y="0">80</tspan></text><text transform="translate(465 611.533)" font-size="12" font-family="Arial-BoldMT, Arial" font-weight="700"><tspan x="0" y="0">24</tspan></text><path d="M.239,0A.239.239,0,1,1,0,.239.239.239,0,0,1,.239,0Z" transform="translate(720.23 632.853)" fill="#fff" opacity="0.001"/><path d="M7663.11,4078.155a.239.239,0,1,0-.238-.239A.239.239,0,0,0,7663.11,4078.155Z" transform="translate(-6944.551 -3894.994)" fill="#fff" opacity="0"/><path d="M7684.975,4078.156h4.771a.239.239,0,0,0,0-.478h-4.771a.239.239,0,1,0,0,.478Z" transform="translate(-6966.893 -3893.085)" fill="#fff" opacity="0"/></g></svg>