<?xml version="1.0" encoding="UTF-8"?>
<svg width="97px" height="96px" viewBox="0 0 97 96" version="1.1" xmlns="http://www.w3.org/2000/svg" xmlns:xlink="http://www.w3.org/1999/xlink">
    <!-- Generator: Sketch 62 (91390) - https://sketch.com -->
    <title>DL_white</title>
    <desc>Created with Sketch.</desc>
    <g id="Page-1" stroke="none" stroke-width="1" fill="none" fill-rule="evenodd">
        <g id="DL_white" transform="translate(-16.000000, -16.000000)">
            <g id="Group" transform="translate(16.013000, 16.001000)" fill="#000000" fill-rule="nonzero">
                <path d="M44.632,70.124 C45.3461751,71.2292551 46.559162,71.9115543 47.8745751,71.9479325 C49.1899882,71.9843108 50.4388307,71.3700944 51.213,70.306 L70.64,50.879 C72.1724486,49.3121394 72.1586351,46.8038596 70.6090219,45.2539725 C69.0594088,43.7040854 66.5511315,43.6898284 64.984,45.222 L51.984,58.222 L51.984,4.003 C51.984,1.793861 50.193139,0.003 47.984,0.003 C45.774861,0.003 43.984,1.793861 43.984,4.003 L43.984,58.167 L31.041,45.224 C29.4738685,43.6918284 26.9655912,43.7060854 25.4159781,45.2559725 C23.8663649,46.8058596 23.8525514,49.3141394 25.385,50.881 L44.632,70.124 Z" id="Path"></path>
                <path d="M92,47.999 C89.790861,47.999 88,49.789861 88,51.999 L88,79.999 C88,84.417278 84.418278,87.999 80,87.999 L16,87.999 C11.581722,87.999 8,84.417278 8,79.999 L8,51.999 C8,49.789861 6.209139,47.999 4,47.999 C1.790861,47.999 0,49.789861 0,51.999 L0,79.999 C0,88.835556 7.163444,95.999 16,95.999 L80,95.999 C88.836556,95.999 96,88.835556 96,79.999 L96,51.999 C96,49.789861 94.209139,47.999 92,47.999 Z" id="Path"></path>
            </g>
            <rect id="Rectangle" x="0" y="0" width="128" height="128"></rect>
        </g>
    </g>
</svg>