<svg xmlns="http://www.w3.org/2000/svg" width="124.211" height="56" viewBox="0 0 124.211 56"><g transform="translate(0 0.036)"><path d="M15.737,32.037V23.872H56.561v8.165ZM8.165,27.964a17.859,17.859,0,0,1,5.628-12.775c3.129-3.129,9.183-5.3,18.829-5.3H60.06V1.711H31.585c-10.016,0-18.81,3-23.55,7.739C2.74,14.763,0,20.151,0,27.964s2.74,13.2,8.035,18.514c4.758,4.74,13.534,7.739,23.55,7.739H60.652V46.052H32.622c-9.627,0-15.7-2.166-18.829-5.3A17.966,17.966,0,0,1,8.165,27.964Zm98.976,25.772a27.991,27.991,0,1,1,14.848-14.848l-6.461-6.461A19.807,19.807,0,1,0,100.7,47.274Zm9.276.2,5.776-5.776L99.106,25.076,93.33,30.852Z" transform="translate(0 0)" fill="#00adef"/></g></svg>