<?xml version="1.0" encoding="UTF-8"?>
<svg width="701px" height="406px" viewBox="0 0 701 406" version="1.1" xmlns="http://www.w3.org/2000/svg" xmlns:xlink="http://www.w3.org/1999/xlink">
    <!-- Generator: Sketch 55.2 (78181) - https://sketchapp.com -->
    <title>Group 4843</title>
    <desc>Created with Sketch.</desc>
    <g id="Page-1" stroke="none" stroke-width="1" fill="none" fill-rule="evenodd" opacity="0.3" stroke-linecap="square">
        <g id="Artboard" stroke="#DCDCDC" stroke-width="0.25">
            <g id="Group-4843" transform="translate(0.000000, 1.000000)">
                <path d="M27.0351593,233.39134 L296.82573,389.15554" id="Path"></path>
                <path d="M23.1857694,235.61321 L292.97634,391.37741" id="Path"></path>
                <path d="M19.3363796,237.83508 L289.12695,393.59928" id="Path"></path>
                <path d="M273.329454,91.1916569 L543.120025,246.955857" id="Path"></path>
                <path d="M269.480064,93.4135269 L539.270635,249.177727" id="Path"></path>
                <path d="M265.636229,95.635397 L535.4268,251.399597" id="Path"></path>
                <path d="M261.786839,97.857267 L531.57741,253.621467" id="Path"></path>
                <path d="M257.937449,100.079137 L527.72802,255.843337" id="Path"></path>
                <path d="M254.088059,102.301007 L523.87863,258.065207" id="Path"></path>
                <path d="M304.119018,73.4166965 L573.909589,229.180896" id="Path"></path>
                <path d="M300.269628,75.6385666 L570.060199,231.402766" id="Path"></path>
                <path d="M296.420239,77.8604366 L566.210809,233.624636" id="Path"></path>
                <path d="M292.570849,80.0823067 L562.361419,235.846506" id="Path"></path>
                <path d="M288.727013,82.3041767 L558.517584,238.068376" id="Path"></path>
                <path d="M284.877624,84.5260468 L554.668194,240.290246" id="Path"></path>
                <path d="M281.028234,86.7479168 L550.818804,242.512116" id="Path"></path>
                <path d="M277.178844,88.9697868 L546.969414,244.733987" id="Path"></path>
                <path d="M334.903028,55.6417361 L604.693598,211.405936" id="Path"></path>
                <path d="M331.059193,57.8636062 L600.849763,213.627806" id="Path"></path>
                <path d="M327.209803,60.0854762 L597.000373,215.849676" id="Path"></path>
                <path d="M323.360413,62.3073463 L593.150983,218.071546" id="Path"></path>
                <path d="M319.511023,64.5292163 L589.301594,220.293416" id="Path"></path>
                <path d="M315.661633,66.7510864 L585.452204,222.515286" id="Path"></path>
                <path d="M365.692592,37.8667758 L635.483162,193.630975" id="Path"></path>
                <path d="M361.843202,40.0886458 L631.633773,195.852845" id="Path"></path>
                <path d="M357.993812,42.3105158 L627.784383,198.074716" id="Path"></path>
                <path d="M354.149977,44.5323859 L623.940548,200.296586" id="Path"></path>
                <path d="M350.300587,46.7542559 L620.091158,202.518456" id="Path"></path>
                <path d="M346.451197,48.976126 L616.241768,204.740326" id="Path"></path>
                <path d="M342.601807,51.197996 L612.392378,206.962196" id="Path"></path>
                <path d="M338.752418,53.4198661 L608.542988,209.184066" id="Path"></path>
                <path d="M311.817798,68.9729564 L581.608368,224.737156" id="Path"></path>
                <path d="M307.968408,71.1948265 L577.758979,226.959026" id="Path"></path>
                <path d="M396.482156,20.0918154 L666.272727,175.856015" id="Path"></path>
                <path d="M392.632766,22.3136854 L662.423337,178.077885" id="Path"></path>
                <path d="M388.783376,24.5355555 L658.573947,180.299755" id="Path"></path>
                <path d="M384.933987,26.7574255 L654.724557,182.521625" id="Path"></path>
                <path d="M381.084597,28.9792956 L650.875167,184.743495" id="Path"></path>
                <path d="M377.235207,31.2011656 L647.025777,186.965365" id="Path"></path>
                <path d="M427.266166,2.31685499 L697.056736,158.081055" id="Path"></path>
                <path d="M423.416776,4.53872504 L693.207346,160.302925" id="Path"></path>
                <path d="M419.567386,6.76059509 L689.357956,162.524795" id="Path"></path>
                <path d="M415.723551,8.98246513 L685.514121,164.746665" id="Path"></path>
                <path d="M411.874161,11.2043352 L681.664731,166.968535" id="Path"></path>
                <path d="M408.024771,13.4262052 L677.815342,169.190405" id="Path"></path>
                <path d="M404.175381,15.6480753 L673.965952,171.412275" id="Path"></path>
                <path d="M400.325991,17.8699453 L670.116562,173.634145" id="Path"></path>
                <path d="M431.115555,0.0949849445 L700.906126,155.859185" id="Path"></path>
                <path d="M373.391372,33.4230357 L643.181942,189.187235" id="Path"></path>
                <path d="M369.541982,35.6449057 L639.332552,191.409105" id="Path"></path>
                <path d="M250.23867,104.522877 L520.02924,260.287077" id="Path"></path>
                <path d="M246.394834,106.744747 L516.185405,262.508947" id="Path"></path>
                <path d="M15.4869897,240.05695 L285.27756,395.82115" id="Path"></path>
                <path d="M11.6431545,242.27882 L281.433725,398.04302" id="Path"></path>
                <path d="M7.79376466,244.50069 L277.584335,400.26489" id="Path"></path>
                <path d="M57.8191688,215.61638 L327.609739,371.380579" id="Path"></path>
                <path d="M53.9753336,217.83825 L323.765904,373.602449" id="Path"></path>
                <path d="M50.1259437,220.06012 L319.916514,375.824319" id="Path"></path>
                <path d="M46.2765539,222.28199 L316.067124,378.046189" id="Path"></path>
                <path d="M42.427164,224.50386 L312.217735,380.268059" id="Path"></path>
                <path d="M38.5777742,226.72573 L308.368345,382.489929" id="Path"></path>
                <path d="M34.7283843,228.9476 L304.518955,384.7118" id="Path"></path>
                <path d="M30.8845491,231.16947 L300.67512,386.93367" id="Path"></path>
                <path d="M88.608733,197.841419 L358.399303,353.605619" id="Path"></path>
                <path d="M84.7593431,200.063289 L354.549914,355.827489" id="Path"></path>
                <path d="M80.9099532,202.285159 L350.700524,358.049359" id="Path"></path>
                <path d="M77.0605634,204.507029 L346.851134,360.271229" id="Path"></path>
                <path d="M73.2167282,206.728899 L343.007299,362.493099" id="Path"></path>
                <path d="M69.3673384,208.950769 L339.157909,364.714969" id="Path"></path>
                <path d="M119.398297,180.066459 L389.188868,335.830658" id="Path"></path>
                <path d="M115.548907,182.288329 L385.339478,338.052529" id="Path"></path>
                <path d="M111.699517,184.510199 L381.490088,340.274399" id="Path"></path>
                <path d="M107.850128,186.732069 L377.640698,342.496269" id="Path"></path>
                <path d="M104.000738,188.953939 L373.791308,344.718139" id="Path"></path>
                <path d="M100.151348,191.175809 L369.941918,346.940009" id="Path"></path>
                <path d="M96.3075127,193.397679 L366.098083,349.161879" id="Path"></path>
                <path d="M92.4581228,195.619549 L362.248693,351.383749" id="Path"></path>
                <path d="M65.5179485,211.172639 L335.308519,366.936839" id="Path"></path>
                <path d="M61.6685586,213.39451 L331.459129,369.158709" id="Path"></path>
                <path d="M150.182307,162.291498 L419.972877,318.055698" id="Path"></path>
                <path d="M146.332917,164.513368 L416.123487,320.277568" id="Path"></path>
                <path d="M142.483527,166.735239 L412.274097,322.499438" id="Path"></path>
                <path d="M138.639692,168.957109 L408.430262,324.721308" id="Path"></path>
                <path d="M134.790302,171.178979 L404.580872,326.943178" id="Path"></path>
                <path d="M130.940912,173.400849 L400.731483,329.165048" id="Path"></path>
                <path d="M180.971871,144.516538 L450.762441,300.280738" id="Path"></path>
                <path d="M177.122481,146.738408 L446.913052,302.502608" id="Path"></path>
                <path d="M173.273091,148.960278 L443.063662,304.724478" id="Path"></path>
                <path d="M169.423701,151.182148 L439.214272,306.946348" id="Path"></path>
                <path d="M165.574311,153.404018 L435.364882,309.168218" id="Path"></path>
                <path d="M161.730476,155.625888 L431.521047,311.390088" id="Path"></path>
                <path d="M157.881086,157.847758 L427.671657,313.611958" id="Path"></path>
                <path d="M154.031697,160.069628 L423.822267,315.833828" id="Path"></path>
                <path d="M211.75588,126.741578 L481.546451,282.505777" id="Path"></path>
                <path d="M207.90649,128.963448 L477.697061,284.727647" id="Path"></path>
                <path d="M204.062655,131.185318 L473.853226,286.949517" id="Path"></path>
                <path d="M200.213265,133.407188 L470.003836,289.171387" id="Path"></path>
                <path d="M196.363876,135.629058 L466.154446,291.393258" id="Path"></path>
                <path d="M192.514486,137.850928 L462.305056,293.615128" id="Path"></path>
                <path d="M242.545445,108.966617 L512.336015,264.730817" id="Path"></path>
                <path d="M238.696055,111.188487 L508.486625,266.952687" id="Path"></path>
                <path d="M234.846665,113.410357 L504.637235,269.174557" id="Path"></path>
                <path d="M230.997275,115.632227 L500.787845,271.396427" id="Path"></path>
                <path d="M227.147885,117.854097 L496.938456,273.618297" id="Path"></path>
                <path d="M223.30405,120.075968 L493.09462,275.840167" id="Path"></path>
                <path d="M219.45466,122.297838 L489.245231,278.062037" id="Path"></path>
                <path d="M215.60527,124.519708 L485.395841,280.283907" id="Path"></path>
                <path d="M188.665096,140.072798 L458.455666,295.836998" id="Path"></path>
                <path d="M184.815706,142.294668 L454.606277,298.058868" id="Path"></path>
                <path d="M127.091522,175.622719 L396.882093,331.386918" id="Path"></path>
                <path d="M123.242132,177.844589 L393.032703,333.608788" id="Path"></path>
                <path d="M3.9443748,246.72256 L273.734945,402.48676" id="Path"></path>
                <path d="M0.0949849445,248.94443 L269.885555,404.70863" id="Path"></path>
                <path d="M66.5400087,287.08283 L497.077323,38.5111181" id="Path"></path>
                <path d="M70.9837488,289.64909 L501.521063,41.077378" id="Path"></path>
                <path d="M75.4274889,292.215349 L505.964803,43.6436379" id="Path"></path>
                <path d="M79.8156823,294.748281 L510.352996,46.1765697" id="Path"></path>
                <path d="M84.2594223,297.314541 L514.796736,48.7428296" id="Path"></path>
                <path d="M88.6976078,299.880801 L519.234922,51.3090895" id="Path"></path>
                <path d="M93.0858011,302.413733 L523.623115,53.8420214" id="Path"></path>
                <path d="M97.5295412,304.974438 L528.066855,56.4027266" id="Path"></path>
                <path d="M101.973281,307.540698 L532.510595,58.9689865" id="Path"></path>
                <path d="M106.361475,310.07363 L536.898788,61.5019184" id="Path"></path>
                <path d="M110.805215,312.63989 L541.342529,64.0681783" id="Path"></path>
                <path d="M115.2434,315.20615 L545.780714,66.6344382" id="Path"></path>
                <path d="M119.68714,317.77241 L550.224454,69.2006981" id="Path"></path>
                <path d="M124.075334,320.305342 L554.612647,71.73363" id="Path"></path>
                <path d="M128.519074,322.866047 L559.056387,74.2943352" id="Path"></path>
                <path d="M132.962814,325.432307 L563.500128,76.8605951" id="Path"></path>
                <path d="M137.351007,327.965239 L567.888321,79.3935269" id="Path"></path>
                <path d="M141.789193,330.531498 L572.326506,81.9597868" id="Path"></path>
                <path d="M146.232933,333.097758 L576.770246,84.5260468" id="Path"></path>
                <path d="M150.621126,335.63069 L581.15844,87.0589786" id="Path"></path>
                <path d="M155.064866,338.19695 L585.60218,89.6252385" id="Path"></path>
                <path d="M159.508606,340.757655 L590.04592,92.1859437" id="Path"></path>
                <path d="M163.8968,343.290587 L594.434113,94.7188756" id="Path"></path>
                <path d="M0.178305071,248.772235 L430.715619,0.200523772" id="Path"></path>
                <path d="M4.62204517,251.332941 L435.159359,2.761229" id="Path"></path>
                <path d="M9.00468384,253.865872 L439.547552,5.29416086" id="Path"></path>
                <path d="M13.4484239,256.432132 L443.985738,7.86042076" id="Path"></path>
                <path d="M17.892164,258.998392 L448.429478,10.4266807" id="Path"></path>
                <path d="M22.2803574,261.531324 L452.817671,12.9596125" id="Path"></path>
                <path d="M26.7240975,264.097584 L457.261411,15.5258724" id="Path"></path>
                <path d="M31.1678376,266.658289 L461.705151,18.0865777" id="Path"></path>
                <path d="M35.606023,269.224549 L466.148891,20.6528376" id="Path"></path>
                <path d="M39.9942163,271.757481 L470.537085,23.1857694" id="Path"></path>
                <path d="M44.4379564,274.323741 L474.97527,25.7520293" id="Path"></path>
                <path d="M48.8816965,276.890001 L479.41901,28.3182892" id="Path"></path>
                <path d="M53.2698899,279.422933 L483.807204,30.8512211" id="Path"></path>
                <path d="M57.71363,281.989193 L488.250944,33.417481" id="Path"></path>
                <path d="M62.1518154,284.549898 L492.689129,35.9781862" id="Path"></path>
                <path d="M168.334985,345.856847 L598.872299,97.2851355" id="Path"></path>
                <path d="M172.778725,348.423107 L603.316039,99.8513954" id="Path"></path>
                <path d="M177.166918,350.956039 L607.704232,102.384327" id="Path"></path>
                <path d="M181.610658,353.522299 L612.147972,104.950587" id="Path"></path>
                <path d="M186.054399,356.083004 L616.591712,107.511292" id="Path"></path>
                <path d="M190.498139,358.649264 L621.035452,110.077552" id="Path"></path>
                <path d="M194.886332,361.182196 L625.423646,112.610484" id="Path"></path>
                <path d="M199.324517,363.748456 L629.861831,115.176744" id="Path"></path>
                <path d="M203.768258,366.314716 L634.305571,117.743004" id="Path"></path>
                <path d="M208.156451,368.847647 L638.693765,120.275936" id="Path"></path>
                <path d="M212.600191,371.413907 L643.137505,122.842196" id="Path"></path>
                <path d="M217.043931,373.974613 L647.581245,125.402901" id="Path"></path>
                <path d="M221.432124,376.507544 L651.969438,127.935833" id="Path"></path>
                <path d="M225.87031,379.073804 L656.407624,130.502093" id="Path"></path>
                <path d="M230.31405,381.640064 L660.851364,133.068353" id="Path"></path>
                <path d="M234.702243,384.172996 L665.239557,135.601284" id="Path"></path>
                <path d="M239.145983,386.739256 L669.683297,138.167544" id="Path"></path>
                <path d="M243.589723,389.305516 L674.127037,140.733804" id="Path"></path>
                <path d="M247.977917,391.838448 L678.515231,143.266736" id="Path"></path>
                <path d="M252.416102,394.399153 L682.953416,145.827441" id="Path"></path>
                <path d="M256.859842,396.965413 L687.397156,148.393701" id="Path"></path>
                <path d="M261.303582,399.531673 L691.840896,150.959961" id="Path"></path>
                <path d="M265.691776,402.064605 L696.22909,153.492893" id="Path"></path>
                <path d="M270.135516,404.630865 L700.67283,156.059153" id="Path"></path>
            </g>
        </g>
    </g>
</svg>