<svg xmlns="http://www.w3.org/2000/svg" width="96" height="96" viewBox="0 0 96 96"><defs><style>.a{fill-rule:evenodd;}</style></defs><g transform="translate(-0.12 -0.12)"><path class="a" d="M87.6,91.645a7.266,7.266,0,0,0,7.26-7.26V65.9a2,2,0,0,0-4,0V84.385a3.264,3.264,0,0,1-3.26,3.26,2,2,0,0,0,0,4Z" transform="translate(-42.742 -31.93)"/><path class="a" d="M96.129,134.19a2,2,0,0,0-2-2.08,2,2,0,0,0-1.355.53,20.674,20.674,0,0,1-28.04,0,2,2,0,0,0-2.715,2.94,24.668,24.668,0,0,0,33.47,0A1.984,1.984,0,0,0,96.129,134.19Z" transform="translate(-30.631 -66.06)"/><path class="a" d="M154.115,120.25a2.06,2.06,0,0,0-2.055,1.955l.01,11.5c0,11.57-6.9,18.48-18.455,18.48h-11.68A2.056,2.056,0,0,0,120,154.25a1.94,1.94,0,0,0,1.935,1.935h11.68c13.635,0,22.445-8.835,22.445-22.5l-.01-11.48A1.925,1.925,0,0,0,154.115,120.25Z" transform="translate(-59.945 -60.15)"/><path class="a" d="M34.12,152.275H22.565c-11.555,0-18.455-6.91-18.455-18.48l.01-11.58a2.06,2.06,0,0,0-2.055-1.955A1.926,1.926,0,0,0,.13,122.22L.12,133.775c0,13.67,8.81,22.5,22.445,22.5H34.12a1.94,1.94,0,0,0,1.935-1.935A2.053,2.053,0,0,0,34.12,152.275Z" transform="translate(0 -60.155)"/><path class="a" d="M121.945,4.12h11.68c11.555,0,18.455,6.91,18.455,18.48l-.01,11.5a2.06,2.06,0,0,0,2.055,1.955,1.926,1.926,0,0,0,1.935-1.96l.01-11.475c0-13.67-8.81-22.5-22.445-22.5h-11.68a1.94,1.94,0,0,0-1.935,1.935A2.056,2.056,0,0,0,121.945,4.12Z" transform="translate(-59.95)"/><path class="a" d="M2.07,36.065A2.06,2.06,0,0,0,4.125,34.11l-.01-11.5c0-11.57,6.9-18.48,18.455-18.48H34.125A2.056,2.056,0,0,0,36.06,2.065,1.94,1.94,0,0,0,34.125.13H22.565C8.93.13.12,8.965.12,22.63L.13,34.11A1.932,1.932,0,0,0,2.07,36.065Z" transform="translate(0 -0.005)"/><path class="a" d="M136.12,66.36v6a2,2,0,0,0,4,0v-6a2,2,0,0,0-4,0Z" transform="translate(-68.004 -32.152)"/><path class="a" d="M48.12,66.36v6a2,2,0,0,0,4,0v-6a2,2,0,0,0-4,0Z" transform="translate(-24.001 -32.152)"/></g></svg>