<svg xmlns="http://www.w3.org/2000/svg" width="904" height="288" viewBox="0 0 904 288"><g transform="translate(-240 -1800)"><g transform="translate(240 1800)"><rect width="92.726" height="96" transform="translate(0 0)"/><rect width="92.726" height="96" transform="translate(92.9 0)" fill="#1c1c1c"/><rect width="92.726" height="96" transform="translate(180.459 0)" fill="#393939"/><rect width="92.726" height="96" transform="translate(270.334 0)" fill="#555"/><rect width="92.726" height="96" transform="translate(360.562 0)" fill="#717171"/><rect width="92.726" height="96" transform="translate(450.793 0)" fill="#8e8e8e"/><rect width="92.726" height="96" transform="translate(541.02 0)" fill="#aaa"/><rect width="92.726" height="96" transform="translate(630.896 0)" fill="#c6c6c6"/><rect width="92.726" height="96" transform="translate(718.457 0)" fill="#e3e3e3"/><rect width="92.726" height="96" transform="translate(811.274 0)" fill="#f1f1f1"/></g><g transform="translate(240 1896)"><rect width="92.726" height="96" transform="translate(0 0)" fill="#176db7"/><rect width="92.726" height="96" transform="translate(92.9 0)" fill="#317dbf"/><rect width="92.726" height="96" transform="translate(180.459 0)" fill="#4b8dc7"/><rect width="92.726" height="96" transform="translate(270.334 0)" fill="#649ecf"/><rect width="92.726" height="96" transform="translate(360.562 0)" fill="#7eaed7"/><rect width="92.726" height="96" transform="translate(450.793 0)" fill="#98bedf"/><rect width="92.726" height="96" transform="translate(541.02 0)" fill="#b2cee7"/><rect width="92.726" height="96" transform="translate(630.896 0)" fill="#cbdfef"/><rect width="92.726" height="96" transform="translate(718.457 0)" fill="#e5eff7"/><rect width="92.726" height="96" transform="translate(811.274 0)" fill="#f2f7fb"/></g><g transform="translate(240 1992)"><rect width="92.726" height="96" transform="translate(0 0)" fill="#eb0000"/><rect width="92.726" height="96" transform="translate(92.9 0)" fill="#ed1c1c"/><rect width="92.726" height="96" transform="translate(180.459 0)" fill="#ef3939"/><rect width="92.726" height="96" transform="translate(270.334 0)" fill="#f25555"/><rect width="92.726" height="96" transform="translate(360.562 0)" fill="#f47171"/><rect width="92.726" height="96" transform="translate(450.793 0)" fill="#f68e8e"/><rect width="92.726" height="96" transform="translate(541.02 0)" fill="#f8aaaa"/><rect width="92.726" height="96" transform="translate(630.896 0)" fill="#fbc6c6"/><rect width="92.726" height="96" transform="translate(718.457 0)" fill="#fde3e3"/><rect width="92.726" height="96" transform="translate(811.274 0)" fill="#fef1f1"/></g><text transform="translate(257 1829)" fill="#fff" font-size="14" font-family="ArialMT, Arial"><tspan x="0" y="0">Black</tspan></text><g transform="translate(255 1864)"><text transform="translate(848 16)" font-size="15" font-family="CorporateS-Regular, CorpoS" letter-spacing="0.01em"><tspan x="0" y="0">10%</tspan></text><text transform="translate(0 15)" fill="#fff" font-size="16" font-family="CorporateS-Regular, CorpoS" letter-spacing="-0.01em"><tspan x="0" y="0">100%</tspan></text></g><g transform="translate(255 1961)"><text transform="translate(849 15)" font-size="15" font-family="CorporateS-Regular, CorpoS" letter-spacing="0.01em"><tspan x="0" y="0">10%</tspan></text><text transform="translate(0 15)" fill="#fff" font-size="16" font-family="CorporateS-Regular, CorpoS" letter-spacing="-0.01em"><tspan x="0" y="0">100%</tspan></text></g><g transform="translate(254 2056)"><text transform="translate(850 15)" font-size="15" font-family="CorporateS-Regular, CorpoS" letter-spacing="0.01em"><tspan x="0" y="0">10%</tspan></text><text transform="translate(0 15)" fill="#fff" font-size="16" font-family="CorporateS-Regular, CorpoS" letter-spacing="-0.01em"><tspan x="0" y="0">100%</tspan></text></g><text transform="translate(256 1923)" fill="#fff" font-size="14" font-family="ArialMT, Arial"><tspan x="0" y="0">Denim</tspan></text><text transform="translate(256 2021)" fill="#fff" font-size="14" font-family="ArialMT, Arial"><tspan x="0" y="0">AMG-RED</tspan></text></g></svg>