<svg xmlns="http://www.w3.org/2000/svg" width="112" height="80" viewBox="0 0 112 80"><g transform="translate(-0.12 -0.12)"><path d="M100.511.12H12A11.912,11.912,0,0,0,.12,12.06V68.18A11.908,11.908,0,0,0,12,80.12h88.511a11.893,11.893,0,0,0,11.609-9.4V9.52A11.889,11.889,0,0,0,100.511.12Zm7.606,70.135a7.92,7.92,0,0,1-7.6,5.87H12a7.915,7.915,0,0,1-7.872-7.94V12.06A7.918,7.918,0,0,1,12,4.12h88.511a7.92,7.92,0,0,1,7.6,5.87V70.255Z" transform="translate(0 0)"/><path d="M53.385,56.35a9.865,9.865,0,0,0,2.32-6.385,9.64,9.64,0,1,0-19.275,0,9.885,9.885,0,0,0,2.32,6.385A13.338,13.338,0,0,0,32.07,67.9v10.22a2,2,0,0,0,2,2h24a2,2,0,0,0,2-2V67.9A13.342,13.342,0,0,0,53.385,56.35ZM56.07,76.125h-20V67.9A9.184,9.184,0,0,1,43.1,58.91a2,2,0,0,0,.485-3.73,5.836,5.836,0,0,1-3.155-5.215,5.641,5.641,0,1,1,11.275,0,5.831,5.831,0,0,1-3.15,5.215,2,2,0,0,0,.485,3.73A9.184,9.184,0,0,1,56.07,67.9v8.22Z" transform="translate(-15.975 -20)"/><path d="M146.07,56.31h-40a2,2,0,1,0,0,4h40a2,2,0,1,0,0-4Z" transform="translate(-51.74 -28.095)"/><path d="M150.21,80.31H114.35a2,2,0,0,0,0,4h35.86a2,2,0,0,0,0-4Z" transform="translate(-55.88 -40.095)"/><path d="M150.21,103.94H114.35a2,2,0,0,0,0,4h35.86a2,2,0,0,0,0-4Z" transform="translate(-55.88 -51.91)"/></g></svg>