<svg xmlns="http://www.w3.org/2000/svg" width="256.5" height="256.5" viewBox="0 0 256.5 256.5"><defs><style>.a{opacity:0.5;}.b{fill:none;stroke:#707070;stroke-linecap:square;stroke-width:0.5px;}.c{fill:#383838;}.d{fill:#eb0000;opacity:0.6;mix-blend-mode:multiply;isolation:isolate;}</style></defs><g transform="translate(-527.75 -3639.75)"><g class="a" transform="translate(320 888)"><line class="b" x2="256" transform="translate(208 2752)"/><line class="b" x2="256" transform="translate(208 2784)"/><line class="b" x2="256" transform="translate(208 2976)"/><line class="b" x2="256" transform="translate(208 2816)"/><line class="b" x2="256" transform="translate(208 2848)"/><line class="b" x2="256" transform="translate(208 2880)"/><line class="b" x2="256" transform="translate(208 2912)"/><line class="b" x2="256" transform="translate(208 2944)"/><line class="b" x2="256" transform="translate(208 3008)"/><line class="b" y2="256" transform="translate(208 2752)"/><line class="b" y2="256" transform="translate(240 2752)"/><line class="b" y2="256" transform="translate(272 2752)"/><line class="b" y2="256" transform="translate(304 2752)"/><line class="b" y2="256" transform="translate(336 2752)"/><line class="b" y2="256" transform="translate(368 2752)"/><line class="b" y2="256" transform="translate(400 2752)"/><line class="b" y2="256" transform="translate(432 2752)"/><line class="b" y2="256" transform="translate(464 2752)"/></g><rect class="c" width="56" height="240" transform="translate(624 3656)"/><circle class="d" cx="20" cy="20" r="20" transform="translate(660 3733)"/><circle class="d" cx="20" cy="20" r="20" transform="translate(632 3640)"/></g></svg>