<svg xmlns="http://www.w3.org/2000/svg" width="256.25" height="256.25" viewBox="0 0 256.25 256.25"><defs><style>.a{fill:#f5f5f5;}.a,.b{stroke:#666;stroke-width:0.25px;}.b,.c{fill:none;}</style></defs><g transform="translate(-1197.821 -1000.375)"><rect class="a" width="8" height="8" transform="translate(1445.946 1248.5)"/><rect class="a" width="8" height="8" transform="translate(1437.946 1248.5)"/><rect class="a" width="8" height="8" transform="translate(1429.946 1248.5)"/><rect class="a" width="8" height="8" transform="translate(1421.946 1248.5)"/><rect class="a" width="8" height="8" transform="translate(1413.946 1248.5)"/><rect class="a" width="8" height="8" transform="translate(1405.946 1248.5)"/><rect class="a" width="8" height="8" transform="translate(1397.946 1248.5)"/><rect class="a" width="8" height="8" transform="translate(1389.946 1248.5)"/><rect class="a" width="8" height="8" transform="translate(1381.946 1248.5)"/><rect class="a" width="8" height="8" transform="translate(1373.946 1248.5)"/><rect class="a" width="8" height="8" transform="translate(1365.946 1248.5)"/><rect class="a" width="8" height="8" transform="translate(1357.946 1248.5)"/><rect class="a" width="8" height="8" transform="translate(1349.946 1248.5)"/><rect class="a" width="8" height="8" transform="translate(1341.946 1248.5)"/><rect class="a" width="8" height="8" transform="translate(1333.946 1248.5)"/><rect class="a" width="8" height="8" transform="translate(1325.946 1248.5)"/><rect class="a" width="8" height="8" transform="translate(1317.946 1248.5)"/><rect class="a" width="8" height="8" transform="translate(1309.946 1248.5)"/><rect class="a" width="8" height="8" transform="translate(1301.946 1248.5)"/><rect class="a" width="8" height="8" transform="translate(1293.946 1248.5)"/><rect class="a" width="8" height="8" transform="translate(1285.946 1248.5)"/><rect class="a" width="8" height="8" transform="translate(1277.946 1248.5)"/><rect class="a" width="8" height="8" transform="translate(1269.946 1248.5)"/><rect class="a" width="8" height="8" transform="translate(1261.946 1248.5)"/><rect class="a" width="8" height="8" transform="translate(1253.946 1248.5)"/><rect class="a" width="8" height="8" transform="translate(1245.946 1248.5)"/><rect class="a" width="8" height="8" transform="translate(1237.946 1248.5)"/><rect class="a" width="8" height="8" transform="translate(1229.946 1248.5)"/><rect class="a" width="8" height="8" transform="translate(1221.946 1248.5)"/><rect class="a" width="8" height="8" transform="translate(1213.946 1248.5)"/><rect class="a" width="8" height="8" transform="translate(1205.946 1248.5)"/><rect class="a" width="8" height="8" transform="translate(1197.946 1248.5)"/><rect class="a" width="8" height="8" transform="translate(1445.946 1240.5)"/><rect class="a" width="8" height="8" transform="translate(1437.946 1240.5)"/><rect class="a" width="8" height="8" transform="translate(1429.946 1240.5)"/><rect class="a" width="8" height="8" transform="translate(1421.946 1240.5)"/><rect class="a" width="8" height="8" transform="translate(1413.946 1240.5)"/><rect class="a" width="8" height="8" transform="translate(1405.946 1240.5)"/><rect class="a" width="8" height="8" transform="translate(1397.946 1240.5)"/><rect class="a" width="8" height="8" transform="translate(1389.946 1240.5)"/><rect class="a" width="8" height="8" transform="translate(1381.946 1240.5)"/><rect class="a" width="8" height="8" transform="translate(1373.946 1240.5)"/><rect class="a" width="8" height="8" transform="translate(1365.946 1240.5)"/><rect class="a" width="8" height="8" transform="translate(1357.946 1240.5)"/><rect class="a" width="8" height="8" transform="translate(1349.946 1240.5)"/><rect class="a" width="8" height="8" transform="translate(1341.946 1240.5)"/><rect class="a" width="8" height="8" transform="translate(1333.946 1240.5)"/><rect class="a" width="8" height="8" transform="translate(1325.946 1240.5)"/><rect class="a" width="8" height="8" transform="translate(1317.946 1240.5)"/><rect class="a" width="8" height="8" transform="translate(1309.946 1240.5)"/><rect class="a" width="8" height="8" transform="translate(1301.946 1240.5)"/><rect class="a" width="8" height="8" transform="translate(1293.946 1240.5)"/><rect class="a" width="8" height="8" transform="translate(1285.946 1240.5)"/><rect class="a" width="8" height="8" transform="translate(1277.946 1240.5)"/><rect class="a" width="8" height="8" transform="translate(1269.946 1240.5)"/><rect class="a" width="8" height="8" transform="translate(1261.946 1240.5)"/><rect class="a" width="8" height="8" transform="translate(1253.946 1240.5)"/><rect class="a" width="8" height="8" transform="translate(1245.946 1240.5)"/><rect class="a" width="8" height="8" transform="translate(1237.946 1240.5)"/><rect class="a" width="8" height="8" transform="translate(1229.946 1240.5)"/><rect class="a" width="8" height="8" transform="translate(1221.946 1240.5)"/><rect class="a" width="8" height="8" transform="translate(1213.946 1240.5)"/><rect class="a" width="8" height="8" transform="translate(1205.946 1240.5)"/><rect class="a" width="8" height="8" transform="translate(1197.946 1240.5)"/><rect class="a" width="8" height="8" transform="translate(1445.946 1232.5)"/><rect class="a" width="8" height="8" transform="translate(1437.946 1232.5)"/><rect class="b" width="8" height="8" transform="translate(1429.946 1232.5)"/><rect class="b" width="8" height="8" transform="translate(1421.946 1232.5)"/><rect class="b" width="8" height="8" transform="translate(1413.946 1232.5)"/><rect class="b" width="8" height="8" transform="translate(1405.946 1232.5)"/><rect class="b" width="8" height="8" transform="translate(1397.946 1232.5)"/><rect class="b" width="8" height="8" transform="translate(1389.946 1232.5)"/><rect class="b" width="8" height="8" transform="translate(1381.946 1232.5)"/><rect class="b" width="8" height="8" transform="translate(1373.946 1232.5)"/><rect class="b" width="8" height="8" transform="translate(1365.946 1232.5)"/><rect class="b" width="8" height="8" transform="translate(1357.946 1232.5)"/><rect class="b" width="8" height="8" transform="translate(1349.946 1232.5)"/><rect class="b" width="8" height="8" transform="translate(1341.946 1232.5)"/><rect class="b" width="8" height="8" transform="translate(1333.946 1232.5)"/><rect class="b" width="8" height="8" transform="translate(1325.946 1232.5)"/><rect class="b" width="8" height="8" transform="translate(1317.946 1232.5)"/><rect class="b" width="8" height="8" transform="translate(1309.946 1232.5)"/><rect class="b" width="8" height="8" transform="translate(1301.946 1232.5)"/><rect class="b" width="8" height="8" transform="translate(1293.946 1232.5)"/><rect class="b" width="8" height="8" transform="translate(1285.946 1232.5)"/><rect class="b" width="8" height="8" transform="translate(1277.946 1232.5)"/><rect class="b" width="8" height="8" transform="translate(1269.946 1232.5)"/><rect class="b" width="8" height="8" transform="translate(1261.946 1232.5)"/><rect class="b" width="8" height="8" transform="translate(1253.946 1232.5)"/><rect class="b" width="8" height="8" transform="translate(1245.946 1232.5)"/><rect class="b" width="8" height="8" transform="translate(1237.946 1232.5)"/><rect class="b" width="8" height="8" transform="translate(1229.946 1232.5)"/><rect class="b" width="8" height="8" transform="translate(1221.946 1232.5)"/><rect class="b" width="8" height="8" transform="translate(1213.946 1232.5)"/><rect class="a" width="8" height="8" transform="translate(1205.946 1232.5)"/><rect class="a" width="8" height="8" transform="translate(1197.946 1232.5)"/><rect class="a" width="8" height="8" transform="translate(1445.946 1224.5)"/><rect class="a" width="8" height="8" transform="translate(1437.946 1224.5)"/><rect class="b" width="8" height="8" transform="translate(1429.946 1224.5)"/><rect class="b" width="8" height="8" transform="translate(1421.946 1224.5)"/><rect class="b" width="8" height="8" transform="translate(1413.946 1224.5)"/><rect class="b" width="8" height="8" transform="translate(1405.946 1224.5)"/><rect class="b" width="8" height="8" transform="translate(1397.946 1224.5)"/><rect class="b" width="8" height="8" transform="translate(1389.946 1224.5)"/><rect class="b" width="8" height="8" transform="translate(1381.946 1224.5)"/><rect class="b" width="8" height="8" transform="translate(1373.946 1224.5)"/><rect class="b" width="8" height="8" transform="translate(1365.946 1224.5)"/><rect class="b" width="8" height="8" transform="translate(1357.946 1224.5)"/><rect class="b" width="8" height="8" transform="translate(1349.946 1224.5)"/><rect class="b" width="8" height="8" transform="translate(1341.946 1224.5)"/><rect class="b" width="8" height="8" transform="translate(1333.946 1224.5)"/><rect class="b" width="8" height="8" transform="translate(1325.946 1224.5)"/><rect class="b" width="8" height="8" transform="translate(1317.946 1224.5)"/><rect class="b" width="8" height="8" transform="translate(1309.946 1224.5)"/><rect class="b" width="8" height="8" transform="translate(1301.946 1224.5)"/><rect class="b" width="8" height="8" transform="translate(1293.946 1224.5)"/><rect class="b" width="8" height="8" transform="translate(1285.946 1224.5)"/><rect class="b" width="8" height="8" transform="translate(1277.946 1224.5)"/><rect class="b" width="8" height="8" transform="translate(1269.946 1224.5)"/><rect class="b" width="8" height="8" transform="translate(1261.946 1224.5)"/><rect class="b" width="8" height="8" transform="translate(1253.946 1224.5)"/><rect class="b" width="8" height="8" transform="translate(1245.946 1224.5)"/><rect class="b" width="8" height="8" transform="translate(1237.946 1224.5)"/><rect class="b" width="8" height="8" transform="translate(1229.946 1224.5)"/><rect class="b" width="8" height="8" transform="translate(1221.946 1224.5)"/><rect class="b" width="8" height="8" transform="translate(1213.946 1224.5)"/><rect class="a" width="8" height="8" transform="translate(1205.946 1224.5)"/><rect class="a" width="8" height="8" transform="translate(1197.946 1224.5)"/><rect class="a" width="8" height="8" transform="translate(1445.946 1216.5)"/><rect class="a" width="8" height="8" transform="translate(1437.946 1216.5)"/><rect class="b" width="8" height="8" transform="translate(1429.946 1216.5)"/><rect class="b" width="8" height="8" transform="translate(1421.946 1216.5)"/><rect class="b" width="8" height="8" transform="translate(1413.946 1216.5)"/><rect class="b" width="8" height="8" transform="translate(1405.946 1216.5)"/><rect class="b" width="8" height="8" transform="translate(1397.946 1216.5)"/><rect class="b" width="8" height="8" transform="translate(1389.946 1216.5)"/><rect class="b" width="8" height="8" transform="translate(1381.946 1216.5)"/><rect class="b" width="8" height="8" transform="translate(1373.946 1216.5)"/><rect class="b" width="8" height="8" transform="translate(1365.946 1216.5)"/><rect class="b" width="8" height="8" transform="translate(1357.946 1216.5)"/><rect class="b" width="8" height="8" transform="translate(1349.946 1216.5)"/><rect class="b" width="8" height="8" transform="translate(1341.946 1216.5)"/><rect class="b" width="8" height="8" transform="translate(1333.946 1216.5)"/><rect class="b" width="8" height="8" transform="translate(1325.946 1216.5)"/><rect class="b" width="8" height="8" transform="translate(1317.946 1216.5)"/><rect class="b" width="8" height="8" transform="translate(1309.946 1216.5)"/><rect class="b" width="8" height="8" transform="translate(1301.946 1216.5)"/><rect class="b" width="8" height="8" transform="translate(1293.946 1216.5)"/><rect class="b" width="8" height="8" transform="translate(1285.946 1216.5)"/><rect class="b" width="8" height="8" transform="translate(1277.946 1216.5)"/><rect class="b" width="8" height="8" transform="translate(1269.946 1216.5)"/><rect class="b" width="8" height="8" transform="translate(1261.946 1216.5)"/><rect class="b" width="8" height="8" transform="translate(1253.946 1216.5)"/><rect class="b" width="8" height="8" transform="translate(1245.946 1216.5)"/><rect class="b" width="8" height="8" transform="translate(1237.946 1216.5)"/><rect class="b" width="8" height="8" transform="translate(1229.946 1216.5)"/><rect class="b" width="8" height="8" transform="translate(1221.946 1216.5)"/><rect class="b" width="8" height="8" transform="translate(1213.946 1216.5)"/><rect class="a" width="8" height="8" transform="translate(1205.946 1216.5)"/><rect class="a" width="8" height="8" transform="translate(1197.946 1216.5)"/><rect class="a" width="8" height="8" transform="translate(1445.946 1208.5)"/><rect class="a" width="8" height="8" transform="translate(1437.946 1208.5)"/><rect class="b" width="8" height="8" transform="translate(1429.946 1208.5)"/><rect class="b" width="8" height="8" transform="translate(1421.946 1208.5)"/><rect class="b" width="8" height="8" transform="translate(1413.946 1208.5)"/><rect class="b" width="8" height="8" transform="translate(1405.946 1208.5)"/><rect class="b" width="8" height="8" transform="translate(1397.946 1208.5)"/><rect class="b" width="8" height="8" transform="translate(1389.946 1208.5)"/><rect class="b" width="8" height="8" transform="translate(1381.946 1208.5)"/><rect class="b" width="8" height="8" transform="translate(1373.946 1208.5)"/><rect class="b" width="8" height="8" transform="translate(1365.946 1208.5)"/><rect class="b" width="8" height="8" transform="translate(1357.946 1208.5)"/><rect class="b" width="8" height="8" transform="translate(1349.946 1208.5)"/><rect class="b" width="8" height="8" transform="translate(1341.946 1208.5)"/><rect class="b" width="8" height="8" transform="translate(1333.946 1208.5)"/><rect class="b" width="8" height="8" transform="translate(1325.946 1208.5)"/><rect class="b" width="8" height="8" transform="translate(1317.946 1208.5)"/><rect class="b" width="8" height="8" transform="translate(1309.946 1208.5)"/><rect class="b" width="8" height="8" transform="translate(1301.946 1208.5)"/><rect class="b" width="8" height="8" transform="translate(1293.946 1208.5)"/><rect class="b" width="8" height="8" transform="translate(1285.946 1208.5)"/><rect class="b" width="8" height="8" transform="translate(1277.946 1208.5)"/><rect class="b" width="8" height="8" transform="translate(1269.946 1208.5)"/><rect class="b" width="8" height="8" transform="translate(1261.946 1208.5)"/><rect class="b" width="8" height="8" transform="translate(1253.946 1208.5)"/><rect class="b" width="8" height="8" transform="translate(1245.946 1208.5)"/><rect class="b" width="8" height="8" transform="translate(1237.946 1208.5)"/><rect class="b" width="8" height="8" transform="translate(1229.946 1208.5)"/><rect class="b" width="8" height="8" transform="translate(1221.946 1208.5)"/><rect class="b" width="8" height="8" transform="translate(1213.946 1208.5)"/><rect class="a" width="8" height="8" transform="translate(1205.946 1208.5)"/><rect class="a" width="8" height="8" transform="translate(1197.946 1208.5)"/><rect class="a" width="8" height="8" transform="translate(1445.946 1200.5)"/><rect class="a" width="8" height="8" transform="translate(1437.946 1200.5)"/><rect class="b" width="8" height="8" transform="translate(1429.946 1200.5)"/><rect class="b" width="8" height="8" transform="translate(1421.946 1200.5)"/><rect class="b" width="8" height="8" transform="translate(1413.946 1200.5)"/><rect class="b" width="8" height="8" transform="translate(1405.946 1200.5)"/><rect class="b" width="8" height="8" transform="translate(1397.946 1200.5)"/><rect class="b" width="8" height="8" transform="translate(1389.946 1200.5)"/><rect class="b" width="8" height="8" transform="translate(1381.946 1200.5)"/><rect class="b" width="8" height="8" transform="translate(1373.946 1200.5)"/><rect class="b" width="8" height="8" transform="translate(1365.946 1200.5)"/><rect class="b" width="8" height="8" transform="translate(1357.946 1200.5)"/><rect class="b" width="8" height="8" transform="translate(1349.946 1200.5)"/><rect class="b" width="8" height="8" transform="translate(1341.946 1200.5)"/><rect class="b" width="8" height="8" transform="translate(1333.946 1200.5)"/><rect class="b" width="8" height="8" transform="translate(1325.946 1200.5)"/><rect class="b" width="8" height="8" transform="translate(1317.946 1200.5)"/><rect class="b" width="8" height="8" transform="translate(1309.946 1200.5)"/><rect class="b" width="8" height="8" transform="translate(1301.946 1200.5)"/><rect class="b" width="8" height="8" transform="translate(1293.946 1200.5)"/><rect class="b" width="8" height="8" transform="translate(1285.946 1200.5)"/><rect class="b" width="8" height="8" transform="translate(1277.946 1200.5)"/><rect class="b" width="8" height="8" transform="translate(1269.946 1200.5)"/><rect class="b" width="8" height="8" transform="translate(1261.946 1200.5)"/><rect class="b" width="8" height="8" transform="translate(1253.946 1200.5)"/><rect class="b" width="8" height="8" transform="translate(1245.946 1200.5)"/><rect class="b" width="8" height="8" transform="translate(1237.946 1200.5)"/><rect class="b" width="8" height="8" transform="translate(1229.946 1200.5)"/><rect class="b" width="8" height="8" transform="translate(1221.946 1200.5)"/><rect class="b" width="8" height="8" transform="translate(1213.946 1200.5)"/><rect class="a" width="8" height="8" transform="translate(1205.946 1200.5)"/><rect class="a" width="8" height="8" transform="translate(1197.946 1200.5)"/><rect class="a" width="8" height="8" transform="translate(1445.946 1192.5)"/><rect class="a" width="8" height="8" transform="translate(1437.946 1192.5)"/><rect class="b" width="8" height="8" transform="translate(1429.946 1192.5)"/><rect class="b" width="8" height="8" transform="translate(1421.946 1192.5)"/><rect class="b" width="8" height="8" transform="translate(1413.946 1192.5)"/><rect class="b" width="8" height="8" transform="translate(1405.946 1192.5)"/><rect class="b" width="8" height="8" transform="translate(1397.946 1192.5)"/><rect class="b" width="8" height="8" transform="translate(1389.946 1192.5)"/><rect class="b" width="8" height="8" transform="translate(1381.946 1192.5)"/><rect class="b" width="8" height="8" transform="translate(1373.946 1192.5)"/><rect class="b" width="8" height="8" transform="translate(1365.946 1192.5)"/><rect class="b" width="8" height="8" transform="translate(1357.946 1192.5)"/><rect class="b" width="8" height="8" transform="translate(1349.946 1192.5)"/><rect class="b" width="8" height="8" transform="translate(1341.946 1192.5)"/><rect class="b" width="8" height="8" transform="translate(1333.946 1192.5)"/><rect class="b" width="8" height="8" transform="translate(1325.946 1192.5)"/><rect class="b" width="8" height="8" transform="translate(1317.946 1192.5)"/><rect class="b" width="8" height="8" transform="translate(1309.946 1192.5)"/><rect class="b" width="8" height="8" transform="translate(1301.946 1192.5)"/><rect class="b" width="8" height="8" transform="translate(1293.946 1192.5)"/><rect class="b" width="8" height="8" transform="translate(1285.946 1192.5)"/><rect class="b" width="8" height="8" transform="translate(1277.946 1192.5)"/><rect class="b" width="8" height="8" transform="translate(1269.946 1192.5)"/><rect class="b" width="8" height="8" transform="translate(1261.946 1192.5)"/><rect class="b" width="8" height="8" transform="translate(1253.946 1192.5)"/><rect class="b" width="8" height="8" transform="translate(1245.946 1192.5)"/><rect class="b" width="8" height="8" transform="translate(1237.946 1192.5)"/><rect class="b" width="8" height="8" transform="translate(1229.946 1192.5)"/><rect class="b" width="8" height="8" transform="translate(1221.946 1192.5)"/><rect class="b" width="8" height="8" transform="translate(1213.946 1192.5)"/><rect class="a" width="8" height="8" transform="translate(1205.946 1192.5)"/><rect class="a" width="8" height="8" transform="translate(1197.946 1192.5)"/><rect class="a" width="8" height="8" transform="translate(1445.946 1184.5)"/><rect class="a" width="8" height="8" transform="translate(1437.946 1184.5)"/><rect class="b" width="8" height="8" transform="translate(1429.946 1184.5)"/><rect class="b" width="8" height="8" transform="translate(1421.946 1184.5)"/><rect class="b" width="8" height="8" transform="translate(1413.946 1184.5)"/><rect class="b" width="8" height="8" transform="translate(1405.946 1184.5)"/><rect class="b" width="8" height="8" transform="translate(1397.946 1184.5)"/><rect class="b" width="8" height="8" transform="translate(1389.946 1184.5)"/><rect class="b" width="8" height="8" transform="translate(1381.946 1184.5)"/><rect class="b" width="8" height="8" transform="translate(1373.946 1184.5)"/><rect class="b" width="8" height="8" transform="translate(1365.946 1184.5)"/><rect class="b" width="8" height="8" transform="translate(1357.946 1184.5)"/><rect class="b" width="8" height="8" transform="translate(1349.946 1184.5)"/><rect class="b" width="8" height="8" transform="translate(1341.946 1184.5)"/><rect class="b" width="8" height="8" transform="translate(1333.946 1184.5)"/><rect class="b" width="8" height="8" transform="translate(1325.946 1184.5)"/><rect class="b" width="8" height="8" transform="translate(1317.946 1184.5)"/><rect class="b" width="8" height="8" transform="translate(1309.946 1184.5)"/><rect class="b" width="8" height="8" transform="translate(1301.946 1184.5)"/><rect class="b" width="8" height="8" transform="translate(1293.946 1184.5)"/><rect class="b" width="8" height="8" transform="translate(1285.946 1184.5)"/><rect class="b" width="8" height="8" transform="translate(1277.946 1184.5)"/><rect class="b" width="8" height="8" transform="translate(1269.946 1184.5)"/><rect class="b" width="8" height="8" transform="translate(1261.946 1184.5)"/><rect class="b" width="8" height="8" transform="translate(1253.946 1184.5)"/><rect class="b" width="8" height="8" transform="translate(1245.946 1184.5)"/><rect class="b" width="8" height="8" transform="translate(1237.946 1184.5)"/><rect class="b" width="8" height="8" transform="translate(1229.946 1184.5)"/><rect class="b" width="8" height="8" transform="translate(1221.946 1184.5)"/><rect class="b" width="8" height="8" transform="translate(1213.946 1184.5)"/><rect class="a" width="8" height="8" transform="translate(1205.946 1184.5)"/><rect class="a" width="8" height="8" transform="translate(1197.946 1184.5)"/><rect class="a" width="8" height="8" transform="translate(1445.946 1176.5)"/><rect class="a" width="8" height="8" transform="translate(1437.946 1176.5)"/><rect class="b" width="8" height="8" transform="translate(1429.946 1176.5)"/><rect class="b" width="8" height="8" transform="translate(1421.946 1176.5)"/><rect class="b" width="8" height="8" transform="translate(1413.946 1176.5)"/><rect class="b" width="8" height="8" transform="translate(1405.946 1176.5)"/><rect class="b" width="8" height="8" transform="translate(1397.946 1176.5)"/><rect class="b" width="8" height="8" transform="translate(1389.946 1176.5)"/><rect class="b" width="8" height="8" transform="translate(1381.946 1176.5)"/><rect class="b" width="8" height="8" transform="translate(1373.946 1176.5)"/><rect class="b" width="8" height="8" transform="translate(1365.946 1176.5)"/><rect class="b" width="8" height="8" transform="translate(1357.946 1176.5)"/><rect class="b" width="8" height="8" transform="translate(1349.946 1176.5)"/><rect class="b" width="8" height="8" transform="translate(1341.946 1176.5)"/><rect class="b" width="8" height="8" transform="translate(1333.946 1176.5)"/><rect class="b" width="8" height="8" transform="translate(1325.946 1176.5)"/><rect class="b" width="8" height="8" transform="translate(1317.946 1176.5)"/><rect class="b" width="8" height="8" transform="translate(1309.946 1176.5)"/><rect class="b" width="8" height="8" transform="translate(1301.946 1176.5)"/><rect class="b" width="8" height="8" transform="translate(1293.946 1176.5)"/><rect class="b" width="8" height="8" transform="translate(1285.946 1176.5)"/><rect class="b" width="8" height="8" transform="translate(1277.946 1176.5)"/><rect class="b" width="8" height="8" transform="translate(1269.946 1176.5)"/><rect class="b" width="8" height="8" transform="translate(1261.946 1176.5)"/><rect class="b" width="8" height="8" transform="translate(1253.946 1176.5)"/><rect class="b" width="8" height="8" transform="translate(1245.946 1176.5)"/><rect class="b" width="8" height="8" transform="translate(1237.946 1176.5)"/><rect class="b" width="8" height="8" transform="translate(1229.946 1176.5)"/><rect class="b" width="8" height="8" transform="translate(1221.946 1176.5)"/><rect class="b" width="8" height="8" transform="translate(1213.946 1176.5)"/><rect class="a" width="8" height="8" transform="translate(1205.946 1176.5)"/><rect class="a" width="8" height="8" transform="translate(1197.946 1176.5)"/><rect class="a" width="8" height="8" transform="translate(1445.946 1168.5)"/><rect class="a" width="8" height="8" transform="translate(1437.946 1168.5)"/><rect class="b" width="8" height="8" transform="translate(1429.946 1168.5)"/><rect class="b" width="8" height="8" transform="translate(1421.946 1168.5)"/><rect class="b" width="8" height="8" transform="translate(1413.946 1168.5)"/><rect class="b" width="8" height="8" transform="translate(1405.946 1168.5)"/><rect class="b" width="8" height="8" transform="translate(1397.946 1168.5)"/><rect class="b" width="8" height="8" transform="translate(1389.946 1168.5)"/><rect class="b" width="8" height="8" transform="translate(1381.946 1168.5)"/><rect class="b" width="8" height="8" transform="translate(1373.946 1168.5)"/><rect class="b" width="8" height="8" transform="translate(1365.946 1168.5)"/><rect class="b" width="8" height="8" transform="translate(1357.946 1168.5)"/><rect class="b" width="8" height="8" transform="translate(1349.946 1168.5)"/><rect class="b" width="8" height="8" transform="translate(1341.946 1168.5)"/><rect class="b" width="8" height="8" transform="translate(1333.946 1168.5)"/><rect class="b" width="8" height="8" transform="translate(1325.946 1168.5)"/><rect class="b" width="8" height="8" transform="translate(1317.946 1168.5)"/><rect class="b" width="8" height="8" transform="translate(1309.946 1168.5)"/><rect class="b" width="8" height="8" transform="translate(1301.946 1168.5)"/><rect class="b" width="8" height="8" transform="translate(1293.946 1168.5)"/><rect class="b" width="8" height="8" transform="translate(1285.946 1168.5)"/><rect class="b" width="8" height="8" transform="translate(1277.946 1168.5)"/><rect class="b" width="8" height="8" transform="translate(1269.946 1168.5)"/><rect class="b" width="8" height="8" transform="translate(1261.946 1168.5)"/><rect class="b" width="8" height="8" transform="translate(1253.946 1168.5)"/><rect class="b" width="8" height="8" transform="translate(1245.946 1168.5)"/><rect class="b" width="8" height="8" transform="translate(1237.946 1168.5)"/><rect class="b" width="8" height="8" transform="translate(1229.946 1168.5)"/><rect class="b" width="8" height="8" transform="translate(1221.946 1168.5)"/><rect class="b" width="8" height="8" transform="translate(1213.946 1168.5)"/><rect class="a" width="8" height="8" transform="translate(1205.946 1168.5)"/><rect class="a" width="8" height="8" transform="translate(1197.946 1168.5)"/><rect class="a" width="8" height="8" transform="translate(1445.946 1160.5)"/><rect class="a" width="8" height="8" transform="translate(1437.946 1160.5)"/><rect class="b" width="8" height="8" transform="translate(1429.946 1160.5)"/><rect class="b" width="8" height="8" transform="translate(1421.946 1160.5)"/><rect class="b" width="8" height="8" transform="translate(1413.946 1160.5)"/><rect class="b" width="8" height="8" transform="translate(1405.946 1160.5)"/><rect class="b" width="8" height="8" transform="translate(1397.946 1160.5)"/><rect class="b" width="8" height="8" transform="translate(1389.946 1160.5)"/><rect class="b" width="8" height="8" transform="translate(1381.946 1160.5)"/><rect class="b" width="8" height="8" transform="translate(1373.946 1160.5)"/><rect class="b" width="8" height="8" transform="translate(1365.946 1160.5)"/><rect class="b" width="8" height="8" transform="translate(1357.946 1160.5)"/><rect class="b" width="8" height="8" transform="translate(1349.946 1160.5)"/><rect class="b" width="8" height="8" transform="translate(1341.946 1160.5)"/><rect class="b" width="8" height="8" transform="translate(1333.946 1160.5)"/><rect class="b" width="8" height="8" transform="translate(1325.946 1160.5)"/><rect class="b" width="8" height="8" transform="translate(1317.946 1160.5)"/><rect class="b" width="8" height="8" transform="translate(1309.946 1160.5)"/><rect class="b" width="8" height="8" transform="translate(1301.946 1160.5)"/><rect class="b" width="8" height="8" transform="translate(1293.946 1160.5)"/><rect class="b" width="8" height="8" transform="translate(1285.946 1160.5)"/><rect class="b" width="8" height="8" transform="translate(1277.946 1160.5)"/><rect class="b" width="8" height="8" transform="translate(1269.946 1160.5)"/><rect class="b" width="8" height="8" transform="translate(1261.946 1160.5)"/><rect class="b" width="8" height="8" transform="translate(1253.946 1160.5)"/><rect class="b" width="8" height="8" transform="translate(1245.946 1160.5)"/><rect class="b" width="8" height="8" transform="translate(1237.946 1160.5)"/><rect class="b" width="8" height="8" transform="translate(1229.946 1160.5)"/><rect class="b" width="8" height="8" transform="translate(1221.946 1160.5)"/><rect class="b" width="8" height="8" transform="translate(1213.946 1160.5)"/><rect class="a" width="8" height="8" transform="translate(1205.946 1160.5)"/><rect class="a" width="8" height="8" transform="translate(1197.946 1160.5)"/><rect class="a" width="8" height="8" transform="translate(1445.946 1152.5)"/><rect class="a" width="8" height="8" transform="translate(1437.946 1152.5)"/><rect class="b" width="8" height="8" transform="translate(1429.946 1152.5)"/><rect class="b" width="8" height="8" transform="translate(1421.946 1152.5)"/><rect class="b" width="8" height="8" transform="translate(1413.946 1152.5)"/><rect class="b" width="8" height="8" transform="translate(1405.946 1152.5)"/><rect class="b" width="8" height="8" transform="translate(1397.946 1152.5)"/><rect class="b" width="8" height="8" transform="translate(1389.946 1152.5)"/><rect class="b" width="8" height="8" transform="translate(1381.946 1152.5)"/><rect class="b" width="8" height="8" transform="translate(1373.946 1152.5)"/><rect class="b" width="8" height="8" transform="translate(1365.946 1152.5)"/><rect class="b" width="8" height="8" transform="translate(1357.946 1152.5)"/><rect class="b" width="8" height="8" transform="translate(1349.946 1152.5)"/><rect class="b" width="8" height="8" transform="translate(1341.946 1152.5)"/><rect class="b" width="8" height="8" transform="translate(1333.946 1152.5)"/><rect class="b" width="8" height="8" transform="translate(1325.946 1152.5)"/><rect class="b" width="8" height="8" transform="translate(1317.946 1152.5)"/><rect class="b" width="8" height="8" transform="translate(1309.946 1152.5)"/><rect class="b" width="8" height="8" transform="translate(1301.946 1152.5)"/><rect class="b" width="8" height="8" transform="translate(1293.946 1152.5)"/><rect class="b" width="8" height="8" transform="translate(1285.946 1152.5)"/><rect class="b" width="8" height="8" transform="translate(1277.946 1152.5)"/><rect class="b" width="8" height="8" transform="translate(1269.946 1152.5)"/><rect class="b" width="8" height="8" transform="translate(1261.946 1152.5)"/><rect class="b" width="8" height="8" transform="translate(1253.946 1152.5)"/><rect class="b" width="8" height="8" transform="translate(1245.946 1152.5)"/><rect class="b" width="8" height="8" transform="translate(1237.946 1152.5)"/><rect class="b" width="8" height="8" transform="translate(1229.946 1152.5)"/><rect class="b" width="8" height="8" transform="translate(1221.946 1152.5)"/><rect class="b" width="8" height="8" transform="translate(1213.946 1152.5)"/><rect class="a" width="8" height="8" transform="translate(1205.946 1152.5)"/><rect class="a" width="8" height="8" transform="translate(1197.946 1152.5)"/><rect class="a" width="8" height="8" transform="translate(1445.946 1144.5)"/><rect class="a" width="8" height="8" transform="translate(1437.946 1144.5)"/><rect class="b" width="8" height="8" transform="translate(1429.946 1144.5)"/><rect class="b" width="8" height="8" transform="translate(1421.946 1144.5)"/><rect class="b" width="8" height="8" transform="translate(1413.946 1144.5)"/><rect class="b" width="8" height="8" transform="translate(1405.946 1144.5)"/><rect class="b" width="8" height="8" transform="translate(1397.946 1144.5)"/><rect class="b" width="8" height="8" transform="translate(1389.946 1144.5)"/><rect class="b" width="8" height="8" transform="translate(1381.946 1144.5)"/><rect class="b" width="8" height="8" transform="translate(1373.946 1144.5)"/><rect class="b" width="8" height="8" transform="translate(1365.946 1144.5)"/><rect class="b" width="8" height="8" transform="translate(1357.946 1144.5)"/><rect class="b" width="8" height="8" transform="translate(1349.946 1144.5)"/><rect class="b" width="8" height="8" transform="translate(1341.946 1144.5)"/><rect class="b" width="8" height="8" transform="translate(1333.946 1144.5)"/><rect class="b" width="8" height="8" transform="translate(1325.946 1144.5)"/><rect class="b" width="8" height="8" transform="translate(1317.946 1144.5)"/><rect class="b" width="8" height="8" transform="translate(1309.946 1144.5)"/><rect class="b" width="8" height="8" transform="translate(1301.946 1144.5)"/><rect class="b" width="8" height="8" transform="translate(1293.946 1144.5)"/><rect class="b" width="8" height="8" transform="translate(1285.946 1144.5)"/><rect class="b" width="8" height="8" transform="translate(1277.946 1144.5)"/><rect class="b" width="8" height="8" transform="translate(1269.946 1144.5)"/><rect class="b" width="8" height="8" transform="translate(1261.946 1144.5)"/><rect class="b" width="8" height="8" transform="translate(1253.946 1144.5)"/><rect class="b" width="8" height="8" transform="translate(1245.946 1144.5)"/><rect class="b" width="8" height="8" transform="translate(1237.946 1144.5)"/><rect class="b" width="8" height="8" transform="translate(1229.946 1144.5)"/><rect class="b" width="8" height="8" transform="translate(1221.946 1144.5)"/><rect class="b" width="8" height="8" transform="translate(1213.946 1144.5)"/><rect class="a" width="8" height="8" transform="translate(1205.946 1144.5)"/><rect class="a" width="8" height="8" transform="translate(1197.946 1144.5)"/><rect class="a" width="8" height="8" transform="translate(1445.946 1136.5)"/><rect class="a" width="8" height="8" transform="translate(1437.946 1136.5)"/><rect class="b" width="8" height="8" transform="translate(1429.946 1136.5)"/><rect class="b" width="8" height="8" transform="translate(1421.946 1136.5)"/><rect class="b" width="8" height="8" transform="translate(1413.946 1136.5)"/><rect class="b" width="8" height="8" transform="translate(1405.946 1136.5)"/><rect class="b" width="8" height="8" transform="translate(1397.946 1136.5)"/><rect class="b" width="8" height="8" transform="translate(1389.946 1136.5)"/><rect class="b" width="8" height="8" transform="translate(1381.946 1136.5)"/><rect class="b" width="8" height="8" transform="translate(1373.946 1136.5)"/><rect class="b" width="8" height="8" transform="translate(1365.946 1136.5)"/><rect class="b" width="8" height="8" transform="translate(1357.946 1136.5)"/><rect class="b" width="8" height="8" transform="translate(1349.946 1136.5)"/><rect class="b" width="8" height="8" transform="translate(1341.946 1136.5)"/><rect class="b" width="8" height="8" transform="translate(1333.946 1136.5)"/><rect class="b" width="8" height="8" transform="translate(1325.946 1136.5)"/><rect class="b" width="8" height="8" transform="translate(1317.946 1136.5)"/><rect class="b" width="8" height="8" transform="translate(1309.946 1136.5)"/><rect class="b" width="8" height="8" transform="translate(1301.946 1136.5)"/><rect class="b" width="8" height="8" transform="translate(1293.946 1136.5)"/><rect class="b" width="8" height="8" transform="translate(1285.946 1136.5)"/><rect class="b" width="8" height="8" transform="translate(1277.946 1136.5)"/><rect class="b" width="8" height="8" transform="translate(1269.946 1136.5)"/><rect class="b" width="8" height="8" transform="translate(1261.946 1136.5)"/><rect class="b" width="8" height="8" transform="translate(1253.946 1136.5)"/><rect class="b" width="8" height="8" transform="translate(1245.946 1136.5)"/><rect class="b" width="8" height="8" transform="translate(1237.946 1136.5)"/><rect class="b" width="8" height="8" transform="translate(1229.946 1136.5)"/><rect class="b" width="8" height="8" transform="translate(1221.946 1136.5)"/><rect class="b" width="8" height="8" transform="translate(1213.946 1136.5)"/><rect class="a" width="8" height="8" transform="translate(1205.946 1136.5)"/><rect class="a" width="8" height="8" transform="translate(1197.946 1136.5)"/><rect class="a" width="8" height="8" transform="translate(1445.946 1128.5)"/><rect class="a" width="8" height="8" transform="translate(1437.946 1128.5)"/><rect class="b" width="8" height="8" transform="translate(1429.946 1128.5)"/><rect class="b" width="8" height="8" transform="translate(1421.946 1128.5)"/><rect class="b" width="8" height="8" transform="translate(1413.946 1128.5)"/><rect class="b" width="8" height="8" transform="translate(1405.946 1128.5)"/><rect class="b" width="8" height="8" transform="translate(1397.946 1128.5)"/><rect class="b" width="8" height="8" transform="translate(1389.946 1128.5)"/><rect class="b" width="8" height="8" transform="translate(1381.946 1128.5)"/><rect class="b" width="8" height="8" transform="translate(1373.946 1128.5)"/><rect class="b" width="8" height="8" transform="translate(1365.946 1128.5)"/><rect class="b" width="8" height="8" transform="translate(1357.946 1128.5)"/><rect class="b" width="8" height="8" transform="translate(1349.946 1128.5)"/><rect class="b" width="8" height="8" transform="translate(1341.946 1128.5)"/><rect class="b" width="8" height="8" transform="translate(1333.946 1128.5)"/><rect class="b" width="8" height="8" transform="translate(1325.946 1128.5)"/><rect class="b" width="8" height="8" transform="translate(1317.946 1128.5)"/><rect class="b" width="8" height="8" transform="translate(1309.946 1128.5)"/><rect class="b" width="8" height="8" transform="translate(1301.946 1128.5)"/><rect class="b" width="8" height="8" transform="translate(1293.946 1128.5)"/><rect class="b" width="8" height="8" transform="translate(1285.946 1128.5)"/><rect class="b" width="8" height="8" transform="translate(1277.946 1128.5)"/><rect class="b" width="8" height="8" transform="translate(1269.946 1128.5)"/><rect class="b" width="8" height="8" transform="translate(1261.946 1128.5)"/><rect class="b" width="8" height="8" transform="translate(1253.946 1128.5)"/><rect class="b" width="8" height="8" transform="translate(1245.946 1128.5)"/><rect class="b" width="8" height="8" transform="translate(1237.946 1128.5)"/><rect class="b" width="8" height="8" transform="translate(1229.946 1128.5)"/><rect class="b" width="8" height="8" transform="translate(1221.946 1128.5)"/><rect class="b" width="8" height="8" transform="translate(1213.946 1128.5)"/><rect class="a" width="8" height="8" transform="translate(1205.946 1128.5)"/><rect class="a" width="8" height="8" transform="translate(1197.946 1128.5)"/><rect class="a" width="8" height="8" transform="translate(1445.946 1120.5)"/><rect class="a" width="8" height="8" transform="translate(1437.946 1120.5)"/><rect class="b" width="8" height="8" transform="translate(1429.946 1120.5)"/><rect class="b" width="8" height="8" transform="translate(1421.946 1120.5)"/><rect class="b" width="8" height="8" transform="translate(1413.946 1120.5)"/><rect class="b" width="8" height="8" transform="translate(1405.946 1120.5)"/><rect class="b" width="8" height="8" transform="translate(1397.946 1120.5)"/><rect class="b" width="8" height="8" transform="translate(1389.946 1120.5)"/><rect class="b" width="8" height="8" transform="translate(1381.946 1120.5)"/><rect class="b" width="8" height="8" transform="translate(1373.946 1120.5)"/><rect class="b" width="8" height="8" transform="translate(1365.946 1120.5)"/><rect class="b" width="8" height="8" transform="translate(1357.946 1120.5)"/><rect class="b" width="8" height="8" transform="translate(1349.946 1120.5)"/><rect class="b" width="8" height="8" transform="translate(1341.946 1120.5)"/><rect class="b" width="8" height="8" transform="translate(1333.946 1120.5)"/><rect class="b" width="8" height="8" transform="translate(1325.946 1120.5)"/><rect class="b" width="8" height="8" transform="translate(1317.946 1120.5)"/><rect class="b" width="8" height="8" transform="translate(1309.946 1120.5)"/><rect class="b" width="8" height="8" transform="translate(1301.946 1120.5)"/><rect class="b" width="8" height="8" transform="translate(1293.946 1120.5)"/><rect class="b" width="8" height="8" transform="translate(1285.946 1120.5)"/><rect class="b" width="8" height="8" transform="translate(1277.946 1120.5)"/><rect class="b" width="8" height="8" transform="translate(1269.946 1120.5)"/><rect class="b" width="8" height="8" transform="translate(1261.946 1120.5)"/><rect class="b" width="8" height="8" transform="translate(1253.946 1120.5)"/><rect class="b" width="8" height="8" transform="translate(1245.946 1120.5)"/><rect class="b" width="8" height="8" transform="translate(1237.946 1120.5)"/><rect class="b" width="8" height="8" transform="translate(1229.946 1120.5)"/><rect class="b" width="8" height="8" transform="translate(1221.946 1120.5)"/><rect class="b" width="8" height="8" transform="translate(1213.946 1120.5)"/><rect class="a" width="8" height="8" transform="translate(1205.946 1120.5)"/><rect class="a" width="8" height="8" transform="translate(1197.946 1120.5)"/><rect class="a" width="8" height="8" transform="translate(1445.946 1112.5)"/><rect class="a" width="8" height="8" transform="translate(1437.946 1112.5)"/><rect class="b" width="8" height="8" transform="translate(1429.946 1112.5)"/><rect class="b" width="8" height="8" transform="translate(1421.946 1112.5)"/><rect class="b" width="8" height="8" transform="translate(1413.946 1112.5)"/><rect class="b" width="8" height="8" transform="translate(1405.946 1112.5)"/><rect class="b" width="8" height="8" transform="translate(1397.946 1112.5)"/><rect class="b" width="8" height="8" transform="translate(1389.946 1112.5)"/><rect class="b" width="8" height="8" transform="translate(1381.946 1112.5)"/><rect class="b" width="8" height="8" transform="translate(1373.946 1112.5)"/><rect class="b" width="8" height="8" transform="translate(1365.946 1112.5)"/><rect class="b" width="8" height="8" transform="translate(1357.946 1112.5)"/><rect class="b" width="8" height="8" transform="translate(1349.946 1112.5)"/><rect class="b" width="8" height="8" transform="translate(1341.946 1112.5)"/><rect class="b" width="8" height="8" transform="translate(1333.946 1112.5)"/><rect class="b" width="8" height="8" transform="translate(1325.946 1112.5)"/><rect class="b" width="8" height="8" transform="translate(1317.946 1112.5)"/><rect class="b" width="8" height="8" transform="translate(1309.946 1112.5)"/><rect class="b" width="8" height="8" transform="translate(1301.946 1112.5)"/><rect class="b" width="8" height="8" transform="translate(1293.946 1112.5)"/><rect class="b" width="8" height="8" transform="translate(1285.946 1112.5)"/><rect class="b" width="8" height="8" transform="translate(1277.946 1112.5)"/><rect class="b" width="8" height="8" transform="translate(1269.946 1112.5)"/><rect class="b" width="8" height="8" transform="translate(1261.946 1112.5)"/><rect class="b" width="8" height="8" transform="translate(1253.946 1112.5)"/><rect class="b" width="8" height="8" transform="translate(1245.946 1112.5)"/><rect class="b" width="8" height="8" transform="translate(1237.946 1112.5)"/><rect class="b" width="8" height="8" transform="translate(1229.946 1112.5)"/><rect class="b" width="8" height="8" transform="translate(1221.946 1112.5)"/><rect class="b" width="8" height="8" transform="translate(1213.946 1112.5)"/><rect class="a" width="8" height="8" transform="translate(1205.946 1112.5)"/><rect class="a" width="8" height="8" transform="translate(1197.946 1112.5)"/><rect class="a" width="8" height="8" transform="translate(1445.946 1104.5)"/><rect class="a" width="8" height="8" transform="translate(1437.946 1104.5)"/><rect class="b" width="8" height="8" transform="translate(1429.946 1104.5)"/><rect class="b" width="8" height="8" transform="translate(1421.946 1104.5)"/><rect class="b" width="8" height="8" transform="translate(1413.946 1104.5)"/><rect class="b" width="8" height="8" transform="translate(1405.946 1104.5)"/><rect class="b" width="8" height="8" transform="translate(1397.946 1104.5)"/><rect class="b" width="8" height="8" transform="translate(1389.946 1104.5)"/><rect class="b" width="8" height="8" transform="translate(1381.946 1104.5)"/><rect class="b" width="8" height="8" transform="translate(1373.946 1104.5)"/><rect class="b" width="8" height="8" transform="translate(1365.946 1104.5)"/><rect class="b" width="8" height="8" transform="translate(1357.946 1104.5)"/><rect class="b" width="8" height="8" transform="translate(1349.946 1104.5)"/><rect class="b" width="8" height="8" transform="translate(1341.946 1104.5)"/><rect class="b" width="8" height="8" transform="translate(1333.946 1104.5)"/><rect class="b" width="8" height="8" transform="translate(1325.946 1104.5)"/><rect class="b" width="8" height="8" transform="translate(1317.946 1104.5)"/><rect class="b" width="8" height="8" transform="translate(1309.946 1104.5)"/><rect class="b" width="8" height="8" transform="translate(1301.946 1104.5)"/><rect class="b" width="8" height="8" transform="translate(1293.946 1104.5)"/><rect class="b" width="8" height="8" transform="translate(1285.946 1104.5)"/><rect class="b" width="8" height="8" transform="translate(1277.946 1104.5)"/><rect class="b" width="8" height="8" transform="translate(1269.946 1104.5)"/><rect class="b" width="8" height="8" transform="translate(1261.946 1104.5)"/><rect class="b" width="8" height="8" transform="translate(1253.946 1104.5)"/><rect class="b" width="8" height="8" transform="translate(1245.946 1104.5)"/><rect class="b" width="8" height="8" transform="translate(1237.946 1104.5)"/><rect class="b" width="8" height="8" transform="translate(1229.946 1104.5)"/><rect class="b" width="8" height="8" transform="translate(1221.946 1104.5)"/><rect class="b" width="8" height="8" transform="translate(1213.946 1104.5)"/><rect class="a" width="8" height="8" transform="translate(1205.946 1104.5)"/><rect class="a" width="8" height="8" transform="translate(1197.946 1104.5)"/><rect class="a" width="8" height="8" transform="translate(1445.946 1096.5)"/><rect class="a" width="8" height="8" transform="translate(1437.946 1096.5)"/><rect class="b" width="8" height="8" transform="translate(1429.946 1096.5)"/><rect class="b" width="8" height="8" transform="translate(1421.946 1096.5)"/><rect class="b" width="8" height="8" transform="translate(1413.946 1096.5)"/><rect class="b" width="8" height="8" transform="translate(1405.946 1096.5)"/><rect class="b" width="8" height="8" transform="translate(1397.946 1096.5)"/><rect class="b" width="8" height="8" transform="translate(1389.946 1096.5)"/><rect class="b" width="8" height="8" transform="translate(1381.946 1096.5)"/><rect class="b" width="8" height="8" transform="translate(1373.946 1096.5)"/><rect class="b" width="8" height="8" transform="translate(1365.946 1096.5)"/><rect class="b" width="8" height="8" transform="translate(1357.946 1096.5)"/><rect class="b" width="8" height="8" transform="translate(1349.946 1096.5)"/><rect class="b" width="8" height="8" transform="translate(1341.946 1096.5)"/><rect class="b" width="8" height="8" transform="translate(1333.946 1096.5)"/><rect class="b" width="8" height="8" transform="translate(1325.946 1096.5)"/><rect class="b" width="8" height="8" transform="translate(1317.946 1096.5)"/><rect class="b" width="8" height="8" transform="translate(1309.946 1096.5)"/><rect class="b" width="8" height="8" transform="translate(1301.946 1096.5)"/><rect class="b" width="8" height="8" transform="translate(1293.946 1096.5)"/><rect class="b" width="8" height="8" transform="translate(1285.946 1096.5)"/><rect class="b" width="8" height="8" transform="translate(1277.946 1096.5)"/><rect class="b" width="8" height="8" transform="translate(1269.946 1096.5)"/><rect class="b" width="8" height="8" transform="translate(1261.946 1096.5)"/><rect class="b" width="8" height="8" transform="translate(1253.946 1096.5)"/><rect class="b" width="8" height="8" transform="translate(1245.946 1096.5)"/><rect class="b" width="8" height="8" transform="translate(1237.946 1096.5)"/><rect class="b" width="8" height="8" transform="translate(1229.946 1096.5)"/><rect class="b" width="8" height="8" transform="translate(1221.946 1096.5)"/><rect class="b" width="8" height="8" transform="translate(1213.946 1096.5)"/><rect class="a" width="8" height="8" transform="translate(1205.946 1096.5)"/><rect class="a" width="8" height="8" transform="translate(1197.946 1096.5)"/><rect class="a" width="8" height="8" transform="translate(1445.946 1088.5)"/><rect class="a" width="8" height="8" transform="translate(1437.946 1088.5)"/><rect class="b" width="8" height="8" transform="translate(1429.946 1088.5)"/><rect class="b" width="8" height="8" transform="translate(1421.946 1088.5)"/><rect class="b" width="8" height="8" transform="translate(1413.946 1088.5)"/><rect class="b" width="8" height="8" transform="translate(1405.946 1088.5)"/><rect class="b" width="8" height="8" transform="translate(1397.946 1088.5)"/><rect class="b" width="8" height="8" transform="translate(1389.946 1088.5)"/><rect class="b" width="8" height="8" transform="translate(1381.946 1088.5)"/><rect class="b" width="8" height="8" transform="translate(1373.946 1088.5)"/><rect class="b" width="8" height="8" transform="translate(1365.946 1088.5)"/><rect class="b" width="8" height="8" transform="translate(1357.946 1088.5)"/><rect class="b" width="8" height="8" transform="translate(1349.946 1088.5)"/><rect class="b" width="8" height="8" transform="translate(1341.946 1088.5)"/><rect class="b" width="8" height="8" transform="translate(1333.946 1088.5)"/><rect class="b" width="8" height="8" transform="translate(1325.946 1088.5)"/><rect class="b" width="8" height="8" transform="translate(1317.946 1088.5)"/><rect class="b" width="8" height="8" transform="translate(1309.946 1088.5)"/><rect class="b" width="8" height="8" transform="translate(1301.946 1088.5)"/><rect class="b" width="8" height="8" transform="translate(1293.946 1088.5)"/><rect class="b" width="8" height="8" transform="translate(1285.946 1088.5)"/><rect class="b" width="8" height="8" transform="translate(1277.946 1088.5)"/><rect class="b" width="8" height="8" transform="translate(1269.946 1088.5)"/><rect class="b" width="8" height="8" transform="translate(1261.946 1088.5)"/><rect class="b" width="8" height="8" transform="translate(1253.946 1088.5)"/><rect class="b" width="8" height="8" transform="translate(1245.946 1088.5)"/><rect class="b" width="8" height="8" transform="translate(1237.946 1088.5)"/><rect class="b" width="8" height="8" transform="translate(1229.946 1088.5)"/><rect class="b" width="8" height="8" transform="translate(1221.946 1088.5)"/><rect class="b" width="8" height="8" transform="translate(1213.946 1088.5)"/><rect class="a" width="8" height="8" transform="translate(1205.946 1088.5)"/><rect class="a" width="8" height="8" transform="translate(1197.946 1088.5)"/><rect class="a" width="8" height="8" transform="translate(1445.946 1080.5)"/><rect class="a" width="8" height="8" transform="translate(1437.946 1080.5)"/><rect class="b" width="8" height="8" transform="translate(1429.946 1080.5)"/><rect class="b" width="8" height="8" transform="translate(1421.946 1080.5)"/><rect class="b" width="8" height="8" transform="translate(1413.946 1080.5)"/><rect class="b" width="8" height="8" transform="translate(1405.946 1080.5)"/><rect class="b" width="8" height="8" transform="translate(1397.946 1080.5)"/><rect class="b" width="8" height="8" transform="translate(1389.946 1080.5)"/><rect class="b" width="8" height="8" transform="translate(1381.946 1080.5)"/><rect class="b" width="8" height="8" transform="translate(1373.946 1080.5)"/><rect class="b" width="8" height="8" transform="translate(1365.946 1080.5)"/><rect class="b" width="8" height="8" transform="translate(1357.946 1080.5)"/><rect class="b" width="8" height="8" transform="translate(1349.946 1080.5)"/><rect class="b" width="8" height="8" transform="translate(1341.946 1080.5)"/><rect class="b" width="8" height="8" transform="translate(1333.946 1080.5)"/><rect class="b" width="8" height="8" transform="translate(1325.946 1080.5)"/><rect class="b" width="8" height="8" transform="translate(1317.946 1080.5)"/><rect class="b" width="8" height="8" transform="translate(1309.946 1080.5)"/><rect class="b" width="8" height="8" transform="translate(1301.946 1080.5)"/><rect class="b" width="8" height="8" transform="translate(1293.946 1080.5)"/><rect class="b" width="8" height="8" transform="translate(1285.946 1080.5)"/><rect class="b" width="8" height="8" transform="translate(1277.946 1080.5)"/><rect class="b" width="8" height="8" transform="translate(1269.946 1080.5)"/><rect class="b" width="8" height="8" transform="translate(1261.946 1080.5)"/><rect class="b" width="8" height="8" transform="translate(1253.946 1080.5)"/><rect class="b" width="8" height="8" transform="translate(1245.946 1080.5)"/><rect class="b" width="8" height="8" transform="translate(1237.946 1080.5)"/><rect class="b" width="8" height="8" transform="translate(1229.946 1080.5)"/><rect class="b" width="8" height="8" transform="translate(1221.946 1080.5)"/><rect class="b" width="8" height="8" transform="translate(1213.946 1080.5)"/><rect class="a" width="8" height="8" transform="translate(1205.946 1080.5)"/><rect class="a" width="8" height="8" transform="translate(1197.946 1080.5)"/><rect class="a" width="8" height="8" transform="translate(1445.946 1072.5)"/><rect class="a" width="8" height="8" transform="translate(1437.946 1072.5)"/><rect class="b" width="8" height="8" transform="translate(1429.946 1072.5)"/><rect class="b" width="8" height="8" transform="translate(1421.946 1072.5)"/><rect class="b" width="8" height="8" transform="translate(1413.946 1072.5)"/><rect class="b" width="8" height="8" transform="translate(1405.946 1072.5)"/><rect class="b" width="8" height="8" transform="translate(1397.946 1072.5)"/><rect class="b" width="8" height="8" transform="translate(1389.946 1072.5)"/><rect class="b" width="8" height="8" transform="translate(1381.946 1072.5)"/><rect class="b" width="8" height="8" transform="translate(1373.946 1072.5)"/><rect class="b" width="8" height="8" transform="translate(1365.946 1072.5)"/><rect class="b" width="8" height="8" transform="translate(1357.946 1072.5)"/><rect class="b" width="8" height="8" transform="translate(1349.946 1072.5)"/><rect class="b" width="8" height="8" transform="translate(1341.946 1072.5)"/><rect class="b" width="8" height="8" transform="translate(1333.946 1072.5)"/><rect class="b" width="8" height="8" transform="translate(1325.946 1072.5)"/><rect class="b" width="8" height="8" transform="translate(1317.946 1072.5)"/><rect class="b" width="8" height="8" transform="translate(1309.946 1072.5)"/><rect class="b" width="8" height="8" transform="translate(1301.946 1072.5)"/><rect class="b" width="8" height="8" transform="translate(1293.946 1072.5)"/><rect class="b" width="8" height="8" transform="translate(1285.946 1072.5)"/><rect class="b" width="8" height="8" transform="translate(1277.946 1072.5)"/><rect class="b" width="8" height="8" transform="translate(1269.946 1072.5)"/><rect class="b" width="8" height="8" transform="translate(1261.946 1072.5)"/><rect class="b" width="8" height="8" transform="translate(1253.946 1072.5)"/><rect class="b" width="8" height="8" transform="translate(1245.946 1072.5)"/><rect class="b" width="8" height="8" transform="translate(1237.946 1072.5)"/><rect class="b" width="8" height="8" transform="translate(1229.946 1072.5)"/><rect class="b" width="8" height="8" transform="translate(1221.946 1072.5)"/><rect class="b" width="8" height="8" transform="translate(1213.946 1072.5)"/><rect class="a" width="8" height="8" transform="translate(1205.946 1072.5)"/><rect class="a" width="8" height="8" transform="translate(1197.946 1072.5)"/><rect class="a" width="8" height="8" transform="translate(1445.946 1064.5)"/><rect class="a" width="8" height="8" transform="translate(1437.946 1064.5)"/><rect class="b" width="8" height="8" transform="translate(1429.946 1064.5)"/><rect class="b" width="8" height="8" transform="translate(1421.946 1064.5)"/><rect class="b" width="8" height="8" transform="translate(1413.946 1064.5)"/><rect class="b" width="8" height="8" transform="translate(1405.946 1064.5)"/><rect class="b" width="8" height="8" transform="translate(1397.946 1064.5)"/><rect class="b" width="8" height="8" transform="translate(1389.946 1064.5)"/><rect class="b" width="8" height="8" transform="translate(1381.946 1064.5)"/><rect class="b" width="8" height="8" transform="translate(1373.946 1064.5)"/><rect class="b" width="8" height="8" transform="translate(1365.946 1064.5)"/><rect class="b" width="8" height="8" transform="translate(1357.946 1064.5)"/><rect class="b" width="8" height="8" transform="translate(1349.946 1064.5)"/><rect class="b" width="8" height="8" transform="translate(1341.946 1064.5)"/><rect class="b" width="8" height="8" transform="translate(1333.946 1064.5)"/><rect class="b" width="8" height="8" transform="translate(1325.946 1064.5)"/><rect class="b" width="8" height="8" transform="translate(1317.946 1064.5)"/><rect class="b" width="8" height="8" transform="translate(1309.946 1064.5)"/><rect class="b" width="8" height="8" transform="translate(1301.946 1064.5)"/><rect class="b" width="8" height="8" transform="translate(1293.946 1064.5)"/><rect class="b" width="8" height="8" transform="translate(1285.946 1064.5)"/><rect class="b" width="8" height="8" transform="translate(1277.946 1064.5)"/><rect class="b" width="8" height="8" transform="translate(1269.946 1064.5)"/><rect class="b" width="8" height="8" transform="translate(1261.946 1064.5)"/><rect class="b" width="8" height="8" transform="translate(1253.946 1064.5)"/><rect class="b" width="8" height="8" transform="translate(1245.946 1064.5)"/><rect class="b" width="8" height="8" transform="translate(1237.946 1064.5)"/><rect class="b" width="8" height="8" transform="translate(1229.946 1064.5)"/><rect class="b" width="8" height="8" transform="translate(1221.946 1064.5)"/><rect class="b" width="8" height="8" transform="translate(1213.946 1064.5)"/><rect class="a" width="8" height="8" transform="translate(1205.946 1064.5)"/><rect class="a" width="8" height="8" transform="translate(1197.946 1064.5)"/><rect class="a" width="8" height="8" transform="translate(1445.946 1056.5)"/><rect class="a" width="8" height="8" transform="translate(1437.946 1056.5)"/><rect class="b" width="8" height="8" transform="translate(1429.946 1056.5)"/><rect class="b" width="8" height="8" transform="translate(1421.946 1056.5)"/><rect class="b" width="8" height="8" transform="translate(1413.946 1056.5)"/><rect class="b" width="8" height="8" transform="translate(1405.946 1056.5)"/><rect class="b" width="8" height="8" transform="translate(1397.946 1056.5)"/><rect class="b" width="8" height="8" transform="translate(1389.946 1056.5)"/><rect class="b" width="8" height="8" transform="translate(1381.946 1056.5)"/><rect class="b" width="8" height="8" transform="translate(1373.946 1056.5)"/><rect class="b" width="8" height="8" transform="translate(1365.946 1056.5)"/><rect class="b" width="8" height="8" transform="translate(1357.946 1056.5)"/><rect class="b" width="8" height="8" transform="translate(1349.946 1056.5)"/><rect class="b" width="8" height="8" transform="translate(1341.946 1056.5)"/><rect class="b" width="8" height="8" transform="translate(1333.946 1056.5)"/><rect class="b" width="8" height="8" transform="translate(1325.946 1056.5)"/><rect class="b" width="8" height="8" transform="translate(1317.946 1056.5)"/><rect class="b" width="8" height="8" transform="translate(1309.946 1056.5)"/><rect class="b" width="8" height="8" transform="translate(1301.946 1056.5)"/><rect class="b" width="8" height="8" transform="translate(1293.946 1056.5)"/><rect class="b" width="8" height="8" transform="translate(1285.946 1056.5)"/><rect class="b" width="8" height="8" transform="translate(1277.946 1056.5)"/><rect class="b" width="8" height="8" transform="translate(1269.946 1056.5)"/><rect class="b" width="8" height="8" transform="translate(1261.946 1056.5)"/><rect class="b" width="8" height="8" transform="translate(1253.946 1056.5)"/><rect class="b" width="8" height="8" transform="translate(1245.946 1056.5)"/><rect class="b" width="8" height="8" transform="translate(1237.946 1056.5)"/><rect class="b" width="8" height="8" transform="translate(1229.946 1056.5)"/><rect class="b" width="8" height="8" transform="translate(1221.946 1056.5)"/><rect class="b" width="8" height="8" transform="translate(1213.946 1056.5)"/><rect class="a" width="8" height="8" transform="translate(1205.946 1056.5)"/><rect class="a" width="8" height="8" transform="translate(1197.946 1056.5)"/><rect class="a" width="8" height="8" transform="translate(1445.946 1048.5)"/><rect class="a" width="8" height="8" transform="translate(1437.946 1048.5)"/><rect class="b" width="8" height="8" transform="translate(1429.946 1048.5)"/><rect class="b" width="8" height="8" transform="translate(1421.946 1048.5)"/><rect class="b" width="8" height="8" transform="translate(1413.946 1048.5)"/><rect class="b" width="8" height="8" transform="translate(1405.946 1048.5)"/><rect class="b" width="8" height="8" transform="translate(1397.946 1048.5)"/><rect class="b" width="8" height="8" transform="translate(1389.946 1048.5)"/><rect class="b" width="8" height="8" transform="translate(1381.946 1048.5)"/><rect class="b" width="8" height="8" transform="translate(1373.946 1048.5)"/><rect class="b" width="8" height="8" transform="translate(1365.946 1048.5)"/><rect class="b" width="8" height="8" transform="translate(1357.946 1048.5)"/><rect class="b" width="8" height="8" transform="translate(1349.946 1048.5)"/><rect class="b" width="8" height="8" transform="translate(1341.946 1048.5)"/><rect class="b" width="8" height="8" transform="translate(1333.946 1048.5)"/><rect class="b" width="8" height="8" transform="translate(1325.946 1048.5)"/><rect class="b" width="8" height="8" transform="translate(1317.946 1048.5)"/><rect class="b" width="8" height="8" transform="translate(1309.946 1048.5)"/><rect class="b" width="8" height="8" transform="translate(1301.946 1048.5)"/><rect class="b" width="8" height="8" transform="translate(1293.946 1048.5)"/><rect class="b" width="8" height="8" transform="translate(1285.946 1048.5)"/><rect class="b" width="8" height="8" transform="translate(1277.946 1048.5)"/><rect class="b" width="8" height="8" transform="translate(1269.946 1048.5)"/><rect class="b" width="8" height="8" transform="translate(1261.946 1048.5)"/><rect class="b" width="8" height="8" transform="translate(1253.946 1048.5)"/><rect class="b" width="8" height="8" transform="translate(1245.946 1048.5)"/><rect class="b" width="8" height="8" transform="translate(1237.946 1048.5)"/><rect class="b" width="8" height="8" transform="translate(1229.946 1048.5)"/><rect class="b" width="8" height="8" transform="translate(1221.946 1048.5)"/><rect class="b" width="8" height="8" transform="translate(1213.946 1048.5)"/><rect class="a" width="8" height="8" transform="translate(1205.946 1048.5)"/><rect class="a" width="8" height="8" transform="translate(1197.946 1048.5)"/><rect class="a" width="8" height="8" transform="translate(1445.946 1040.5)"/><rect class="a" width="8" height="8" transform="translate(1437.946 1040.5)"/><rect class="b" width="8" height="8" transform="translate(1429.946 1040.5)"/><rect class="b" width="8" height="8" transform="translate(1421.946 1040.5)"/><rect class="b" width="8" height="8" transform="translate(1413.946 1040.5)"/><rect class="b" width="8" height="8" transform="translate(1405.946 1040.5)"/><rect class="b" width="8" height="8" transform="translate(1397.946 1040.5)"/><rect class="b" width="8" height="8" transform="translate(1389.946 1040.5)"/><rect class="b" width="8" height="8" transform="translate(1381.946 1040.5)"/><rect class="b" width="8" height="8" transform="translate(1373.946 1040.5)"/><rect class="b" width="8" height="8" transform="translate(1365.946 1040.5)"/><rect class="b" width="8" height="8" transform="translate(1357.946 1040.5)"/><rect class="b" width="8" height="8" transform="translate(1349.946 1040.5)"/><rect class="b" width="8" height="8" transform="translate(1341.946 1040.5)"/><rect class="b" width="8" height="8" transform="translate(1333.946 1040.5)"/><rect class="b" width="8" height="8" transform="translate(1325.946 1040.5)"/><rect class="b" width="8" height="8" transform="translate(1317.946 1040.5)"/><rect class="b" width="8" height="8" transform="translate(1309.946 1040.5)"/><rect class="b" width="8" height="8" transform="translate(1301.946 1040.5)"/><rect class="b" width="8" height="8" transform="translate(1293.946 1040.5)"/><rect class="b" width="8" height="8" transform="translate(1285.946 1040.5)"/><rect class="b" width="8" height="8" transform="translate(1277.946 1040.5)"/><rect class="b" width="8" height="8" transform="translate(1269.946 1040.5)"/><rect class="b" width="8" height="8" transform="translate(1261.946 1040.5)"/><rect class="b" width="8" height="8" transform="translate(1253.946 1040.5)"/><rect class="b" width="8" height="8" transform="translate(1245.946 1040.5)"/><rect class="b" width="8" height="8" transform="translate(1237.946 1040.5)"/><rect class="b" width="8" height="8" transform="translate(1229.946 1040.5)"/><rect class="b" width="8" height="8" transform="translate(1221.946 1040.5)"/><rect class="b" width="8" height="8" transform="translate(1213.946 1040.5)"/><rect class="a" width="8" height="8" transform="translate(1205.946 1040.5)"/><rect class="a" width="8" height="8" transform="translate(1197.946 1040.5)"/><rect class="a" width="8" height="8" transform="translate(1445.946 1032.5)"/><rect class="a" width="8" height="8" transform="translate(1437.946 1032.5)"/><rect class="b" width="8" height="8" transform="translate(1429.946 1032.5)"/><rect class="b" width="8" height="8" transform="translate(1421.946 1032.5)"/><rect class="b" width="8" height="8" transform="translate(1413.946 1032.5)"/><rect class="b" width="8" height="8" transform="translate(1405.946 1032.5)"/><rect class="b" width="8" height="8" transform="translate(1397.946 1032.5)"/><rect class="b" width="8" height="8" transform="translate(1389.946 1032.5)"/><rect class="b" width="8" height="8" transform="translate(1381.946 1032.5)"/><rect class="b" width="8" height="8" transform="translate(1373.946 1032.5)"/><rect class="b" width="8" height="8" transform="translate(1365.946 1032.5)"/><rect class="b" width="8" height="8" transform="translate(1357.946 1032.5)"/><rect class="b" width="8" height="8" transform="translate(1349.946 1032.5)"/><rect class="b" width="8" height="8" transform="translate(1341.946 1032.5)"/><rect class="b" width="8" height="8" transform="translate(1333.946 1032.5)"/><rect class="b" width="8" height="8" transform="translate(1325.946 1032.5)"/><rect class="b" width="8" height="8" transform="translate(1317.946 1032.5)"/><rect class="b" width="8" height="8" transform="translate(1309.946 1032.5)"/><rect class="b" width="8" height="8" transform="translate(1301.946 1032.5)"/><rect class="b" width="8" height="8" transform="translate(1293.946 1032.5)"/><rect class="b" width="8" height="8" transform="translate(1285.946 1032.5)"/><rect class="b" width="8" height="8" transform="translate(1277.946 1032.5)"/><rect class="b" width="8" height="8" transform="translate(1269.946 1032.5)"/><rect class="b" width="8" height="8" transform="translate(1261.946 1032.5)"/><rect class="b" width="8" height="8" transform="translate(1253.946 1032.5)"/><rect class="b" width="8" height="8" transform="translate(1245.946 1032.5)"/><rect class="b" width="8" height="8" transform="translate(1237.946 1032.5)"/><rect class="b" width="8" height="8" transform="translate(1229.946 1032.5)"/><rect class="b" width="8" height="8" transform="translate(1221.946 1032.5)"/><rect class="b" width="8" height="8" transform="translate(1213.946 1032.5)"/><rect class="a" width="8" height="8" transform="translate(1205.946 1032.5)"/><rect class="a" width="8" height="8" transform="translate(1197.946 1032.5)"/><rect class="a" width="8" height="8" transform="translate(1445.946 1024.5)"/><rect class="a" width="8" height="8" transform="translate(1437.946 1024.5)"/><rect class="b" width="8" height="8" transform="translate(1429.946 1024.5)"/><rect class="b" width="8" height="8" transform="translate(1421.946 1024.5)"/><rect class="b" width="8" height="8" transform="translate(1413.946 1024.5)"/><rect class="b" width="8" height="8" transform="translate(1405.946 1024.5)"/><rect class="b" width="8" height="8" transform="translate(1397.946 1024.5)"/><rect class="b" width="8" height="8" transform="translate(1389.946 1024.5)"/><rect class="b" width="8" height="8" transform="translate(1381.946 1024.5)"/><rect class="b" width="8" height="8" transform="translate(1373.946 1024.5)"/><rect class="b" width="8" height="8" transform="translate(1365.946 1024.5)"/><rect class="b" width="8" height="8" transform="translate(1357.946 1024.5)"/><rect class="b" width="8" height="8" transform="translate(1349.946 1024.5)"/><rect class="b" width="8" height="8" transform="translate(1341.946 1024.5)"/><rect class="b" width="8" height="8" transform="translate(1333.946 1024.5)"/><rect class="b" width="8" height="8" transform="translate(1325.946 1024.5)"/><rect class="b" width="8" height="8" transform="translate(1317.946 1024.5)"/><rect class="b" width="8" height="8" transform="translate(1309.946 1024.5)"/><rect class="b" width="8" height="8" transform="translate(1301.946 1024.5)"/><rect class="b" width="8" height="8" transform="translate(1293.946 1024.5)"/><rect class="b" width="8" height="8" transform="translate(1285.946 1024.5)"/><rect class="b" width="8" height="8" transform="translate(1277.946 1024.5)"/><rect class="b" width="8" height="8" transform="translate(1269.946 1024.5)"/><rect class="b" width="8" height="8" transform="translate(1261.946 1024.5)"/><rect class="b" width="8" height="8" transform="translate(1253.946 1024.5)"/><rect class="b" width="8" height="8" transform="translate(1245.946 1024.5)"/><rect class="b" width="8" height="8" transform="translate(1237.946 1024.5)"/><rect class="b" width="8" height="8" transform="translate(1229.946 1024.5)"/><rect class="b" width="8" height="8" transform="translate(1221.946 1024.5)"/><rect class="b" width="8" height="8" transform="translate(1213.946 1024.5)"/><rect class="a" width="8" height="8" transform="translate(1205.946 1024.5)"/><rect class="a" width="8" height="8" transform="translate(1197.946 1024.5)"/><rect class="a" width="8" height="8" transform="translate(1445.946 1016.5)"/><rect class="a" width="8" height="8" transform="translate(1437.946 1016.5)"/><rect class="b" width="8" height="8" transform="translate(1429.946 1016.5)"/><rect class="b" width="8" height="8" transform="translate(1421.946 1016.5)"/><rect class="b" width="8" height="8" transform="translate(1413.946 1016.5)"/><rect class="b" width="8" height="8" transform="translate(1405.946 1016.5)"/><rect class="b" width="8" height="8" transform="translate(1397.946 1016.5)"/><rect class="b" width="8" height="8" transform="translate(1389.946 1016.5)"/><rect class="b" width="8" height="8" transform="translate(1381.946 1016.5)"/><rect class="b" width="8" height="8" transform="translate(1373.946 1016.5)"/><rect class="b" width="8" height="8" transform="translate(1365.946 1016.5)"/><rect class="b" width="8" height="8" transform="translate(1357.946 1016.5)"/><rect class="b" width="8" height="8" transform="translate(1349.946 1016.5)"/><rect class="b" width="8" height="8" transform="translate(1341.946 1016.5)"/><rect class="b" width="8" height="8" transform="translate(1333.946 1016.5)"/><rect class="b" width="8" height="8" transform="translate(1325.946 1016.5)"/><rect class="b" width="8" height="8" transform="translate(1317.946 1016.5)"/><rect class="b" width="8" height="8" transform="translate(1309.946 1016.5)"/><rect class="b" width="8" height="8" transform="translate(1301.946 1016.5)"/><rect class="b" width="8" height="8" transform="translate(1293.946 1016.5)"/><rect class="b" width="8" height="8" transform="translate(1285.946 1016.5)"/><rect class="b" width="8" height="8" transform="translate(1277.946 1016.5)"/><rect class="b" width="8" height="8" transform="translate(1269.946 1016.5)"/><rect class="b" width="8" height="8" transform="translate(1261.946 1016.5)"/><rect class="b" width="8" height="8" transform="translate(1253.946 1016.5)"/><rect class="b" width="8" height="8" transform="translate(1245.946 1016.5)"/><rect class="b" width="8" height="8" transform="translate(1237.946 1016.5)"/><rect class="b" width="8" height="8" transform="translate(1229.946 1016.5)"/><rect class="b" width="8" height="8" transform="translate(1221.946 1016.5)"/><rect class="b" width="8" height="8" transform="translate(1213.946 1016.5)"/><rect class="a" width="8" height="8" transform="translate(1205.946 1016.5)"/><rect class="a" width="8" height="8" transform="translate(1197.946 1016.5)"/><rect class="a" width="8" height="8" transform="translate(1445.946 1008.5)"/><rect class="a" width="8" height="8" transform="translate(1437.946 1008.5)"/><rect class="a" width="8" height="8" transform="translate(1429.946 1008.5)"/><rect class="a" width="8" height="8" transform="translate(1421.946 1008.5)"/><rect class="a" width="8" height="8" transform="translate(1413.946 1008.5)"/><rect class="a" width="8" height="8" transform="translate(1405.946 1008.5)"/><rect class="a" width="8" height="8" transform="translate(1397.946 1008.5)"/><rect class="a" width="8" height="8" transform="translate(1389.946 1008.5)"/><rect class="a" width="8" height="8" transform="translate(1381.946 1008.5)"/><rect class="a" width="8" height="8" transform="translate(1373.946 1008.5)"/><rect class="a" width="8" height="8" transform="translate(1365.946 1008.5)"/><rect class="a" width="8" height="8" transform="translate(1357.946 1008.5)"/><rect class="a" width="8" height="8" transform="translate(1349.946 1008.5)"/><rect class="a" width="8" height="8" transform="translate(1341.946 1008.5)"/><rect class="a" width="8" height="8" transform="translate(1333.946 1008.5)"/><rect class="a" width="8" height="8" transform="translate(1325.946 1008.5)"/><rect class="a" width="8" height="8" transform="translate(1317.946 1008.5)"/><rect class="a" width="8" height="8" transform="translate(1309.946 1008.5)"/><rect class="a" width="8" height="8" transform="translate(1301.946 1008.5)"/><rect class="a" width="8" height="8" transform="translate(1293.946 1008.5)"/><rect class="a" width="8" height="8" transform="translate(1285.946 1008.5)"/><rect class="a" width="8" height="8" transform="translate(1277.946 1008.5)"/><rect class="a" width="8" height="8" transform="translate(1269.946 1008.5)"/><rect class="a" width="8" height="8" transform="translate(1261.946 1008.5)"/><rect class="a" width="8" height="8" transform="translate(1253.946 1008.5)"/><rect class="a" width="8" height="8" transform="translate(1245.946 1008.5)"/><rect class="a" width="8" height="8" transform="translate(1237.946 1008.5)"/><rect class="a" width="8" height="8" transform="translate(1229.946 1008.5)"/><rect class="a" width="8" height="8" transform="translate(1221.946 1008.5)"/><rect class="a" width="8" height="8" transform="translate(1213.946 1008.5)"/><rect class="a" width="8" height="8" transform="translate(1205.946 1008.5)"/><rect class="a" width="8" height="8" transform="translate(1197.946 1008.5)"/><rect class="a" width="8" height="8" transform="translate(1445.946 1000.5)"/><rect class="a" width="8" height="8" transform="translate(1437.946 1000.5)"/><rect class="a" width="8" height="8" transform="translate(1429.946 1000.5)"/><rect class="a" width="8" height="8" transform="translate(1421.946 1000.5)"/><rect class="a" width="8" height="8" transform="translate(1413.946 1000.5)"/><rect class="a" width="8" height="8" transform="translate(1405.946 1000.5)"/><rect class="a" width="8" height="8" transform="translate(1397.946 1000.5)"/><rect class="a" width="8" height="8" transform="translate(1389.946 1000.5)"/><rect class="a" width="8" height="8" transform="translate(1381.946 1000.5)"/><rect class="a" width="8" height="8" transform="translate(1373.946 1000.5)"/><rect class="a" width="8" height="8" transform="translate(1365.946 1000.5)"/><rect class="a" width="8" height="8" transform="translate(1357.946 1000.5)"/><rect class="a" width="8" height="8" transform="translate(1349.946 1000.5)"/><rect class="a" width="8" height="8" transform="translate(1341.946 1000.5)"/><rect class="a" width="8" height="8" transform="translate(1333.946 1000.5)"/><rect class="a" width="8" height="8" transform="translate(1325.946 1000.5)"/><rect class="a" width="8" height="8" transform="translate(1317.946 1000.5)"/><rect class="a" width="8" height="8" transform="translate(1309.946 1000.5)"/><rect class="a" width="8" height="8" transform="translate(1301.946 1000.5)"/><rect class="a" width="8" height="8" transform="translate(1293.946 1000.5)"/><rect class="a" width="8" height="8" transform="translate(1285.946 1000.5)"/><rect class="a" width="8" height="8" transform="translate(1277.946 1000.5)"/><rect class="a" width="8" height="8" transform="translate(1269.946 1000.5)"/><rect class="a" width="8" height="8" transform="translate(1261.946 1000.5)"/><rect class="a" width="8" height="8" transform="translate(1253.946 1000.5)"/><rect class="a" width="8" height="8" transform="translate(1245.946 1000.5)"/><rect class="a" width="8" height="8" transform="translate(1237.946 1000.5)"/><rect class="a" width="8" height="8" transform="translate(1229.946 1000.5)"/><rect class="a" width="8" height="8" transform="translate(1221.946 1000.5)"/><rect class="a" width="8" height="8" transform="translate(1213.946 1000.5)"/><rect class="a" width="8" height="8" transform="translate(1205.946 1000.5)"/><rect class="a" width="8" height="8" transform="translate(1197.946 1000.5)"/><path d="M1326.8,1143.2c-19.65-4.376-17.243-16.242-17.145-16.758a4.139,4.139,0,0,0,.077-.761,12.31,12.31,0,0,1,3.484-7.7c2.89-2.875,7.1-4.682,13.185-4.692,13.9,0,16.077,10.183,16.161,10.6a3.916,3.916,0,0,0,7.064,1.512,3.85,3.85,0,0,0,.628-2.888c-.921-5.071-6.283-14.992-19.987-16.632v-8.548a3.905,3.905,0,0,0-7.81,0v8.49a23.423,23.423,0,0,0-14.773,6.67,19.57,19.57,0,0,0-5.753,12.8c-.277,2.043-2.313,19.779,23.152,25.46,19.543,4.357,17.582,16.577,17.493,17.074a3.66,3.66,0,0,0-.081.777,12.317,12.317,0,0,1-3.489,7.711c-2.9,2.879-7.455,4.339-13.53,4.339-13.917,0-15.732-9.851-15.817-10.281a3.839,3.839,0,0,0-1.647-2.495,3.773,3.773,0,0,0-2.88-.612,3.908,3.908,0,0,0-2.519,1.6,3.816,3.816,0,0,0-.645,2.9c.951,5.253,6.185,15.088,20.489,16.4v8.442a3.905,3.905,0,0,0,7.81,0v-8.574c6.035-.738,10.838-2.838,14.282-6.247a19.991,19.991,0,0,0,5.747-12.8,20.7,20.7,0,0,0-2.2-11.855C1344.529,1150.245,1337.363,1145.554,1326.8,1143.2Z"/><path d="M1341.946,1016.5h-62.159A33.786,33.786,0,0,0,1246,1050.286v156.428a33.785,33.785,0,0,0,33.786,33.786h92.428A33.785,33.785,0,0,0,1406,1206.714V1080.577Zm0,11.316,52.743,52.76h-32.666a20.1,20.1,0,0,1-20.077-20.076Zm56.055,178.9a25.815,25.815,0,0,1-25.786,25.786h-92.428A25.815,25.815,0,0,1,1254,1206.714V1050.286a25.816,25.816,0,0,1,25.786-25.786h54.159v36a28.108,28.108,0,0,0,28.077,28.076H1398Z"/><rect class="c" width="256" height="256" transform="translate(1197.946 1000.5)"/></g></svg>