<svg xmlns="http://www.w3.org/2000/svg" width="142.628" height="14" viewBox="0 0 142.628 14"><g transform="translate(-825.372 -7856)"><g transform="translate(825.373 7859)"><path d="M-444.795,298.066l3.859,3.693,3.859-3.693v6.365h1.344V296.78h-1.387l-3.816,3.652-3.816-3.652h-1.387v7.652h1.344Zm17.041-1.286-4.509,7.652h1.432l.9-1.565h5.734l.9,1.565h1.432l-4.509-7.652Zm3.158,5.391h-4.93l2.465-4.267Zm11.98-5.391-3.345,3.652-3.345-3.652h-1.512l4.141,4.521v3.131h1.43V301.3l4.141-4.521Zm12.171,3.433a1.807,1.807,0,0,0,.788-1.434,2.361,2.361,0,0,0-2.6-2h-5.379v7.652h6.244a2.531,2.531,0,0,0,2.775-2.174,2.278,2.278,0,0,0-1.828-2.045m-1.294.566A1.621,1.621,0,0,1-400,302.258a1.621,1.621,0,0,1-1.734,1.478h-4.51v-2.956Zm-4.51-3.3h3.643a1.45,1.45,0,0,1,1.561,1.3,1.45,1.45,0,0,1-1.561,1.3h-3.643Zm14.918-.7-4.51,7.652h1.432l.9-1.565h5.733l.9,1.565h1.433l-4.51-7.652Zm-1.772,5.391,2.464-4.267,2.466,4.267Zm19.287-5.043a11.314,11.314,0,0,0-3.467-.522c-3.258,0-5.9,1.791-5.9,4s2.639,4,5.9,4a11.334,11.334,0,0,0,3.467-.523v-.806a9.26,9.26,0,0,1-3.467.633c-2.443,0-4.423-1.48-4.423-3.3s1.98-3.3,4.423-3.3a9.275,9.275,0,0,1,3.467.632Zm5.031-.348h-1.387v7.652h1.387V300.78h6.59v3.652h1.389V296.78h-1.389v3.3h-6.59Z" transform="translate(446.139 -296.606)" fill="#fff"/></g><g transform="translate(-566.627 8619) rotate(-90)"><line x1="8" transform="translate(752 1500)" fill="none" stroke="#009bd5" stroke-width="1"/><line y2="8" transform="translate(752 1496)" fill="none" stroke="#009bd5" stroke-linecap="round" stroke-width="1"/><line y2="8" transform="translate(760 1496)" fill="none" stroke="#009bd5" stroke-linecap="round" stroke-width="1"/></g><text transform="translate(947 7867)" fill="#009bd5" font-size="12" font-family="CorporateS-Bold, CorpoS" font-weight="700"><tspan x="0" y="0">8PX</tspan></text></g></svg>