<svg xmlns="http://www.w3.org/2000/svg" width="256.5" height="256.5" viewBox="0 0 256.5 256.5"><defs><style>.a,.c,.d{opacity:0.5;}.b{fill:none;stroke:#707070;stroke-linecap:square;stroke-width:0.5px;}.c{fill:#c6c6c6;}.d{fill:#fff;}.e{fill:#0090ff;opacity:0.4;}</style></defs><g transform="translate(-943.75 -4087.75)"><g class="a" transform="translate(736 1336)"><line class="b" x2="256" transform="translate(208 2752)"/><line class="b" x2="256" transform="translate(208 2784)"/><line class="b" x2="256" transform="translate(208 2976)"/><line class="b" x2="256" transform="translate(208 2816)"/><line class="b" x2="256" transform="translate(208 2848)"/><line class="b" x2="256" transform="translate(208 2880)"/><line class="b" x2="256" transform="translate(208 2912)"/><line class="b" x2="256" transform="translate(208 2944)"/><line class="b" x2="256" transform="translate(208 3008)"/><line class="b" y2="256" transform="translate(208 2752)"/><line class="b" y2="256" transform="translate(240 2752)"/><line class="b" y2="256" transform="translate(272 2752)"/><line class="b" y2="256" transform="translate(304 2752)"/><line class="b" y2="256" transform="translate(336 2752)"/><line class="b" y2="256" transform="translate(368 2752)"/><line class="b" y2="256" transform="translate(400 2752)"/><line class="b" y2="256" transform="translate(432 2752)"/><line class="b" y2="256" transform="translate(464 2752)"/></g><g transform="translate(304 1816)"><g transform="translate(640 2272)"><rect class="c" width="256" height="256"/><rect class="d" width="224" height="224" transform="translate(16 16)"/></g><rect class="e" width="160" height="224" transform="translate(656 2480) rotate(-90)"/></g><g transform="translate(960 4136)"><path d="M68,80H4a4,4,0,0,0,0,8H68a4,4,0,0,0,0-8Z"/><path d="M75.86,104H4.14a4,4,0,0,0,0,8H75.86a4,4,0,0,0,0-8Z"/><path d="M200.59,0H4A4,4,0,0,0,0,4H0A4,4,0,0,0,4,8H200.59a15.812,15.812,0,0,1,15.17,11.74V140.27a15.812,15.812,0,0,1-15.17,11.74H36.05a4,4,0,0,0-4,4h0a4,4,0,0,0,4,4H200.59a23.747,23.747,0,0,0,23.17-18.8V18.8A23.739,23.739,0,0,0,200.59,0Z"/><path d="M217.63,64H4a4,4,0,0,1-4-4V28a4,4,0,0,1,4-4H217.63Z"/><path d="M184,136H152a8,8,0,0,1-8-8V112a8,8,0,0,1,8-8h32a8,8,0,0,1,8,8v16A8,8,0,0,1,184,136Z"/></g></g></svg>