<svg xmlns="http://www.w3.org/2000/svg" width="248" height="152" viewBox="0 0 248 152"><g transform="translate(-622 -3256)"><rect width="248" height="152" transform="translate(622 3256)"/><g transform="translate(640 3272)" fill="none" stroke="#fff" stroke-linecap="round" stroke-width="1" stroke-dasharray="6"><circle cx="60" cy="60" r="60" stroke="none"/><circle cx="60" cy="60" r="59.5" fill="none"/></g><text transform="translate(774 3332)" fill="#fff" font-size="16" font-family="CorporateS-Regular, CorpoS" letter-spacing="-0.01em"><tspan x="0" y="0">Rule of</tspan><tspan x="0" y="20">The 1x Wheel</tspan></text><path d="M-8233-40V-56a2,2,0,0,1,2-2,2,2,0,0,1,2,2v16a2,2,0,0,1-2,2A2,2,0,0,1-8233-40Zm31.7-11.473-11.314-11.315a2,2,0,0,1,0-2.827,2,2,0,0,1,2.829,0l11.313,11.313a2,2,0,0,1,0,2.829,1.994,1.994,0,0,1-1.414.586A1.993,1.993,0,0,1-8201.3-51.472Zm-62.227,0a2,2,0,0,1,0-2.829l11.315-11.313a2,2,0,0,1,2.827,0,2,2,0,0,1,0,2.827L-8260.7-51.472a1.994,1.994,0,0,1-1.414.586A1.994,1.994,0,0,1-8263.527-51.472ZM-8203-82a2,2,0,0,1-2-2,2,2,0,0,1,2-2h16a2,2,0,0,1,2,2,2,2,0,0,1-2,2Zm-72,0a2,2,0,0,1-2-2,2,2,0,0,1,2-2h16a2,2,0,0,1,2,2,2,2,0,0,1-2,2Zm22.788-20.384-11.315-11.315a2,2,0,0,1,0-2.829,2,2,0,0,1,2.829,0l11.313,11.315a2,2,0,0,1,0,2.829,1.994,1.994,0,0,1-1.414.586A1.992,1.992,0,0,1-8252.212-102.384Zm39.6,0a2,2,0,0,1,0-2.827l11.314-11.315a2,2,0,0,1,2.829,0,2,2,0,0,1,0,2.829l-11.314,11.313a2,2,0,0,1-1.415.586A1.992,1.992,0,0,1-8212.615-102.386ZM-8233-112v-16a2,2,0,0,1,2-2,2,2,0,0,1,2,2v16a2,2,0,0,1-2,2A2,2,0,0,1-8233-112Z" transform="translate(8931 3416)" fill="#fff"/></g></svg>