<svg xmlns="http://www.w3.org/2000/svg" width="80" height="112" viewBox="0 0 80 112"><g transform="translate(-0.12 -0.13)"><path d="M68.4,101.954c-9.825-2.19-8.62-8.12-8.575-8.38a2.047,2.047,0,0,0,.04-.38,6.155,6.155,0,0,1,1.74-3.85A8.9,8.9,0,0,1,68.2,87c6.95,0,8.04,5.09,8.08,5.3a1.957,1.957,0,0,0,3.53.755,1.918,1.918,0,0,0,.315-1.445c-.46-2.535-3.14-7.495-10-8.315V79.02a1.953,1.953,0,0,0-3.9,0v4.245A11.68,11.68,0,0,0,58.839,86.6,9.764,9.764,0,0,0,55.964,93c-.14,1.02-1.155,9.89,11.575,12.729,9.77,2.18,8.79,8.29,8.745,8.535a1.944,1.944,0,0,0-.04.39,6.162,6.162,0,0,1-1.745,3.855c-1.45,1.44-3.725,2.17-6.765,2.17-6.96,0-7.865-4.925-7.91-5.14a1.922,1.922,0,0,0-.825-1.25,1.89,1.89,0,0,0-1.44-.3,1.959,1.959,0,0,0-1.26.8,1.9,1.9,0,0,0-.32,1.45c.475,2.625,3.09,7.545,10.245,8.2v4.22a1.953,1.953,0,0,0,3.905,0v-4.285a11.892,11.892,0,0,0,7.14-3.125,10.009,10.009,0,0,0,2.875-6.4,10.357,10.357,0,0,0-1.1-5.93C77.269,105.474,73.689,103.129,68.4,101.954Z" transform="translate(-27.887 -38.477)"/><path d="M48.092.13H17.014A16.9,16.9,0,0,0,.12,17.024V95.236A16.9,16.9,0,0,0,17.014,112.13H63.226A16.9,16.9,0,0,0,80.12,95.236V32.164Zm0,5.655L74.46,32.164H58.126a10.052,10.052,0,0,1-10.039-10.04V5.785ZM76.12,95.231a12.909,12.909,0,0,1-12.894,12.894H17.014A12.909,12.909,0,0,1,4.12,95.231V17.019A12.909,12.909,0,0,1,17.014,4.125H44.092v18A14.057,14.057,0,0,0,58.131,36.163H76.12Z" transform="translate(0 0)"/></g></svg>