<svg xmlns="http://www.w3.org/2000/svg" width="256.25" height="256.25" viewBox="0 0 256.25 256.25"><defs><style>.a{fill:#f5f5f5;}.a,.b{stroke:#666;stroke-width:0.25px;}.b,.c{fill:none;}</style></defs><g transform="translate(-1197.879 -2015.881)"><rect class="a" width="8" height="8" transform="translate(1446.004 2264.007)"/><rect class="a" width="8" height="8" transform="translate(1438.004 2264.007)"/><rect class="a" width="8" height="8" transform="translate(1430.004 2264.007)"/><rect class="a" width="8" height="8" transform="translate(1422.004 2264.007)"/><rect class="a" width="8" height="8" transform="translate(1414.004 2264.007)"/><rect class="a" width="8" height="8" transform="translate(1406.004 2264.007)"/><rect class="a" width="8" height="8" transform="translate(1398.004 2264.007)"/><rect class="a" width="8" height="8" transform="translate(1390.004 2264.007)"/><rect class="a" width="8" height="8" transform="translate(1382.004 2264.007)"/><rect class="a" width="8" height="8" transform="translate(1374.004 2264.007)"/><rect class="a" width="8" height="8" transform="translate(1366.004 2264.007)"/><rect class="a" width="8" height="8" transform="translate(1358.004 2264.007)"/><rect class="a" width="8" height="8" transform="translate(1350.004 2264.007)"/><rect class="a" width="8" height="8" transform="translate(1342.004 2264.007)"/><rect class="a" width="8" height="8" transform="translate(1334.004 2264.007)"/><rect class="a" width="8" height="8" transform="translate(1326.004 2264.007)"/><rect class="a" width="8" height="8" transform="translate(1318.004 2264.007)"/><rect class="a" width="8" height="8" transform="translate(1310.004 2264.007)"/><rect class="a" width="8" height="8" transform="translate(1302.004 2264.007)"/><rect class="a" width="8" height="8" transform="translate(1294.004 2264.007)"/><rect class="a" width="8" height="8" transform="translate(1286.004 2264.007)"/><rect class="a" width="8" height="8" transform="translate(1278.004 2264.007)"/><rect class="a" width="8" height="8" transform="translate(1270.004 2264.007)"/><rect class="a" width="8" height="8" transform="translate(1262.004 2264.007)"/><rect class="a" width="8" height="8" transform="translate(1254.004 2264.007)"/><rect class="a" width="8" height="8" transform="translate(1246.004 2264.007)"/><rect class="a" width="8" height="8" transform="translate(1238.004 2264.007)"/><rect class="a" width="8" height="8" transform="translate(1230.004 2264.007)"/><rect class="a" width="8" height="8" transform="translate(1222.004 2264.007)"/><rect class="a" width="8" height="8" transform="translate(1214.004 2264.007)"/><rect class="a" width="8" height="8" transform="translate(1206.004 2264.007)"/><rect class="a" width="8" height="8" transform="translate(1198.004 2264.007)"/><rect class="a" width="8" height="8" transform="translate(1446.004 2256.007)"/><rect class="a" width="8" height="8" transform="translate(1438.004 2256.007)"/><rect class="a" width="8" height="8" transform="translate(1430.004 2256.007)"/><rect class="a" width="8" height="8" transform="translate(1422.004 2256.007)"/><rect class="a" width="8" height="8" transform="translate(1414.004 2256.007)"/><rect class="a" width="8" height="8" transform="translate(1406.004 2256.007)"/><rect class="a" width="8" height="8" transform="translate(1398.004 2256.007)"/><rect class="a" width="8" height="8" transform="translate(1390.004 2256.007)"/><rect class="a" width="8" height="8" transform="translate(1382.004 2256.007)"/><rect class="a" width="8" height="8" transform="translate(1374.004 2256.007)"/><rect class="a" width="8" height="8" transform="translate(1366.004 2256.007)"/><rect class="a" width="8" height="8" transform="translate(1358.004 2256.007)"/><rect class="a" width="8" height="8" transform="translate(1350.004 2256.007)"/><rect class="a" width="8" height="8" transform="translate(1342.004 2256.007)"/><rect class="a" width="8" height="8" transform="translate(1334.004 2256.007)"/><rect class="a" width="8" height="8" transform="translate(1326.004 2256.007)"/><rect class="a" width="8" height="8" transform="translate(1318.004 2256.007)"/><rect class="a" width="8" height="8" transform="translate(1310.004 2256.007)"/><rect class="a" width="8" height="8" transform="translate(1302.004 2256.007)"/><rect class="a" width="8" height="8" transform="translate(1294.004 2256.007)"/><rect class="a" width="8" height="8" transform="translate(1286.004 2256.007)"/><rect class="a" width="8" height="8" transform="translate(1278.004 2256.007)"/><rect class="a" width="8" height="8" transform="translate(1270.004 2256.007)"/><rect class="a" width="8" height="8" transform="translate(1262.004 2256.007)"/><rect class="a" width="8" height="8" transform="translate(1254.004 2256.007)"/><rect class="a" width="8" height="8" transform="translate(1246.004 2256.007)"/><rect class="a" width="8" height="8" transform="translate(1238.004 2256.007)"/><rect class="a" width="8" height="8" transform="translate(1230.004 2256.007)"/><rect class="a" width="8" height="8" transform="translate(1222.004 2256.007)"/><rect class="a" width="8" height="8" transform="translate(1214.004 2256.007)"/><rect class="a" width="8" height="8" transform="translate(1206.004 2256.007)"/><rect class="a" width="8" height="8" transform="translate(1198.004 2256.007)"/><rect class="a" width="8" height="8" transform="translate(1446.004 2248.007)"/><rect class="a" width="8" height="8" transform="translate(1438.004 2248.007)"/><rect class="b" width="8" height="8" transform="translate(1430.004 2248.007)"/><rect class="b" width="8" height="8" transform="translate(1422.004 2248.007)"/><rect class="b" width="8" height="8" transform="translate(1414.004 2248.007)"/><rect class="b" width="8" height="8" transform="translate(1406.004 2248.007)"/><rect class="b" width="8" height="8" transform="translate(1398.004 2248.007)"/><rect class="b" width="8" height="8" transform="translate(1390.004 2248.007)"/><rect class="b" width="8" height="8" transform="translate(1382.004 2248.007)"/><rect class="b" width="8" height="8" transform="translate(1374.004 2248.007)"/><rect class="b" width="8" height="8" transform="translate(1366.004 2248.007)"/><rect class="b" width="8" height="8" transform="translate(1358.004 2248.007)"/><rect class="b" width="8" height="8" transform="translate(1350.004 2248.007)"/><rect class="b" width="8" height="8" transform="translate(1342.004 2248.007)"/><rect class="b" width="8" height="8" transform="translate(1334.004 2248.007)"/><rect class="b" width="8" height="8" transform="translate(1326.004 2248.007)"/><rect class="b" width="8" height="8" transform="translate(1318.004 2248.007)"/><rect class="b" width="8" height="8" transform="translate(1310.004 2248.007)"/><rect class="b" width="8" height="8" transform="translate(1302.004 2248.007)"/><rect class="b" width="8" height="8" transform="translate(1294.004 2248.007)"/><rect class="b" width="8" height="8" transform="translate(1286.004 2248.007)"/><rect class="b" width="8" height="8" transform="translate(1278.004 2248.007)"/><rect class="b" width="8" height="8" transform="translate(1270.004 2248.007)"/><rect class="b" width="8" height="8" transform="translate(1262.004 2248.007)"/><rect class="b" width="8" height="8" transform="translate(1254.004 2248.007)"/><rect class="b" width="8" height="8" transform="translate(1246.004 2248.007)"/><rect class="b" width="8" height="8" transform="translate(1238.004 2248.007)"/><rect class="b" width="8" height="8" transform="translate(1230.004 2248.007)"/><rect class="b" width="8" height="8" transform="translate(1222.004 2248.007)"/><rect class="b" width="8" height="8" transform="translate(1214.004 2248.007)"/><rect class="a" width="8" height="8" transform="translate(1206.004 2248.007)"/><rect class="a" width="8" height="8" transform="translate(1198.004 2248.007)"/><rect class="a" width="8" height="8" transform="translate(1446.004 2240.007)"/><rect class="a" width="8" height="8" transform="translate(1438.004 2240.007)"/><rect class="b" width="8" height="8" transform="translate(1430.004 2240.007)"/><rect class="b" width="8" height="8" transform="translate(1422.004 2240.007)"/><rect class="b" width="8" height="8" transform="translate(1414.004 2240.007)"/><rect class="b" width="8" height="8" transform="translate(1406.004 2240.007)"/><rect class="b" width="8" height="8" transform="translate(1398.004 2240.007)"/><rect class="b" width="8" height="8" transform="translate(1390.004 2240.007)"/><rect class="b" width="8" height="8" transform="translate(1382.004 2240.007)"/><rect class="b" width="8" height="8" transform="translate(1374.004 2240.007)"/><rect class="b" width="8" height="8" transform="translate(1366.004 2240.007)"/><rect class="b" width="8" height="8" transform="translate(1358.004 2240.007)"/><rect class="b" width="8" height="8" transform="translate(1350.004 2240.007)"/><rect class="b" width="8" height="8" transform="translate(1342.004 2240.007)"/><rect class="b" width="8" height="8" transform="translate(1334.004 2240.007)"/><rect class="b" width="8" height="8" transform="translate(1326.004 2240.007)"/><rect class="b" width="8" height="8" transform="translate(1318.004 2240.007)"/><rect class="b" width="8" height="8" transform="translate(1310.004 2240.007)"/><rect class="b" width="8" height="8" transform="translate(1302.004 2240.007)"/><rect class="b" width="8" height="8" transform="translate(1294.004 2240.007)"/><rect class="b" width="8" height="8" transform="translate(1286.004 2240.007)"/><rect class="b" width="8" height="8" transform="translate(1278.004 2240.007)"/><rect class="b" width="8" height="8" transform="translate(1270.004 2240.007)"/><rect class="b" width="8" height="8" transform="translate(1262.004 2240.007)"/><rect class="b" width="8" height="8" transform="translate(1254.004 2240.007)"/><rect class="b" width="8" height="8" transform="translate(1246.004 2240.007)"/><rect class="b" width="8" height="8" transform="translate(1238.004 2240.007)"/><rect class="b" width="8" height="8" transform="translate(1230.004 2240.007)"/><rect class="b" width="8" height="8" transform="translate(1222.004 2240.007)"/><rect class="b" width="8" height="8" transform="translate(1214.004 2240.007)"/><rect class="a" width="8" height="8" transform="translate(1206.004 2240.007)"/><rect class="a" width="8" height="8" transform="translate(1198.004 2240.007)"/><rect class="a" width="8" height="8" transform="translate(1446.004 2232.007)"/><rect class="a" width="8" height="8" transform="translate(1438.004 2232.007)"/><rect class="b" width="8" height="8" transform="translate(1430.004 2232.007)"/><rect class="b" width="8" height="8" transform="translate(1422.004 2232.007)"/><rect class="b" width="8" height="8" transform="translate(1414.004 2232.007)"/><rect class="b" width="8" height="8" transform="translate(1406.004 2232.007)"/><rect class="b" width="8" height="8" transform="translate(1398.004 2232.007)"/><rect class="b" width="8" height="8" transform="translate(1390.004 2232.007)"/><rect class="b" width="8" height="8" transform="translate(1382.004 2232.007)"/><rect class="b" width="8" height="8" transform="translate(1374.004 2232.007)"/><rect class="b" width="8" height="8" transform="translate(1366.004 2232.007)"/><rect class="b" width="8" height="8" transform="translate(1358.004 2232.007)"/><rect class="b" width="8" height="8" transform="translate(1350.004 2232.007)"/><rect class="b" width="8" height="8" transform="translate(1342.004 2232.007)"/><rect class="b" width="8" height="8" transform="translate(1334.004 2232.007)"/><rect class="b" width="8" height="8" transform="translate(1326.004 2232.007)"/><rect class="b" width="8" height="8" transform="translate(1318.004 2232.007)"/><rect class="b" width="8" height="8" transform="translate(1310.004 2232.007)"/><rect class="b" width="8" height="8" transform="translate(1302.004 2232.007)"/><rect class="b" width="8" height="8" transform="translate(1294.004 2232.007)"/><rect class="b" width="8" height="8" transform="translate(1286.004 2232.007)"/><rect class="b" width="8" height="8" transform="translate(1278.004 2232.007)"/><rect class="b" width="8" height="8" transform="translate(1270.004 2232.007)"/><rect class="b" width="8" height="8" transform="translate(1262.004 2232.007)"/><rect class="b" width="8" height="8" transform="translate(1254.004 2232.007)"/><rect class="b" width="8" height="8" transform="translate(1246.004 2232.007)"/><rect class="b" width="8" height="8" transform="translate(1238.004 2232.007)"/><rect class="b" width="8" height="8" transform="translate(1230.004 2232.007)"/><rect class="b" width="8" height="8" transform="translate(1222.004 2232.007)"/><rect class="b" width="8" height="8" transform="translate(1214.004 2232.007)"/><rect class="a" width="8" height="8" transform="translate(1206.004 2232.007)"/><rect class="a" width="8" height="8" transform="translate(1198.004 2232.007)"/><rect class="a" width="8" height="8" transform="translate(1446.004 2224.007)"/><rect class="a" width="8" height="8" transform="translate(1438.004 2224.007)"/><rect class="b" width="8" height="8" transform="translate(1430.004 2224.007)"/><rect class="b" width="8" height="8" transform="translate(1422.004 2224.007)"/><rect class="b" width="8" height="8" transform="translate(1414.004 2224.007)"/><rect class="b" width="8" height="8" transform="translate(1406.004 2224.007)"/><rect class="b" width="8" height="8" transform="translate(1398.004 2224.007)"/><rect class="b" width="8" height="8" transform="translate(1390.004 2224.007)"/><rect class="b" width="8" height="8" transform="translate(1382.004 2224.007)"/><rect class="b" width="8" height="8" transform="translate(1374.004 2224.007)"/><rect class="b" width="8" height="8" transform="translate(1366.004 2224.007)"/><rect class="b" width="8" height="8" transform="translate(1358.004 2224.007)"/><rect class="b" width="8" height="8" transform="translate(1350.004 2224.007)"/><rect class="b" width="8" height="8" transform="translate(1342.004 2224.007)"/><rect class="b" width="8" height="8" transform="translate(1334.004 2224.007)"/><rect class="b" width="8" height="8" transform="translate(1326.004 2224.007)"/><rect class="b" width="8" height="8" transform="translate(1318.004 2224.007)"/><rect class="b" width="8" height="8" transform="translate(1310.004 2224.007)"/><rect class="b" width="8" height="8" transform="translate(1302.004 2224.007)"/><rect class="b" width="8" height="8" transform="translate(1294.004 2224.007)"/><rect class="b" width="8" height="8" transform="translate(1286.004 2224.007)"/><rect class="b" width="8" height="8" transform="translate(1278.004 2224.007)"/><rect class="b" width="8" height="8" transform="translate(1270.004 2224.007)"/><rect class="b" width="8" height="8" transform="translate(1262.004 2224.007)"/><rect class="b" width="8" height="8" transform="translate(1254.004 2224.007)"/><rect class="b" width="8" height="8" transform="translate(1246.004 2224.007)"/><rect class="b" width="8" height="8" transform="translate(1238.004 2224.007)"/><rect class="b" width="8" height="8" transform="translate(1230.004 2224.007)"/><rect class="b" width="8" height="8" transform="translate(1222.004 2224.007)"/><rect class="b" width="8" height="8" transform="translate(1214.004 2224.007)"/><rect class="a" width="8" height="8" transform="translate(1206.004 2224.007)"/><rect class="a" width="8" height="8" transform="translate(1198.004 2224.007)"/><rect class="a" width="8" height="8" transform="translate(1446.004 2216.007)"/><rect class="a" width="8" height="8" transform="translate(1438.004 2216.007)"/><rect class="b" width="8" height="8" transform="translate(1430.004 2216.007)"/><rect class="b" width="8" height="8" transform="translate(1422.004 2216.007)"/><rect class="b" width="8" height="8" transform="translate(1414.004 2216.007)"/><rect class="b" width="8" height="8" transform="translate(1406.004 2216.007)"/><rect class="b" width="8" height="8" transform="translate(1398.004 2216.007)"/><rect class="b" width="8" height="8" transform="translate(1390.004 2216.007)"/><rect class="b" width="8" height="8" transform="translate(1382.004 2216.007)"/><rect class="b" width="8" height="8" transform="translate(1374.004 2216.007)"/><rect class="b" width="8" height="8" transform="translate(1366.004 2216.007)"/><rect class="b" width="8" height="8" transform="translate(1358.004 2216.007)"/><rect class="b" width="8" height="8" transform="translate(1350.004 2216.007)"/><rect class="b" width="8" height="8" transform="translate(1342.004 2216.007)"/><rect class="b" width="8" height="8" transform="translate(1334.004 2216.007)"/><rect class="b" width="8" height="8" transform="translate(1326.004 2216.007)"/><rect class="b" width="8" height="8" transform="translate(1318.004 2216.007)"/><rect class="b" width="8" height="8" transform="translate(1310.004 2216.007)"/><rect class="b" width="8" height="8" transform="translate(1302.004 2216.007)"/><rect class="b" width="8" height="8" transform="translate(1294.004 2216.007)"/><rect class="b" width="8" height="8" transform="translate(1286.004 2216.007)"/><rect class="b" width="8" height="8" transform="translate(1278.004 2216.007)"/><rect class="b" width="8" height="8" transform="translate(1270.004 2216.007)"/><rect class="b" width="8" height="8" transform="translate(1262.004 2216.007)"/><rect class="b" width="8" height="8" transform="translate(1254.004 2216.007)"/><rect class="b" width="8" height="8" transform="translate(1246.004 2216.007)"/><rect class="b" width="8" height="8" transform="translate(1238.004 2216.007)"/><rect class="b" width="8" height="8" transform="translate(1230.004 2216.007)"/><rect class="b" width="8" height="8" transform="translate(1222.004 2216.007)"/><rect class="b" width="8" height="8" transform="translate(1214.004 2216.007)"/><rect class="a" width="8" height="8" transform="translate(1206.004 2216.007)"/><rect class="a" width="8" height="8" transform="translate(1198.004 2216.007)"/><rect class="a" width="8" height="8" transform="translate(1446.004 2208.007)"/><rect class="a" width="8" height="8" transform="translate(1438.004 2208.007)"/><rect class="b" width="8" height="8" transform="translate(1430.004 2208.007)"/><rect class="b" width="8" height="8" transform="translate(1422.004 2208.007)"/><rect class="b" width="8" height="8" transform="translate(1414.004 2208.007)"/><rect class="b" width="8" height="8" transform="translate(1406.004 2208.007)"/><rect class="b" width="8" height="8" transform="translate(1398.004 2208.007)"/><rect class="b" width="8" height="8" transform="translate(1390.004 2208.007)"/><rect class="b" width="8" height="8" transform="translate(1382.004 2208.007)"/><rect class="b" width="8" height="8" transform="translate(1374.004 2208.007)"/><rect class="b" width="8" height="8" transform="translate(1366.004 2208.007)"/><rect class="b" width="8" height="8" transform="translate(1358.004 2208.007)"/><rect class="b" width="8" height="8" transform="translate(1350.004 2208.007)"/><rect class="b" width="8" height="8" transform="translate(1342.004 2208.007)"/><rect class="b" width="8" height="8" transform="translate(1334.004 2208.007)"/><rect class="b" width="8" height="8" transform="translate(1326.004 2208.007)"/><rect class="b" width="8" height="8" transform="translate(1318.004 2208.007)"/><rect class="b" width="8" height="8" transform="translate(1310.004 2208.007)"/><rect class="b" width="8" height="8" transform="translate(1302.004 2208.007)"/><rect class="b" width="8" height="8" transform="translate(1294.004 2208.007)"/><rect class="b" width="8" height="8" transform="translate(1286.004 2208.007)"/><rect class="b" width="8" height="8" transform="translate(1278.004 2208.007)"/><rect class="b" width="8" height="8" transform="translate(1270.004 2208.007)"/><rect class="b" width="8" height="8" transform="translate(1262.004 2208.007)"/><rect class="b" width="8" height="8" transform="translate(1254.004 2208.007)"/><rect class="b" width="8" height="8" transform="translate(1246.004 2208.007)"/><rect class="b" width="8" height="8" transform="translate(1238.004 2208.007)"/><rect class="b" width="8" height="8" transform="translate(1230.004 2208.007)"/><rect class="b" width="8" height="8" transform="translate(1222.004 2208.007)"/><rect class="b" width="8" height="8" transform="translate(1214.004 2208.007)"/><rect class="a" width="8" height="8" transform="translate(1206.004 2208.007)"/><rect class="a" width="8" height="8" transform="translate(1198.004 2208.007)"/><rect class="a" width="8" height="8" transform="translate(1446.004 2200.007)"/><rect class="a" width="8" height="8" transform="translate(1438.004 2200.007)"/><rect class="b" width="8" height="8" transform="translate(1430.004 2200.007)"/><rect class="b" width="8" height="8" transform="translate(1422.004 2200.007)"/><rect class="b" width="8" height="8" transform="translate(1414.004 2200.007)"/><rect class="b" width="8" height="8" transform="translate(1406.004 2200.007)"/><rect class="b" width="8" height="8" transform="translate(1398.004 2200.007)"/><rect class="b" width="8" height="8" transform="translate(1390.004 2200.007)"/><rect class="b" width="8" height="8" transform="translate(1382.004 2200.007)"/><rect class="b" width="8" height="8" transform="translate(1374.004 2200.007)"/><rect class="b" width="8" height="8" transform="translate(1366.004 2200.007)"/><rect class="b" width="8" height="8" transform="translate(1358.004 2200.007)"/><rect class="b" width="8" height="8" transform="translate(1350.004 2200.007)"/><rect class="b" width="8" height="8" transform="translate(1342.004 2200.007)"/><rect class="b" width="8" height="8" transform="translate(1334.004 2200.007)"/><rect class="b" width="8" height="8" transform="translate(1326.004 2200.007)"/><rect class="b" width="8" height="8" transform="translate(1318.004 2200.007)"/><rect class="b" width="8" height="8" transform="translate(1310.004 2200.007)"/><rect class="b" width="8" height="8" transform="translate(1302.004 2200.007)"/><rect class="b" width="8" height="8" transform="translate(1294.004 2200.007)"/><rect class="b" width="8" height="8" transform="translate(1286.004 2200.007)"/><rect class="b" width="8" height="8" transform="translate(1278.004 2200.007)"/><rect class="b" width="8" height="8" transform="translate(1270.004 2200.007)"/><rect class="b" width="8" height="8" transform="translate(1262.004 2200.007)"/><rect class="b" width="8" height="8" transform="translate(1254.004 2200.007)"/><rect class="b" width="8" height="8" transform="translate(1246.004 2200.007)"/><rect class="b" width="8" height="8" transform="translate(1238.004 2200.007)"/><rect class="b" width="8" height="8" transform="translate(1230.004 2200.007)"/><rect class="b" width="8" height="8" transform="translate(1222.004 2200.007)"/><rect class="b" width="8" height="8" transform="translate(1214.004 2200.007)"/><rect class="a" width="8" height="8" transform="translate(1206.004 2200.007)"/><rect class="a" width="8" height="8" transform="translate(1198.004 2200.007)"/><rect class="a" width="8" height="8" transform="translate(1446.004 2192.007)"/><rect class="a" width="8" height="8" transform="translate(1438.004 2192.007)"/><rect class="b" width="8" height="8" transform="translate(1430.004 2192.007)"/><rect class="b" width="8" height="8" transform="translate(1422.004 2192.007)"/><rect class="b" width="8" height="8" transform="translate(1414.004 2192.007)"/><rect class="b" width="8" height="8" transform="translate(1406.004 2192.007)"/><rect class="b" width="8" height="8" transform="translate(1398.004 2192.007)"/><rect class="b" width="8" height="8" transform="translate(1390.004 2192.007)"/><rect class="b" width="8" height="8" transform="translate(1382.004 2192.007)"/><rect class="b" width="8" height="8" transform="translate(1374.004 2192.007)"/><rect class="b" width="8" height="8" transform="translate(1366.004 2192.007)"/><rect class="b" width="8" height="8" transform="translate(1358.004 2192.007)"/><rect class="b" width="8" height="8" transform="translate(1350.004 2192.007)"/><rect class="b" width="8" height="8" transform="translate(1342.004 2192.007)"/><rect class="b" width="8" height="8" transform="translate(1334.004 2192.007)"/><rect class="b" width="8" height="8" transform="translate(1326.004 2192.007)"/><rect class="b" width="8" height="8" transform="translate(1318.004 2192.007)"/><rect class="b" width="8" height="8" transform="translate(1310.004 2192.007)"/><rect class="b" width="8" height="8" transform="translate(1302.004 2192.007)"/><rect class="b" width="8" height="8" transform="translate(1294.004 2192.007)"/><rect class="b" width="8" height="8" transform="translate(1286.004 2192.007)"/><rect class="b" width="8" height="8" transform="translate(1278.004 2192.007)"/><rect class="b" width="8" height="8" transform="translate(1270.004 2192.007)"/><rect class="b" width="8" height="8" transform="translate(1262.004 2192.007)"/><rect class="b" width="8" height="8" transform="translate(1254.004 2192.007)"/><rect class="b" width="8" height="8" transform="translate(1246.004 2192.007)"/><rect class="b" width="8" height="8" transform="translate(1238.004 2192.007)"/><rect class="b" width="8" height="8" transform="translate(1230.004 2192.007)"/><rect class="b" width="8" height="8" transform="translate(1222.004 2192.007)"/><rect class="b" width="8" height="8" transform="translate(1214.004 2192.007)"/><rect class="a" width="8" height="8" transform="translate(1206.004 2192.007)"/><rect class="a" width="8" height="8" transform="translate(1198.004 2192.007)"/><rect class="a" width="8" height="8" transform="translate(1446.004 2184.007)"/><rect class="a" width="8" height="8" transform="translate(1438.004 2184.007)"/><rect class="b" width="8" height="8" transform="translate(1430.004 2184.007)"/><rect class="b" width="8" height="8" transform="translate(1422.004 2184.007)"/><rect class="b" width="8" height="8" transform="translate(1414.004 2184.007)"/><rect class="b" width="8" height="8" transform="translate(1406.004 2184.007)"/><rect class="b" width="8" height="8" transform="translate(1398.004 2184.007)"/><rect class="b" width="8" height="8" transform="translate(1390.004 2184.007)"/><rect class="b" width="8" height="8" transform="translate(1382.004 2184.007)"/><rect class="b" width="8" height="8" transform="translate(1374.004 2184.007)"/><rect class="b" width="8" height="8" transform="translate(1366.004 2184.007)"/><rect class="b" width="8" height="8" transform="translate(1358.004 2184.007)"/><rect class="b" width="8" height="8" transform="translate(1350.004 2184.007)"/><rect class="b" width="8" height="8" transform="translate(1342.004 2184.007)"/><rect class="b" width="8" height="8" transform="translate(1334.004 2184.007)"/><rect class="b" width="8" height="8" transform="translate(1326.004 2184.007)"/><rect class="b" width="8" height="8" transform="translate(1318.004 2184.007)"/><rect class="b" width="8" height="8" transform="translate(1310.004 2184.007)"/><rect class="b" width="8" height="8" transform="translate(1302.004 2184.007)"/><rect class="b" width="8" height="8" transform="translate(1294.004 2184.007)"/><rect class="b" width="8" height="8" transform="translate(1286.004 2184.007)"/><rect class="b" width="8" height="8" transform="translate(1278.004 2184.007)"/><rect class="b" width="8" height="8" transform="translate(1270.004 2184.007)"/><rect class="b" width="8" height="8" transform="translate(1262.004 2184.007)"/><rect class="b" width="8" height="8" transform="translate(1254.004 2184.007)"/><rect class="b" width="8" height="8" transform="translate(1246.004 2184.007)"/><rect class="b" width="8" height="8" transform="translate(1238.004 2184.007)"/><rect class="b" width="8" height="8" transform="translate(1230.004 2184.007)"/><rect class="b" width="8" height="8" transform="translate(1222.004 2184.007)"/><rect class="b" width="8" height="8" transform="translate(1214.004 2184.007)"/><rect class="a" width="8" height="8" transform="translate(1206.004 2184.007)"/><rect class="a" width="8" height="8" transform="translate(1198.004 2184.007)"/><rect class="a" width="8" height="8" transform="translate(1446.004 2176.007)"/><rect class="a" width="8" height="8" transform="translate(1438.004 2176.007)"/><rect class="b" width="8" height="8" transform="translate(1430.004 2176.007)"/><rect class="b" width="8" height="8" transform="translate(1422.004 2176.007)"/><rect class="b" width="8" height="8" transform="translate(1414.004 2176.007)"/><rect class="b" width="8" height="8" transform="translate(1406.004 2176.007)"/><rect class="b" width="8" height="8" transform="translate(1398.004 2176.007)"/><rect class="b" width="8" height="8" transform="translate(1390.004 2176.007)"/><rect class="b" width="8" height="8" transform="translate(1382.004 2176.007)"/><rect class="b" width="8" height="8" transform="translate(1374.004 2176.007)"/><rect class="b" width="8" height="8" transform="translate(1366.004 2176.007)"/><rect class="b" width="8" height="8" transform="translate(1358.004 2176.007)"/><rect class="b" width="8" height="8" transform="translate(1350.004 2176.007)"/><rect class="b" width="8" height="8" transform="translate(1342.004 2176.007)"/><rect class="b" width="8" height="8" transform="translate(1334.004 2176.007)"/><rect class="b" width="8" height="8" transform="translate(1326.004 2176.007)"/><rect class="b" width="8" height="8" transform="translate(1318.004 2176.007)"/><rect class="b" width="8" height="8" transform="translate(1310.004 2176.007)"/><rect class="b" width="8" height="8" transform="translate(1302.004 2176.007)"/><rect class="b" width="8" height="8" transform="translate(1294.004 2176.007)"/><rect class="b" width="8" height="8" transform="translate(1286.004 2176.007)"/><rect class="b" width="8" height="8" transform="translate(1278.004 2176.007)"/><rect class="b" width="8" height="8" transform="translate(1270.004 2176.007)"/><rect class="b" width="8" height="8" transform="translate(1262.004 2176.007)"/><rect class="b" width="8" height="8" transform="translate(1254.004 2176.007)"/><rect class="b" width="8" height="8" transform="translate(1246.004 2176.007)"/><rect class="b" width="8" height="8" transform="translate(1238.004 2176.007)"/><rect class="b" width="8" height="8" transform="translate(1230.004 2176.007)"/><rect class="b" width="8" height="8" transform="translate(1222.004 2176.007)"/><rect class="b" width="8" height="8" transform="translate(1214.004 2176.007)"/><rect class="a" width="8" height="8" transform="translate(1206.004 2176.007)"/><rect class="a" width="8" height="8" transform="translate(1198.004 2176.007)"/><rect class="a" width="8" height="8" transform="translate(1446.004 2168.007)"/><rect class="a" width="8" height="8" transform="translate(1438.004 2168.007)"/><rect class="b" width="8" height="8" transform="translate(1430.004 2168.007)"/><rect class="b" width="8" height="8" transform="translate(1422.004 2168.007)"/><rect class="b" width="8" height="8" transform="translate(1414.004 2168.007)"/><rect class="b" width="8" height="8" transform="translate(1406.004 2168.007)"/><rect class="b" width="8" height="8" transform="translate(1398.004 2168.007)"/><rect class="b" width="8" height="8" transform="translate(1390.004 2168.007)"/><rect class="b" width="8" height="8" transform="translate(1382.004 2168.007)"/><rect class="b" width="8" height="8" transform="translate(1374.004 2168.007)"/><rect class="b" width="8" height="8" transform="translate(1366.004 2168.007)"/><rect class="b" width="8" height="8" transform="translate(1358.004 2168.007)"/><rect class="b" width="8" height="8" transform="translate(1350.004 2168.007)"/><rect class="b" width="8" height="8" transform="translate(1342.004 2168.007)"/><rect class="b" width="8" height="8" transform="translate(1334.004 2168.007)"/><rect class="b" width="8" height="8" transform="translate(1326.004 2168.007)"/><rect class="b" width="8" height="8" transform="translate(1318.004 2168.007)"/><rect class="b" width="8" height="8" transform="translate(1310.004 2168.007)"/><rect class="b" width="8" height="8" transform="translate(1302.004 2168.007)"/><rect class="b" width="8" height="8" transform="translate(1294.004 2168.007)"/><rect class="b" width="8" height="8" transform="translate(1286.004 2168.007)"/><rect class="b" width="8" height="8" transform="translate(1278.004 2168.007)"/><rect class="b" width="8" height="8" transform="translate(1270.004 2168.007)"/><rect class="b" width="8" height="8" transform="translate(1262.004 2168.007)"/><rect class="b" width="8" height="8" transform="translate(1254.004 2168.007)"/><rect class="b" width="8" height="8" transform="translate(1246.004 2168.007)"/><rect class="b" width="8" height="8" transform="translate(1238.004 2168.007)"/><rect class="b" width="8" height="8" transform="translate(1230.004 2168.007)"/><rect class="b" width="8" height="8" transform="translate(1222.004 2168.007)"/><rect class="b" width="8" height="8" transform="translate(1214.004 2168.007)"/><rect class="a" width="8" height="8" transform="translate(1206.004 2168.007)"/><rect class="a" width="8" height="8" transform="translate(1198.004 2168.007)"/><rect class="a" width="8" height="8" transform="translate(1446.004 2160.007)"/><rect class="a" width="8" height="8" transform="translate(1438.004 2160.007)"/><rect class="b" width="8" height="8" transform="translate(1430.004 2160.007)"/><rect class="b" width="8" height="8" transform="translate(1422.004 2160.007)"/><rect class="b" width="8" height="8" transform="translate(1414.004 2160.007)"/><rect class="b" width="8" height="8" transform="translate(1406.004 2160.007)"/><rect class="b" width="8" height="8" transform="translate(1398.004 2160.007)"/><rect class="b" width="8" height="8" transform="translate(1390.004 2160.007)"/><rect class="b" width="8" height="8" transform="translate(1382.004 2160.007)"/><rect class="b" width="8" height="8" transform="translate(1374.004 2160.007)"/><rect class="b" width="8" height="8" transform="translate(1366.004 2160.007)"/><rect class="b" width="8" height="8" transform="translate(1358.004 2160.007)"/><rect class="b" width="8" height="8" transform="translate(1350.004 2160.007)"/><rect class="b" width="8" height="8" transform="translate(1342.004 2160.007)"/><rect class="b" width="8" height="8" transform="translate(1334.004 2160.007)"/><rect class="b" width="8" height="8" transform="translate(1326.004 2160.007)"/><rect class="b" width="8" height="8" transform="translate(1318.004 2160.007)"/><rect class="b" width="8" height="8" transform="translate(1310.004 2160.007)"/><rect class="b" width="8" height="8" transform="translate(1302.004 2160.007)"/><rect class="b" width="8" height="8" transform="translate(1294.004 2160.007)"/><rect class="b" width="8" height="8" transform="translate(1286.004 2160.007)"/><rect class="b" width="8" height="8" transform="translate(1278.004 2160.007)"/><rect class="b" width="8" height="8" transform="translate(1270.004 2160.007)"/><rect class="b" width="8" height="8" transform="translate(1262.004 2160.007)"/><rect class="b" width="8" height="8" transform="translate(1254.004 2160.007)"/><rect class="b" width="8" height="8" transform="translate(1246.004 2160.007)"/><rect class="b" width="8" height="8" transform="translate(1238.004 2160.007)"/><rect class="b" width="8" height="8" transform="translate(1230.004 2160.007)"/><rect class="b" width="8" height="8" transform="translate(1222.004 2160.007)"/><rect class="b" width="8" height="8" transform="translate(1214.004 2160.007)"/><rect class="a" width="8" height="8" transform="translate(1206.004 2160.007)"/><rect class="a" width="8" height="8" transform="translate(1198.004 2160.007)"/><rect class="a" width="8" height="8" transform="translate(1446.004 2152.007)"/><rect class="a" width="8" height="8" transform="translate(1438.004 2152.007)"/><rect class="b" width="8" height="8" transform="translate(1430.004 2152.007)"/><rect class="b" width="8" height="8" transform="translate(1422.004 2152.007)"/><rect class="b" width="8" height="8" transform="translate(1414.004 2152.007)"/><rect class="b" width="8" height="8" transform="translate(1406.004 2152.007)"/><rect class="b" width="8" height="8" transform="translate(1398.004 2152.007)"/><rect class="b" width="8" height="8" transform="translate(1390.004 2152.007)"/><rect class="b" width="8" height="8" transform="translate(1382.004 2152.007)"/><rect class="b" width="8" height="8" transform="translate(1374.004 2152.007)"/><rect class="b" width="8" height="8" transform="translate(1366.004 2152.007)"/><rect class="b" width="8" height="8" transform="translate(1358.004 2152.007)"/><rect class="b" width="8" height="8" transform="translate(1350.004 2152.007)"/><rect class="b" width="8" height="8" transform="translate(1342.004 2152.007)"/><rect class="b" width="8" height="8" transform="translate(1334.004 2152.007)"/><rect class="b" width="8" height="8" transform="translate(1326.004 2152.007)"/><rect class="b" width="8" height="8" transform="translate(1318.004 2152.007)"/><rect class="b" width="8" height="8" transform="translate(1310.004 2152.007)"/><rect class="b" width="8" height="8" transform="translate(1302.004 2152.007)"/><rect class="b" width="8" height="8" transform="translate(1294.004 2152.007)"/><rect class="b" width="8" height="8" transform="translate(1286.004 2152.007)"/><rect class="b" width="8" height="8" transform="translate(1278.004 2152.007)"/><rect class="b" width="8" height="8" transform="translate(1270.004 2152.007)"/><rect class="b" width="8" height="8" transform="translate(1262.004 2152.007)"/><rect class="b" width="8" height="8" transform="translate(1254.004 2152.007)"/><rect class="b" width="8" height="8" transform="translate(1246.004 2152.007)"/><rect class="b" width="8" height="8" transform="translate(1238.004 2152.007)"/><rect class="b" width="8" height="8" transform="translate(1230.004 2152.007)"/><rect class="b" width="8" height="8" transform="translate(1222.004 2152.007)"/><rect class="b" width="8" height="8" transform="translate(1214.004 2152.007)"/><rect class="a" width="8" height="8" transform="translate(1206.004 2152.007)"/><rect class="a" width="8" height="8" transform="translate(1198.004 2152.007)"/><rect class="a" width="8" height="8" transform="translate(1446.004 2144.007)"/><rect class="a" width="8" height="8" transform="translate(1438.004 2144.007)"/><rect class="b" width="8" height="8" transform="translate(1430.004 2144.007)"/><rect class="b" width="8" height="8" transform="translate(1422.004 2144.007)"/><rect class="b" width="8" height="8" transform="translate(1414.004 2144.007)"/><rect class="b" width="8" height="8" transform="translate(1406.004 2144.007)"/><rect class="b" width="8" height="8" transform="translate(1398.004 2144.007)"/><rect class="b" width="8" height="8" transform="translate(1390.004 2144.007)"/><rect class="b" width="8" height="8" transform="translate(1382.004 2144.007)"/><rect class="b" width="8" height="8" transform="translate(1374.004 2144.007)"/><rect class="b" width="8" height="8" transform="translate(1366.004 2144.007)"/><rect class="b" width="8" height="8" transform="translate(1358.004 2144.007)"/><rect class="b" width="8" height="8" transform="translate(1350.004 2144.007)"/><rect class="b" width="8" height="8" transform="translate(1342.004 2144.007)"/><rect class="b" width="8" height="8" transform="translate(1334.004 2144.007)"/><rect class="b" width="8" height="8" transform="translate(1326.004 2144.007)"/><rect class="b" width="8" height="8" transform="translate(1318.004 2144.007)"/><rect class="b" width="8" height="8" transform="translate(1310.004 2144.007)"/><rect class="b" width="8" height="8" transform="translate(1302.004 2144.007)"/><rect class="b" width="8" height="8" transform="translate(1294.004 2144.007)"/><rect class="b" width="8" height="8" transform="translate(1286.004 2144.007)"/><rect class="b" width="8" height="8" transform="translate(1278.004 2144.007)"/><rect class="b" width="8" height="8" transform="translate(1270.004 2144.007)"/><rect class="b" width="8" height="8" transform="translate(1262.004 2144.007)"/><rect class="b" width="8" height="8" transform="translate(1254.004 2144.007)"/><rect class="b" width="8" height="8" transform="translate(1246.004 2144.007)"/><rect class="b" width="8" height="8" transform="translate(1238.004 2144.007)"/><rect class="b" width="8" height="8" transform="translate(1230.004 2144.007)"/><rect class="b" width="8" height="8" transform="translate(1222.004 2144.007)"/><rect class="b" width="8" height="8" transform="translate(1214.004 2144.007)"/><rect class="a" width="8" height="8" transform="translate(1206.004 2144.007)"/><rect class="a" width="8" height="8" transform="translate(1198.004 2144.007)"/><rect class="a" width="8" height="8" transform="translate(1446.004 2136.007)"/><rect class="a" width="8" height="8" transform="translate(1438.004 2136.007)"/><rect class="b" width="8" height="8" transform="translate(1430.004 2136.007)"/><rect class="b" width="8" height="8" transform="translate(1422.004 2136.007)"/><rect class="b" width="8" height="8" transform="translate(1414.004 2136.007)"/><rect class="b" width="8" height="8" transform="translate(1406.004 2136.007)"/><rect class="b" width="8" height="8" transform="translate(1398.004 2136.007)"/><rect class="b" width="8" height="8" transform="translate(1390.004 2136.007)"/><rect class="b" width="8" height="8" transform="translate(1382.004 2136.007)"/><rect class="b" width="8" height="8" transform="translate(1374.004 2136.007)"/><rect class="b" width="8" height="8" transform="translate(1366.004 2136.007)"/><rect class="b" width="8" height="8" transform="translate(1358.004 2136.007)"/><rect class="b" width="8" height="8" transform="translate(1350.004 2136.007)"/><rect class="b" width="8" height="8" transform="translate(1342.004 2136.007)"/><rect class="b" width="8" height="8" transform="translate(1334.004 2136.007)"/><rect class="b" width="8" height="8" transform="translate(1326.004 2136.007)"/><rect class="b" width="8" height="8" transform="translate(1318.004 2136.007)"/><rect class="b" width="8" height="8" transform="translate(1310.004 2136.007)"/><rect class="b" width="8" height="8" transform="translate(1302.004 2136.007)"/><rect class="b" width="8" height="8" transform="translate(1294.004 2136.007)"/><rect class="b" width="8" height="8" transform="translate(1286.004 2136.007)"/><rect class="b" width="8" height="8" transform="translate(1278.004 2136.007)"/><rect class="b" width="8" height="8" transform="translate(1270.004 2136.007)"/><rect class="b" width="8" height="8" transform="translate(1262.004 2136.007)"/><rect class="b" width="8" height="8" transform="translate(1254.004 2136.007)"/><rect class="b" width="8" height="8" transform="translate(1246.004 2136.007)"/><rect class="b" width="8" height="8" transform="translate(1238.004 2136.007)"/><rect class="b" width="8" height="8" transform="translate(1230.004 2136.007)"/><rect class="b" width="8" height="8" transform="translate(1222.004 2136.007)"/><rect class="b" width="8" height="8" transform="translate(1214.004 2136.007)"/><rect class="a" width="8" height="8" transform="translate(1206.004 2136.007)"/><rect class="a" width="8" height="8" transform="translate(1198.004 2136.007)"/><rect class="a" width="8" height="8" transform="translate(1446.004 2128.007)"/><rect class="a" width="8" height="8" transform="translate(1438.004 2128.007)"/><rect class="b" width="8" height="8" transform="translate(1430.004 2128.007)"/><rect class="b" width="8" height="8" transform="translate(1422.004 2128.007)"/><rect class="b" width="8" height="8" transform="translate(1414.004 2128.007)"/><rect class="b" width="8" height="8" transform="translate(1406.004 2128.007)"/><rect class="b" width="8" height="8" transform="translate(1398.004 2128.007)"/><rect class="b" width="8" height="8" transform="translate(1390.004 2128.007)"/><rect class="b" width="8" height="8" transform="translate(1382.004 2128.007)"/><rect class="b" width="8" height="8" transform="translate(1374.004 2128.007)"/><rect class="b" width="8" height="8" transform="translate(1366.004 2128.007)"/><rect class="b" width="8" height="8" transform="translate(1358.004 2128.007)"/><rect class="b" width="8" height="8" transform="translate(1350.004 2128.007)"/><rect class="b" width="8" height="8" transform="translate(1342.004 2128.007)"/><rect class="b" width="8" height="8" transform="translate(1334.004 2128.007)"/><rect class="b" width="8" height="8" transform="translate(1326.004 2128.007)"/><rect class="b" width="8" height="8" transform="translate(1318.004 2128.007)"/><rect class="b" width="8" height="8" transform="translate(1310.004 2128.007)"/><rect class="b" width="8" height="8" transform="translate(1302.004 2128.007)"/><rect class="b" width="8" height="8" transform="translate(1294.004 2128.007)"/><rect class="b" width="8" height="8" transform="translate(1286.004 2128.007)"/><rect class="b" width="8" height="8" transform="translate(1278.004 2128.007)"/><rect class="b" width="8" height="8" transform="translate(1270.004 2128.007)"/><rect class="b" width="8" height="8" transform="translate(1262.004 2128.007)"/><rect class="b" width="8" height="8" transform="translate(1254.004 2128.007)"/><rect class="b" width="8" height="8" transform="translate(1246.004 2128.007)"/><rect class="b" width="8" height="8" transform="translate(1238.004 2128.007)"/><rect class="b" width="8" height="8" transform="translate(1230.004 2128.007)"/><rect class="b" width="8" height="8" transform="translate(1222.004 2128.007)"/><rect class="b" width="8" height="8" transform="translate(1214.004 2128.007)"/><rect class="a" width="8" height="8" transform="translate(1206.004 2128.007)"/><rect class="a" width="8" height="8" transform="translate(1198.004 2128.007)"/><rect class="a" width="8" height="8" transform="translate(1446.004 2120.007)"/><rect class="a" width="8" height="8" transform="translate(1438.004 2120.007)"/><rect class="b" width="8" height="8" transform="translate(1430.004 2120.007)"/><rect class="b" width="8" height="8" transform="translate(1422.004 2120.007)"/><rect class="b" width="8" height="8" transform="translate(1414.004 2120.007)"/><rect class="b" width="8" height="8" transform="translate(1406.004 2120.007)"/><rect class="b" width="8" height="8" transform="translate(1398.004 2120.007)"/><rect class="b" width="8" height="8" transform="translate(1390.004 2120.007)"/><rect class="b" width="8" height="8" transform="translate(1382.004 2120.007)"/><rect class="b" width="8" height="8" transform="translate(1374.004 2120.007)"/><rect class="b" width="8" height="8" transform="translate(1366.004 2120.007)"/><rect class="b" width="8" height="8" transform="translate(1358.004 2120.007)"/><rect class="b" width="8" height="8" transform="translate(1350.004 2120.007)"/><rect class="b" width="8" height="8" transform="translate(1342.004 2120.007)"/><rect class="b" width="8" height="8" transform="translate(1334.004 2120.007)"/><rect class="b" width="8" height="8" transform="translate(1326.004 2120.007)"/><rect class="b" width="8" height="8" transform="translate(1318.004 2120.007)"/><rect class="b" width="8" height="8" transform="translate(1310.004 2120.007)"/><rect class="b" width="8" height="8" transform="translate(1302.004 2120.007)"/><rect class="b" width="8" height="8" transform="translate(1294.004 2120.007)"/><rect class="b" width="8" height="8" transform="translate(1286.004 2120.007)"/><rect class="b" width="8" height="8" transform="translate(1278.004 2120.007)"/><rect class="b" width="8" height="8" transform="translate(1270.004 2120.007)"/><rect class="b" width="8" height="8" transform="translate(1262.004 2120.007)"/><rect class="b" width="8" height="8" transform="translate(1254.004 2120.007)"/><rect class="b" width="8" height="8" transform="translate(1246.004 2120.007)"/><rect class="b" width="8" height="8" transform="translate(1238.004 2120.007)"/><rect class="b" width="8" height="8" transform="translate(1230.004 2120.007)"/><rect class="b" width="8" height="8" transform="translate(1222.004 2120.007)"/><rect class="b" width="8" height="8" transform="translate(1214.004 2120.007)"/><rect class="a" width="8" height="8" transform="translate(1206.004 2120.007)"/><rect class="a" width="8" height="8" transform="translate(1198.004 2120.007)"/><rect class="a" width="8" height="8" transform="translate(1446.004 2112.007)"/><rect class="a" width="8" height="8" transform="translate(1438.004 2112.007)"/><rect class="b" width="8" height="8" transform="translate(1430.004 2112.007)"/><rect class="b" width="8" height="8" transform="translate(1422.004 2112.007)"/><rect class="b" width="8" height="8" transform="translate(1414.004 2112.007)"/><rect class="b" width="8" height="8" transform="translate(1406.004 2112.007)"/><rect class="b" width="8" height="8" transform="translate(1398.004 2112.007)"/><rect class="b" width="8" height="8" transform="translate(1390.004 2112.007)"/><rect class="b" width="8" height="8" transform="translate(1382.004 2112.007)"/><rect class="b" width="8" height="8" transform="translate(1374.004 2112.007)"/><rect class="b" width="8" height="8" transform="translate(1366.004 2112.007)"/><rect class="b" width="8" height="8" transform="translate(1358.004 2112.007)"/><rect class="b" width="8" height="8" transform="translate(1350.004 2112.007)"/><rect class="b" width="8" height="8" transform="translate(1342.004 2112.007)"/><rect class="b" width="8" height="8" transform="translate(1334.004 2112.007)"/><rect class="b" width="8" height="8" transform="translate(1326.004 2112.007)"/><rect class="b" width="8" height="8" transform="translate(1318.004 2112.007)"/><rect class="b" width="8" height="8" transform="translate(1310.004 2112.007)"/><rect class="b" width="8" height="8" transform="translate(1302.004 2112.007)"/><rect class="b" width="8" height="8" transform="translate(1294.004 2112.007)"/><rect class="b" width="8" height="8" transform="translate(1286.004 2112.007)"/><rect class="b" width="8" height="8" transform="translate(1278.004 2112.007)"/><rect class="b" width="8" height="8" transform="translate(1270.004 2112.007)"/><rect class="b" width="8" height="8" transform="translate(1262.004 2112.007)"/><rect class="b" width="8" height="8" transform="translate(1254.004 2112.007)"/><rect class="b" width="8" height="8" transform="translate(1246.004 2112.007)"/><rect class="b" width="8" height="8" transform="translate(1238.004 2112.007)"/><rect class="b" width="8" height="8" transform="translate(1230.004 2112.007)"/><rect class="b" width="8" height="8" transform="translate(1222.004 2112.007)"/><rect class="b" width="8" height="8" transform="translate(1214.004 2112.007)"/><rect class="a" width="8" height="8" transform="translate(1206.004 2112.007)"/><rect class="a" width="8" height="8" transform="translate(1198.004 2112.007)"/><rect class="a" width="8" height="8" transform="translate(1446.004 2104.007)"/><rect class="a" width="8" height="8" transform="translate(1438.004 2104.007)"/><rect class="b" width="8" height="8" transform="translate(1430.004 2104.007)"/><rect class="b" width="8" height="8" transform="translate(1422.004 2104.007)"/><rect class="b" width="8" height="8" transform="translate(1414.004 2104.007)"/><rect class="b" width="8" height="8" transform="translate(1406.004 2104.007)"/><rect class="b" width="8" height="8" transform="translate(1398.004 2104.007)"/><rect class="b" width="8" height="8" transform="translate(1390.004 2104.007)"/><rect class="b" width="8" height="8" transform="translate(1382.004 2104.007)"/><rect class="b" width="8" height="8" transform="translate(1374.004 2104.007)"/><rect class="b" width="8" height="8" transform="translate(1366.004 2104.007)"/><rect class="b" width="8" height="8" transform="translate(1358.004 2104.007)"/><rect class="b" width="8" height="8" transform="translate(1350.004 2104.007)"/><rect class="b" width="8" height="8" transform="translate(1342.004 2104.007)"/><rect class="b" width="8" height="8" transform="translate(1334.004 2104.007)"/><rect class="b" width="8" height="8" transform="translate(1326.004 2104.007)"/><rect class="b" width="8" height="8" transform="translate(1318.004 2104.007)"/><rect class="b" width="8" height="8" transform="translate(1310.004 2104.007)"/><rect class="b" width="8" height="8" transform="translate(1302.004 2104.007)"/><rect class="b" width="8" height="8" transform="translate(1294.004 2104.007)"/><rect class="b" width="8" height="8" transform="translate(1286.004 2104.007)"/><rect class="b" width="8" height="8" transform="translate(1278.004 2104.007)"/><rect class="b" width="8" height="8" transform="translate(1270.004 2104.007)"/><rect class="b" width="8" height="8" transform="translate(1262.004 2104.007)"/><rect class="b" width="8" height="8" transform="translate(1254.004 2104.007)"/><rect class="b" width="8" height="8" transform="translate(1246.004 2104.007)"/><rect class="b" width="8" height="8" transform="translate(1238.004 2104.007)"/><rect class="b" width="8" height="8" transform="translate(1230.004 2104.007)"/><rect class="b" width="8" height="8" transform="translate(1222.004 2104.007)"/><rect class="b" width="8" height="8" transform="translate(1214.004 2104.007)"/><rect class="a" width="8" height="8" transform="translate(1206.004 2104.007)"/><rect class="a" width="8" height="8" transform="translate(1198.004 2104.007)"/><rect class="a" width="8" height="8" transform="translate(1446.004 2096.007)"/><rect class="a" width="8" height="8" transform="translate(1438.004 2096.007)"/><rect class="b" width="8" height="8" transform="translate(1430.004 2096.007)"/><rect class="b" width="8" height="8" transform="translate(1422.004 2096.007)"/><rect class="b" width="8" height="8" transform="translate(1414.004 2096.007)"/><rect class="b" width="8" height="8" transform="translate(1406.004 2096.007)"/><rect class="b" width="8" height="8" transform="translate(1398.004 2096.007)"/><rect class="b" width="8" height="8" transform="translate(1390.004 2096.007)"/><rect class="b" width="8" height="8" transform="translate(1382.004 2096.007)"/><rect class="b" width="8" height="8" transform="translate(1374.004 2096.007)"/><rect class="b" width="8" height="8" transform="translate(1366.004 2096.007)"/><rect class="b" width="8" height="8" transform="translate(1358.004 2096.007)"/><rect class="b" width="8" height="8" transform="translate(1350.004 2096.007)"/><rect class="b" width="8" height="8" transform="translate(1342.004 2096.007)"/><rect class="b" width="8" height="8" transform="translate(1334.004 2096.007)"/><rect class="b" width="8" height="8" transform="translate(1326.004 2096.007)"/><rect class="b" width="8" height="8" transform="translate(1318.004 2096.007)"/><rect class="b" width="8" height="8" transform="translate(1310.004 2096.007)"/><rect class="b" width="8" height="8" transform="translate(1302.004 2096.007)"/><rect class="b" width="8" height="8" transform="translate(1294.004 2096.007)"/><rect class="b" width="8" height="8" transform="translate(1286.004 2096.007)"/><rect class="b" width="8" height="8" transform="translate(1278.004 2096.007)"/><rect class="b" width="8" height="8" transform="translate(1270.004 2096.007)"/><rect class="b" width="8" height="8" transform="translate(1262.004 2096.007)"/><rect class="b" width="8" height="8" transform="translate(1254.004 2096.007)"/><rect class="b" width="8" height="8" transform="translate(1246.004 2096.007)"/><rect class="b" width="8" height="8" transform="translate(1238.004 2096.007)"/><rect class="b" width="8" height="8" transform="translate(1230.004 2096.007)"/><rect class="b" width="8" height="8" transform="translate(1222.004 2096.007)"/><rect class="b" width="8" height="8" transform="translate(1214.004 2096.007)"/><rect class="a" width="8" height="8" transform="translate(1206.004 2096.007)"/><rect class="a" width="8" height="8" transform="translate(1198.004 2096.007)"/><rect class="a" width="8" height="8" transform="translate(1446.004 2088.007)"/><rect class="a" width="8" height="8" transform="translate(1438.004 2088.007)"/><rect class="b" width="8" height="8" transform="translate(1430.004 2088.007)"/><rect class="b" width="8" height="8" transform="translate(1422.004 2088.007)"/><rect class="b" width="8" height="8" transform="translate(1414.004 2088.007)"/><rect class="b" width="8" height="8" transform="translate(1406.004 2088.007)"/><rect class="b" width="8" height="8" transform="translate(1398.004 2088.007)"/><rect class="b" width="8" height="8" transform="translate(1390.004 2088.007)"/><rect class="b" width="8" height="8" transform="translate(1382.004 2088.007)"/><rect class="b" width="8" height="8" transform="translate(1374.004 2088.007)"/><rect class="b" width="8" height="8" transform="translate(1366.004 2088.007)"/><rect class="b" width="8" height="8" transform="translate(1358.004 2088.007)"/><rect class="b" width="8" height="8" transform="translate(1350.004 2088.007)"/><rect class="b" width="8" height="8" transform="translate(1342.004 2088.007)"/><rect class="b" width="8" height="8" transform="translate(1334.004 2088.007)"/><rect class="b" width="8" height="8" transform="translate(1326.004 2088.007)"/><rect class="b" width="8" height="8" transform="translate(1318.004 2088.007)"/><rect class="b" width="8" height="8" transform="translate(1310.004 2088.007)"/><rect class="b" width="8" height="8" transform="translate(1302.004 2088.007)"/><rect class="b" width="8" height="8" transform="translate(1294.004 2088.007)"/><rect class="b" width="8" height="8" transform="translate(1286.004 2088.007)"/><rect class="b" width="8" height="8" transform="translate(1278.004 2088.007)"/><rect class="b" width="8" height="8" transform="translate(1270.004 2088.007)"/><rect class="b" width="8" height="8" transform="translate(1262.004 2088.007)"/><rect class="b" width="8" height="8" transform="translate(1254.004 2088.007)"/><rect class="b" width="8" height="8" transform="translate(1246.004 2088.007)"/><rect class="b" width="8" height="8" transform="translate(1238.004 2088.007)"/><rect class="b" width="8" height="8" transform="translate(1230.004 2088.007)"/><rect class="b" width="8" height="8" transform="translate(1222.004 2088.007)"/><rect class="b" width="8" height="8" transform="translate(1214.004 2088.007)"/><rect class="a" width="8" height="8" transform="translate(1206.004 2088.007)"/><rect class="a" width="8" height="8" transform="translate(1198.004 2088.007)"/><rect class="a" width="8" height="8" transform="translate(1446.004 2080.007)"/><rect class="a" width="8" height="8" transform="translate(1438.004 2080.007)"/><rect class="b" width="8" height="8" transform="translate(1430.004 2080.007)"/><rect class="b" width="8" height="8" transform="translate(1422.004 2080.007)"/><rect class="b" width="8" height="8" transform="translate(1414.004 2080.007)"/><rect class="b" width="8" height="8" transform="translate(1406.004 2080.007)"/><rect class="b" width="8" height="8" transform="translate(1398.004 2080.007)"/><rect class="b" width="8" height="8" transform="translate(1390.004 2080.007)"/><rect class="b" width="8" height="8" transform="translate(1382.004 2080.007)"/><rect class="b" width="8" height="8" transform="translate(1374.004 2080.007)"/><rect class="b" width="8" height="8" transform="translate(1366.004 2080.007)"/><rect class="b" width="8" height="8" transform="translate(1358.004 2080.007)"/><rect class="b" width="8" height="8" transform="translate(1350.004 2080.007)"/><rect class="b" width="8" height="8" transform="translate(1342.004 2080.007)"/><rect class="b" width="8" height="8" transform="translate(1334.004 2080.007)"/><rect class="b" width="8" height="8" transform="translate(1326.004 2080.007)"/><rect class="b" width="8" height="8" transform="translate(1318.004 2080.007)"/><rect class="b" width="8" height="8" transform="translate(1310.004 2080.007)"/><rect class="b" width="8" height="8" transform="translate(1302.004 2080.007)"/><rect class="b" width="8" height="8" transform="translate(1294.004 2080.007)"/><rect class="b" width="8" height="8" transform="translate(1286.004 2080.007)"/><rect class="b" width="8" height="8" transform="translate(1278.004 2080.007)"/><rect class="b" width="8" height="8" transform="translate(1270.004 2080.007)"/><rect class="b" width="8" height="8" transform="translate(1262.004 2080.007)"/><rect class="b" width="8" height="8" transform="translate(1254.004 2080.007)"/><rect class="b" width="8" height="8" transform="translate(1246.004 2080.007)"/><rect class="b" width="8" height="8" transform="translate(1238.004 2080.007)"/><rect class="b" width="8" height="8" transform="translate(1230.004 2080.007)"/><rect class="b" width="8" height="8" transform="translate(1222.004 2080.007)"/><rect class="b" width="8" height="8" transform="translate(1214.004 2080.007)"/><rect class="a" width="8" height="8" transform="translate(1206.004 2080.007)"/><rect class="a" width="8" height="8" transform="translate(1198.004 2080.007)"/><rect class="a" width="8" height="8" transform="translate(1446.004 2072.007)"/><rect class="a" width="8" height="8" transform="translate(1438.004 2072.007)"/><rect class="b" width="8" height="8" transform="translate(1430.004 2072.007)"/><rect class="b" width="8" height="8" transform="translate(1422.004 2072.007)"/><rect class="b" width="8" height="8" transform="translate(1414.004 2072.007)"/><rect class="b" width="8" height="8" transform="translate(1406.004 2072.007)"/><rect class="b" width="8" height="8" transform="translate(1398.004 2072.007)"/><rect class="b" width="8" height="8" transform="translate(1390.004 2072.007)"/><rect class="b" width="8" height="8" transform="translate(1382.004 2072.007)"/><rect class="b" width="8" height="8" transform="translate(1374.004 2072.007)"/><rect class="b" width="8" height="8" transform="translate(1366.004 2072.007)"/><rect class="b" width="8" height="8" transform="translate(1358.004 2072.007)"/><rect class="b" width="8" height="8" transform="translate(1350.004 2072.007)"/><rect class="b" width="8" height="8" transform="translate(1342.004 2072.007)"/><rect class="b" width="8" height="8" transform="translate(1334.004 2072.007)"/><rect class="b" width="8" height="8" transform="translate(1326.004 2072.007)"/><rect class="b" width="8" height="8" transform="translate(1318.004 2072.007)"/><rect class="b" width="8" height="8" transform="translate(1310.004 2072.007)"/><rect class="b" width="8" height="8" transform="translate(1302.004 2072.007)"/><rect class="b" width="8" height="8" transform="translate(1294.004 2072.007)"/><rect class="b" width="8" height="8" transform="translate(1286.004 2072.007)"/><rect class="b" width="8" height="8" transform="translate(1278.004 2072.007)"/><rect class="b" width="8" height="8" transform="translate(1270.004 2072.007)"/><rect class="b" width="8" height="8" transform="translate(1262.004 2072.007)"/><rect class="b" width="8" height="8" transform="translate(1254.004 2072.007)"/><rect class="b" width="8" height="8" transform="translate(1246.004 2072.007)"/><rect class="b" width="8" height="8" transform="translate(1238.004 2072.007)"/><rect class="b" width="8" height="8" transform="translate(1230.004 2072.007)"/><rect class="b" width="8" height="8" transform="translate(1222.004 2072.007)"/><rect class="b" width="8" height="8" transform="translate(1214.004 2072.007)"/><rect class="a" width="8" height="8" transform="translate(1206.004 2072.007)"/><rect class="a" width="8" height="8" transform="translate(1198.004 2072.007)"/><rect class="a" width="8" height="8" transform="translate(1446.004 2064.007)"/><rect class="a" width="8" height="8" transform="translate(1438.004 2064.007)"/><rect class="b" width="8" height="8" transform="translate(1430.004 2064.007)"/><rect class="b" width="8" height="8" transform="translate(1422.004 2064.007)"/><rect class="b" width="8" height="8" transform="translate(1414.004 2064.007)"/><rect class="b" width="8" height="8" transform="translate(1406.004 2064.007)"/><rect class="b" width="8" height="8" transform="translate(1398.004 2064.007)"/><rect class="b" width="8" height="8" transform="translate(1390.004 2064.007)"/><rect class="b" width="8" height="8" transform="translate(1382.004 2064.007)"/><rect class="b" width="8" height="8" transform="translate(1374.004 2064.007)"/><rect class="b" width="8" height="8" transform="translate(1366.004 2064.007)"/><rect class="b" width="8" height="8" transform="translate(1358.004 2064.007)"/><rect class="b" width="8" height="8" transform="translate(1350.004 2064.007)"/><rect class="b" width="8" height="8" transform="translate(1342.004 2064.007)"/><rect class="b" width="8" height="8" transform="translate(1334.004 2064.007)"/><rect class="b" width="8" height="8" transform="translate(1326.004 2064.007)"/><rect class="b" width="8" height="8" transform="translate(1318.004 2064.007)"/><rect class="b" width="8" height="8" transform="translate(1310.004 2064.007)"/><rect class="b" width="8" height="8" transform="translate(1302.004 2064.007)"/><rect class="b" width="8" height="8" transform="translate(1294.004 2064.007)"/><rect class="b" width="8" height="8" transform="translate(1286.004 2064.007)"/><rect class="b" width="8" height="8" transform="translate(1278.004 2064.007)"/><rect class="b" width="8" height="8" transform="translate(1270.004 2064.007)"/><rect class="b" width="8" height="8" transform="translate(1262.004 2064.007)"/><rect class="b" width="8" height="8" transform="translate(1254.004 2064.007)"/><rect class="b" width="8" height="8" transform="translate(1246.004 2064.007)"/><rect class="b" width="8" height="8" transform="translate(1238.004 2064.007)"/><rect class="b" width="8" height="8" transform="translate(1230.004 2064.007)"/><rect class="b" width="8" height="8" transform="translate(1222.004 2064.007)"/><rect class="b" width="8" height="8" transform="translate(1214.004 2064.007)"/><rect class="a" width="8" height="8" transform="translate(1206.004 2064.007)"/><rect class="a" width="8" height="8" transform="translate(1198.004 2064.007)"/><rect class="a" width="8" height="8" transform="translate(1446.004 2056.007)"/><rect class="a" width="8" height="8" transform="translate(1438.004 2056.007)"/><rect class="b" width="8" height="8" transform="translate(1430.004 2056.007)"/><rect class="b" width="8" height="8" transform="translate(1422.004 2056.007)"/><rect class="b" width="8" height="8" transform="translate(1414.004 2056.007)"/><rect class="b" width="8" height="8" transform="translate(1406.004 2056.007)"/><rect class="b" width="8" height="8" transform="translate(1398.004 2056.007)"/><rect class="b" width="8" height="8" transform="translate(1390.004 2056.007)"/><rect class="b" width="8" height="8" transform="translate(1382.004 2056.007)"/><rect class="b" width="8" height="8" transform="translate(1374.004 2056.007)"/><rect class="b" width="8" height="8" transform="translate(1366.004 2056.007)"/><rect class="b" width="8" height="8" transform="translate(1358.004 2056.007)"/><rect class="b" width="8" height="8" transform="translate(1350.004 2056.007)"/><rect class="b" width="8" height="8" transform="translate(1342.004 2056.007)"/><rect class="b" width="8" height="8" transform="translate(1334.004 2056.007)"/><rect class="b" width="8" height="8" transform="translate(1326.004 2056.007)"/><rect class="b" width="8" height="8" transform="translate(1318.004 2056.007)"/><rect class="b" width="8" height="8" transform="translate(1310.004 2056.007)"/><rect class="b" width="8" height="8" transform="translate(1302.004 2056.007)"/><rect class="b" width="8" height="8" transform="translate(1294.004 2056.007)"/><rect class="b" width="8" height="8" transform="translate(1286.004 2056.007)"/><rect class="b" width="8" height="8" transform="translate(1278.004 2056.007)"/><rect class="b" width="8" height="8" transform="translate(1270.004 2056.007)"/><rect class="b" width="8" height="8" transform="translate(1262.004 2056.007)"/><rect class="b" width="8" height="8" transform="translate(1254.004 2056.007)"/><rect class="b" width="8" height="8" transform="translate(1246.004 2056.007)"/><rect class="b" width="8" height="8" transform="translate(1238.004 2056.007)"/><rect class="b" width="8" height="8" transform="translate(1230.004 2056.007)"/><rect class="b" width="8" height="8" transform="translate(1222.004 2056.007)"/><rect class="b" width="8" height="8" transform="translate(1214.004 2056.007)"/><rect class="a" width="8" height="8" transform="translate(1206.004 2056.007)"/><rect class="a" width="8" height="8" transform="translate(1198.004 2056.007)"/><rect class="a" width="8" height="8" transform="translate(1446.004 2048.007)"/><rect class="a" width="8" height="8" transform="translate(1438.004 2048.007)"/><rect class="b" width="8" height="8" transform="translate(1430.004 2048.007)"/><rect class="b" width="8" height="8" transform="translate(1422.004 2048.007)"/><rect class="b" width="8" height="8" transform="translate(1414.004 2048.007)"/><rect class="b" width="8" height="8" transform="translate(1406.004 2048.007)"/><rect class="b" width="8" height="8" transform="translate(1398.004 2048.007)"/><rect class="b" width="8" height="8" transform="translate(1390.004 2048.007)"/><rect class="b" width="8" height="8" transform="translate(1382.004 2048.007)"/><rect class="b" width="8" height="8" transform="translate(1374.004 2048.007)"/><rect class="b" width="8" height="8" transform="translate(1366.004 2048.007)"/><rect class="b" width="8" height="8" transform="translate(1358.004 2048.007)"/><rect class="b" width="8" height="8" transform="translate(1350.004 2048.007)"/><rect class="b" width="8" height="8" transform="translate(1342.004 2048.007)"/><rect class="b" width="8" height="8" transform="translate(1334.004 2048.007)"/><rect class="b" width="8" height="8" transform="translate(1326.004 2048.007)"/><rect class="b" width="8" height="8" transform="translate(1318.004 2048.007)"/><rect class="b" width="8" height="8" transform="translate(1310.004 2048.007)"/><rect class="b" width="8" height="8" transform="translate(1302.004 2048.007)"/><rect class="b" width="8" height="8" transform="translate(1294.004 2048.007)"/><rect class="b" width="8" height="8" transform="translate(1286.004 2048.007)"/><rect class="b" width="8" height="8" transform="translate(1278.004 2048.007)"/><rect class="b" width="8" height="8" transform="translate(1270.004 2048.007)"/><rect class="b" width="8" height="8" transform="translate(1262.004 2048.007)"/><rect class="b" width="8" height="8" transform="translate(1254.004 2048.007)"/><rect class="b" width="8" height="8" transform="translate(1246.004 2048.007)"/><rect class="b" width="8" height="8" transform="translate(1238.004 2048.007)"/><rect class="b" width="8" height="8" transform="translate(1230.004 2048.007)"/><rect class="b" width="8" height="8" transform="translate(1222.004 2048.007)"/><rect class="b" width="8" height="8" transform="translate(1214.004 2048.007)"/><rect class="a" width="8" height="8" transform="translate(1206.004 2048.007)"/><rect class="a" width="8" height="8" transform="translate(1198.004 2048.007)"/><rect class="a" width="8" height="8" transform="translate(1446.004 2040.006)"/><rect class="a" width="8" height="8" transform="translate(1438.004 2040.006)"/><rect class="b" width="8" height="8" transform="translate(1430.004 2040.006)"/><rect class="b" width="8" height="8" transform="translate(1422.004 2040.006)"/><rect class="b" width="8" height="8" transform="translate(1414.004 2040.006)"/><rect class="b" width="8" height="8" transform="translate(1406.004 2040.006)"/><rect class="b" width="8" height="8" transform="translate(1398.004 2040.006)"/><rect class="b" width="8" height="8" transform="translate(1390.004 2040.006)"/><rect class="b" width="8" height="8" transform="translate(1382.004 2040.006)"/><rect class="b" width="8" height="8" transform="translate(1374.004 2040.006)"/><rect class="b" width="8" height="8" transform="translate(1366.004 2040.006)"/><rect class="b" width="8" height="8" transform="translate(1358.004 2040.006)"/><rect class="b" width="8" height="8" transform="translate(1350.004 2040.006)"/><rect class="b" width="8" height="8" transform="translate(1342.004 2040.006)"/><rect class="b" width="8" height="8" transform="translate(1334.004 2040.006)"/><rect class="b" width="8" height="8" transform="translate(1326.004 2040.006)"/><rect class="b" width="8" height="8" transform="translate(1318.004 2040.006)"/><rect class="b" width="8" height="8" transform="translate(1310.004 2040.006)"/><rect class="b" width="8" height="8" transform="translate(1302.004 2040.006)"/><rect class="b" width="8" height="8" transform="translate(1294.004 2040.006)"/><rect class="b" width="8" height="8" transform="translate(1286.004 2040.006)"/><rect class="b" width="8" height="8" transform="translate(1278.004 2040.006)"/><rect class="b" width="8" height="8" transform="translate(1270.004 2040.006)"/><rect class="b" width="8" height="8" transform="translate(1262.004 2040.006)"/><rect class="b" width="8" height="8" transform="translate(1254.004 2040.006)"/><rect class="b" width="8" height="8" transform="translate(1246.004 2040.006)"/><rect class="b" width="8" height="8" transform="translate(1238.004 2040.006)"/><rect class="b" width="8" height="8" transform="translate(1230.004 2040.006)"/><rect class="b" width="8" height="8" transform="translate(1222.004 2040.006)"/><rect class="b" width="8" height="8" transform="translate(1214.004 2040.006)"/><rect class="a" width="8" height="8" transform="translate(1206.004 2040.006)"/><rect class="a" width="8" height="8" transform="translate(1198.004 2040.006)"/><rect class="a" width="8" height="8" transform="translate(1446.004 2032.006)"/><rect class="a" width="8" height="8" transform="translate(1438.004 2032.006)"/><rect class="b" width="8" height="8" transform="translate(1430.004 2032.006)"/><rect class="b" width="8" height="8" transform="translate(1422.004 2032.006)"/><rect class="b" width="8" height="8" transform="translate(1414.004 2032.006)"/><rect class="b" width="8" height="8" transform="translate(1406.004 2032.006)"/><rect class="b" width="8" height="8" transform="translate(1398.004 2032.006)"/><rect class="b" width="8" height="8" transform="translate(1390.004 2032.006)"/><rect class="b" width="8" height="8" transform="translate(1382.004 2032.006)"/><rect class="b" width="8" height="8" transform="translate(1374.004 2032.006)"/><rect class="b" width="8" height="8" transform="translate(1366.004 2032.006)"/><rect class="b" width="8" height="8" transform="translate(1358.004 2032.006)"/><rect class="b" width="8" height="8" transform="translate(1350.004 2032.006)"/><rect class="b" width="8" height="8" transform="translate(1342.004 2032.006)"/><rect class="b" width="8" height="8" transform="translate(1334.004 2032.006)"/><rect class="b" width="8" height="8" transform="translate(1326.004 2032.006)"/><rect class="b" width="8" height="8" transform="translate(1318.004 2032.006)"/><rect class="b" width="8" height="8" transform="translate(1310.004 2032.006)"/><rect class="b" width="8" height="8" transform="translate(1302.004 2032.006)"/><rect class="b" width="8" height="8" transform="translate(1294.004 2032.006)"/><rect class="b" width="8" height="8" transform="translate(1286.004 2032.006)"/><rect class="b" width="8" height="8" transform="translate(1278.004 2032.006)"/><rect class="b" width="8" height="8" transform="translate(1270.004 2032.006)"/><rect class="b" width="8" height="8" transform="translate(1262.004 2032.006)"/><rect class="b" width="8" height="8" transform="translate(1254.004 2032.006)"/><rect class="b" width="8" height="8" transform="translate(1246.004 2032.006)"/><rect class="b" width="8" height="8" transform="translate(1238.004 2032.006)"/><rect class="b" width="8" height="8" transform="translate(1230.004 2032.006)"/><rect class="b" width="8" height="8" transform="translate(1222.004 2032.006)"/><rect class="b" width="8" height="8" transform="translate(1214.004 2032.006)"/><rect class="a" width="8" height="8" transform="translate(1206.004 2032.006)"/><rect class="a" width="8" height="8" transform="translate(1198.004 2032.006)"/><rect class="a" width="8" height="8" transform="translate(1446.004 2024.006)"/><rect class="a" width="8" height="8" transform="translate(1438.004 2024.006)"/><rect class="a" width="8" height="8" transform="translate(1430.004 2024.006)"/><rect class="a" width="8" height="8" transform="translate(1422.004 2024.006)"/><rect class="a" width="8" height="8" transform="translate(1414.004 2024.006)"/><rect class="a" width="8" height="8" transform="translate(1406.004 2024.006)"/><rect class="a" width="8" height="8" transform="translate(1398.004 2024.006)"/><rect class="a" width="8" height="8" transform="translate(1390.004 2024.006)"/><rect class="a" width="8" height="8" transform="translate(1382.004 2024.006)"/><rect class="a" width="8" height="8" transform="translate(1374.004 2024.006)"/><rect class="a" width="8" height="8" transform="translate(1366.004 2024.006)"/><rect class="a" width="8" height="8" transform="translate(1358.004 2024.006)"/><rect class="a" width="8" height="8" transform="translate(1350.004 2024.006)"/><rect class="a" width="8" height="8" transform="translate(1342.004 2024.006)"/><rect class="a" width="8" height="8" transform="translate(1334.004 2024.006)"/><rect class="a" width="8" height="8" transform="translate(1326.004 2024.006)"/><rect class="a" width="8" height="8" transform="translate(1318.004 2024.006)"/><rect class="a" width="8" height="8" transform="translate(1310.004 2024.006)"/><rect class="a" width="8" height="8" transform="translate(1302.004 2024.006)"/><rect class="a" width="8" height="8" transform="translate(1294.004 2024.006)"/><rect class="a" width="8" height="8" transform="translate(1286.004 2024.006)"/><rect class="a" width="8" height="8" transform="translate(1278.004 2024.006)"/><rect class="a" width="8" height="8" transform="translate(1270.004 2024.006)"/><rect class="a" width="8" height="8" transform="translate(1262.004 2024.006)"/><rect class="a" width="8" height="8" transform="translate(1254.004 2024.006)"/><rect class="a" width="8" height="8" transform="translate(1246.004 2024.006)"/><rect class="a" width="8" height="8" transform="translate(1238.004 2024.006)"/><rect class="a" width="8" height="8" transform="translate(1230.004 2024.006)"/><rect class="a" width="8" height="8" transform="translate(1222.004 2024.006)"/><rect class="a" width="8" height="8" transform="translate(1214.004 2024.006)"/><rect class="a" width="8" height="8" transform="translate(1206.004 2024.006)"/><rect class="a" width="8" height="8" transform="translate(1198.004 2024.006)"/><rect class="a" width="8" height="8" transform="translate(1446.004 2016.006)"/><rect class="a" width="8" height="8" transform="translate(1438.004 2016.006)"/><rect class="a" width="8" height="8" transform="translate(1430.004 2016.006)"/><rect class="a" width="8" height="8" transform="translate(1422.004 2016.006)"/><rect class="a" width="8" height="8" transform="translate(1414.004 2016.006)"/><rect class="a" width="8" height="8" transform="translate(1406.004 2016.006)"/><rect class="a" width="8" height="8" transform="translate(1398.004 2016.006)"/><rect class="a" width="8" height="8" transform="translate(1390.004 2016.006)"/><rect class="a" width="8" height="8" transform="translate(1382.004 2016.006)"/><rect class="a" width="8" height="8" transform="translate(1374.004 2016.006)"/><rect class="a" width="8" height="8" transform="translate(1366.004 2016.006)"/><rect class="a" width="8" height="8" transform="translate(1358.004 2016.006)"/><rect class="a" width="8" height="8" transform="translate(1350.004 2016.006)"/><rect class="a" width="8" height="8" transform="translate(1342.004 2016.006)"/><rect class="a" width="8" height="8" transform="translate(1334.004 2016.006)"/><rect class="a" width="8" height="8" transform="translate(1326.004 2016.006)"/><rect class="a" width="8" height="8" transform="translate(1318.004 2016.006)"/><rect class="a" width="8" height="8" transform="translate(1310.004 2016.006)"/><rect class="a" width="8" height="8" transform="translate(1302.004 2016.006)"/><rect class="a" width="8" height="8" transform="translate(1294.004 2016.006)"/><rect class="a" width="8" height="8" transform="translate(1286.004 2016.006)"/><rect class="a" width="8" height="8" transform="translate(1278.004 2016.006)"/><rect class="a" width="8" height="8" transform="translate(1270.004 2016.006)"/><rect class="a" width="8" height="8" transform="translate(1262.004 2016.006)"/><rect class="a" width="8" height="8" transform="translate(1254.004 2016.006)"/><rect class="a" width="8" height="8" transform="translate(1246.004 2016.006)"/><rect class="a" width="8" height="8" transform="translate(1238.004 2016.006)"/><rect class="a" width="8" height="8" transform="translate(1230.004 2016.006)"/><rect class="a" width="8" height="8" transform="translate(1222.004 2016.006)"/><rect class="a" width="8" height="8" transform="translate(1214.004 2016.006)"/><rect class="a" width="8" height="8" transform="translate(1206.004 2016.006)"/><rect class="a" width="8" height="8" transform="translate(1198.004 2016.006)"/><path d="M1319.3,2188.255a7.985,7.985,0,0,0,13.163.364l38.855-38.855A8,8,0,0,0,1360,2138.45l-26,26V2056.007a8,8,0,0,0-16,0v108.329l-25.887-25.886a8,8,0,0,0-11.313,11.314Z"/><path d="M1414.031,2144.006a8,8,0,0,0-8,8v56a16,16,0,0,1-16,16h-128a16,16,0,0,1-16-16v-56a8,8,0,0,0-16,0v56a32,32,0,0,0,32,32h128a32,32,0,0,0,32-32v-56A8,8,0,0,0,1414.031,2144.006Z"/><rect class="c" width="256" height="256" transform="translate(1198.004 2016.006)"/></g></svg>