<svg xmlns="http://www.w3.org/2000/svg" width="412" height="118" viewBox="0 0 412 118"><defs><style>.a{fill:#176db7;}.b,.c{fill:#fff;}.c,.e{stroke-miterlimit:10;}.d{fill:#999;}.e{fill:none;stroke:gray;}.f,.i{fill:gray;}.g{font-size:15px;font-family:CorporateS-Regular, CorpoS;letter-spacing:0.01em;}.h,.i{stroke:none;}</style></defs><g transform="translate(-679 -2631)"><g transform="translate(700 2644.776)"><g transform="translate(234 19.224)"><path class="a" d="M270.8,57.62H164.443a2.924,2.924,0,0,1-2.823-3v-42a2.924,2.924,0,0,1,2.823-3H270.8a2.924,2.924,0,0,1,2.823,3v42A2.905,2.905,0,0,1,270.8,57.62Z" transform="translate(-161.62 -9.62)"/><g transform="translate(19.723 15.808)"><path class="b" d="M179.07,30.426l2.744-.26a3.349,3.349,0,0,0,1.007,2.03,3,3,0,0,0,2.046.65,3.17,3.17,0,0,0,2.046-.568,1.7,1.7,0,0,0,.682-1.348,1.272,1.272,0,0,0-.292-.844,2.322,2.322,0,0,0-1.007-.6c-.325-.114-1.088-.325-2.257-.617a7.627,7.627,0,0,1-3.183-1.38,3.612,3.612,0,0,1-1.283-2.809,3.557,3.557,0,0,1,.6-2,3.863,3.863,0,0,1,1.738-1.413,6.914,6.914,0,0,1,2.744-.487,5.87,5.87,0,0,1,3.946,1.153A4.09,4.09,0,0,1,190,25l-2.809.13a2.305,2.305,0,0,0-.779-1.543,2.9,2.9,0,0,0-1.786-.471,3.161,3.161,0,0,0-1.916.5,1.028,1.028,0,0,0-.455.861,1.076,1.076,0,0,0,.422.844,7.273,7.273,0,0,0,2.582.926,13.067,13.067,0,0,1,3.037,1.007,3.929,3.929,0,0,1,1.543,1.413,4.4,4.4,0,0,1-.114,4.466,3.977,3.977,0,0,1-1.884,1.559,7.862,7.862,0,0,1-3.037.5,6.032,6.032,0,0,1-4.06-1.218A5.344,5.344,0,0,1,179.07,30.426Z" transform="translate(-179.07 -20.78)"/><path class="b" d="M187.63,23.4V20.93h2.679V23.4Zm0,11.465v-10.1h2.679v10.1Z" transform="translate(-173.73 -20.686)"/><path class="b" d="M191.055,34.15l3.053.373a.983.983,0,0,0,.357.731,1.982,1.982,0,0,0,1.2.292,3.143,3.143,0,0,0,1.575-.309,1.37,1.37,0,0,0,.536-.682,4.1,4.1,0,0,0,.13-1.234V31.844a3.615,3.615,0,0,1-3.02,1.64,3.719,3.719,0,0,1-3.232-1.721,5.884,5.884,0,0,1-.926-3.394,5.589,5.589,0,0,1,1.218-3.881,3.959,3.959,0,0,1,3.037-1.348,3.705,3.705,0,0,1,3.085,1.64V23.367h2.5v9.061a9.239,9.239,0,0,1-.292,2.679,3.266,3.266,0,0,1-.828,1.4,3.653,3.653,0,0,1-1.429.8,7.4,7.4,0,0,1-2.257.292,5.829,5.829,0,0,1-3.637-.877,2.76,2.76,0,0,1-1.072-2.225A1.194,1.194,0,0,1,191.055,34.15Zm2.387-5.927a3.714,3.714,0,0,0,.617,2.355,1.9,1.9,0,0,0,1.543.747,2.159,2.159,0,0,0,1.656-.763,3.308,3.308,0,0,0,.682-2.273,3.556,3.556,0,0,0-.65-2.338,2.03,2.03,0,0,0-1.64-.763,1.991,1.991,0,0,0-1.591.747A3.5,3.5,0,0,0,193.442,28.223Z" transform="translate(-171.796 -19.308)"/><path class="b" d="M207.74,33.478h-2.679V28.314a7.781,7.781,0,0,0-.179-2.111,1.513,1.513,0,0,0-.552-.747,1.589,1.589,0,0,0-.926-.26,2.221,2.221,0,0,0-1.25.373,1.894,1.894,0,0,0-.763,1.007,8.229,8.229,0,0,0-.211,2.322v4.579H198.5v-10.1h2.485v1.478a4.136,4.136,0,0,1,4.953-1.38,2.686,2.686,0,0,1,1.1.812,2.962,2.962,0,0,1,.52,1.12,8.5,8.5,0,0,1,.146,1.8v6.268Z" transform="translate(-166.948 -19.301)"/><path class="b" d="M209.436,20.92h2.809v7.551a16.945,16.945,0,0,0,.1,2.338,2.274,2.274,0,0,0,.861,1.38,2.935,2.935,0,0,0,1.867.52,2.841,2.841,0,0,0,1.8-.487,1.931,1.931,0,0,0,.731-1.2,15.624,15.624,0,0,0,.13-2.371V20.936h2.809V28.26a19.558,19.558,0,0,1-.227,3.556,3.853,3.853,0,0,1-.844,1.754,4.234,4.234,0,0,1-1.64,1.137,7.234,7.234,0,0,1-2.679.422,7.8,7.8,0,0,1-3.037-.455,4.209,4.209,0,0,1-1.624-1.2,4.009,4.009,0,0,1-.8-1.543,17.306,17.306,0,0,1-.276-3.54V20.92Z" transform="translate(-160.135 -20.693)"/><path class="b" d="M218.17,23.377h2.5v1.478a3.72,3.72,0,0,1,3.15-1.705,3.832,3.832,0,0,1,2.988,1.38,5.646,5.646,0,0,1,1.234,3.849,5.7,5.7,0,0,1-1.234,3.93,3.88,3.88,0,0,1-3,1.4,3.281,3.281,0,0,1-1.51-.341,5.512,5.512,0,0,1-1.429-1.137V37.31h-2.679V23.377Zm2.647,4.888a3.852,3.852,0,0,0,.682,2.517,2.1,2.1,0,0,0,1.64.812,1.951,1.951,0,0,0,1.559-.747,3.8,3.8,0,0,0,.617-2.452,3.642,3.642,0,0,0-.633-2.355,2,2,0,0,0-1.575-.763,2.047,2.047,0,0,0-1.624.763A3.367,3.367,0,0,0,220.817,28.265Z" transform="translate(-154.676 -19.301)"/></g></g><g transform="translate(18 19.224)"><g class="c" transform="translate(-9.63 -9.62)"><path class="h" d="M 206.6888580322266 57.11999893188477 L 12.57118034362793 57.11999893188477 C 11.22510528564453 57.11999893188477 10.1300048828125 55.99850082397461 10.1300048828125 54.61999893188477 L 10.1300048828125 12.61999893188477 C 10.1300048828125 11.24149894714355 11.22510528564453 10.11999893188477 12.57118034362793 10.11999893188477 L 206.6888580322266 10.11999893188477 C 208.034912109375 10.11999893188477 209.1300048828125 11.24149894714355 209.1300048828125 12.61999893188477 L 209.1300048828125 54.61999893188477 C 209.1300048828125 55.99850082397461 208.034912109375 57.11999893188477 206.6888580322266 57.11999893188477 Z"/><path class="i" d="M 206.6888427734375 56.61999893188477 C 207.7592010498047 56.61999893188477 208.6300048828125 55.72280502319336 208.6300048828125 54.61999893188477 L 208.6300048828125 12.61999893188477 C 208.6300048828125 11.51719379425049 207.7592010498047 10.61999893188477 206.6888427734375 10.61999893188477 L 12.57119941711426 10.61999893188477 C 11.50081062316895 10.61999893188477 10.6300048828125 11.51719379425049 10.6300048828125 12.61999893188477 L 10.6300048828125 54.61999893188477 C 10.6300048828125 55.72280502319336 11.50081062316895 56.61999893188477 12.57119941711426 56.61999893188477 L 206.6888427734375 56.61999893188477 M 206.6888427734375 57.61999893188477 L 12.57119941711426 57.61999893188477 C 10.95353221893311 57.61999893188477 9.6300048828125 56.27000045776367 9.6300048828125 54.61999893188477 L 9.6300048828125 12.61999893188477 C 9.6300048828125 10.96999931335449 10.95353221893311 9.619998931884766 12.57119941711426 9.619998931884766 L 206.6888427734375 9.619998931884766 C 208.3065032958984 9.619998931884766 209.6300048828125 10.96999931335449 209.6300048828125 12.61999893188477 L 209.6300048828125 54.61999893188477 C 209.6300048828125 56.28499984741211 208.3065032958984 57.61999893188477 206.6888427734375 57.61999893188477 Z"/></g><g transform="translate(16 16.585)"><path class="d" d="M18.5,34.979V21.03H28.844v2.355H21.326V26.47h7v2.355h-7v3.8H29.12v2.355H18.5Z" transform="translate(-18.5 -21.03)"/><path class="d" d="M26.376,23.487h2.468v1.38a3.961,3.961,0,0,1,3.15-1.608,3.335,3.335,0,0,1,1.689.406,3.086,3.086,0,0,1,1.169,1.2,4.627,4.627,0,0,1,1.429-1.2,3.553,3.553,0,0,1,1.64-.406,3.6,3.6,0,0,1,1.884.455,2.812,2.812,0,0,1,1.153,1.332,5.938,5.938,0,0,1,.276,2.095V33.6H38.555V27.823a4.4,4.4,0,0,0-.276-1.949,1.279,1.279,0,0,0-1.137-.568,1.816,1.816,0,0,0-1.056.341,1.944,1.944,0,0,0-.715,1.007,7.281,7.281,0,0,0-.211,2.095V33.6H32.482V28.067a7.386,7.386,0,0,0-.146-1.9,1.237,1.237,0,0,0-.438-.633,1.461,1.461,0,0,0-.812-.211,1.979,1.979,0,0,0-1.12.341,1.8,1.8,0,0,0-.715.958,6.881,6.881,0,0,0-.211,2.062v4.9H26.36v-10.1Z" transform="translate(-13.596 -19.639)"/><path class="d" d="M39.419,26.573,37,26.134a3.833,3.833,0,0,1,1.413-2.176,5.15,5.15,0,0,1,2.972-.7,6.526,6.526,0,0,1,2.663.422,2.626,2.626,0,0,1,1.234,1.072,5.43,5.43,0,0,1,.357,2.387l-.032,3.118a11.192,11.192,0,0,0,.13,1.965,5.04,5.04,0,0,0,.487,1.348H43.577c-.065-.179-.162-.438-.26-.8-.049-.162-.081-.26-.1-.309a5.018,5.018,0,0,1-1.461,1.007,4.108,4.108,0,0,1-1.673.341,3.384,3.384,0,0,1-2.452-.844,3.04,3.04,0,0,1-.487-3.67A2.528,2.528,0,0,1,38.3,28.278a8.963,8.963,0,0,1,2.127-.617,14.913,14.913,0,0,0,2.6-.65v-.276a1.436,1.436,0,0,0-.374-1.1,2.2,2.2,0,0,0-1.429-.325,2.041,2.041,0,0,0-1.12.276A1.886,1.886,0,0,0,39.419,26.573Zm3.573,2.176c-.341.114-.877.244-1.624.406a4.677,4.677,0,0,0-1.461.471,1.134,1.134,0,0,0-.52.942,1.342,1.342,0,0,0,.422.974,1.445,1.445,0,0,0,1.072.406,2.36,2.36,0,0,0,1.38-.471,1.659,1.659,0,0,0,.633-.877,5.651,5.651,0,0,0,.1-1.3v-.552Z" transform="translate(-7.12 -19.639)"/><path class="d" d="M43.83,23.508V21.04h2.679v2.468Zm0,11.465v-10.1h2.679v10.1Z" transform="translate(-2.697 -21.024)"/><path class="d" d="M47.17,34.979V21.03h2.679V34.979Z" transform="translate(-0.613 -21.03)"/></g></g><g transform="translate(18 77.946)"><line class="e" x2="15.188" transform="translate(0.422 2.631)"/><rect class="f" width="0.812" height="5.278"/><g transform="translate(15.188)"><rect class="f" width="0.812" height="5.278"/></g></g><g transform="translate(234 77.946)"><line class="e" x2="15.188" transform="translate(0.422 2.631)"/><rect class="f" width="0.812" height="5.278"/><g transform="translate(15.188)"><rect class="f" width="0.812" height="5.278"/></g></g><g transform="translate(330 77.946)"><line class="e" x2="15.188" transform="translate(0.422 2.631)"/><rect class="f" width="0.812" height="5.278"/><g transform="translate(15.188)"><rect class="f" width="0.812" height="5.278"/></g></g><g transform="translate(362 19.224)"><line class="e" y2="15.188" transform="translate(2.631 0.422)"/><rect class="f" width="5.278" height="0.812"/><g transform="translate(0 15.188)"><rect class="f" width="5.278" height="0.812"/></g></g><g transform="translate(218 5.946)"><line class="e" x2="15.188" transform="translate(0.422 2.631)"/><rect class="f" width="0.812" height="5.278"/><g transform="translate(15.188)"><rect class="f" width="0.812" height="5.278"/></g></g><g transform="translate(0 19.224)"><line class="e" y1="47.55" transform="translate(2.631 0.422)"/><g transform="translate(0 47.55)"><rect class="f" width="5.278" height="0.812" transform="translate(0 0)"/></g><rect class="f" width="5.278" height="0.812"/></g></g><text class="g" transform="translate(918 2645)"><tspan x="0" y="0">16</tspan></text><text class="g" transform="translate(718 2746)"><tspan x="0" y="0">16</tspan></text><text class="g" transform="translate(679 2693)"><tspan x="0" y="0">48</tspan></text><text class="g" transform="translate(1075 2677)"><tspan x="0" y="0">16</tspan></text><text class="g" transform="translate(934 2746)"><tspan x="0" y="0">16</tspan></text><text class="g" transform="translate(1030 2746)"><tspan x="0" y="0">16</tspan></text></g></svg>