<svg xmlns="http://www.w3.org/2000/svg" width="668.672" height="579.077" viewBox="0 0 668.672 579.077"><defs><style>.a{fill:gray;}.b{fill:#1a1a1a;}.c{fill:#e6e6e6;}.d{fill:#ccc;}</style></defs><path class="a" d="M75.415,170.939V100.679L45,83.14V188.512Z" transform="translate(106.966 197.591)"/><path class="a" d="M191.492,20.78,9,126.152V407.121l30.415-17.573V143.725l152.076-87.8Z" transform="translate(21.415 49.445)"/><path class="b" d="M184.762,126.22,63,55.927V20.78l152.076,87.832Z" transform="translate(149.716 49.445)"/><path class="a" d="M54,307.457,327.737,149.433V114.32L54,272.344Z" transform="translate(128.277 271.62)"/><path class="c" d="M668.672,17.556,638.278,0,395.124,140.345,212.759,35.078,0,157.9l30.394,17.522L212.759,70.156,364.73,157.9l-91.183,52.6L607.883,403.479l30.394-17.522L334.336,210.5Z"/><path class="b" d="M415.568,38.353V354.435L81,161.265v35.147l364.983,210.71V20.78Z" transform="translate(192.274 49.445)"/><path class="a" d="M99,198.337l30.415,17.573L403.152,57.852V444.193l30.415-17.573V5.2Z" transform="translate(235.104 12.373)"/><path class="b" d="M30.415,345.279V64.309L0,46.77V362.852L182.491,468.19V433.077Z" transform="translate(0 110.886)"/><path class="b" d="M279.322,243.147l30.415-17.539L36,67.55v175.6l121.661,70.259,30.415-17.573L66.415,225.608V120.236Z" transform="translate(85.518 160.459)"/><path class="d" d="M130.661,62.35,100.246,79.923,373.983,237.981l-91.246,52.652L161.076,220.408l-30.415,17.573,121.661,70.225-91.246,52.686L39.415,290.633,9,308.207l152.076,87.8L434.813,237.981Z" transform="translate(21.415 147.958)"/></svg>