<svg xmlns="http://www.w3.org/2000/svg" width="112" height="112" viewBox="0 0 112 112"><g transform="translate(-0.13 -0.12)"><path d="M138.58,99.42h-.02l.02,4Z" transform="translate(-69.215 -49.65)"/><path d="M92.679,49.13A19.82,19.82,0,0,0,72.864,68.84a20.219,20.219,0,0,0,1.275,7.1l15.82,38.62a2.945,2.945,0,0,0,5.445-.015l15.73-38.485.065-.165a22.144,22.144,0,0,0,1.29-6.955A19.834,19.834,0,0,0,92.679,49.13Zm14.76,25.41-14.76,36.11L77.9,74.575a16.046,16.046,0,0,1-1.035-5.55l0-.135A15.817,15.817,0,0,1,92.684,53.135,15.842,15.842,0,0,1,108.5,68.99,18.886,18.886,0,0,1,107.439,74.54Z" transform="translate(-36.364 -24.505)"/><path d="M106.12,73.81a6,6,0,0,0-6,6v6.01a6,6,0,0,0,12,0V79.81A6,6,0,0,0,106.12,73.81Zm2,12.005a2,2,0,0,1-4,0V79.81a2,2,0,0,1,4,0Z" transform="translate(-49.995 -36.845)"/><path d="M56.13.12a56,56,0,1,0,56,56A56,56,0,0,0,56.13.12Zm0,108a52,52,0,1,1,52-52A52.056,52.056,0,0,1,56.13,108.12Z"/></g></svg>