<svg xmlns="http://www.w3.org/2000/svg" width="256.5" height="256.5" viewBox="0 0 256.5 256.5"><defs><style>.a,.c,.d{opacity:0.5;}.b{fill:none;stroke:#707070;stroke-linecap:square;stroke-width:0.5px;}.c{fill:#c6c6c6;}.d{fill:#fff;}.e{fill:#0090ff;opacity:0.4;}</style></defs><g transform="translate(-1231.75 -4087.75)"><g class="a" transform="translate(1024 1336)"><line class="b" x2="256" transform="translate(208 2752)"/><line class="b" x2="256" transform="translate(208 2784)"/><line class="b" x2="256" transform="translate(208 2976)"/><line class="b" x2="256" transform="translate(208 2816)"/><line class="b" x2="256" transform="translate(208 2848)"/><line class="b" x2="256" transform="translate(208 2880)"/><line class="b" x2="256" transform="translate(208 2912)"/><line class="b" x2="256" transform="translate(208 2944)"/><line class="b" x2="256" transform="translate(208 3008)"/><line class="b" y2="256" transform="translate(208 2752)"/><line class="b" y2="256" transform="translate(240 2752)"/><line class="b" y2="256" transform="translate(272 2752)"/><line class="b" y2="256" transform="translate(304 2752)"/><line class="b" y2="256" transform="translate(336 2752)"/><line class="b" y2="256" transform="translate(368 2752)"/><line class="b" y2="256" transform="translate(400 2752)"/><line class="b" y2="256" transform="translate(432 2752)"/><line class="b" y2="256" transform="translate(464 2752)"/></g><g transform="translate(952 1816)"><g transform="translate(280 2272)"><rect class="c" width="256" height="256"/><rect class="d" width="224" height="224" transform="translate(16 16)"/></g><rect class="e" width="192" height="192" transform="translate(312 2304)"/></g><g transform="translate(1264.24 4120)"><path d="M68,80H4a4,4,0,0,0,0,8H68a4,4,0,0,0,0-8Z" transform="translate(0 16.836)"/><path d="M75.86,104H4.14a4,4,0,0,0,0,8H75.86a4,4,0,0,0,0-8Z" transform="translate(0 21.886)"/><path d="M171.9,0H3.428C1.534,0,0,2.148,0,4.8H0C0,7.452,1.534,9.6,3.428,9.6H171.9c6.076,0,11.441,5.868,13,14.087V168.313c-1.56,8.22-6.924,14.087-13,14.087H30.894c-1.894,0-3.428,2.148-3.428,4.8h0c0,2.652,1.534,4.8,3.428,4.8H171.9c9.744,0,17.877-9.659,19.856-22.559V22.559C189.789,9.659,181.647,0,171.9,0Z"/><path d="M185.63,64H3.412A3.74,3.74,0,0,1,0,60V28a3.74,3.74,0,0,1,3.412-4H185.63Z"/><path d="M184,136H152a8,8,0,0,1-8-8V112a8,8,0,0,1,8-8h32a8,8,0,0,1,8,8v16A8,8,0,0,1,184,136Z" transform="translate(-32 25.99)"/></g></g></svg>