<svg xmlns="http://www.w3.org/2000/svg" xmlns:xlink="http://www.w3.org/1999/xlink" width="1576" height="1104" viewBox="0 0 1576 1104"><defs><clipPath id="a"><rect width="1576" height="1104" transform="translate(56)" fill="#fff" stroke="#707070" stroke-width="1"/></clipPath></defs><g transform="translate(-80 24)"><g transform="translate(24 -24)" clip-path="url(#a)"><g transform="translate(-29 -41)"><path d="M372.038,1454.922,0,1240.126,2147.962,0,2520,214.8Z" transform="translate(960 -1079.384) rotate(60)" fill="#b3b3b3" opacity="0.1"/><path d="M372.038,1454.922,0,1240.126,2147.962,0,2520,214.8Z" transform="translate(444 -542.384) rotate(60)" fill="#b3b3b3" opacity="0.1"/><path d="M372.038,1454.922,0,1240.126,2147.962,0,2520,214.8Z" transform="translate(-368 -166.922)" fill="#b3b3b3" opacity="0.1"/><path d="M372.038,1454.922,0,1240.126,2147.962,0,2520,214.8Z" transform="translate(-941 -639.922)" fill="#b3b3b3" opacity="0.1"/><path d="M372.038,1454.922,0,1240.126,2147.962,0,2520,214.8Z" transform="translate(352 245)" fill="#b3b3b3" opacity="0.1"/></g></g><g transform="translate(279 411.942)"><path d="M15.14,18.67l1.984,1.142L8.857,28.569,6.842,27.408l1.814-1.764-3.59-2.071L2,24.614,0,23.453Zm-5.059,5.574,3.471-3.515L7.489,22.744Z" transform="translate(0 -18.67)"/><path d="M26.369,23.06l7.306,4.218-1.921,1.111-2.68-1.55-9.792,5.656-1.952-1.13,9.792-5.656-2.668-1.538Z" transform="translate(-6.452 -20.304)"/><path d="M43.5,33.6a3.243,3.243,0,0,1,1.532,1.657A2.346,2.346,0,0,1,44.6,37.53a8.305,8.305,0,0,1-2.661,2.2,13.044,13.044,0,0,1-6.145,1.852,8.334,8.334,0,0,1-4.507-.985q-1.874-1.083-1.714-2.6.179-1.8,3.189-3.54a13.776,13.776,0,0,1,4.406-1.676,10.628,10.628,0,0,1,3.854-.044A7.519,7.519,0,0,1,43.5,33.6ZM41.48,34.661a4.241,4.241,0,0,0-2.737-.452,10.59,10.59,0,0,0-3.942,1.4,5.222,5.222,0,0,0-2.417,2.272q-.358.923.81,1.6a4.273,4.273,0,0,0,2.774.471,10.55,10.55,0,0,0,3.917-1.387,5.282,5.282,0,0,0,2.442-2.285Q42.685,35.358,41.48,34.661Z" transform="translate(-11.005 -23.846)"/><path d="M54.459,40.2l2.718,1.569L50.065,48.4,61.59,44.318l2.7,1.557-11.713,6.76-1.764-1.017,9.133-5.266-11.3,4.017-2-1.155L53.637,42.7,44.5,47.977,42.74,46.96Z" transform="translate(-15.912 -26.686)"/><path d="M77.85,57.7l-1.871-1.08a1.648,1.648,0,0,0,.728-.8c.138-.427-.088-.816-.678-1.155a3.179,3.179,0,0,0-1.318-.4,2.425,2.425,0,0,0-1.437.282.621.621,0,0,0-.358.8,14.666,14.666,0,0,0,.841,1.437,12.061,12.061,0,0,1,.841,1.437,1.48,1.48,0,0,1-.157,1.475,3.824,3.824,0,0,1-1.193.985,7.172,7.172,0,0,1-3.936.948,6.936,6.936,0,0,1-3.308-.96c-1.594-.923-2.128-1.914-1.594-2.994a4.8,4.8,0,0,1,1.845-1.72l1.889,1.092c-1.375.942-1.437,1.776-.176,2.5a3.554,3.554,0,0,0,1.532.477,2.245,2.245,0,0,0,1.337-.27.782.782,0,0,0,.414-1.048,16.925,16.925,0,0,0-.879-1.525,3.348,3.348,0,0,1-.7-2.015A2.585,2.585,0,0,1,71.1,53.545a6.572,6.572,0,0,1,2.869-.847,7.494,7.494,0,0,1,2.467.232,6.334,6.334,0,0,1,1.569.64,2.827,2.827,0,0,1,1.431,1.544,1.734,1.734,0,0,1-.621,1.858A6.564,6.564,0,0,1,77.85,57.7Z" transform="translate(-23.906 -31.331)"/></g><g transform="translate(615.895 602.35)"><path d="M347.479,0,350.2,1.569,343.085,8.2,354.61,4.118l2.7,1.557L345.6,12.435l-1.764-1.017,9.133-5.273-11.3,4.017-2-1.155,6.993-6.5-9.133,5.273L335.76,6.767Z" transform="translate(-335.76)"/><path d="M372.385,14.11a3.243,3.243,0,0,1,1.532,1.657,2.331,2.331,0,0,1-.427,2.272,8.376,8.376,0,0,1-2.661,2.2,13.045,13.045,0,0,1-6.145,1.852,8.321,8.321,0,0,1-4.507-.985q-1.874-1.083-1.714-2.6.179-1.8,3.189-3.54a13.776,13.776,0,0,1,4.406-1.676,10.628,10.628,0,0,1,3.854-.044A7.519,7.519,0,0,1,372.385,14.11Zm-2.015,1.061a4.241,4.241,0,0,0-2.737-.452,10.481,10.481,0,0,0-3.942,1.4,5.222,5.222,0,0,0-2.417,2.272q-.358.923.81,1.6a4.313,4.313,0,0,0,2.774.471,10.549,10.549,0,0,0,3.917-1.387,5.282,5.282,0,0,0,2.442-2.285Q371.575,15.868,370.37,15.171Z" transform="translate(-344.207 -4.871)"/><path d="M383.343,20.71l2,1.155-9.792,5.656,4.4,2.542-1.921,1.111-6.4-3.7Z" transform="translate(-349.114 -7.71)"/><path d="M393.1,31.749l4.03,2.329-1.921,1.111-4.03-2.329L387.993,34.7l4.595,2.649-1.921,1.111L384.12,34.68l11.713-6.76,6.384,3.685L400.3,32.716l-4.432-2.555Z" transform="translate(-353.764 -10.395)"/><path d="M413.54,42.546l-1.682-.967a2.49,2.49,0,0,0,.854-.985c.207-.5-.013-.942-.659-1.312a4.31,4.31,0,0,0-2.818-.4,10.647,10.647,0,0,0-3.779,1.387,5.6,5.6,0,0,0-2.341,2.1c-.326.684-.094,1.255.69,1.707q1.751,1.007,4.557-.4l1.745,1.011a12.04,12.04,0,0,1-3.189,1.224,6.9,6.9,0,0,1-4.99-.659c-1.237-.709-1.814-1.563-1.732-2.542.1-1.211,1.155-2.4,3.176-3.565a13.257,13.257,0,0,1,6.553-1.914,7.93,7.93,0,0,1,4.068.948,2.929,2.929,0,0,1,1.419,1.475C415.737,40.569,415.11,41.542,413.54,42.546Z" transform="translate(-359.746 -13.86)"/><path d="M424.382,43.72l1.952,1.13-6.729,3.885a8.718,8.718,0,0,0-1.776,1.218.922.922,0,0,0-.283,1,1.843,1.843,0,0,0,.866.866,3.994,3.994,0,0,0,2.059.527,5.031,5.031,0,0,0,2.235-.653c.232-.119.577-.308,1.023-.565l6.729-3.885,1.952,1.13-6.76,3.9a20.389,20.389,0,0,1-2.027,1.061,8.055,8.055,0,0,1-7.162-.389,3.113,3.113,0,0,1-1.808-2.122,2.273,2.273,0,0,1,1.124-2.015,17.84,17.84,0,0,1,1.833-1.174Z" transform="translate(-365.127 -16.277)"/><path d="M439.743,53.27l2,1.155-9.792,5.656,4.4,2.542-1.921,1.111-6.4-3.691Z" transform="translate(-370.112 -19.832)"/><path d="M449.492,64.305l4.03,2.329L451.6,67.745l-4.03-2.329-3.182,1.839,4.589,2.649-1.921,1.111-6.547-3.779,11.713-6.767,6.384,3.685-1.921,1.111-4.432-2.555Z" transform="translate(-374.758 -22.513)"/><path d="M469.08,74.2l-1.871-1.08a1.648,1.648,0,0,0,.728-.8c.138-.427-.088-.816-.678-1.155a3.178,3.178,0,0,0-1.318-.4,2.425,2.425,0,0,0-1.437.282.621.621,0,0,0-.358.8,14.668,14.668,0,0,0,.841,1.437,12.065,12.065,0,0,1,.841,1.437,1.48,1.48,0,0,1-.157,1.475,3.825,3.825,0,0,1-1.193.985,7.171,7.171,0,0,1-3.936.948,6.936,6.936,0,0,1-3.308-.96c-1.594-.923-2.128-1.915-1.594-2.994a4.8,4.8,0,0,1,1.845-1.72l1.889,1.092c-1.375.942-1.437,1.776-.176,2.5a3.553,3.553,0,0,0,1.532.477,2.246,2.246,0,0,0,1.337-.27.782.782,0,0,0,.414-1.048A16.925,16.925,0,0,0,461.6,73.7a3.348,3.348,0,0,1-.7-2.015,2.585,2.585,0,0,1,1.425-1.638A6.572,6.572,0,0,1,465.2,69.2a7.493,7.493,0,0,1,2.467.232,6.334,6.334,0,0,1,1.569.64,2.827,2.827,0,0,1,1.431,1.544,1.734,1.734,0,0,1-.621,1.858A6.566,6.566,0,0,1,469.08,74.2Z" transform="translate(-380.317 -25.754)"/></g><g transform="translate(960.67 390.84)"><path d="M747.175,2.922a3.243,3.243,0,0,1,1.532,1.657,2.346,2.346,0,0,1-.427,2.272,8.3,8.3,0,0,1-2.661,2.2,13.044,13.044,0,0,1-6.145,1.852,8.321,8.321,0,0,1-4.507-.985q-1.874-1.083-1.714-2.6.179-1.8,3.189-3.54a13.777,13.777,0,0,1,4.406-1.676,10.769,10.769,0,0,1,3.854-.044A7.52,7.52,0,0,1,747.175,2.922ZM745.16,3.983a4.241,4.241,0,0,0-2.737-.452,10.59,10.59,0,0,0-3.942,1.4A5.221,5.221,0,0,0,736.065,7.2q-.358.923.81,1.6a4.314,4.314,0,0,0,2.774.477,10.55,10.55,0,0,0,3.917-1.387,5.282,5.282,0,0,0,2.442-2.285C746.246,4.987,745.964,4.447,745.16,3.983Z" transform="translate(-733.24 -1.896)"/><path d="M758.147,9.51l2.536,1.463a15.033,15.033,0,0,1,1.983,1.3,1.605,1.605,0,0,1,.64,1.839,3.325,3.325,0,0,1-1.594,1.607,7.252,7.252,0,0,1-5.059.847l-2.517,4.155-2.272-1.312,2.4-3.779-1.4-.81-4.469,2.58-1.952-1.13Zm-3.365,4.206.7.408a7.434,7.434,0,0,0,1.845.841,3.233,3.233,0,0,0,1.255.025,3.46,3.46,0,0,0,1.136-.408c.634-.364.879-.753.728-1.168a1.784,1.784,0,0,0-.722-.741c-.163-.107-.5-.3-.992-.6l-.559-.32Z" transform="translate(-738.154 -4.731)"/><path d="M771.888,23.99l3.641,2.1L770.664,28.9a11.725,11.725,0,0,1-5.122-1.343q-2.052-1.186-1.808-2.787.264-1.732,3.2-3.427a13.2,13.2,0,0,1,6.057-1.864,8.222,8.222,0,0,1,4.557.967,3.144,3.144,0,0,1,1.488,1.532,1.836,1.836,0,0,1-.571,2.009,6.331,6.331,0,0,1-1.18.916l-1.682-.967c1.2-.885,1.212-1.67.044-2.341a4.329,4.329,0,0,0-2.73-.483,10.393,10.393,0,0,0-3.973,1.419,5.311,5.311,0,0,0-2.354,2.147q-.414,1,.885,1.751a6.389,6.389,0,0,0,1.94.665,6.52,6.52,0,0,0,.948.119l1.877-1.086-2.027-1.174Z" transform="translate(-744.583 -8.439)"/><path d="M789.43,28.75l1.984,1.142-8.267,8.756-2.015-1.161,1.814-1.77-3.591-2.071-3.069,1.042-2-1.155Zm-5.059,5.574,3.471-3.515-6.064,2.015Z" transform="translate(-748.523 -11.894)"/><path d="M802.3,35l2.072,1.2-4.112,7.143,8.248-4.758,1.852,1.067-11.713,6.767-1.952-1.13,4-7.219-8.248,4.764-1.852-1.067Z" transform="translate(-754.591 -14.221)"/><path d="M809.252,52.547l-1.952-1.13,11.713-6.767,1.952,1.13Z" transform="translate(-760.812 -17.813)"/><path d="M829.85,54.911l-1.871-1.08a1.648,1.648,0,0,0,.728-.8c.138-.427-.088-.816-.678-1.155a3.178,3.178,0,0,0-1.318-.4,2.424,2.424,0,0,0-1.437.282.621.621,0,0,0-.358.8,14.666,14.666,0,0,0,.841,1.437,12.081,12.081,0,0,1,.841,1.437,1.48,1.48,0,0,1-.157,1.475,3.823,3.823,0,0,1-1.193.985,7.172,7.172,0,0,1-3.936.948,6.936,6.936,0,0,1-3.308-.96q-2.392-1.384-1.594-2.994a4.8,4.8,0,0,1,1.845-1.72l1.889,1.092c-1.375.942-1.437,1.776-.176,2.5a3.554,3.554,0,0,0,1.532.477,2.246,2.246,0,0,0,1.337-.27.782.782,0,0,0,.414-1.048c-.069-.169-.364-.678-.879-1.525a3.349,3.349,0,0,1-.7-2.015,2.585,2.585,0,0,1,1.425-1.638,6.571,6.571,0,0,1,2.869-.847,7.494,7.494,0,0,1,2.467.232,6.334,6.334,0,0,1,1.569.64,2.827,2.827,0,0,1,1.431,1.544,1.734,1.734,0,0,1-.621,1.858A6.157,6.157,0,0,1,829.85,54.911Z" transform="translate(-764.13 -19.763)"/><path d="M839.709,56.61l2.718,1.569-7.112,6.635,11.525-4.086,2.7,1.557-11.713,6.76-1.764-1.017,9.133-5.273-11.3,4.017-2-1.155,6.993-6.509-9.133,5.279L827.99,63.37Z" transform="translate(-768.515 -22.266)"/><path d="M863.1,74.111l-1.87-1.08a1.647,1.647,0,0,0,.728-.8c.138-.427-.088-.816-.678-1.155a3.178,3.178,0,0,0-1.318-.4,2.425,2.425,0,0,0-1.437.282.613.613,0,0,0-.352.8,14.66,14.66,0,0,0,.841,1.437,11.183,11.183,0,0,1,.841,1.437,1.48,1.48,0,0,1-.157,1.475,3.824,3.824,0,0,1-1.193.986,7.159,7.159,0,0,1-3.936.948,6.936,6.936,0,0,1-3.308-.96q-2.391-1.384-1.594-2.994a4.8,4.8,0,0,1,1.845-1.72l1.889,1.092q-2.062,1.412-.176,2.5a3.553,3.553,0,0,0,1.532.477,2.245,2.245,0,0,0,1.337-.27.782.782,0,0,0,.414-1.048c-.069-.169-.364-.678-.879-1.525a3.348,3.348,0,0,1-.7-2.015,2.585,2.585,0,0,1,1.425-1.638,6.6,6.6,0,0,1,2.869-.847,7.493,7.493,0,0,1,2.467.232,6.333,6.333,0,0,1,1.569.64,2.827,2.827,0,0,1,1.431,1.544,1.734,1.734,0,0,1-.621,1.858A7.049,7.049,0,0,1,863.1,74.111Z" transform="translate(-776.512 -26.911)"/></g><g transform="translate(1327.69 606.541) rotate(2)"><path d="M9.045,0l7.306,4.218L14.431,5.329l-2.68-1.55L1.958,9.434,0,8.3,9.792,2.649,7.124,1.111Z" transform="translate(0 0)"/><path d="M8.976,3.835l4.03,2.329L11.085,7.275,7.055,4.946,3.873,6.785,8.468,9.434,6.547,10.545,0,6.767,11.713,0,18.1,3.685,16.176,4.8,11.744,2.241Z" transform="translate(6.038 5.022)"/><path d="M11.719,0l2.718,1.569L7.325,8.2,18.85,4.118l2.7,1.557L9.836,12.441,8.072,11.424l9.133-5.273-11.3,4.017-2-1.155L10.9,2.5,1.764,7.777,0,6.76Z" transform="translate(14.199 9.742)"/><path d="M11.7,0l2.379,1.375a9.491,9.491,0,0,1,2.542,1.871A1.364,1.364,0,0,1,16.678,4.9a4.281,4.281,0,0,1-1.557,1.387,7.293,7.293,0,0,1-3.628,1A6.555,6.555,0,0,1,8.38,6.509c-.427-.22-.9-.483-1.444-.8l-.609-.352L1.952,7.89,0,6.76ZM8.235,4.256l.615.358a8.262,8.262,0,0,0,1.965.916,2.818,2.818,0,0,0,1.35-.025,3.5,3.5,0,0,0,.979-.383c.734-.427,1.011-.847.816-1.262a4.083,4.083,0,0,0-1.532-1.211l-.7-.408Z" transform="translate(26.489 16.822)"/><path d="M11.707,0l2,1.155L3.917,6.811l4.4,2.542L6.4,10.464,0,6.767Z" transform="translate(35.076 21.788)"/><path d="M15.146,0,17.13,1.142,8.863,9.9,6.848,8.738l1.814-1.77L5.072,4.9,2,5.938,0,4.783ZM10.087,5.574l3.471-3.515L7.488,4.074Z" transform="translate(42.163 27.864)"/><path d="M9.045,0l7.306,4.218L14.431,5.329l-2.68-1.55L1.958,9.434,0,8.3,9.792,2.649,7.124,1.111Z" transform="translate(53.041 30.626)"/><path d="M8.976,3.829l4.03,2.329L11.085,7.269,7.055,4.94,3.873,6.779,8.468,9.428,6.547,10.539,0,6.76,11.713,0,18.1,3.685,16.176,4.8,11.744,2.241Z" transform="translate(59.086 35.654)"/><path d="M13.633,5.03,11.763,3.95a1.648,1.648,0,0,0,.728-.8c.138-.427-.088-.81-.678-1.155a3.179,3.179,0,0,0-1.318-.4,2.425,2.425,0,0,0-1.437.282.613.613,0,0,0-.352.8,14.67,14.67,0,0,0,.841,1.437,12.062,12.062,0,0,1,.841,1.437,1.5,1.5,0,0,1-.157,1.475,3.825,3.825,0,0,1-1.193.985A7.158,7.158,0,0,1,5.1,8.972a6.936,6.936,0,0,1-3.308-.96Q-.6,6.627.2,5.017A4.8,4.8,0,0,1,2.046,3.3L3.935,4.389c-1.375.942-1.437,1.776-.176,2.5a3.553,3.553,0,0,0,1.532.477A2.246,2.246,0,0,0,6.628,7.1a.782.782,0,0,0,.414-1.048c-.069-.169-.364-.678-.879-1.525a3.347,3.347,0,0,1-.7-2.015A2.584,2.584,0,0,1,6.891.874,6.662,6.662,0,0,1,9.76.021a7.493,7.493,0,0,1,2.467.232A6.334,6.334,0,0,1,13.8.893a2.847,2.847,0,0,1,1.431,1.544A1.734,1.734,0,0,1,14.606,4.3,6.125,6.125,0,0,1,13.633,5.03Z" transform="translate(68.458 41.107)"/></g><g transform="translate(965.839 851.322)"><path d="M1590.45,18.09l2.379,1.375a9.489,9.489,0,0,1,2.542,1.871,1.354,1.354,0,0,1,.057,1.651,4.28,4.28,0,0,1-1.557,1.387,7.293,7.293,0,0,1-3.628,1,6.555,6.555,0,0,1-3.113-.778c-.421-.22-.9-.483-1.444-.8l-.609-.352-4.375,2.53-1.952-1.13Zm-3.465,4.256.615.358a8.262,8.262,0,0,0,1.965.916,2.818,2.818,0,0,0,1.35-.025,3.5,3.5,0,0,0,.979-.383c.734-.427,1.011-.847.816-1.262a4.083,4.083,0,0,0-1.531-1.211l-.7-.408Z" transform="translate(-1578.75 -18.09)"/><path d="M1604.74,27.53l1.984,1.149-8.267,8.756-2.015-1.161,1.814-1.77-3.591-2.071-3.069,1.042-2-1.155Zm-5.053,5.574,3.471-3.515-6.07,2.015Z" transform="translate(-1582.789 -21.604)"/><path d="M1616.518,39.7l3.641,2.1-4.865,2.812a11.725,11.725,0,0,1-5.122-1.343q-2.053-1.186-1.808-2.787.263-1.732,3.195-3.427a13.2,13.2,0,0,1,6.057-1.864,8.17,8.17,0,0,1,4.557.967,3.168,3.168,0,0,1,1.487,1.532,1.835,1.835,0,0,1-.571,2.009,6.337,6.337,0,0,1-1.18.916l-1.682-.967c1.2-.885,1.212-1.67.044-2.341a4.318,4.318,0,0,0-2.724-.483,10.5,10.5,0,0,0-3.973,1.419,5.313,5.313,0,0,0-2.354,2.147c-.276.665.019,1.249.885,1.745a7.339,7.339,0,0,0,2.887.785l1.877-1.086-2.027-1.174Z" transform="translate(-1589.766 -24.453)"/><path d="M1629.766,46.205l4.03,2.329-1.921,1.111-4.03-2.329-3.182,1.839,4.595,2.649-1.921,1.111-6.547-3.779L1632.5,42.37l6.384,3.685-1.921,1.111-4.432-2.555Z" transform="translate(-1594.401 -27.129)"/><path d="M1649.354,56.1l-1.871-1.08a1.648,1.648,0,0,0,.728-.8c.138-.427-.088-.816-.678-1.155a3.178,3.178,0,0,0-1.318-.4,2.425,2.425,0,0,0-1.437.282.613.613,0,0,0-.352.8,14.678,14.678,0,0,0,.841,1.437,12.036,12.036,0,0,1,.841,1.437,1.48,1.48,0,0,1-.157,1.475,3.827,3.827,0,0,1-1.193.985,7.172,7.172,0,0,1-3.936.948,6.937,6.937,0,0,1-3.308-.96q-2.391-1.384-1.594-2.994a4.8,4.8,0,0,1,1.845-1.72l1.89,1.092c-1.375.942-1.437,1.776-.176,2.5a3.554,3.554,0,0,0,1.532.477,2.245,2.245,0,0,0,1.337-.27.782.782,0,0,0,.414-1.048c-.069-.169-.364-.678-.879-1.525a3.348,3.348,0,0,1-.7-2.015,2.585,2.585,0,0,1,1.425-1.638,6.6,6.6,0,0,1,2.869-.847,7.493,7.493,0,0,1,2.467.232,6.333,6.333,0,0,1,1.569.64,2.826,2.826,0,0,1,1.431,1.544,1.734,1.734,0,0,1-.621,1.858A6.554,6.554,0,0,1,1649.354,56.1Z" transform="translate(-1599.96 -30.371)"/></g><g transform="translate(582 84.559)"><path d="M67.455,22.327a31.8,31.8,0,0,0-3.492-2.443,39.97,39.97,0,0,0-4.232-2.019l1.107-.64c2.544,1.15,3.234,1.121,5.576-.23L89.178,3.852c2.343-1.351,2.443-1.775.4-3.219L90.68,0a29.008,29.008,0,0,0,3.492,2.443A39.97,39.97,0,0,0,98.4,4.462L97.3,5.1c-2.537-1.2-3.226-1.171-5.619.208L68.921,18.446c-2.393,1.38-2.393,1.753-.359,3.241Z" transform="translate(-16.809)"/><path d="M94.707,15.8a34.848,34.848,0,0,0,5.648,1.617c-.934.632-1.538,1.028-3.571,2.292,3.521-.834,5.684-.755,7.315.187a2.485,2.485,0,0,1,.884,3.859c-.589.934-2,2.026-4.211,3.306L89.6,33.513c-1.84,1.064-1.847,1.48-.072,2.666l-.963.56a24.782,24.782,0,0,0-3.032-2.07,33.025,33.025,0,0,0-3.7-1.818l.963-.56c1.8.934,2.58.905,4.419-.158l11.081-6.4a14.217,14.217,0,0,0,3.744-2.666c.755-.941.647-1.753-.352-2.328a6.9,6.9,0,0,0-4.527-.331,15.544,15.544,0,0,0-4.865,2.077l-10.9,6.295c-1.84,1.064-1.847,1.48-.273,2.551l-.963.56a25.754,25.754,0,0,0-3.147-2.134,30.014,30.014,0,0,0-3.579-1.746l.963-.56c1.962,1.028,2.774,1.02,4.613-.043L93.4,19.106c2.623-1.516,2.623-1.516.474-2.8Z" transform="translate(-20.664 -4.446)"/><path d="M108.069,45.034a9.488,9.488,0,0,1-4.391-1.049c-1.631-.941-1.775-2.192-.374-3.507a29.23,29.23,0,0,1,4.728-3l12.82-7.308-2.113-1.222,1.193-.69c1.955,1.078,4.886.539,10.233-1.955l1.078.618-6.482,3.744,3.9,2.256-1.516.877-3.9-2.256-13.337,7.7c-4.182,2.414-5.037,3.464-3.528,4.333a7.574,7.574,0,0,0,2.846.79Z" transform="translate(-28.801 -7.401)"/><path d="M131.578,36.56a33.015,33.015,0,0,0,5.361,1.876c-1.818,1.236-2.185,1.444-3.844,2.45,2.86-1.056,5.526-1.164,7.035-.295s1.157,2.364-.819,3.507a3.989,3.989,0,0,1-3.715.352c-.719-.417-.589-1.085.237-1.559.187-.108.453-.216.769-.352a4.326,4.326,0,0,0,.546-.266c.647-.374.826-.8.467-1.006-1.473-.848-5.648.453-10.57,3.3L117.982,49.8c-1.84,1.064-1.811,1.5-.072,2.666l-.963.561a30.233,30.233,0,0,0-3.306-2.228,31.141,31.141,0,0,0-3.622-1.775l.963-.561c2.048,1.028,2.774,1.02,4.613-.043l15.177-8.76c1.976-1.143,1.969-1.416-.014-2.608Z" transform="translate(-30.961 -10.288)"/><path d="M150.943,59.982c-6.575,3.794-13.653,5.073-17.153,3.054s-1.344-6.029,5.418-9.931,13.79-5.152,17.375-3.083C160.083,52.035,157.841,56,150.943,59.982Zm-9.27-5.411c-6.625,3.823-8.961,6.51-6.733,7.8,2.192,1.265,7.057-.122,13.5-3.837,6.805-3.931,9.148-6.611,6.956-7.876C153.163,49.369,148.248,50.777,141.673,54.571Z" transform="translate(-37.183 -13.799)"/><path d="M163.055,77.448a26.514,26.514,0,0,0-5.238-1.8A35.274,35.274,0,0,1,161,73.4c-3.183.869-5.655.826-7.322-.137-3.262-1.883-.941-5.8,5.77-9.679s13.5-5.267,16.772-3.385c1.631.941,1.689,2.2.115,4.211l8.048-4.649c2.206-1.272,2.242-1.574.216-2.745l.826-.481a44.086,44.086,0,0,0,5.72,2.077l-26.358,15.22c-2.8,1.617-2.925,1.868-1.143,3l.237.137Zm-1.1-12.424c-6.4,3.694-8.745,6.474-6.6,7.718,2.113,1.222,6.755-.086,12.777-3.564,6.855-3.959,9.334-6.769,7.107-8.055C173.094,59.879,168.531,61.23,161.956,65.024Z" transform="translate(-42.836 -15.908)"/><path d="M191.41,70a38.911,38.911,0,0,0,5.72,2.077l-15.177,8.76c-4.1,2.364-4.944,3.729-3,4.858,2.113,1.222,5.174.6,9.636-1.976l9.981-5.763c2.206-1.272,2.235-1.523.252-2.723l.826-.481a33.863,33.863,0,0,0,5.677,2.055L186.61,87.613c-2.07,1.193-2.012,1.437.093,2.659l-.826.481a28.489,28.489,0,0,0-5.44-1.919,15.014,15.014,0,0,1,1.8-1.135c.237-.18.74-.474,1.8-1.085-3.7.941-5.878.913-7.746-.172-1.552-.9-1.94-2.235-1.085-3.6.589-.934,1.955-2,4.3-3.356l10.851-6.266c2.206-1.272,2.235-1.523.216-2.745Z" transform="translate(-49.18 -19.699)"/><path d="M219.59,94.2l-.877-.5c3.212-2.5,3.938-4.2,2.228-5.2-2.271-1.308-7.445.158-13.977,3.931-6.439,3.715-8.508,6.295-6.237,7.6,1.99,1.15,5.037.675,9.622-1.509l1.272.733c-5.188,2.58-9.651,3.133-12.4,1.552-3.586-2.07-1.516-6.022,5.152-9.873,6.9-3.981,13.969-5.26,17.6-3.169,1.236.711,1.574,1.437,1.243,2.68l2.874-.783.675.388Z" transform="translate(-55.573 -24.42)"/><path d="M218.289,106.391c-1.84,1.064-1.847,1.48-.072,2.666l-.963.56a26.474,26.474,0,0,0-3.191-2.163,33.773,33.773,0,0,0-3.744-1.84l.963-.561c2.048,1.028,2.774,1.02,4.613-.043l14.947-8.63c2.206-1.272,2.235-1.523.252-2.723l.826-.481a37.61,37.61,0,0,0,5.677,2.055Zm25.359-14.084a4.227,4.227,0,0,1-3.737.18c-1-.575-.834-1.545.273-2.177a4.128,4.128,0,0,1,3.729-.129C244.87,90.725,244.7,91.7,243.648,92.306Z" transform="translate(-59.186 -25.269)"/><path d="M243.847,101.91a34.847,34.847,0,0,0,5.648,1.617c-.934.632-1.538,1.028-3.571,2.292,3.521-.834,5.684-.755,7.315.187a2.485,2.485,0,0,1,.884,3.859c-.589.934-2,2.026-4.211,3.306l-11.174,6.453c-1.84,1.064-1.847,1.48-.072,2.666l-.963.561a24.78,24.78,0,0,0-3.032-2.07,33.024,33.024,0,0,0-3.7-1.818l.963-.561c1.8.934,2.58.905,4.419-.158l11.081-6.4a14.218,14.218,0,0,0,3.744-2.666c.754-.941.647-1.753-.352-2.328a6.9,6.9,0,0,0-4.527-.331,15.544,15.544,0,0,0-4.865,2.077l-10.9,6.295c-1.84,1.064-1.847,1.48-.273,2.551l-.963.561a25.748,25.748,0,0,0-3.147-2.134,30.013,30.013,0,0,0-3.579-1.746l.963-.561c1.962,1.028,2.774,1.02,4.613-.043l14.393-8.307c2.623-1.516,2.623-1.516.474-2.8Z" transform="translate(-62.634 -28.679)"/><path d="M279.29,124.491l-1.516.877-3.09-1.94a8.314,8.314,0,0,1-3.111,2.716,14.764,14.764,0,0,1-7.078,2.019,17.088,17.088,0,0,1-5.08-.654c-3.694-.855-5.009-.927-6.022-.345-.92.532-.654,1.114,1.2,2.393,2.508,1.818,2.968,2.242,3.449,3.162.755,1.495-.129,3.111-2.522,4.491a14.071,14.071,0,0,1-13.682.172c-3.866-2.228-4.125-5.3-.532-7.373,2.256-1.3,4.506-1.6,8.156-1.028-.352-.949.1-1.854,1.3-2.544,1.883-1.085,4.268-1.042,7.675.079-2.055-2.034-1.186-4.189,2.443-6.288,4.1-2.364,8.954-2.688,12.259-.776a3.254,3.254,0,0,1,1.976,2.63Zm-36.842,6.23c-2.716,1.567-2.515,4.074.553,5.842a9.7,9.7,0,0,0,9.679.065c2.759-1.6,2.4-3.5-.869-5.382C248.671,129.428,245.028,129.234,242.448,130.721Zm20.861-9.14c-3.449,1.99-4.585,3.938-2.831,4.951,1.71.992,5.037.359,8.53-1.66,3.636-2.1,4.613-3.816,2.824-4.85S266.758,119.59,263.309,121.581Z" transform="translate(-67.192 -33.266)"/><path d="M9.234,57.3c-2.35,1.351-2.4,1.753-.4,3.219l-1.107.64a29.31,29.31,0,0,0-3.456-2.422A39.442,39.442,0,0,0,0,56.693l1.107-.64c2.544,1.15,3.27,1.143,5.619-.208L32.157,41.164l-1.6-.92c-2.149-1.243-3.579-1.107-8.9.862l-.877-.5,7.279-3.284,13.186,7.61L35.6,49.155l-.877-.5c3.492-3.025,3.765-3.83,1.732-5l-1.789-1.035Z" transform="translate(0 -10.502)"/><path d="M48.066,50.45a50.912,50.912,0,0,0,5.677,2.055L41.463,59.6c3.3-.8,5.6-.747,7.114.122A2.478,2.478,0,0,1,49.5,63.6a14.519,14.519,0,0,1-4.391,3.363L34.075,73.337C32.236,74.4,32.229,74.817,34,76l-.963.56a23.972,23.972,0,0,0-3.032-2.07,33.024,33.024,0,0,0-3.7-1.818l.963-.56c1.8.934,2.58.905,4.419-.158l10.944-6.316A13.556,13.556,0,0,0,46.335,63c.8-.97.683-1.732-.309-2.307a6.886,6.886,0,0,0-4.563-.352,14.934,14.934,0,0,0-4.822,2.048L25.869,68.594c-1.84,1.064-1.847,1.48-.237,2.573l-.963.56a27.644,27.644,0,0,0-3.191-2.163A30.016,30.016,0,0,0,17.9,67.818l.963-.56c2.048,1.028,2.774,1.02,4.613-.043l23.5-13.567c2.206-1.272,2.285-1.552.252-2.723Z" transform="translate(-5.037 -14.197)"/><path d="M62.455,86.985c-5.1,2.58-9.895,3.047-12.927,1.3-4.06-2.343-2.335-5.914,4.879-10.082,7.078-4.089,13.8-5.3,17.512-3.162,3.622,2.091,1.89,5.389-5,9.327l-9.162-5.289c-7.358,4.247-9.435,6.87-6.69,8.458,2.192,1.265,5.749.819,10.1-1.279Zm3.557-4.9c5.037-3.09,6.676-5.282,4.685-6.431-1.832-1.056-6.223-.086-11.332,2.587Z" transform="translate(-13.333 -20.825)"/><path d="M86.079,98.406l-5.67,1.983a17.521,17.521,0,0,0-2.608,1.042c-.92.532-.769,1.042.654,1.969l-1.107.64a17.941,17.941,0,0,0-2.752-1.9,21.714,21.714,0,0,0-3.226-1.545l1.107-.64c2.134,1.02,2.774,1.02,5.54.065L113.35,88.08,91.49,108.014c-1.5,1.416-1.423,1.832.381,3.14l-1.107.64a23.812,23.812,0,0,0-3.413-2.4,31.7,31.7,0,0,0-4.153-1.969l1.107-.64c1.5.654,2.508.762,3.291.309a11.852,11.852,0,0,0,1.315-.992l4.168-3.65Zm8.063,3.169,10.664-9.557L87.689,97.853Z" transform="translate(-20.084 -24.787)"/><path d="M110.469,120.314a9.489,9.489,0,0,1-4.391-1.049c-1.631-.941-1.775-2.192-.374-3.507a29.231,29.231,0,0,1,4.728-3l12.82-7.308-2.113-1.222,1.193-.69c1.955,1.078,4.886.539,10.233-1.955l1.078.618-6.482,3.744,3.9,2.256-1.516.877-3.9-2.256-13.337,7.7c-4.182,2.414-5.037,3.464-3.528,4.333a7.574,7.574,0,0,0,2.846.79Z" transform="translate(-29.477 -28.586)"/><path d="M136.823,125.732c-6.575,3.794-13.653,5.073-17.153,3.054s-1.344-6.029,5.418-9.931,13.79-5.152,17.375-3.083C145.963,117.785,143.721,121.751,136.823,125.732Zm-9.27-5.411c-6.625,3.823-8.961,6.51-6.733,7.8,2.192,1.265,7.057-.122,13.5-3.837,6.805-3.931,9.148-6.611,6.956-7.876C139.043,115.119,134.128,116.527,127.553,120.321Z" transform="translate(-33.209 -32.302)"/><path d="M153.577,123.69a34.848,34.848,0,0,0,5.648,1.617c-1.071.711-2.838,1.868-3.665,2.343,3.737-.869,5.821-.783,7.646.273,1.911,1.107,1.962,2.407.108,4.312,3.78-.9,5.95-.812,7.861.287,1.71.992,2.055,2.357.941,3.729a15.528,15.528,0,0,1-4.082,2.953l-11.677,6.74c-1.84,1.064-1.847,1.48-.072,2.666l-.963.561a24.78,24.78,0,0,0-3.032-2.07,32.961,32.961,0,0,0-3.7-1.818l.963-.561c1.854.913,2.58.905,4.419-.158l11.77-6.8c3.952-2.285,4.7-3.449,2.9-4.484-2.113-1.222-5.3-.668-9.112,1.538L148.31,141.3c-1.84,1.064-1.847,1.48-.273,2.551l-.963.561a25.145,25.145,0,0,0-2.989-2.048,28.958,28.958,0,0,0-3.543-1.725l.963-.56c1.89.934,2.58.905,4.419-.158l11.634-6.719a14.308,14.308,0,0,0,3.32-2.328c.755-.941.64-1.7-.359-2.278a6.822,6.822,0,0,0-4.879-.216,20.026,20.026,0,0,0-4.843,2.2l-10.535,6.079c-1.84,1.064-1.847,1.48-.273,2.551l-.963.561a25.753,25.753,0,0,0-3.147-2.134,30.015,30.015,0,0,0-3.579-1.746l.963-.561c1.962,1.028,2.774,1.02,4.613-.043l14.393-8.307c2.573-1.487,2.573-1.487.474-2.8Z" transform="translate(-37.231 -34.808)"/><path d="M174.739,155.151c-1.84,1.064-1.847,1.48-.072,2.666l-.963.561a26.474,26.474,0,0,0-3.191-2.163,33.773,33.773,0,0,0-3.744-1.84l.963-.561c2.048,1.028,2.774,1.02,4.613-.043l14.947-8.63c2.206-1.272,2.235-1.523.252-2.723l.826-.481a37.607,37.607,0,0,0,5.677,2.055ZM200.1,141.066a4.227,4.227,0,0,1-3.737.18c-1-.575-.834-1.545.273-2.177a4.128,4.128,0,0,1,3.729-.129C201.32,139.485,201.154,140.455,200.1,141.066Z" transform="translate(-46.931 -38.991)"/><path d="M207.07,160.872l-.877-.5c3.212-2.5,3.938-4.2,2.228-5.2-2.271-1.308-7.445.158-13.977,3.931-6.439,3.715-8.508,6.295-6.237,7.6,1.991,1.15,5.037.675,9.622-1.509l1.272.733c-5.188,2.58-9.651,3.133-12.4,1.552-3.586-2.07-1.516-6.022,5.152-9.873,6.9-3.981,13.969-5.26,17.6-3.169,1.236.711,1.574,1.437,1.243,2.68l2.874-.783.675.388Z" transform="translate(-52.049 -43.182)"/><path d="M219.934,174.706c-4.736,3.428-5.619,6.051-2.63,7.775,2.63,1.516,7.085,1.064,10.851-1.114,1.84-1.064,2.738-2.084,2.831-3.2a8.9,8.9,0,0,0-.546-3.183,14.276,14.276,0,0,1-.755-3.888c-.029-1.825,1.1-3.349,3.535-4.757,4.872-2.817,10.578-3.349,14.041-1.344,1.71.992,2.192,1.955,1.689,3.579l3.191-.92.64.366-8.048,4.649-.877-.5c3.895-3.169,4.556-5.066,2.249-6.4-2.271-1.308-6.769-.826-10.031,1.056-1.84,1.064-2.573,2.127-2.407,3.6a16.886,16.886,0,0,0,.683,3.42c.589,2.141.661,2.932.51,3.8-.309,1.466-1.84,3.133-4,4.383-4.872,2.817-11.131,3.341-14.753,1.25-1.911-1.107-2.608-2.357-2.206-4.2l-3.708.992-.639-.366,9.521-5.5Z" transform="translate(-58.97 -46.093)"/><path d="M249.14,182.433c1.071-1.078,1.028-1.373-.553-2.393l.963-.561a23.065,23.065,0,0,0,2.874,1.926,33.261,33.261,0,0,0,3.456,1.732l-.963.561c-1.329-.661-1.947-.8-2.458-.517a6.328,6.328,0,0,0-1.143.934l-10.276,9.837,17.074-5.856a7.224,7.224,0,0,0,1.574-.632c.6-.345.388-.733-1-1.588l.963-.561a14.41,14.41,0,0,0,2.048,1.394c.913.532,1.638.891,3.133,1.6l-.963.56c-1.947-.8-2.666-.848-4.225-.316l-28.708,9.816c-4.678,1.6-7.294,1.682-9.687.3l-.2-.115,2.393-1.38c2.12,1.171,4.247,1.179,7.94.014l3.737-1.236Z" transform="translate(-62.206 -50.508)"/><path d="M260.5,202.155l.834.481c-3.672,2.767-4.333,4.613-2.1,5.9,2.034,1.171,5.4.884,8.063-.654,1.933-1.114,1.9-1.509.194-5.677-.913-2.278-.28-3.564,2.522-5.181,3.449-1.99,7.926-2.328,10.6-.783a2.811,2.811,0,0,1,1.66,2.443l2.134-.683.64.366-6.992,4.038-.834-.481c3.485-2.285,4.2-3.895,2.285-5-1.71-.992-4.858-.733-7.157.589-1.653.956-1.969,1.732-1.344,3.262l1.049,2.522c.913,2.278.323,3.586-2.393,5.152-3.773,2.177-8.688,2.58-11.591.9a3.085,3.085,0,0,1-1.825-3.176l-2.6.675-.64-.366Z" transform="translate(-71.2 -54.952)"/><path d="M281.559,219.1a9.488,9.488,0,0,1-4.391-1.049c-1.631-.941-1.775-2.192-.374-3.507a29.231,29.231,0,0,1,4.728-3l12.82-7.308-2.113-1.222,1.193-.69c1.955,1.078,4.886.539,10.233-1.955l1.078.618-6.482,3.744,3.9,2.256-1.516.877-3.9-2.256L283.4,213.3c-4.182,2.414-5.037,3.464-3.528,4.333a7.575,7.575,0,0,0,2.846.79Z" transform="translate(-77.623 -56.386)"/><path d="M304.165,226.535c-5.1,2.58-9.895,3.047-12.927,1.3-4.06-2.343-2.335-5.914,4.879-10.082,7.078-4.089,13.8-5.3,17.512-3.162,3.622,2.091,1.89,5.389-5,9.327l-9.162-5.289c-7.358,4.247-9.435,6.87-6.69,8.458,2.192,1.265,5.749.819,10.1-1.279Zm3.557-4.9c5.037-3.09,6.676-5.282,4.685-6.431-1.832-1.056-6.223-.086-11.332,2.587Z" transform="translate(-81.353 -60.096)"/><path d="M324.507,222.38A34.847,34.847,0,0,0,330.155,224c-1.071.711-2.838,1.868-3.665,2.343,3.737-.869,5.821-.783,7.646.273,1.911,1.107,1.962,2.407.108,4.312,3.78-.9,5.95-.812,7.861.287,1.71.992,2.055,2.357.941,3.729a15.4,15.4,0,0,1-4.082,2.953l-11.677,6.74c-1.84,1.063-1.847,1.48-.072,2.666l-.963.561a24.787,24.787,0,0,0-3.032-2.07,32.958,32.958,0,0,0-3.7-1.818l.963-.561c1.854.913,2.58.905,4.419-.158l11.77-6.8c3.952-2.285,4.7-3.449,2.9-4.484-2.113-1.222-5.3-.668-9.112,1.538l-11.224,6.482c-1.84,1.064-1.847,1.48-.273,2.551L318,243.1a25.142,25.142,0,0,0-2.989-2.048,28.95,28.95,0,0,0-3.543-1.725l.963-.561c1.89.934,2.58.905,4.419-.158l11.634-6.719a14.305,14.305,0,0,0,3.32-2.328c.755-.941.64-1.7-.359-2.278a6.822,6.822,0,0,0-4.879-.216,20.027,20.027,0,0,0-4.843,2.2l-10.535,6.079c-1.84,1.064-1.847,1.48-.273,2.551l-.963.56a25.753,25.753,0,0,0-3.147-2.134,30.009,30.009,0,0,0-3.579-1.746l.963-.56c1.962,1.028,2.774,1.02,4.613-.043l14.393-8.307c2.573-1.487,2.573-1.487.474-2.8Z" transform="translate(-85.332 -62.58)"/></g><g transform="translate(492 440)"><line x2="110.85" y2="64" fill="none" stroke="#176db7" stroke-miterlimit="10" stroke-width="1"/><path d="M118.03,68.43l-2.93-6.31-8,4.62Z" transform="translate(-0.25 -0.43)" fill="none" stroke="#176db7" stroke-miterlimit="10" stroke-width="1"/></g><g transform="translate(814.75 453.23)"><line y1="61.88" x2="104.5" transform="translate(23.75 5.39)" fill="none" stroke="#176db7" stroke-miterlimit="10" stroke-width="1"/><path d="M136.25.77,124.79,3.39l6.92,4Z" fill="none" stroke="#176db7" stroke-miterlimit="10" stroke-width="1"/></g><g transform="translate(1337.75 727.27) rotate(180)"><line y1="61.88" x2="104.5" transform="translate(23.75 5.39)" fill="none" stroke="#176db7" stroke-miterlimit="10" stroke-width="1"/><path d="M136.25.77,124.79,3.39l6.92,4Z" fill="none" stroke="#176db7" stroke-miterlimit="10" stroke-width="1"/></g><g transform="translate(1219 453)"><line x2="110.85" y2="64" fill="none" stroke="#176db7" stroke-miterlimit="10" stroke-width="1"/><path d="M118.03,68.43l-2.93-6.31-8,4.62Z" transform="translate(-0.25 -0.43)" fill="none" stroke="#176db7" stroke-miterlimit="10" stroke-width="1"/></g><g transform="translate(-161 -404)"><path d="M17.74,0c9.8,0,17.74,4.493,17.74,10.035S27.538,20.069,17.74,20.069,0,15.577,0,10.035,7.943,0,17.74,0Z" transform="matrix(0.985, -0.173, 0.173, 0.985, 519.761, 764.579)"/><path d="M29.565,0C45.893,0,59.13,7.49,59.13,16.728S45.893,33.457,29.565,33.457,0,25.967,0,16.728,13.237,0,29.565,0Z" transform="matrix(0.985, -0.173, 0.173, 0.985, 523.425, 797.779)"/><path d="M14.782,0c8.164,0,14.782,3.744,14.782,8.361s-6.618,8.361-14.782,8.361S0,12.979,0,8.361,6.618,0,14.782,0Z" transform="matrix(0.985, -0.173, 0.173, 0.985, 468.684, 770.648)"/><path d="M20.7,0C32.129,0,41.4,5.242,41.4,11.708S32.129,23.416,20.7,23.416,0,18.174,0,11.708,9.267,0,20.7,0Z" transform="matrix(0.985, -0.173, 0.173, 0.985, 579.544, 767.382)"/><path d="M23.65,0C36.711,0,47.3,5.991,47.3,13.382S36.711,26.763,23.65,26.763,0,20.772,0,13.382,10.588,0,23.65,0Z" transform="matrix(0.985, -0.173, 0.173, 0.985, 549.877, 730.101)"/></g><g transform="translate(-128 7)"><path d="M20.7,0C32.129,0,41.4,5.242,41.4,11.708S32.129,23.416,20.7,23.416,0,18.174,0,11.708,9.267,0,20.7,0Z" transform="matrix(0.985, -0.173, 0.173, 0.985, 900.537, 559.843)"/><path d="M470.743,461.987c-.033.156-.139.734-.156.867-1.8,11.5-5.215,19.274-16.411,21.57a26.506,26.506,0,0,0-8.183,2.952c-7.366,4.253-8.167,10.691-1.79,14.377s17.529,3.224,24.9-1.034c4.614-2.663,6.649-6.182,5.965-9.345h0c-1.807-10.007,15.294-14.666,25.3-17.084h0a34.451,34.451,0,0,0,9.1-3.541c9.823-5.671,10.891-14.254,2.385-19.169s-23.372-4.3-33.2,1.379c-4.514,2.6-7.177,5.826-7.911,9.029Z" transform="translate(402.395 69.8)"/><path d="M455.241,552.682c-4.837-2.791-11.319-4.153-18.107-4.142h-.217c-.267,0-.528.005-.795.011h-.017c-21.287.728-53.015-4.492-59.508-18.919-.022-.056-.056-.1-.083-.156a7.3,7.3,0,0,0-3.136-3.2c-5.32-3.069-14.6-2.685-20.748.862s-6.81,8.906-1.49,11.981a17.186,17.186,0,0,0,7.305,2.012h.011c15.694,1.812,42.085,23.066,46.227,31.283q.125.242.25.45a15.412,15.412,0,0,0,5.832,5.487c10.635,6.143,29.215,5.37,41.5-1.718S465.876,558.82,455.241,552.682Z" transform="translate(443.403 36.078)"/></g><g transform="translate(-101 -9)"><path d="M20.7,0C32.129,0,41.4,5.242,41.4,11.708S32.129,23.416,20.7,23.416,0,18.174,0,11.708,9.267,0,20.7,0Z" transform="matrix(0.985, -0.173, 0.173, 0.985, 1137.411, 347.045)"/><path d="M20.7,0C32.129,0,41.4,5.242,41.4,11.708S32.129,23.416,20.7,23.416,0,18.174,0,11.708,9.267,0,20.7,0Z" transform="matrix(0.985, -0.173, 0.173, 0.985, 1172.075, 367.06)"/><path d="M20.7,0C32.129,0,41.4,5.242,41.4,11.708S32.129,23.416,20.7,23.416,0,18.174,0,11.708,9.267,0,20.7,0Z" transform="matrix(0.985, -0.173, 0.173, 0.985, 1206.746, 387.073)"/><path d="M869.558,463.431c4.581,2.646,11.269,3.458,17.74,2.535v.006c.056-.011.117-.017.172-.028.1-.017.206-.033.306-.044,7.744-1.151,14.566,1.251,12.058,7.311h.006c-1.6,3.736-.195,7.594,4.386,10.24s11.269,3.458,17.74,2.535v.006c.056-.011.117-.017.172-.028.1-.017.206-.033.306-.044,7.744-1.151,14.566,1.251,12.058,7.311h.006c-1.6,3.736-.195,7.594,4.386,10.24,7.444,4.3,20.448,3.758,29.048-1.206s9.529-12.47,2.085-16.773c-4.581-2.646-11.269-3.458-17.735-2.535h0c-10.5,1.445-14.666-2.491-12.664-6.96.028-.061.056-.117.083-.178.017-.033.028-.067.044-.1h-.005c1.6-3.736.194-7.594-4.386-10.24s-11.269-3.458-17.735-2.535h0c-10.5,1.445-14.666-2.491-12.664-6.96.028-.061.056-.117.083-.178.017-.033.028-.067.044-.1h-.005c1.6-3.736.195-7.594-4.386-10.24-7.444-4.3-20.448-3.758-29.048,1.206S862.114,459.134,869.558,463.431Z" transform="translate(314.699 -122.562)"/><path d="M826.025,568.621c-4.581-2.646-11.269-3.458-17.735-2.535h0c-10.5,1.445-14.666-2.491-12.664-6.96.028-.061.056-.117.083-.178.017-.033.028-.067.044-.1h-.006c1.6-3.736.195-7.594-4.386-10.24s-11.269-3.458-17.735-2.535h0c-10.5,1.445-14.666-2.491-12.664-6.96.028-.061.056-.117.083-.178.017-.033.028-.067.044-.1h-.006c1.6-3.736.195-7.594-4.386-10.24-7.444-4.3-20.448-3.758-29.048,1.206s-9.529,12.47-2.085,16.773c4.581,2.646,11.269,3.458,17.74,2.535v.005c.055-.011.117-.017.172-.028.1-.017.206-.033.306-.045,7.744-1.151,14.566,1.251,12.058,7.311h.006c-1.6,3.736-.195,7.594,4.386,10.24s11.269,3.458,17.74,2.535v.006c.055-.011.117-.017.172-.028.1-.017.206-.033.306-.044,7.744-1.151,14.566,1.251,12.058,7.311h.006c-1.6,3.736-.195,7.594,4.386,10.24,7.444,4.3,20.448,3.758,29.048-1.206C832.535,580.429,833.469,572.918,826.025,568.621Z" transform="translate(378.641 -159.477)"/></g><g transform="translate(420 -317)"><path d="M20.7,0C32.129,0,41.4,5.242,41.4,11.708S32.129,23.416,20.7,23.416,0,18.174,0,11.708,9.267,0,20.7,0Z" transform="matrix(0.985, -0.173, 0.173, 0.985, 1010.344, 895.056)"/><path d="M1262.227,526.218c5.293-3.052,7.672-7.072,6.994-10.713h.006c-1.012-5.9,6.438-8.9,13.954-8.395.134.011.261.022.395.028.044.006.083.006.128.011h0a34.19,34.19,0,0,0,18.552-4.036c8.595-4.965,9.529-12.47,2.085-16.773-4.581-2.646-11.269-3.458-17.734-2.535h0c-10.5,1.445-14.66-2.491-12.664-6.96.028-.061.056-.117.083-.178.017-.033.028-.067.044-.1h-.005c1.6-3.736.195-7.594-4.386-10.24s-11.269-3.458-17.734-2.535h0c-10.5,1.445-14.66-2.491-12.664-6.96.028-.061.056-.117.083-.178.017-.033.028-.067.045-.1h-.006c1.6-3.736.195-7.594-4.386-10.24-7.444-4.3-20.448-3.758-29.048,1.206-5.292,3.052-7.672,7.072-6.994,10.713h-.006c.006.022.011.05.017.072.017.078.033.15.05.228.867,4.336-4.325,8.639-14.543,8.056h0a34.191,34.191,0,0,0-18.552,4.036c-5.293,3.052-7.672,7.072-6.994,10.713h-.006c.006.022.011.05.017.072.017.078.033.15.05.228.867,4.336-4.325,8.639-14.543,8.056h0a34.19,34.19,0,0,0-18.552,4.036c-8.595,4.965-9.529,12.47-2.085,16.773,4.581,2.646,11.269,3.458,17.74,2.535v.005c.055-.011.117-.017.172-.028.1-.017.206-.033.306-.044,7.744-1.151,14.56,1.251,12.058,7.311h.006c-1.6,3.736-.195,7.594,4.386,10.24s11.269,3.458,17.74,2.535v.006c.056-.011.117-.017.172-.028.1-.017.206-.033.306-.044,7.744-1.151,14.56,1.251,12.058,7.311h.006c-1.6,3.736-.194,7.594,4.386,10.24,7.444,4.3,20.448,3.758,29.048-1.206,5.293-3.052,7.672-7.072,6.994-10.713h.006c-1.012-5.9,6.438-8.9,13.954-8.395.133.011.261.022.395.028.044.006.083.006.128.011h0A34.28,34.28,0,0,0,1262.227,526.218Zm-90.34-16.206h0c-10.5,1.445-14.66-2.491-12.664-6.96.028-.061.056-.117.083-.178.017-.033.028-.067.045-.1h-.006a7.2,7.2,0,0,0,.523-4.181h.005c-1.012-5.9,6.438-8.9,13.954-8.395.133.011.261.022.395.028.045.006.083.006.128.011h0A34.192,34.192,0,0,0,1192.9,486.2c5.292-3.052,7.672-7.072,6.994-10.713h.006c-1.012-5.9,6.438-8.9,13.954-8.395.133.011.261.022.395.028.045.006.083.006.128.011h0a36.124,36.124,0,0,0,7.244-.3v.006c.055-.011.117-.017.172-.028.1-.017.206-.033.306-.044,7.744-1.151,14.56,1.251,12.058,7.311h.005c-1.6,3.736-.194,7.594,4.386,10.24s11.269,3.458,17.74,2.535v.006c.056-.011.117-.017.172-.028.1-.017.206-.033.306-.044,7.744-1.151,14.56,1.251,12.058,7.311h.006a7.155,7.155,0,0,0-.517,4.181h-.006c.006.022.011.05.017.072.017.078.033.15.05.228.867,4.336-4.325,8.639-14.544,8.056h0a34.191,34.191,0,0,0-18.552,4.036c-5.293,3.052-7.672,7.072-6.994,10.713h-.005c.005.022.011.05.017.072.017.078.033.15.05.228.867,4.336-4.325,8.639-14.543,8.056h0a36.127,36.127,0,0,0-7.244.3h0c-10.5,1.445-14.66-2.491-12.664-6.96.028-.061.056-.117.083-.178.017-.033.028-.067.044-.1h-.005c1.6-3.736.194-7.594-4.386-10.241S1178.353,509.09,1171.887,510.013Z" transform="translate(-181.365 404.588)"/></g><path d="M1677.127,531.408c5.292-3.052,7.672-7.072,6.994-10.713h.005c-1.012-5.9,6.438-8.9,13.954-8.395.133.011.261.022.395.028.044.006.083.006.128.011h0a34.19,34.19,0,0,0,18.552-4.036c8.595-4.964,9.529-12.47,2.085-16.773-4.581-2.646-11.269-3.458-17.734-2.535h0c-10.5,1.445-14.66-2.491-12.664-6.96.028-.061.056-.117.083-.178.017-.033.028-.067.045-.1h-.006c1.6-3.736.195-7.594-4.386-10.24s-11.269-3.458-17.735-2.535h0c-10.5,1.445-14.66-2.491-12.664-6.96.028-.061.056-.117.083-.178.017-.033.028-.067.045-.1h-.006c1.6-3.736.195-7.594-4.386-10.24-7.444-4.3-20.448-3.758-29.048,1.206-5.293,3.052-7.672,7.072-6.994,10.713h-.005c.005.022.011.05.017.072.017.078.033.15.05.228.867,4.336-4.325,8.639-14.543,8.056h0a34.19,34.19,0,0,0-18.552,4.036c-5.292,3.052-7.672,7.072-6.994,10.713h-.006c.006.022.011.05.017.072.017.078.033.15.05.228.867,4.336-4.325,8.639-14.543,8.056h0a34.191,34.191,0,0,0-18.552,4.036c-8.595,4.965-9.529,12.47-2.085,16.773,4.581,2.646,11.269,3.458,17.74,2.535v.006c.056-.011.117-.017.172-.028.1-.017.206-.033.306-.044,7.744-1.151,14.56,1.251,12.058,7.311h.006c-1.6,3.736-.195,7.594,4.386,10.24s11.269,3.458,17.74,2.535v.006c.055-.011.117-.017.172-.028.106-.017.206-.033.306-.044,7.744-1.151,14.56,1.251,12.058,7.311h.006c-1.6,3.736-.194,7.594,4.386,10.24,7.444,4.3,20.448,3.758,29.048-1.206,5.292-3.052,7.672-7.072,6.994-10.713h.006c-1.012-5.9,6.438-8.9,13.954-8.395.133.011.261.022.395.028.044.006.083.006.128.011h0A34.23,34.23,0,0,0,1677.127,531.408Zm-33.94-4.781c.017.078.033.15.05.228.867,4.336-4.325,8.639-14.543,8.055h0a36.12,36.12,0,0,0-7.244.3h0c-10.5,1.445-14.66-2.491-12.664-6.96.028-.061.056-.117.083-.178.017-.033.028-.067.044-.1h-.005a7.2,7.2,0,0,0,.522-4.181h.006c-1.012-5.9,6.438-8.9,13.954-8.395.133.011.261.022.395.028.044.006.083.006.128.011h0a36.124,36.124,0,0,0,7.244-.3v.006c.055-.011.117-.017.172-.028.106-.017.206-.033.306-.045,7.744-1.151,14.56,1.251,12.058,7.311h.005a7.157,7.157,0,0,0-.517,4.181h-.006A.347.347,0,0,0,1643.187,526.627Zm-56.4-11.424h0c-10.5,1.445-14.66-2.491-12.664-6.96.028-.061.056-.117.083-.178.017-.033.028-.067.044-.1h-.005a7.2,7.2,0,0,0,.523-4.181h.006c-1.012-5.9,6.438-8.9,13.954-8.395.133.011.261.022.395.028.044.005.083.005.128.011h0a36.118,36.118,0,0,0,7.244-.3v.006c.056-.011.117-.017.172-.028.1-.017.206-.033.306-.044,7.744-1.151,14.56,1.251,12.058,7.311h.005a7.157,7.157,0,0,0-.517,4.181h-.005c.005.022.011.05.017.072.017.078.033.15.05.228.867,4.336-4.325,8.639-14.543,8.056h0A35.347,35.347,0,0,0,1586.787,515.2Zm41.968-42.93c.133.011.261.022.395.028.045.006.083.006.128.011h0a36.123,36.123,0,0,0,7.244-.3v.006c.056-.011.117-.017.172-.028.1-.017.206-.033.306-.044,7.744-1.151,14.56,1.251,12.058,7.311h.006a7.155,7.155,0,0,0-.517,4.181h-.006c.006.022.011.05.017.072.017.078.033.15.05.228.867,4.336-4.325,8.639-14.543,8.056h0a36.123,36.123,0,0,0-7.244.3h0c-10.5,1.445-14.66-2.491-12.664-6.96.028-.061.055-.117.083-.178.017-.033.028-.067.045-.1h-.006a7.2,7.2,0,0,0,.523-4.181h.005C1613.783,474.769,1621.239,471.773,1628.755,472.273Zm32.723,39.833h0c-10.5,1.445-14.66-2.491-12.664-6.96.028-.061.056-.117.083-.178.017-.033.028-.067.044-.1h-.006a7.2,7.2,0,0,0,.523-4.181h.005c-1.012-5.9,6.438-8.9,13.954-8.395.133.011.261.022.395.028.045.006.083.006.128.011h0a36.117,36.117,0,0,0,7.244-.3v.006c.056-.011.117-.017.172-.028.106-.017.206-.033.306-.044,7.744-1.151,14.56,1.251,12.058,7.311h.006a7.155,7.155,0,0,0-.517,4.181h-.005c.005.022.011.05.017.072.017.078.033.15.05.228.867,4.336-4.325,8.639-14.543,8.056h0A35.763,35.763,0,0,0,1661.478,512.106Z" transform="translate(-530.265 292.487)"/></g></svg>