<svg xmlns="http://www.w3.org/2000/svg" width="105" height="54.759" viewBox="0 0 105 54.759"><g transform="translate(-1191.5 -2854.875)"><g transform="translate(1192 2854.875)"><rect width="3.871" height="0.886" transform="translate(66.691 6.771)" fill="#fff"/><path d="M11.706,10.535l-.187-8.668V1.724c0-.81.28-.953,1.446-1.048V.248C12.312.3,12.032.3,11.613.3A11.718,11.718,0,0,1,9.934.2L6.669,9.154,3.4.248c-.653.048-.979.1-1.632.1-.466,0-.746,0-1.4-.048V.724C1.586.772,1.819.962,1.819,1.772v.1L1.4,10.535c-.047.953-.187,1.1-1.4,1.191v.429c.886-.048,1.259-.1,1.726-.1a13.377,13.377,0,0,1,1.726.1v-.429c-1.213-.1-1.446-.238-1.446-1.048v-.143L2.378,1.3h0L5.223,9.154l.187.619.466,1.381.187.572h.28l.187-.572.233-.667L7,9.821l.187-.572,2.845-7.906.14,9.144v.1c0,.81-.28,1.048-1.446,1.1v.429c1.073-.1,1.492-.143,2.145-.143s1.073.048,2.145.143v-.429C11.846,11.583,11.706,11.488,11.706,10.535Z" transform="translate(0 -0.107)" fill="#fff"/><path d="M33.638,15.222h0c-1.586,0-2.285-1.213-2.285-3.917h5.177c-.047-2.658-1.119-4.1-3.171-4.1C31.259,7.2,30,8.879,30,11.537s1.306,4.244,3.544,4.244a2.951,2.951,0,0,0,3.031-2.845h-.7C35.6,14.382,34.85,15.222,33.638,15.222Zm-.326-7.6c1.119,0,1.679.979,1.819,3.031H31.4C31.539,8.692,32.192,7.62,33.311,7.62Z" transform="translate(-16.009 -3.594)" fill="#fff"/><path d="M50.577,7.047a2.155,2.155,0,0,0-2.005,1.539V8.4c-.047-.513-.093-.793-.187-1.4a12.585,12.585,0,0,1-2.285.42v.326h.233c.886,0,.979.093,1.026.839v5.643c0,.746-.187.886-1.259.933v.326a15.877,15.877,0,0,1,1.959-.093,15.562,15.562,0,0,1,1.912.093v-.326c-1.073-.047-1.213-.187-1.213-.933V10.591c0-1.726.56-2.8,1.492-2.8.326,0,.513.187.513.42v.14l-.047.187c0,.047-.047.14-.047.187a.672.672,0,0,0,.7.606.763.763,0,0,0,.746-.839A1.475,1.475,0,0,0,50.577,7.047Z" transform="translate(-24.6 -3.487)" fill="#fff"/><path d="M63.844,15.061c-1.352,0-2.005-1.213-2.005-3.638,0-2.472.746-3.871,2.052-3.871,1.073,0,1.679.746,2.005,2.239h.373V6.9h-.28l-.466.886a2.205,2.205,0,0,0-1.772-.746C61.7,7.04,60.3,8.812,60.3,11.377c0,2.518,1.352,4.244,3.358,4.244,1.539,0,2.565-1.026,2.752-2.845h-.653C65.57,14.222,64.917,15.061,63.844,15.061Z" transform="translate(-32.178 -3.434)" fill="#fff"/><path d="M79.938,15.222h0c-1.586,0-2.285-1.213-2.285-3.917h5.177c-.047-2.658-1.119-4.1-3.171-4.1-2.1,0-3.358,1.679-3.358,4.337s1.306,4.244,3.544,4.244a2.951,2.951,0,0,0,3.031-2.845h-.7C81.943,14.382,81.15,15.222,79.938,15.222Zm-.326-7.6c1.119,0,1.679.979,1.819,3.031H77.7C77.839,8.692,78.492,7.62,79.611,7.62Z" transform="translate(-40.716 -3.594)" fill="#fff"/><path d="M99.869,10.188V0a14.965,14.965,0,0,1-2.612.476V.762C98.33.762,98.47.9,98.47,1.809V4.9c-.653-1.047-1.166-1.381-2.1-1.381-1.865,0-3.171,1.809-3.171,4.332s1.306,4.332,3.218,4.332a2.256,2.256,0,0,0,2.145-1.428,5.081,5.081,0,0,0,.233,1.428,9.2,9.2,0,0,1,2.005-.428l.28-.048v-.286C99.962,11.378,99.869,11.235,99.869,10.188ZM96.6,11.664c-1.259,0-1.912-1.333-1.912-3.856C94.692,5.237,95.3,4,96.558,4s1.959,1.333,1.959,3.951C98.517,10.426,97.864,11.664,96.6,11.664Z" transform="translate(-49.735)" fill="#fff"/><path d="M115.338,15.222h0c-1.586,0-2.285-1.213-2.285-3.917h5.177c-.047-2.658-1.119-4.1-3.171-4.1-2.1,0-3.358,1.679-3.358,4.337s1.306,4.244,3.544,4.244a2.951,2.951,0,0,0,3.031-2.845h-.7C117.39,14.382,116.55,15.222,115.338,15.222Zm-.28-7.6c1.119,0,1.679.979,1.819,3.031h-3.731C113.239,8.692,113.939,7.62,115.058,7.62Z" transform="translate(-59.607 -3.594)" fill="#fff"/><path d="M132.678,10.911l-.746-.326c-1.586-.7-1.819-.933-1.819-1.632a1.532,1.532,0,0,1,1.632-1.446c1.073,0,1.679.653,1.819,2.052h.42V6.9h-.326l-.28.7a2.768,2.768,0,0,0-1.772-.56,2.353,2.353,0,0,0-2.612,2.285c0,1.026.42,1.492,1.679,2.1l.793.373.653.28c.839.373,1.166.793,1.166,1.352a1.617,1.617,0,0,1-1.772,1.539c-1.213,0-1.959-.746-2.239-2.332H128.9v2.891h.326l.42-.793a3.132,3.132,0,0,0,2.1.746,2.549,2.549,0,0,0,2.8-2.472C134.5,12.077,134.03,11.47,132.678,10.911Z" transform="translate(-68.785 -3.434)" fill="#fff"/><path d="M159.215,6.45a3.252,3.252,0,0,0-1.352-.572,2.665,2.665,0,0,0,1.912-2.62h0a2.827,2.827,0,0,0-1.026-2.239A3.753,3.753,0,0,0,156.37.4H151.8V.829c1.259.048,1.4.191,1.4,1.191v8.575c0,.953-.14,1.1-1.4,1.191v.429h4.384a4.5,4.5,0,0,0,2.7-.619,3.345,3.345,0,0,0,1.446-2.763A3.128,3.128,0,0,0,159.215,6.45ZM154.645.924h1.492c1.446,0,2.1.715,2.1,2.382a2.835,2.835,0,0,1-.56,1.858c-.373.429-.839.572-1.819.572h-1.166V.924Zm1.772,10.719h-.606c-.933,0-1.073-.143-1.073-.905V6.307h1.632a2.161,2.161,0,0,1,1.819.572,2.92,2.92,0,0,1,.606,2C158.749,10.69,157.909,11.643,156.417,11.643Z" transform="translate(-81.005 -0.213)" fill="#fff"/><path d="M176.738,15.222h0c-1.586,0-2.285-1.213-2.285-3.917h5.177c-.047-2.658-1.119-4.1-3.171-4.1-2.1,0-3.358,1.679-3.358,4.337s1.306,4.244,3.544,4.244a2.951,2.951,0,0,0,3.031-2.845h-.7C178.743,14.382,178.044,15.222,176.738,15.222Zm-.28-7.6c1.119,0,1.679.979,1.819,3.031h-3.731C174.686,8.692,175.339,7.62,176.458,7.62Z" transform="translate(-92.372 -3.594)" fill="#fff"/><path d="M196.469,14.229V10.078a3.49,3.49,0,0,0-.28-1.539,2.413,2.413,0,0,0-2.285-1.4,2.57,2.57,0,0,0-2.332,1.352A9.154,9.154,0,0,0,191.385,7a11.18,11.18,0,0,1-2.285.513v.28h.233c.886,0,.979.093.979.793v5.6c0,.746-.187.886-1.213.933v.326a18.7,18.7,0,0,1,3.731,0v-.326c-.886-.047-1.119-.187-1.119-.886v-4.2c0-1.4.606-2.145,1.819-2.145,1.119,0,1.539.606,1.539,2.1v4.244c0,.7-.233.886-1.166.886v.326a18.7,18.7,0,0,1,3.731,0v-.326C196.609,15.115,196.469,14.975,196.469,14.229Z" transform="translate(-100.91 -3.487)" fill="#fff"/><path d="M212.718,15.242h-2.005l4.71-7.742h-5.97l-.42,2.239h.326c.606-1.539.886-1.819,2.005-1.819h2.145l-4.71,7.742h5.97l.466-2.472h-.373C214.35,14.775,213.883,15.242,212.718,15.242Z" transform="translate(-111.422 -3.754)" fill="#fff"/></g><g transform="translate(1192 2882.875)"><line x1="104" transform="translate(0 3.714)" fill="none" stroke="#009bd5" stroke-width="1"/><line y2="7.429" transform="translate(0)" fill="none" stroke="#009bd5" stroke-linecap="round" stroke-width="1"/><line y2="7.429" transform="translate(104)" fill="none" stroke="#009bd5" stroke-linecap="round" stroke-width="1"/></g><text transform="translate(1229.143 2907.634)" fill="#009bd5" font-size="10" font-family="Arial-BoldMT, Arial" font-weight="700"><tspan x="0" y="0">104PX</tspan></text></g></svg>