<svg xmlns="http://www.w3.org/2000/svg" width="91.726" height="25" viewBox="0 0 91.726 25"><g transform="translate(-312 -7855.5)"><g transform="translate(312 7856)"><path d="M315.059,228.2l-.422,0q-.111,0-.222-.006c-.147-.007-.3-.013-.443-.014-.074,0-.147,0-.221-.01-.095-.007-.19-.009-.285-.011-.056,0-.112,0-.169-.011s-.112-.007-.169-.009-.14,0-.21-.014a1.339,1.339,0,0,0-.137-.008c-.06,0-.12-.005-.179-.014-.038-.006-.077-.005-.116-.008a1.09,1.09,0,0,1-.158-.014.454.454,0,0,0-.063-.005,1.574,1.574,0,0,1-.2-.017c-.1-.005-.2-.018-.305-.027l-.031,0c-.091-.013-.182-.018-.273-.028l-.126-.013-.063-.008-.031-.005c-.077,0-.154-.015-.231-.025a1.235,1.235,0,0,1-.136-.018.341.341,0,0,0-.042,0l-.032,0c-.042-.006-.083-.014-.125-.018a1.048,1.048,0,0,1-.126-.016.309.309,0,0,0-.052-.007.705.705,0,0,1-.115-.016.2.2,0,0,0-.042-.006.62.62,0,0,1-.1-.014.524.524,0,0,0-.063-.008.467.467,0,0,1-.083-.013.193.193,0,0,0-.031-.006c-.042,0-.083-.011-.125-.018s-.1-.014-.156-.024a.876.876,0,0,1-.115-.019.106.106,0,0,0-.021,0,1.042,1.042,0,0,1-.125-.019,1.135,1.135,0,0,1-.125-.022c-.049,0-.1-.017-.146-.023s-.069-.012-.1-.018l-.26-.046c-.062-.011-.124-.024-.187-.035-.093-.016-.186-.038-.279-.053-.028,0-.055-.013-.082-.018l-.073-.014c-.044-.011-.089-.019-.134-.027s-.1-.024-.145-.028-.09-.015-.133-.031c-.084-.013-.164-.039-.248-.052-.126-.032-.254-.058-.38-.089l-.4-.1c-.153-.039-.306-.078-.459-.119s-.278-.075-.417-.114q-.451-.127-.9-.268c-.175-.055-.348-.111-.522-.168q-.391-.129-.777-.27-.564-.206-1.121-.433-.576-.236-1.142-.495-.393-.179-.781-.372c-.221-.109-.44-.22-.658-.336-.152-.081-.3-.165-.449-.256a3.842,3.842,0,0,1-.331-.227,2.181,2.181,0,0,1-.23-.2,1.536,1.536,0,0,1-.147-.179,1.074,1.074,0,0,1-.175-.426.857.857,0,0,1-.015-.158c0-.053,0-.106,0-.159a1.229,1.229,0,0,1,.016-.189,3.376,3.376,0,0,1,.067-.331c.053-.208.119-.412.191-.615.125-.351.261-.7.4-1.044q.264-.661.557-1.311.2-.448.415-.889c.151-.314.309-.624.47-.933q.356-.683.745-1.348.527-.9,1.112-1.77.42-.621.867-1.223.29-.39.593-.77.262-.331.534-.654.228-.271.462-.537c.146-.167.295-.331.444-.5.109-.12.221-.238.331-.355q.224-.238.455-.47c.087-.087.172-.177.26-.262.154-.15.3-.3.462-.448.083-.076.163-.156.245-.232.126-.118.252-.235.382-.35.113-.1.225-.2.339-.3.134-.119.27-.237.407-.352l.347-.292c.092-.077.184-.152.278-.227q.193-.155.388-.309.36-.285.73-.557.2-.151.409-.3.573-.415,1.164-.8.65-.432,1.32-.835.2-.123.417-.226a4.073,4.073,0,0,1,.608-.238,2.167,2.167,0,0,1,.3-.072c.054-.018.111-.019.166-.032a.365.365,0,0,1,.052-.006c.017,0,.035,0,.052-.005a1.172,1.172,0,0,1,.221-.018c.131,0,.261,0,.391,0a.663.663,0,0,1,.126.013l.021,0a1.318,1.318,0,0,1,.177.024c.07.013.189.036.248.052a4.211,4.211,0,0,1,.984.4c.114.063.225.131.336.2q.716.437,1.413.906.661.446,1.3.921.36.268.713.544c.357.281.71.567,1.055.862q.221.188.439.38c.1.084.188.17.283.254.12.1.233.214.352.32.034.03.067.063.1.094.194.185.39.366.578.557.079.08.161.158.24.238.122.123.244.244.362.369.152.161.306.321.456.485.178.195.355.39.53.588q.286.325.562.659.181.22.361.442t.365.465q.3.393.593.8.448.621.864,1.263.291.447.566.9.3.5.582,1,.394.706.751,1.429.253.511.488,1.03.187.413.364.831t.355.87c.082.209.163.419.24.631s.152.431.213.651a3.833,3.833,0,0,1,.09.4c.008.052.011.1.02.157a.2.2,0,0,1,0,.042v.2a.2.2,0,0,1,0,.032,1.291,1.291,0,0,1-.068.3,1.138,1.138,0,0,1-.153.276,1.638,1.638,0,0,1-.256.266,3.289,3.289,0,0,1-.341.249q-.174.111-.353.211c-.172.1-.347.186-.522.276-.257.131-.516.257-.776.381q-.3.145-.614.281c-.241.107-.483.212-.727.312q-.4.165-.8.319c-.322.122-.645.24-.971.351-.246.084-.493.166-.741.243l-.433.133c-.232.07-.466.136-.7.2-.156.043-.312.083-.468.124-.122.032-.246.06-.368.091s-.267.065-.4.1c-.113.026-.226.054-.339.075-.081.024-.165.037-.247.055s-.165.036-.248.05c-.027,0-.055.014-.082.018l-.072.014c-.044.011-.09.018-.134.026-.09.016-.179.038-.27.049s-.194.037-.29.055-.2.038-.3.049c-.057.017-.118.017-.176.032a.441.441,0,0,1-.063.008.313.313,0,0,0-.062.01.262.262,0,0,1-.063.01.605.605,0,0,0-.073.011.531.531,0,0,1-.063.01.541.541,0,0,0-.094.015.431.431,0,0,1-.052.007c-.025,0-.049.006-.073.011a.608.608,0,0,1-.073.01.606.606,0,0,0-.073.01.691.691,0,0,1-.084.011c-.025,0-.049.007-.073.01a.249.249,0,0,1-.031.005,1.781,1.781,0,0,0-.178.024c-.081,0-.16.025-.241.026-.079.019-.161.016-.241.032a.421.421,0,0,1-.052.006,1.075,1.075,0,0,0-.147.016c-.014,0-.028,0-.042,0l-.126.013-.095.009c-.028,0-.056,0-.084.008-.049.006-.1.009-.147.014-.095.009-.189.019-.284.025a1.443,1.443,0,0,1-.2.017.443.443,0,0,0-.063.005,1.1,1.1,0,0,1-.158.014,1.321,1.321,0,0,0-.168.014.454.454,0,0,1-.063,0,2.678,2.678,0,0,0-.273.019.789.789,0,0,1-.1,0c-.085,0-.169.006-.253.015-.038,0-.077,0-.116.006l-.264.009h-.011c-.112.014-.225.011-.337.014s-.225.006-.338.012-.253.007-.38.008h-.275m-.01-.933h.19c.025,0,.049,0,.074,0,.084-.006.169-.007.253-.009.116,0,.232,0,.349-.005l.243-.007a2.47,2.47,0,0,1,.284-.014c.071,0,.141,0,.211-.01s.148-.009.221-.011.127-.005.19-.012c.046,0,.091-.008.137-.008a1.434,1.434,0,0,0,.147-.01c.049-.005.1-.009.147-.011s.112-.005.169-.014l.042,0c.085,0,.168-.012.252-.021s.154-.012.231-.021.141-.008.21-.021a.2.2,0,0,1,.031,0c.1,0,.2-.024.294-.029a1.418,1.418,0,0,1,.158-.018c.017,0,.035-.005.052-.007s.042-.008.063-.009a1.139,1.139,0,0,0,.136-.016c.021,0,.042,0,.063-.006s.042,0,.063-.007c.041-.008.084-.011.126-.016.063-.009.125-.02.188-.024a.7.7,0,0,1,.136-.019.223.223,0,0,0,.041-.007.359.359,0,0,1,.073-.011.461.461,0,0,0,.083-.013.24.24,0,0,1,.042-.007c.071,0,.139-.024.209-.028a.7.7,0,0,1,.125-.02l.021,0a.619.619,0,0,1,.1-.016c.035-.005.069-.012.1-.019s.076-.016.114-.02c.06-.006.117-.025.177-.028.1-.024.208-.037.311-.058l.155-.029c.086-.017.173-.03.259-.052.122-.019.241-.047.361-.073s.227-.045.339-.075c.056-.008.11-.024.165-.036s.109-.028.165-.036c.1-.029.205-.047.306-.076.186-.041.369-.091.552-.139s.339-.09.508-.139c.286-.082.5-.145.828-.248.275-.086.548-.177.821-.27q.623-.214,1.235-.457t1.185-.5q.6-.266,1.182-.558c.154-.077.306-.158.455-.246.093-.056.186-.114.274-.178a1.615,1.615,0,0,0,.215-.187.951.951,0,0,0,.15-.2.934.934,0,0,0,.079-.218c0-.049.012-.1.013-.147a1.573,1.573,0,0,0-.041-.377,3.811,3.811,0,0,0-.109-.385c-.058-.174-.123-.344-.189-.515q-.263-.673-.554-1.335-.169-.387-.349-.768c-.189-.4-.384-.8-.589-1.192q-.41-.787-.86-1.551-.5-.855-1.063-1.676-.516-.76-1.077-1.488-.209-.271-.425-.539-.192-.238-.389-.473-.238-.283-.482-.56t-.495-.549c-.187-.2-.375-.4-.567-.6q-.256-.26-.515-.516l-.129-.125c-.119-.115-.24-.229-.36-.342s-.253-.235-.38-.351c-.205-.188-.415-.371-.625-.552q-.288-.249-.582-.489-.253-.207-.51-.41-.307-.242-.619-.476-.389-.292-.786-.571-.358-.253-.721-.5-.4-.271-.814-.529c-.146-.092-.291-.185-.44-.271a3.984,3.984,0,0,0-.638-.3,2.834,2.834,0,0,0-.426-.12,1.194,1.194,0,0,0-.134-.026.584.584,0,0,0-.093-.014c-.046,0-.091-.007-.137-.014a.539.539,0,0,0-.074-.006h-.243a.69.69,0,0,0-.084.005c-.049.007-.1.012-.147.015a.281.281,0,0,0-.042,0l-.114.02c-.038.006-.076.014-.114.023a3.289,3.289,0,0,0-.473.147,4.188,4.188,0,0,0-.649.328c-.173.107-.347.215-.519.325q-.6.381-1.176.785-.463.323-.916.661c-.271.2-.538.408-.8.62-.131.106-.264.211-.395.318-.114.094-.227.189-.34.285s-.252.214-.377.322q-.231.2-.458.407-.45.408-.884.832-.351.344-.691.7-.4.424-.8.861-.309.347-.607.7-.268.32-.526.647-.478.6-.926,1.232-.359.5-.7,1.02-.469.715-.9,1.455-.375.649-.721,1.313-.313.6-.6,1.211-.2.42-.383.846c-.081.188-.162.375-.24.563q-.159.38-.307.763c-.069.177-.135.355-.192.536a2.873,2.873,0,0,0-.086.326c-.009.045-.019.09-.024.135a1.645,1.645,0,0,0,0,.316.256.256,0,0,0,0,.031.849.849,0,0,0,.119.291,1.056,1.056,0,0,0,.105.132,1.587,1.587,0,0,0,.215.187q.085.062.175.119c.092.058.187.112.282.164.173.094.349.183.526.268q.536.261,1.081.5.482.212.972.408.838.334,1.694.616c.137.045.274.089.411.132.275.087.551.169.828.248.138.039.277.076.417.114l.366.1q.189.048.379.093l.308.074c.1.025.205.046.308.07.039,0,.074.019.113.024s.082.02.124.025.1.016.144.033.1.024.145.027.09.017.134.027c.086.02.172.033.259.052.052.011.1.016.156.028s.112.016.166.032.1.019.145.025.124.025.187.03a.875.875,0,0,0,.115.019,1.046,1.046,0,0,0,.115.019.2.2,0,0,1,.041.007.459.459,0,0,0,.083.013.277.277,0,0,1,.042.006.464.464,0,0,0,.093.015.232.232,0,0,1,.042.006.543.543,0,0,0,.1.016.366.366,0,0,1,.052.008.619.619,0,0,0,.083.012.27.27,0,0,1,.052.006.542.542,0,0,0,.1.015.354.354,0,0,1,.052.007.469.469,0,0,0,.094.013c.039,0,.077.012.115.018s.077.006.115.013.069.011.1.013.049.006.074.009l.094.011.073.009a.97.97,0,0,0,.115.013.431.431,0,0,1,.052.006,1.235,1.235,0,0,0,.137.015l.074.008.115.012c.021,0,.042,0,.063.005a1.312,1.312,0,0,0,.168.017.706.706,0,0,1,.074.008.964.964,0,0,0,.116.011c.056,0,.112.01.168.016s.119.008.179.012l.031,0a1.325,1.325,0,0,0,.147.011,1.4,1.4,0,0,1,.158.011,1.249,1.249,0,0,0,.137.01c.042,0,.085,0,.126.007.074.008.147.012.221.014.053,0,.106,0,.158.007.1.01.2.013.306.015a1.771,1.771,0,0,1,.232.013.436.436,0,0,0,.053,0c.067,0,.134,0,.2.005.18,0,.359.006.538.011h.032a.817.817,0,0,0,.116,0h.159" transform="translate(-298.696 -204.197)" fill="#fff"/><path d="M315.819,231.757c-.007,0-.049-.011-.061-.014l-.42-.126-.478-.143c-.1-.03-.2-.056-.293-.089-.015,0-.019,0-.021-.008a.043.043,0,0,1,0-.009s0-.011,0-.015c0-.021,0-.042,0-.063q0-.238,0-.475v-6.5q0-.914,0-1.827,0-1.2,0-2.4,0-.607,0-1.215a.336.336,0,0,1,.006-.1.014.014,0,0,1,.016-.009.123.123,0,0,1,.047.021l.372.221.871.517.807.48,1.125.669,1.17.7.108.067a.024.024,0,0,0,.036-.023c0-.011,0-.021,0-.032,0-.032,0-.063,0-.095v-2.2q0-2.3,0-4.595a.87.87,0,0,1,0-.137.022.022,0,0,1,.033-.016l.01,0,.027.016.7.415.9.535,1.142.68.88.523,1.025.609.317.189.037.022a.062.062,0,0,0,.069,0l.027-.016.925-.55,1.152-.686,1.152-.685.771-.458.843-.5.136-.081c.009-.005.019-.009.028-.014a.024.024,0,0,1,.031.019c0,.028,0,.056,0,.084v3.57q0,1.643,0,3.285a.7.7,0,0,0,0,.126c0,.008.017.018.024.015l.01,0c.145-.093.3-.178.443-.267.226-.136.454-.27.68-.4l1.27-.754,1.115-.663.935-.555.046-.026a.023.023,0,0,1,.033.015c0,.028,0,.056,0,.085v1.4q0,.877,0,1.753v3.042h0v6.168c0,.042,0,.137,0,.142s-.086.028-.112.036c-.367.11-1.181.348-1.182.346a.231.231,0,0,1,0-.03c0-.011,0-.021,0-.031,0-.039,0-.077,0-.116v-8.957q0-.7,0-1.394a.256.256,0,0,0-.005-.084.014.014,0,0,0-.016-.01.281.281,0,0,0-.047.022l-.317.189-.953.566-1.206.719L329.4,223c-.027.016-.054.033-.08.051a.028.028,0,0,0-.01.018.129.129,0,0,0,0,.031c0,.028,0,.056,0,.085v9.125c0,.036,0,.085,0,.119,0,.007-.016.008-.022.009-.033.006-.361.058-.406.063s-.285.042-.3.044c-.039,0-.6.089-.627.088-.006,0-.01,0-.011,0s0,0,0-.01,0-.143,0-.186v-8c0-.162,0-.324,0-.486a.084.084,0,0,0-.006-.041.026.026,0,0,0-.017-.01.048.048,0,0,0-.03.01l-.218.128-2.069,1.229-1.316.781c-.071.042-.074.043-.142,0l-1.162-.689-1.152-.685-1.243-.738a.249.249,0,0,0-.075-.038.016.016,0,0,0-.017.009.022.022,0,0,0,0,.01c0,.025,0,.049,0,.074v8.418c0,.056,0,.112,0,.169a.2.2,0,0,1-.006.054c-.005,0-.089-.011-.126-.013s-1.171-.177-1.22-.186c-.007,0-.019-.022-.019-.022l0-.031v-.1s0-5.781,0-8.671c0-.165,0-.331,0-.5a.361.361,0,0,0,0-.052.035.035,0,0,0-.01-.018.249.249,0,0,0-.034-.024l-.326-.194-.943-.561-1.261-.75-.589-.351-.055-.032c-.026-.015-.042-.008-.043.018s0,.063,0,.1v10.361l0,.142Zm4.661-12.228h0v2.609c0,.038,0,.077,0,.116a.052.052,0,0,0,.025.044l.044.028c.1.059.2.117.3.176l1.557.931,1.694,1.012.082.048a.037.037,0,0,0,.04,0l.091-.052.888-.53,1.314-.785.833-.5c.13-.078.261-.153.391-.23l.163-.1a.056.056,0,0,0,.03-.052c0-.039,0-.077,0-.116v-4.319c0-.169,0-.338,0-.507s0-.324,0-.486c0-.014,0-.028,0-.042a.021.021,0,0,0-.032-.014l-.037.02-.99.585-.744.441-.972.575-.844.5-.092.051a.03.03,0,0,1-.03,0c-.022-.011-.044-.023-.065-.036l-.517-.306-1.626-.962-1.334-.791-.109-.064-.029-.014a.018.018,0,0,0-.025.011.664.664,0,0,0,0,.126q0,1.314,0,2.629" transform="translate(-307.844 -210.053)" fill="#fff"/><path d="M325.332,256.821v.144l.025.005.048.009,1.184.178.114.016h0v-.126" transform="translate(-314.074 -234.579)" fill="#fff"/></g><g transform="translate(-1136.274 8632) rotate(-90)"><line x1="24" transform="translate(752 1500)" fill="none" stroke="#009bd5" stroke-width="1"/><line y2="8" transform="translate(752 1496)" fill="none" stroke="#009bd5" stroke-linecap="round" stroke-width="1"/><line y2="8" transform="translate(776 1496)" fill="none" stroke="#009bd5" stroke-linecap="round" stroke-width="1"/></g><text transform="translate(375.726 7872)" fill="#009bd5" font-size="12" font-family="CorporateS-Bold, CorpoS" font-weight="700"><tspan x="0" y="0">24PX</tspan></text></g></svg>