<?xml version="1.0" encoding="UTF-8"?>
<svg width="258px" height="258px" viewBox="0 0 258 258" version="1.1" xmlns="http://www.w3.org/2000/svg" xmlns:xlink="http://www.w3.org/1999/xlink">
    <!-- Generator: Sketch 55.2 (78181) - https://sketchapp.com -->
    <title>hills 2</title>
    <desc>Created with Sketch.</desc>
    <g id="Page-1" stroke="none" stroke-width="1" fill="none" fill-rule="evenodd">
        <g id="hills-2">
            <g id="grid" opacity="0.5" stroke="#707070" stroke-linecap="square" stroke-width="0.5">
                <path d="M1,1 L257,1" id="Path"></path>
                <path d="M1,33 L257,33" id="Path"></path>
                <path d="M1,225 L257,225" id="Path"></path>
                <path d="M1,65 L257,65" id="Path"></path>
                <path d="M1,97 L257,97" id="Path"></path>
                <path d="M1,129 L257,129" id="Path"></path>
                <path d="M1,161 L257,161" id="Path"></path>
                <path d="M1,193 L257,193" id="Path"></path>
                <path d="M1,257 L257,257" id="Path"></path>
                <path d="M1,1 L1,257" id="Path"></path>
                <path d="M33,1 L33,257" id="Path"></path>
                <path d="M65,1 L65,257" id="Path"></path>
                <path d="M97,1 L97,257" id="Path"></path>
                <path d="M129,1 L129,257" id="Path"></path>
                <path d="M161,1 L161,257" id="Path"></path>
                <path d="M193,1 L193,257" id="Path"></path>
                <path d="M225,1 L225,257" id="Path"></path>
                <path d="M257,1 L257,257" id="Path"></path>
            </g>
            <g id="bg" fill-rule="nonzero" opacity="0.5">
                <rect id="Rectangle" fill="#C6C6C6" x="0" y="0" width="256" height="256"></rect>
                <rect id="Rectangle" fill="#FFFFFF" x="16" y="16" width="224" height="224"></rect>
            </g>
            <g id="Group" transform="translate(8.002000, 31.006000)" fill="#000000" fill-rule="nonzero">
                <path d="M231.36,78.42 L175.33,6.81 C172.564757,3.2728638 168.372819,1.14474525 163.8854,0.99992752 C159.397982,0.855109789 155.077552,2.70851767 152.09,6.06 L99.72,64.8 L82.37,45.71 C79.8547682,42.9504319 76.3036975,41.3633207 72.57,41.33 L72.47,41.33 C68.7725924,41.3339713 65.2409366,42.8645967 62.71,45.56 L1.12769255,110.689864 C-0.381231094,112.300368 -0.30068336,114.828672 1.30769255,116.339864 C2.9181967,117.848787 5.4465006,117.76824 6.95769255,116.159864 L68.52,51.03 C69.5338415,49.9375752 70.9596369,49.320819 72.45,49.33 L72.49,49.33 C73.9952688,49.3365534 75.4285426,49.9751767 76.44,51.09 L113.25,91.57 C113.29,91.62 113.34,91.66 113.38,91.71 C124.92,103.25 129.3,122.31 124.29,139.14 C118.97,156.99 104.44,169.24 83.39,173.64 C81.3970936,174.069712 80.0462336,175.929512 80.2539153,177.957614 C80.4615971,179.985716 82.1613623,181.533126 84.2,181.55 C84.4751885,181.548153 84.7496437,181.521377 85.02,181.47 C117.48,174.69 128.36,153.47 131.95,141.43 C137.11,124.13 133.64,104.74 123.39,91.11 C144.72,92.2 161.52,97.61 173.39,107.26 C187.38,118.64 194.47,136.05 194.47,159 C194.47,161.209139 196.260861,163 198.47,163 C200.679139,163 202.47,161.209139 202.47,159 C202.47,133.52 194.38,114.03 178.44,101.05 C163.81,89.14 142.85,83.05 116.17,82.9 L105.13,70.75 L158.06,11.39 C159.4625,9.79585549 161.508306,8.91803198 163.63,9 C165.746921,9.06868248 167.724518,10.07213 169.03,11.74 L225.06,83.35 C225.935797,84.4899953 227.355976,85.072349 228.779992,84.8754065 C230.204009,84.678464 231.412824,83.7325185 231.94634,82.3976142 C232.479856,81.0627099 232.256009,79.5441782 231.36,78.42 Z" id="Path"></path>
                <path d="M151.19,103.31 C149.180139,101.192925 146.992092,99.2524553 144.65,97.51 C142.879927,96.187278 140.372722,96.5499274 139.05,98.32 C137.727278,100.090073 138.089927,102.597278 139.86,103.92 C141.831184,105.391817 143.674414,107.027641 145.37,108.81 C146.123419,109.608051 147.172491,110.060237 148.27,110.06 C149.865871,110.055951 151.307516,109.106221 151.941134,107.64152 C152.574753,106.17682 152.279784,104.475843 151.19,103.31 L151.19,103.31 Z" id="Path"></path>
                <path d="M161.85,139.01 L161.85,139.01 C159.643577,139.011067 157.852099,140.79361 157.84,143 C157.830359,145.53334 157.676778,148.064085 157.38,150.58 C157.121734,152.772201 158.688094,154.759241 160.88,155.02 C161.039222,155.039952 161.199532,155.05 161.36,155.05 C163.386458,155.048839 165.091891,153.532421 165.33,151.52 C165.666356,148.69565 165.839976,145.854291 165.85,143.01 C165.847245,140.802003 164.057997,139.012755 161.85,139.01 L161.85,139.01 Z" id="Path"></path>
                <path d="M140.57,183.78 C138.538327,185.295305 136.417878,186.687789 134.22,187.95 C132.377533,189.083998 131.770632,191.477431 132.850131,193.352349 C133.929629,195.227267 136.304242,195.904071 138.21,194.88 C140.675336,193.459464 143.056018,191.896829 145.34,190.2 C146.522525,189.360958 147.158408,187.94768 147.001973,186.506193 C146.845538,185.064706 145.921283,183.82074 144.586297,183.254905 C143.25131,182.689071 141.714646,182.889976 140.57,183.78 Z" id="Path"></path>
                <path d="M159.03,162.97 C158.030147,162.614315 156.92993,162.670536 155.971541,163.126287 C155.013153,163.582037 154.275153,164.399958 153.92,165.4 C153.079258,167.789408 152.097534,170.126845 150.98,172.4 C150.331076,173.683394 150.422225,175.216563 151.218638,176.41403 C152.015051,177.611497 153.393743,178.288345 154.828229,178.186103 C156.262714,178.08386 157.531473,177.218317 158.15,175.92 C159.405298,173.366622 160.51051,170.74216 161.46,168.06 C161.814487,167.062861 161.757468,165.965628 161.301533,165.010604 C160.845598,164.05558 160.028255,163.32133 159.03,162.97 L159.03,162.97 Z" id="Path"></path>
                <path d="M159.83,131.040122 C160.181497,131.042032 160.531552,130.994909 160.87,130.9 C163.002468,130.325633 164.268175,128.134126 163.7,126 C162.950955,123.203585 161.98812,120.468868 160.82,117.82 C160.24123,116.512408 159.008832,115.612913 157.587039,115.460347 C156.165246,115.30778 154.770062,115.925321 153.927039,117.080347 C153.084016,118.235373 152.92123,119.752408 153.5,121.06 C154.497439,123.335053 155.323081,125.681616 155.97,128.08 C156.436646,129.827774 158.021004,131.042723 159.83,131.040122 L159.83,131.040122 Z" id="Path"></path>
            </g>
            <circle id="Oval" fill="#EB0000" fill-rule="nonzero" opacity="0.6" style="mix-blend-mode: multiply;" cx="20" cy="139" r="20"></circle>
        </g>
    </g>
</svg>