<?xml version="1.0" encoding="UTF-8"?>
<svg width="258px" height="258px" viewBox="0 0 258 258" version="1.1" xmlns="http://www.w3.org/2000/svg" xmlns:xlink="http://www.w3.org/1999/xlink">
    <!-- Generator: Sketch 55.2 (78181) - https://sketchapp.com -->
    <title>hills 1</title>
    <desc>Created with Sketch.</desc>
    <g id="Page-1" stroke="none" stroke-width="1" fill="none" fill-rule="evenodd">
        <g id="hills-1">
            <g id="grid" opacity="0.5" stroke="#707070" stroke-linecap="square" stroke-width="0.5">
                <path d="M1,1 L257,1" id="Path"></path>
                <path d="M1,33 L257,33" id="Path"></path>
                <path d="M1,225 L257,225" id="Path"></path>
                <path d="M1,65 L257,65" id="Path"></path>
                <path d="M1,97 L257,97" id="Path"></path>
                <path d="M1,129 L257,129" id="Path"></path>
                <path d="M1,161 L257,161" id="Path"></path>
                <path d="M1,193 L257,193" id="Path"></path>
                <path d="M1,257 L257,257" id="Path"></path>
                <path d="M1,1 L1,257" id="Path"></path>
                <path d="M33,1 L33,257" id="Path"></path>
                <path d="M65,1 L65,257" id="Path"></path>
                <path d="M97,1 L97,257" id="Path"></path>
                <path d="M129,1 L129,257" id="Path"></path>
                <path d="M161,1 L161,257" id="Path"></path>
                <path d="M193,1 L193,257" id="Path"></path>
                <path d="M225,1 L225,257" id="Path"></path>
                <path d="M257,1 L257,257" id="Path"></path>
            </g>
            <g id="bg" fill-rule="nonzero" opacity="0.5">
                <rect id="Rectangle" fill="#C6C6C6" x="0" y="0" width="256" height="256"></rect>
                <rect id="Rectangle" fill="#FFFFFF" x="16" y="16" width="224" height="224"></rect>
            </g>
            <g id="Group" transform="translate(15.002000, 31.006000)" fill="#000000" fill-rule="nonzero">
                <path d="M222.36,78.42 L166.33,6.81 C163.564757,3.2728638 159.372819,1.14474525 154.8854,0.99992752 C150.397982,0.855109789 146.077552,2.70851767 143.09,6.06 L90.72,64.8 L73.37,45.71 C70.8547682,42.9504319 67.3036975,41.3633207 63.57,41.33 L63.47,41.33 C59.7725924,41.3339713 56.2409366,42.8645967 53.71,45.56 L2.08,100.54 C1.03827066,101.569915 0.642857618,103.086888 1.04928122,104.494278 C1.45570483,105.901667 2.59894342,106.974311 4.02934852,107.290327 C5.45975362,107.606343 6.94848192,107.115173 7.91,106.01 L59.52,51.03 C60.5338415,49.9375752 61.9596369,49.320819 63.45,49.33 L63.49,49.33 C64.9952688,49.3365534 66.4285426,49.9751767 67.44,51.09 L104.25,91.57 C104.29,91.62 104.34,91.66 104.38,91.71 C115.92,103.25 120.3,122.31 115.29,139.14 C109.97,156.99 95.44,169.24 74.39,173.64 C72.3970936,174.069712 71.0462336,175.929512 71.2539153,177.957614 C71.4615971,179.985716 73.1613623,181.533126 75.2,181.55 C75.4751885,181.548153 75.7496437,181.521377 76.02,181.47 C108.48,174.69 119.36,153.47 122.95,141.43 C128.11,124.13 124.64,104.74 114.39,91.11 C135.72,92.2 152.52,97.61 164.39,107.26 C178.38,118.64 185.47,136.05 185.47,159 C185.47,161.209139 187.260861,163 189.47,163 C191.679139,163 193.47,161.209139 193.47,159 C193.47,133.52 185.38,114.03 169.44,101.05 C154.81,89.14 133.85,83.05 107.17,82.9 L96.13,70.75 L149.06,11.39 C150.4625,9.79585549 152.508306,8.91803198 154.63,9 C156.746921,9.06868248 158.724518,10.07213 160.03,11.74 L216.06,83.35 C216.935797,84.4899953 218.355976,85.072349 219.779992,84.8754065 C221.204009,84.678464 222.412824,83.7325185 222.94634,82.3976142 C223.479856,81.0627099 223.256009,79.5441782 222.36,78.42 Z" id="Path"></path>
                <path d="M142.19,103.31 C140.180139,101.192925 137.992092,99.2524553 135.65,97.51 C133.879927,96.187278 131.372722,96.5499274 130.05,98.32 C128.727278,100.090073 129.089927,102.597278 130.86,103.92 C132.831184,105.391817 134.674414,107.027641 136.37,108.81 C137.123419,109.608051 138.172491,110.060237 139.27,110.06 C140.865871,110.055951 142.307516,109.106221 142.941134,107.64152 C143.574753,106.17682 143.279784,104.475843 142.19,103.31 L142.19,103.31 Z" id="Path"></path>
                <path d="M152.85,139.01 L152.85,139.01 C150.643577,139.011067 148.852099,140.79361 148.84,143 C148.830359,145.53334 148.676778,148.064085 148.38,150.58 C148.121734,152.772201 149.688094,154.759241 151.88,155.02 C152.039222,155.039952 152.199532,155.05 152.36,155.05 C154.386458,155.048839 156.091891,153.532421 156.33,151.52 C156.666356,148.69565 156.839976,145.854291 156.85,143.01 C156.847245,140.802003 155.057997,139.012755 152.85,139.01 L152.85,139.01 Z" id="Path"></path>
                <path d="M131.57,183.78 C129.538327,185.295305 127.417878,186.687789 125.22,187.95 C123.377533,189.083998 122.770632,191.477431 123.850131,193.352349 C124.929629,195.227267 127.304242,195.904071 129.21,194.88 C131.675336,193.459464 134.056018,191.896829 136.34,190.2 C137.522525,189.360958 138.158408,187.94768 138.001973,186.506193 C137.845538,185.064706 136.921283,183.82074 135.586297,183.254905 C134.25131,182.689071 132.714646,182.889976 131.57,183.78 Z" id="Path"></path>
                <path d="M150.03,162.97 C149.030147,162.614315 147.92993,162.670536 146.971541,163.126287 C146.013153,163.582037 145.275153,164.399958 144.92,165.4 C144.079258,167.789408 143.097534,170.126845 141.98,172.4 C141.331076,173.683394 141.422225,175.216563 142.218638,176.41403 C143.015051,177.611497 144.393743,178.288345 145.828229,178.186103 C147.262714,178.08386 148.531473,177.218317 149.15,175.92 C150.405298,173.366622 151.51051,170.74216 152.46,168.06 C152.814487,167.062861 152.757468,165.965628 152.301533,165.010604 C151.845598,164.05558 151.028255,163.32133 150.03,162.97 L150.03,162.97 Z" id="Path"></path>
                <path d="M150.83,131.040063 C151.181497,131.042032 151.531552,130.994909 151.87,130.9 C154.002468,130.325633 155.268175,128.134126 154.7,126 C153.950955,123.203585 152.98812,120.468868 151.82,117.82 C151.24123,116.512408 150.008832,115.612913 148.587039,115.460347 C147.165246,115.30778 145.770062,115.925321 144.927039,117.080347 C144.084016,118.235373 143.92123,119.752408 144.5,121.06 C145.497439,123.335053 146.323081,125.681616 146.97,128.08 C147.436646,129.827774 149.021004,131.042723 150.83,131.040063 L150.83,131.040063 Z" id="Path"></path>
            </g>
        </g>
    </g>
</svg>