<svg xmlns="http://www.w3.org/2000/svg" width="24" height="24" viewBox="0 0 24 24"><defs><style>.a{fill:none;}</style></defs><g transform="translate(3.003 3)"><path d="M1282.289,2061.155a.749.749,0,0,0,1.234.034l3.643-3.643a.75.75,0,0,0-1.061-1.061l-2.437,2.437v-10.166a.75.75,0,0,0-1.5,0v10.156l-2.427-2.427a.75.75,0,0,0-1.061,1.061Z" transform="translate(-1273.921 -2048.007)"/><path d="M1247.281,2144.006a.75.75,0,0,0-.75.75v5.25a1.5,1.5,0,0,1-1.5,1.5h-12a1.5,1.5,0,0,1-1.5-1.5v-5.25a.75.75,0,0,0-1.5,0v5.25a3,3,0,0,0,3,3h12a3,3,0,0,0,3-3v-5.25A.75.75,0,0,0,1247.281,2144.006Z" transform="translate(-1230.031 -2135.006)"/></g><rect class="a" width="24" height="24"/></svg>