<svg xmlns="http://www.w3.org/2000/svg" width="189" height="22" viewBox="0 0 189 22"><path d="M174.5,9.348c3.326-2.594,6.732-1.157,2.8,2.274a26.008,26.008,0,0,1-6.01,3.791C171.094,13.1,172.617,10.785,174.5,9.348Zm13.864,5.866c-5.73,3.392-14.184,5.147-15.907,3.032a41.3,41.3,0,0,0,6.852-4.269c8.174-6.7.321-12.051-7.012-7.063-3.085,2.115-5.329,6.464-4.808,10.015-1.6.718-3.446,1.037-4.528-.359-2-2.594-2.324-7.063-3.887-9.178-1.282-1.8-4.127-1.716-6.852.239-2.244,1.6-4.247,4.349-6.331,6.943-.481-1.676-1.4-5.387-2.725-7.183-1.242-1.676-4.007-1.676-6.571.239-2.364,1.716-4.488,4.629-6.371,7.422,0-.718-.04-4.589-.04-6.105-.04-1.836-.922-2.713-2.484-2.713-1.883,0-1.923,1.6-1.923,3.112,0,1.875.16,6.3.4,8.858.12,1.476.441,3.511,2.2,3.511,1.122,0,2.244-.718,3.326-2.394,1.723-2.554,4.047-5.866,6.091-7.541,1.483-1.237,2.645-1.157,3.286.678.4,1.077,1.683,6.5,2.8,8.1a1.6,1.6,0,0,0,2.6.2c1.2-1.277,4.167-6.983,7.413-9.3,1.282-.918,2.084-.718,2.645.16.962,1.436,1.362,5.467,3.205,7.9,2.484,3.272,5.169,2.314,9.136.479,3.526,4.23,15.627,1,19.233-2.793C189.206,16.092,189.286,14.655,188.364,15.214Zm-78.582,6.43.755-1.411a5.679,5.679,0,0,0,3.778,1.317c2.96,0,5.069-1.881,5.069-4.515,0-1.85-.85-2.853-3.243-3.888l-1.322-.565c-2.866-1.254-3.338-1.662-3.338-2.915a2.754,2.754,0,0,1,2.96-2.6c1.983,0,3.022,1.191,3.306,3.7h.724V5.9h-.567L117.37,7.19a5.273,5.273,0,0,0-3.211-1c-2.771,0-4.723,1.693-4.723,4.17,0,1.819.725,2.7,3.022,3.762l1.448.659,1.2.532c1.543.69,2.141,1.411,2.141,2.477A2.987,2.987,0,0,1,114,20.609c-2.2,0-3.526-1.379-4.093-4.233l-.692.031v5.236h.566Zm-8.465-1.066c-2.865,0-4.124-2.194-4.156-7.085h9.383c-.063-4.829-2.047-7.4-5.761-7.4-3.778,0-6.14,3.041-6.14,7.87s2.362,7.65,6.423,7.65c3.085,0,5.1-1.913,5.509-5.142h-1.259c-.377,2.665-1.763,4.107-4,4.107m-4.093-8.214c.315-3.606,1.512-5.456,3.527-5.456,2.046,0,3.085,1.756,3.274,5.456ZM91.151,18.1V0A30.014,30.014,0,0,1,86.4.857V1.39c1.983,0,2.235.219,2.235,1.85V8.727c-1.165-1.881-2.078-2.446-3.778-2.446-3.369,0-5.73,3.167-5.73,7.682s2.393,7.681,5.825,7.681a4.066,4.066,0,0,0,3.9-2.571,11.662,11.662,0,0,0,.441,2.508,15.692,15.692,0,0,1,3.684-.752l.472-.063v-.533c-2.11-.062-2.3-.219-2.3-2.132m-5.919,2.665c-2.267,0-3.463-2.352-3.463-6.835,0-4.546,1.1-6.772,3.368-6.772,2.33,0,3.527,2.383,3.527,6.991,0,4.358-1.165,6.615-3.432,6.615m-13.945-.188c-2.865,0-4.125-2.194-4.156-7.085h9.383c-.063-4.829-2.046-7.4-5.761-7.4-3.778,0-6.14,3.041-6.14,7.87s2.362,7.65,6.423,7.65c3.086,0,5.1-1.913,5.51-5.142h-1.26c-.377,2.665-1.763,4.107-4,4.107m-4.093-8.214c.315-3.606,1.511-5.456,3.526-5.456,2.046,0,3.085,1.756,3.274,5.456ZM61.488,5.811l-.85,1.6a4.09,4.09,0,0,0-3.211-1.317c-3.715,0-6.233,3.2-6.233,7.87,0,4.578,2.487,7.651,6.139,7.651,2.834,0,4.628-1.819,5.038-5.174H61.079q-.567,4.139-3.5,4.138c-2.424,0-3.652-2.226-3.652-6.615,0-4.484,1.385-7.023,3.747-7.023,1.921,0,3.085,1.317,3.652,4.045h.693V5.811ZM39.527,7.253c1.637.031,1.795.188,1.826,1.536V19.042c0,1.348-.346,1.6-2.267,1.693v.627a32.866,32.866,0,0,1,7.021,0v-.627c-1.921-.094-2.236-.345-2.236-1.693V12.489c0-3.1,1.04-5.079,2.676-5.079.567,0,.945.313.945.752v.283l-.063.313a1.826,1.826,0,0,0-.063.314,1.163,1.163,0,0,0,1.291,1.066A1.344,1.344,0,0,0,49.98,8.632a2.546,2.546,0,0,0-2.739-2.539,3.966,3.966,0,0,0-3.684,2.822V8.57c-.063-.941-.126-1.442-.283-2.6a19.534,19.534,0,0,1-4.156.721v.564Zm-7.51,13.325c-2.865,0-4.124-2.194-4.155-7.085h9.382c-.063-4.829-2.046-7.4-5.761-7.4-3.778,0-6.14,3.041-6.14,7.87s2.362,7.65,6.423,7.65c3.085,0,5.1-1.913,5.51-5.142H36.016c-.378,2.665-1.763,4.107-4,4.107m-4.093-8.214c.315-3.606,1.512-5.456,3.526-5.456,2.046,0,3.086,1.756,3.275,5.456ZM9.445,16.126l.378,1.1.441,1.223.441,1.222.346,1h.472l.346-1.035.409-1.191.441-1.16.378-1.035L18.292,2.268l.283,16.241v.157c0,1.474-.472,1.819-2.613,1.944v.753a36.856,36.856,0,0,1,3.935-.251,36.859,36.859,0,0,1,3.936.251v-.753c-2.267-.157-2.55-.408-2.582-2.1L20.906,3.115V2.9c0-1.411.472-1.725,2.613-1.85V.261c-1.2.094-1.7.126-2.487.126A29.934,29.934,0,0,1,18.009.23l-5.95,15.864L6.2.23A24.23,24.23,0,0,1,3.211.387C2.33.387,1.858.355.63.261v.784c2.172.125,2.613.439,2.613,1.881v.188L2.582,18.509C2.519,20.2,2.2,20.452,0,20.609v.753c1.637-.125,2.267-.157,3.148-.157s1.511.032,3.117.157v-.753c-2.2-.157-2.613-.439-2.613-1.819v-.282L4.282,2.237Z" fill="#fff"/></svg>