<svg xmlns="http://www.w3.org/2000/svg" width="119.994" height="87.998" viewBox="0 0 119.994 87.998"><path d="M358.691,292.2c-.516,0-1.032,0-1.548-.008q-.407,0-.814-.023c-.541-.026-1.082-.048-1.624-.051-.271,0-.541-.016-.812-.037-.347-.026-.7-.033-1.044-.042-.206-.006-.412-.017-.618-.039s-.412-.025-.618-.034c-.257-.011-.514-.016-.772-.051a4.917,4.917,0,0,0-.5-.028c-.219-.011-.439-.019-.656-.05-.141-.022-.284-.02-.425-.029a4,4,0,0,1-.578-.051,1.652,1.652,0,0,0-.232-.019,5.777,5.777,0,0,1-.731-.062c-.375-.019-.745-.065-1.119-.1-.037,0-.078,0-.115-.006-.333-.046-.668-.067-1-.1-.155-.017-.308-.031-.462-.048-.078-.009-.155-.019-.231-.029-.039,0-.076-.017-.115-.02-.284-.017-.564-.054-.846-.09a4.53,4.53,0,0,1-.5-.067,1.257,1.257,0,0,0-.153-.015c-.039,0-.078,0-.116-.008-.153-.022-.305-.05-.459-.065a3.845,3.845,0,0,1-.462-.057,1.133,1.133,0,0,0-.191-.026,2.582,2.582,0,0,1-.422-.057.732.732,0,0,0-.153-.02,2.274,2.274,0,0,1-.383-.053,1.911,1.911,0,0,0-.231-.029,1.712,1.712,0,0,1-.305-.046.713.713,0,0,0-.115-.02c-.153-.014-.305-.042-.459-.067-.189-.033-.383-.05-.572-.088a3.212,3.212,0,0,1-.42-.068.389.389,0,0,0-.076-.012,3.821,3.821,0,0,1-.459-.068,4.162,4.162,0,0,1-.457-.079c-.18-.016-.356-.06-.535-.085-.129-.019-.254-.045-.381-.067-.318-.054-.635-.112-.952-.169-.228-.042-.456-.088-.685-.127-.342-.057-.682-.139-1.024-.194-.1-.015-.2-.048-.3-.065s-.178-.031-.267-.051c-.163-.04-.327-.07-.491-.1s-.35-.087-.532-.1c-.157-.065-.332-.054-.488-.115-.307-.046-.6-.143-.908-.189-.462-.116-.93-.214-1.393-.325-.488-.118-.976-.236-1.463-.358-.563-.143-1.124-.285-1.685-.435-.51-.138-1.02-.274-1.528-.417q-1.655-.465-3.3-.981c-.64-.2-1.277-.408-1.912-.617q-1.432-.474-2.848-.99-2.069-.755-4.11-1.587-2.113-.865-4.187-1.813-1.441-.658-2.862-1.364c-.809-.4-1.615-.807-2.411-1.23-.558-.3-1.11-.606-1.647-.939a14.072,14.072,0,0,1-1.212-.831,7.981,7.981,0,0,1-.843-.742,5.628,5.628,0,0,1-.539-.657,3.936,3.936,0,0,1-.643-1.562,3.149,3.149,0,0,1-.054-.578c0-.194,0-.387,0-.581a4.515,4.515,0,0,1,.06-.693q.093-.614.246-1.213c.2-.762.437-1.511.7-2.253.457-1.288.956-2.56,1.464-3.829q.969-2.425,2.043-4.806.739-1.641,1.522-3.261c.555-1.15,1.133-2.289,1.723-3.422q1.307-2.5,2.732-4.944,1.934-3.31,4.076-6.489,1.539-2.278,3.18-4.483,1.065-1.43,2.173-2.822.962-1.213,1.959-2.4c.556-.663,1.122-1.317,1.692-1.968.536-.612,1.08-1.215,1.627-1.816.4-.439.809-.871,1.215-1.3q.823-.874,1.669-1.725c.319-.319.629-.648.955-.962.564-.549,1.117-1.11,1.7-1.644.3-.279.6-.57.9-.852.463-.431.925-.863,1.4-1.282.415-.367.826-.742,1.241-1.11.493-.435.99-.868,1.494-1.291.425-.356.848-.716,1.274-1.072.338-.28.676-.558,1.018-.834q.709-.57,1.424-1.133,1.32-1.044,2.676-2.044.746-.553,1.5-1.1,2.1-1.52,4.266-2.949,2.385-1.583,4.84-3.061.744-.451,1.53-.829a14.944,14.944,0,0,1,2.23-.871,7.945,7.945,0,0,1,1.088-.263c.2-.065.408-.068.608-.118a1.331,1.331,0,0,1,.192-.023c.064-.008.13,0,.192-.019a4.3,4.3,0,0,1,.809-.067c.479-.008.956-.011,1.434.008a2.432,2.432,0,0,1,.462.047.408.408,0,0,0,.076.014,4.834,4.834,0,0,1,.651.088c.256.047.694.133.908.189a15.441,15.441,0,0,1,3.609,1.458c.418.229.826.479,1.234.727q2.627,1.6,5.179,3.321,2.425,1.634,4.772,3.375,1.32.981,2.616,1.995c1.31,1.029,2.6,2.078,3.868,3.16q.811.69,1.61,1.393c.349.307.688.625,1.038.93.439.381.855.786,1.289,1.173.124.112.245.229.366.344.71.677,1.43,1.344,2.12,2.041.291.293.59.58.88.872.446.449.9.894,1.328,1.354.558.592,1.122,1.178,1.671,1.778.654.714,1.3,1.43,1.943,2.157q1.048,1.193,2.06,2.418.665.807,1.322,1.62.676.846,1.337,1.706,1.111,1.441,2.174,2.918,1.641,2.278,3.169,4.632,1.067,1.639,2.075,3.313,1.1,1.822,2.134,3.682,1.444,2.587,2.754,5.24.928,1.874,1.788,3.777.686,1.516,1.336,3.047.672,1.585,1.3,3.189c.3.767.6,1.537.88,2.314s.558,1.579.783,2.388a14.028,14.028,0,0,1,.33,1.472c.031.191.039.384.074.575a.734.734,0,0,1,.011.155v.735a.731.731,0,0,1-.006.116,4.729,4.729,0,0,1-.248,1.093,4.171,4.171,0,0,1-.561,1.012,6,6,0,0,1-.938.975,12.048,12.048,0,0,1-1.249.913q-.637.407-1.3.773c-.631.352-1.274.682-1.915,1.012-.941.482-1.892.942-2.847,1.4q-1.118.53-2.25,1.031c-.883.392-1.771.776-2.664,1.145q-1.464.607-2.948,1.17c-1.179.448-2.366.88-3.561,1.288-.9.307-1.807.608-2.717.89q-.793.246-1.589.487c-.852.257-1.708.5-2.565.736-.57.158-1.144.305-1.717.456-.448.118-.9.222-1.35.335-.488.122-.978.237-1.468.349-.414.1-.828.2-1.244.276-.3.087-.6.135-.905.2s-.6.133-.91.184c-.1.017-.2.05-.3.067s-.177.031-.265.051c-.163.039-.329.067-.493.1-.33.06-.657.138-.989.181-.35.087-.71.135-1.065.2s-.735.138-1.107.181c-.211.064-.434.064-.646.116a1.617,1.617,0,0,1-.231.031,1.147,1.147,0,0,0-.228.037.959.959,0,0,1-.229.037,2.221,2.221,0,0,0-.267.042,1.948,1.948,0,0,1-.229.036,1.983,1.983,0,0,0-.344.054,1.575,1.575,0,0,1-.191.025c-.09.012-.18.023-.268.042a2.234,2.234,0,0,1-.268.037,2.22,2.22,0,0,0-.268.037,2.528,2.528,0,0,1-.307.042c-.09.008-.178.025-.268.037a.917.917,0,0,1-.113.02,6.525,6.525,0,0,0-.652.088c-.3.008-.586.091-.883.1-.291.07-.59.06-.883.118a1.539,1.539,0,0,1-.192.022,3.947,3.947,0,0,0-.538.06c-.05.011-.1.011-.153.017-.155.015-.308.031-.462.048l-.347.034c-.1.009-.206.016-.308.029-.18.023-.36.034-.539.053-.347.034-.693.071-1.04.091a5.3,5.3,0,0,1-.733.064,1.612,1.612,0,0,0-.231.019,4.045,4.045,0,0,1-.578.051,4.829,4.829,0,0,0-.617.051,1.656,1.656,0,0,1-.232.017,9.838,9.838,0,0,0-1,.07,2.9,2.9,0,0,1-.349.014c-.31.011-.618.02-.927.056-.141.017-.284.016-.426.022q-.483.019-.967.034l-.039,0c-.411.05-.824.04-1.237.051s-.826.023-1.238.043c-.465.023-.928.025-1.393.029-.336,0-.671,0-1.007,0v0m-.036-3.422h.7c.09,0,.181,0,.271,0,.308-.023.618-.025.927-.034.426-.012.852-.012,1.278-.02.3-.006.594-.016.89-.025a9.057,9.057,0,0,1,1.043-.053c.259-.008.516-.017.773-.037s.541-.033.812-.042c.232-.008.465-.02.7-.043.167-.017.335-.029.5-.031a5.248,5.248,0,0,0,.541-.037c.178-.019.36-.033.539-.04.208-.009.412-.02.618-.05.051-.006.1-.014.153-.015.31-.012.617-.043.925-.076.282-.029.566-.045.848-.077.256-.028.516-.028.77-.078a.713.713,0,0,1,.115-.009c.363-.017.718-.088,1.079-.105a5.192,5.192,0,0,1,.578-.065c.064,0,.127-.019.191-.026s.153-.028.231-.033a4.176,4.176,0,0,0,.5-.06c.076-.012.153-.016.231-.023s.155-.011.231-.025c.152-.031.307-.04.46-.06.229-.033.457-.073.69-.088a2.562,2.562,0,0,1,.5-.07.816.816,0,0,0,.152-.026,1.321,1.321,0,0,1,.268-.04,1.691,1.691,0,0,0,.305-.046.882.882,0,0,1,.153-.025c.259-.011.508-.088.766-.1a2.546,2.546,0,0,1,.459-.073.657.657,0,0,0,.076-.014,2.265,2.265,0,0,1,.381-.059c.127-.019.254-.045.381-.068s.277-.057.418-.073c.218-.023.429-.09.649-.1.377-.088.761-.136,1.141-.212.189-.037.38-.07.569-.107.316-.062.635-.112.948-.191.446-.068.885-.174,1.325-.267.417-.087.834-.164,1.244-.276.2-.028.4-.088.6-.13s.4-.1.6-.133c.372-.105.753-.172,1.124-.28.68-.15,1.351-.333,2.024-.51q.935-.242,1.863-.508c1.049-.3,1.836-.533,3.036-.908,1.009-.315,2.01-.648,3.01-.99q2.285-.786,4.53-1.677,2.192-.869,4.345-1.832,2.19-.976,4.335-2.047c.566-.282,1.122-.58,1.668-.9.342-.2.682-.418,1-.654a5.92,5.92,0,0,0,.789-.685,3.489,3.489,0,0,0,.55-.744,3.429,3.429,0,0,0,.288-.8c.017-.178.045-.358.048-.539a5.769,5.769,0,0,0-.149-1.382,13.956,13.956,0,0,0-.4-1.412c-.212-.637-.451-1.263-.694-1.889q-.965-2.466-2.032-4.894-.621-1.418-1.28-2.817c-.693-1.471-1.409-2.929-2.16-4.37q-1.5-2.885-3.152-5.686-1.85-3.134-3.9-6.145-1.892-2.787-3.949-5.457-.767-.995-1.557-1.976-.7-.874-1.426-1.734-.872-1.039-1.768-2.055t-1.815-2.013c-.685-.738-1.376-1.471-2.08-2.188q-.937-.953-1.888-1.892c-.157-.153-.316-.305-.473-.457-.436-.423-.879-.838-1.319-1.254-.46-.434-.928-.86-1.395-1.288-.753-.688-1.52-1.359-2.292-2.026q-1.055-.911-2.134-1.795-.928-.76-1.871-1.5-1.127-.886-2.27-1.747-1.425-1.069-2.881-2.1-1.311-.928-2.645-1.821-1.478-.993-2.986-1.94c-.535-.336-1.068-.677-1.613-.995a14.609,14.609,0,0,0-2.34-1.107,10.394,10.394,0,0,0-1.561-.44,4.4,4.4,0,0,0-.493-.095,2.146,2.146,0,0,0-.343-.051c-.169-.009-.335-.026-.5-.051a1.974,1.974,0,0,0-.271-.02c-.3,0-.594,0-.89,0a2.537,2.537,0,0,0-.308.019c-.18.025-.36.045-.539.054a1.031,1.031,0,0,0-.155.016c-.139.028-.279.05-.418.073s-.279.051-.417.084a12.057,12.057,0,0,0-1.733.539,15.36,15.36,0,0,0-2.379,1.2c-.635.394-1.272.789-1.9,1.19q-2.187,1.4-4.313,2.879-1.7,1.186-3.358,2.425c-.992.744-1.974,1.5-2.941,2.272-.482.387-.969.773-1.447,1.165-.418.344-.832.694-1.246,1.045-.462.392-.925.784-1.382,1.182q-.846.739-1.678,1.492-1.65,1.495-3.242,3.051-1.288,1.26-2.534,2.56-1.483,1.553-2.917,3.155-1.134,1.272-2.227,2.58-.981,1.172-1.929,2.373-1.753,2.218-3.394,4.519-1.316,1.843-2.555,3.74-1.718,2.622-3.292,5.336-1.376,2.378-2.644,4.815-1.146,2.2-2.2,4.44-.725,1.541-1.4,3.1c-.3.688-.594,1.375-.882,2.064q-.581,1.392-1.125,2.8c-.253.649-.494,1.3-.7,1.967a10.545,10.545,0,0,0-.315,1.2c-.034.164-.068.329-.087.5a6.034,6.034,0,0,0-.009,1.159.931.931,0,0,0,.017.115,3.111,3.111,0,0,0,.437,1.068,3.867,3.867,0,0,0,.386.484,5.816,5.816,0,0,0,.787.686q.312.228.64.435c.338.212.685.412,1.035.6.635.346,1.28.669,1.929.984q1.967.955,3.964,1.838,1.769.779,3.563,1.5,3.071,1.225,6.21,2.259c.5.166,1,.325,1.506.485,1.007.319,2.019.62,3.036.91.507.144,1.017.28,1.528.417.448.119.9.24,1.344.355s.925.232,1.389.342c.377.09.752.178,1.128.27s.753.167,1.13.257c.143,0,.273.07.415.087s.3.074.454.091c.17.062.356.06.527.122.183.008.35.088.532.1.163.045.33.062.493.1.315.073.632.122.948.189.189.04.383.057.57.1s.409.057.608.116c.18.019.355.07.533.093.231.029.456.091.687.11a3.213,3.213,0,0,0,.42.071,3.815,3.815,0,0,0,.42.068.746.746,0,0,1,.152.026,1.685,1.685,0,0,0,.305.047,1.017,1.017,0,0,1,.153.023,1.7,1.7,0,0,0,.342.054.851.851,0,0,1,.153.022,1.989,1.989,0,0,0,.381.057,1.348,1.348,0,0,1,.192.031,2.262,2.262,0,0,0,.305.045.986.986,0,0,1,.192.023,1.988,1.988,0,0,0,.381.056,1.3,1.3,0,0,1,.192.026,1.717,1.717,0,0,0,.344.047c.143.008.281.043.422.065s.284.023.423.047.254.039.383.048c.09.006.18.022.27.034l.346.04c.088.011.18.019.268.033a3.545,3.545,0,0,0,.423.048,1.565,1.565,0,0,1,.192.022,4.539,4.539,0,0,0,.5.056c.09.006.18.019.27.028.141.016.282.031.423.045.076.008.155,0,.231.02a4.812,4.812,0,0,0,.615.062,2.594,2.594,0,0,1,.27.028,3.549,3.549,0,0,0,.425.04c.206.009.411.036.615.06s.437.029.657.043a.956.956,0,0,1,.115.012,4.853,4.853,0,0,0,.541.042,5.15,5.15,0,0,1,.578.042,4.564,4.564,0,0,0,.5.037c.155,0,.31.009.463.025q.4.042.812.053c.194,0,.387.006.58.025.373.036.747.048,1.12.054a6.493,6.493,0,0,1,.851.046,1.6,1.6,0,0,0,.194.009c.245.006.49.017.735.019.659,0,1.316.023,1.974.039.039,0,.077,0,.116,0a2.994,2.994,0,0,0,.425.016h.581" transform="translate(-298.696 -204.197)"/><path d="M319.228,278.2c-.026,0-.18-.039-.223-.05l-1.54-.46c-.713-.212-1.452-.434-1.754-.525-.357-.108-.718-.206-1.072-.325-.054-.017-.07-.015-.076-.031a.158.158,0,0,1,0-.033c0-.015,0-.042,0-.056,0-.077-.008-.155-.008-.232q0-.872,0-1.742V250.933q0-3.35,0-6.7,0-4.4,0-8.79,0-2.227,0-4.454a1.229,1.229,0,0,1,.023-.384.052.052,0,0,1,.06-.034.45.45,0,0,1,.174.078c.456.27.908.541,1.364.812l3.192,1.9,2.96,1.761,4.124,2.452,4.29,2.549c.133.079.263.163.4.245a.09.09,0,0,0,.132-.085c0-.039.006-.077.006-.116,0-.116,0-.232,0-.347v-8.056q0-8.424,0-16.847a3.2,3.2,0,0,1,.014-.5.082.082,0,0,1,.119-.057.325.325,0,0,1,.036.014c.034.019.068.037.1.057l2.56,1.522q1.646.981,3.292,1.96,2.094,1.246,4.189,2.492l3.227,1.919q1.878,1.116,3.758,2.235l1.162.693c.045.026.09.051.135.079a.227.227,0,0,0,.254-.008c.033-.02.067-.039.1-.059l3.391-2.016,4.223-2.515q2.111-1.255,4.223-2.512l2.827-1.68,3.092-1.841c.166-.1.332-.2.5-.3.033-.02.07-.034.1-.051a.087.087,0,0,1,.115.068c0,.1.008.206.008.308v13.089q0,6.023,0,12.045a2.576,2.576,0,0,0,.014.463c.006.028.064.065.088.054a.243.243,0,0,0,.036-.011c.531-.342,1.083-.652,1.624-.978.829-.5,1.663-.989,2.495-1.483l4.657-2.766,4.09-2.432,3.426-2.036c.054-.033.112-.065.169-.095a.083.083,0,0,1,.119.054c0,.1.009.206.009.31v5.15q0,3.215,0,6.428v11.153h0v22.617c0,.153-.008.5,0,.522-.017.017-.315.1-.412.133-1.345.4-4.33,1.275-4.333,1.268a.822.822,0,0,1,0-.112c0-.039,0-.076,0-.115,0-.143,0-.284,0-.426v-32.84q0-2.555,0-5.111a.936.936,0,0,0-.019-.308.05.05,0,0,0-.059-.036,1.032,1.032,0,0,0-.174.081c-.387.229-.776.462-1.164.693q-1.746,1.037-3.493,2.075-2.211,1.316-4.421,2.635l-2.294,1.367c-.1.059-.2.121-.294.186a.1.1,0,0,0-.036.065.474.474,0,0,0-.012.115c0,.1,0,.206,0,.31v33.459c0,.13.008.31,0,.437,0,.026-.057.029-.082.034-.122.02-1.323.214-1.489.232s-1.046.153-1.11.16c-.143.014-2.184.325-2.3.322-.023,0-.036,0-.042,0s-.008-.015-.008-.036-.012-.525-.012-.68V251.395c0-.6,0-1.189,0-1.782a.307.307,0,0,0-.022-.15.094.094,0,0,0-.062-.036.178.178,0,0,0-.109.036q-.4.235-.8.471l-7.586,4.505q-2.413,1.432-4.826,2.864c-.26.155-.271.156-.522.006l-4.26-2.528q-2.113-1.253-4.225-2.511l-4.559-2.7a.916.916,0,0,0-.274-.14.058.058,0,0,0-.062.033.081.081,0,0,0-.016.036c0,.09-.008.18-.008.27V280.63c0,.206,0,.412,0,.618a.724.724,0,0,1-.022.2c-.019.017-.327-.039-.463-.048-.088-.019-4.294-.648-4.473-.68-.026,0-.071-.082-.071-.082l-.017-.115,0-.349s0-21.2,0-31.794c0-.606,0-1.213,0-1.819a1.324,1.324,0,0,0-.016-.192.128.128,0,0,0-.036-.067.922.922,0,0,0-.126-.09q-.6-.358-1.2-.713-1.727-1.03-3.458-2.058l-4.623-2.751q-1.081-.644-2.16-1.286c-.067-.04-.133-.079-.2-.116-.094-.054-.153-.028-.156.067,0,.116,0,.232,0,.349v37.99l-.006.522Zm17.09-44.835h0v9.565c0,.141,0,.284,0,.425a.189.189,0,0,0,.091.161q.079.054.163.1c.367.215.736.428,1.1.646q2.857,1.7,5.711,3.413,3.106,1.857,6.211,3.71c.1.06.2.118.3.177a.137.137,0,0,0,.146,0c.112-.064.223-.127.335-.192l3.254-1.943,4.817-2.878c1.018-.607,2.035-1.22,3.053-1.827.477-.285.956-.563,1.433-.845q.3-.179.6-.36a.2.2,0,0,0,.112-.189c0-.143,0-.284,0-.426V227.076q0-.93,0-1.858c0-.594,0-1.189,0-1.782,0-.051-.006-.1-.011-.153a.076.076,0,0,0-.116-.053c-.045.025-.091.048-.135.074q-1.816,1.072-3.631,2.146-1.365.809-2.729,1.616l-3.563,2.109-3.1,1.833c-.112.065-.225.126-.338.188a.111.111,0,0,1-.11,0c-.081-.042-.161-.084-.239-.13-.632-.373-1.265-.75-1.9-1.124l-5.96-3.527-4.892-2.9c-.133-.079-.267-.158-.4-.236-.034-.02-.07-.034-.105-.051a.068.068,0,0,0-.09.04,2.438,2.438,0,0,0-.014.463q0,4.819,0,9.641" transform="translate(-289.986 -198.622)"/><path d="M325.332,256.821l0,.349,0,.178.093.019.177.033,4.342.651.418.06h.016v-.46" transform="translate(-284.053 -175.269)"/></svg>