<svg xmlns="http://www.w3.org/2000/svg" width="256" height="24" viewBox="0 0 256 24"><path d="M-442.107,300.986l11.577,11.079,11.578-11.079v19.1h4.031V297.127h-4.162l-11.447,10.955-11.447-10.955h-4.162v22.956h4.032Zm51.122-3.859-13.528,22.956h4.3l2.712-4.7h17.2l2.712,4.7h4.3l-13.527-22.956Zm9.475,16.172H-396.3l7.4-12.8Zm35.94-16.172L-355.6,308.082l-10.035-10.955h-4.535l12.424,13.562v9.394h4.29v-9.394l12.424-13.562Zm36.514,10.3a5.42,5.42,0,0,0,2.364-4.3c0-3.314-3.5-6-7.8-6H-330.63v22.956H-311.9c4.6,0,8.326-2.92,8.326-6.521,0-2.821-2.285-5.224-5.484-6.134m-3.881,1.7c2.874,0,5.2,1.984,5.2,4.436s-2.329,4.433-5.2,4.433h-13.531v-8.869Zm-13.531-9.911h10.93c2.587,0,4.684,1.751,4.684,3.912s-2.1,3.913-4.684,3.913h-10.93Zm44.753-2.088-13.53,22.956h4.3l2.713-4.7h17.2l2.712,4.7h4.3l-13.53-22.956ZM-287.03,313.3l7.391-12.8,7.4,12.8Zm57.862-15.129a33.942,33.942,0,0,0-10.4-1.565c-9.772,0-17.69,5.372-17.69,12s7.917,12,17.69,12a34,34,0,0,0,10.4-1.569V316.62a27.783,27.783,0,0,1-10.4,1.9c-7.329,0-13.269-4.441-13.269-9.915s5.939-9.912,13.269-9.912a27.827,27.827,0,0,1,10.4,1.9Zm15.092-1.043h-4.162v22.956h4.162V309.128h19.771v10.955h4.166V297.127h-4.166v9.913h-19.771Z" transform="translate(446.139 -296.606)"/></svg>