<svg xmlns="http://www.w3.org/2000/svg" xmlns:xlink="http://www.w3.org/1999/xlink" width="160" height="50" viewBox="0 0 160 50"><defs><clipPath id="a"><rect width="8" height="18" transform="translate(909 2414)" fill="#fff" stroke="#707070" stroke-width="1"/></clipPath><clipPath id="b"><rect width="8" height="21" transform="translate(1064 2414)" fill="#fff" stroke="#707070" stroke-width="1"/></clipPath><clipPath id="c"><rect width="14" height="8" transform="translate(984 2432)" fill="#fff" stroke="#707070" stroke-width="1"/></clipPath><clipPath id="d"><rect width="19" height="8" transform="translate(981 2408)" fill="#fff" stroke="#707070" stroke-width="1"/></clipPath></defs><g transform="translate(-896 -2400)"><text transform="translate(944 2448)" fill="#009bd5" font-size="11" font-family="Arial-BoldMT, Arial" font-weight="700"><tspan x="0" y="0">1/2 B PADDING</tspan></text><g transform="translate(136 -664)"><g transform="translate(768 3071.5)"><rect width="5.36" height="1.2" transform="translate(92.341 9.167)"/><path d="M16.208,14.192,15.95,2.457V2.263c0-1.1.387-1.29,2-1.419V.264c-.9.064-1.291.064-1.873.064A16.589,16.589,0,0,1,13.754.2L9.234,12.322,4.714.264c-.9.064-1.356.129-2.26.129-.646,0-1.033,0-1.937-.064v.58c1.679.064,2,.322,2,1.419v.129L1.937,14.192C1.873,15.482,1.679,15.675,0,15.8v.58c1.227-.064,1.743-.129,2.389-.129a18.939,18.939,0,0,1,2.389.129V15.8c-1.679-.129-2-.322-2-1.419v-.193L3.293,1.683h0L7.232,12.322l.258.838.646,1.87.258.774h.387l.258-.774.323-.9.323-.9.258-.774,3.939-10.7.194,12.38v.129c0,1.1-.387,1.419-2,1.483v.58c1.485-.129,2.066-.193,2.97-.193s1.485.064,2.97.193v-.58C16.4,15.611,16.208,15.482,16.208,14.192Z" transform="translate(0 -0.074)"/><path d="M35.037,18.06h0c-2.2,0-3.164-1.642-3.164-5.3H39.04c-.065-3.6-1.55-5.556-4.391-5.556C31.744,7.2,30,9.473,30,13.072s1.808,5.746,4.908,5.746a4.05,4.05,0,0,0,4.2-3.851h-.969C37.749,16.923,36.716,18.06,35.037,18.06ZM34.585,7.768c1.55,0,2.325,1.326,2.518,4.1H31.937C32.131,9.22,33.035,7.768,34.585,7.768Z" transform="translate(-10.628 -2.318)"/><path d="M52.3,7.063a2.975,2.975,0,0,0-2.777,2.084V8.894C49.458,8.2,49.393,7.821,49.264,7a17.781,17.781,0,0,1-3.164.568V8.01h.323c1.227,0,1.356.126,1.421,1.137v7.64c0,1.01-.258,1.2-1.743,1.263v.442a22.479,22.479,0,0,1,2.712-.126,22.033,22.033,0,0,1,2.648.126v-.442c-1.485-.063-1.679-.253-1.679-1.263V11.862c0-2.336.775-3.788,2.066-3.788.452,0,.71.253.71.568v.189l-.065.253c0,.063-.065.189-.065.253a.924.924,0,0,0,.969.821A1.043,1.043,0,0,0,54.43,9.02,2.023,2.023,0,0,0,52.3,7.063Z" transform="translate(-16.331 -2.244)"/><path d="M65.208,17.949c-1.873,0-2.777-1.642-2.777-4.925,0-3.346,1.033-5.241,2.841-5.241,1.485,0,2.325,1.01,2.777,3.031h.517V6.9h-.387l-.646,1.2a3.087,3.087,0,0,0-2.454-1.01c-2.841,0-4.778,2.4-4.778,5.872,0,3.41,1.873,5.746,4.649,5.746,2.131,0,3.552-1.389,3.81-3.851h-.9C67.6,16.813,66.693,17.949,65.208,17.949Z" transform="translate(-21.362 -2.207)"/><path d="M81.337,18.06h0c-2.2,0-3.164-1.642-3.164-5.3H85.34c-.065-3.6-1.55-5.556-4.391-5.556-2.906,0-4.649,2.273-4.649,5.872s1.808,5.746,4.908,5.746a4.05,4.05,0,0,0,4.2-3.851h-.969C84.113,16.923,83.016,18.06,81.337,18.06ZM80.885,7.768c1.55,0,2.325,1.326,2.518,4.1H78.237C78.431,9.22,79.335,7.768,80.885,7.768Z" transform="translate(-27.03 -2.318)"/><path d="M102.434,13.793V0a21.144,21.144,0,0,1-3.616.645v.387c1.485,0,1.679.193,1.679,1.418V6.639c-.9-1.418-1.614-1.869-2.906-1.869-2.583,0-4.391,2.449-4.391,5.865S95.008,16.5,97.656,16.5a3.127,3.127,0,0,0,2.97-1.934,6.739,6.739,0,0,0,.323,1.934,12.983,12.983,0,0,1,2.777-.58l.387-.064v-.387C102.563,15.4,102.434,15.211,102.434,13.793Zm-4.52,2c-1.743,0-2.648-1.8-2.648-5.221,0-3.48.839-5.156,2.583-5.156s2.712,1.8,2.712,5.35C100.561,14.115,99.657,15.791,97.914,15.791Z" transform="translate(-33.017)"/><path d="M116.737,18.06h0c-2.2,0-3.164-1.642-3.164-5.3h7.168c-.065-3.6-1.55-5.556-4.391-5.556-2.906,0-4.649,2.273-4.649,5.872s1.808,5.746,4.908,5.746a4.05,4.05,0,0,0,4.2-3.851h-.969C119.578,16.923,118.416,18.06,116.737,18.06Zm-.387-10.292c1.55,0,2.325,1.326,2.518,4.1H113.7C113.831,9.22,114.8,7.768,116.349,7.768Z" transform="translate(-39.571 -2.318)"/><path d="M134.13,12.33l-1.033-.442c-2.2-.947-2.518-1.263-2.518-2.21a2.1,2.1,0,0,1,2.26-1.957c1.485,0,2.325.884,2.518,2.778h.581V6.9h-.452l-.387.947a3.892,3.892,0,0,0-2.454-.758c-2.131,0-3.616,1.263-3.616,3.094,0,1.389.581,2.02,2.325,2.841l1.1.505.9.379c1.162.505,1.614,1.073,1.614,1.831a2.221,2.221,0,0,1-2.454,2.084c-1.679,0-2.712-1.01-3.1-3.157H128.9v3.915h.452l.581-1.073a4.4,4.4,0,0,0,2.906,1.01c2.26,0,3.874-1.389,3.874-3.346C136.649,13.908,136,13.088,134.13,12.33Z" transform="translate(-45.664 -2.207)"/><path d="M162.067,8.591a4.556,4.556,0,0,0-1.873-.774,3.616,3.616,0,0,0,2.648-3.547h0a3.794,3.794,0,0,0-1.421-3.031A5.285,5.285,0,0,0,158.128.4H151.8V.98c1.743.064,1.937.258,1.937,1.612V14.2c0,1.29-.194,1.483-1.937,1.612v.58h6.07a6.336,6.336,0,0,0,3.745-.838,4.5,4.5,0,0,0,2-3.741A4.2,4.2,0,0,0,162.067,8.591Zm-6.328-7.481h2.066c2,0,2.906.967,2.906,3.225a3.781,3.781,0,0,1-.775,2.515c-.517.58-1.162.774-2.518.774H155.8V1.109Zm2.454,14.511h-.839c-1.291,0-1.485-.193-1.485-1.225v-6h2.26a3.033,3.033,0,0,1,2.518.774,3.9,3.9,0,0,1,.839,2.709C161.422,14.331,160.259,15.621,158.193,15.621Z" transform="translate(-53.777 -0.147)"/><path d="M178.137,18.06h0c-2.2,0-3.164-1.642-3.164-5.3h7.168c-.065-3.6-1.55-5.556-4.391-5.556-2.906,0-4.649,2.273-4.649,5.872s1.808,5.746,4.908,5.746a4.05,4.05,0,0,0,4.2-3.851h-.969C180.913,16.923,179.945,18.06,178.137,18.06Zm-.387-10.292c1.55,0,2.325,1.326,2.518,4.1H175.1C175.3,9.22,176.2,7.768,177.749,7.768Z" transform="translate(-61.322 -2.318)"/><path d="M199.3,16.787V11.167a4.633,4.633,0,0,0-.387-2.084,3.348,3.348,0,0,0-3.164-1.894,3.574,3.574,0,0,0-3.229,1.831A12.135,12.135,0,0,0,192.264,7a15.778,15.778,0,0,1-3.164.695v.379h.323c1.227,0,1.356.126,1.356,1.073v7.577c0,1.01-.258,1.2-1.679,1.263v.442a26.48,26.48,0,0,1,5.166,0v-.442c-1.227-.063-1.55-.253-1.55-1.2V11.1c0-1.894.839-2.9,2.518-2.9,1.55,0,2.131.821,2.131,2.841v5.746c0,.947-.323,1.2-1.614,1.2v.442a26.48,26.48,0,0,1,5.166,0v-.442C199.5,17.986,199.3,17.8,199.3,16.787Z" transform="translate(-66.991 -2.244)"/><path d="M214.224,17.981h-2.777L217.97,7.5H209.7l-.581,3.031h.452c.839-2.084,1.227-2.462,2.777-2.462h2.97L208.8,18.549h8.265l.646-3.346h-.517C216.484,17.35,215.839,17.981,214.224,17.981Z" transform="translate(-73.97 -2.428)"/></g><g transform="translate(760 3064)" fill="none" stroke="#00b1f2" stroke-width="1" stroke-dasharray="2 2"><rect width="160" height="32" stroke="none"/><rect x="0.5" y="0.5" width="159" height="31" fill="none"/></g></g><g transform="translate(-13 -8)" clip-path="url(#a)"><path d="M153.35,8.591a4.556,4.556,0,0,1,1.873-.774,3.616,3.616,0,0,1-2.648-3.547h0A3.794,3.794,0,0,1,154,1.238,5.285,5.285,0,0,1,157.289.4h6.328V.98c-1.744.064-1.937.258-1.937,1.612V14.2c0,1.29.194,1.483,1.937,1.612v.58h-6.07a6.336,6.336,0,0,1-3.745-.838,4.5,4.5,0,0,1-2-3.741A4.2,4.2,0,0,1,153.35,8.591Zm6.328-7.482h-2.066c-2,0-2.906.967-2.906,3.225a3.781,3.781,0,0,0,.775,2.515c.517.58,1.162.774,2.518.774h1.614V1.109Zm-2.454,14.512h.839c1.292,0,1.485-.193,1.485-1.225v-6h-2.26a3.033,3.033,0,0,0-2.518.774,3.9,3.9,0,0,0-.839,2.709C154,14.331,155.158,15.621,157.224,15.621Z" transform="translate(753.383 2415.605)" fill="rgba(0,155,213,0.6)"/></g><g transform="translate(-16 -8)" clip-path="url(#b)"><path d="M162.067,8.591a4.556,4.556,0,0,0-1.873-.774,3.616,3.616,0,0,0,2.648-3.547h0a3.794,3.794,0,0,0-1.421-3.031A5.285,5.285,0,0,0,158.128.4H151.8V.98c1.743.064,1.937.258,1.937,1.612V14.2c0,1.29-.194,1.483-1.937,1.612v.58h6.07a6.336,6.336,0,0,0,3.745-.838,4.5,4.5,0,0,0,2-3.741A4.2,4.2,0,0,0,162.067,8.591Zm-6.328-7.481h2.066c2,0,2.906.967,2.906,3.225a3.781,3.781,0,0,1-.775,2.515c-.517.58-1.162.774-2.518.774H155.8V1.109Zm2.454,14.511h-.839c-1.291,0-1.485-.193-1.485-1.225v-6h2.26a3.033,3.033,0,0,1,2.518.774,3.9,3.9,0,0,1,.839,2.709C161.422,14.331,160.259,15.621,158.193,15.621Z" transform="translate(912.2 2415.605)" fill="rgba(0,155,213,0.6)"/></g><g transform="translate(-16 -8)" clip-path="url(#c)"><path d="M162.067,8.591a4.556,4.556,0,0,0-1.873-.774,3.616,3.616,0,0,0,2.648-3.547h0a3.794,3.794,0,0,0-1.421-3.031A5.285,5.285,0,0,0,158.128.4H151.8V.98c1.743.064,1.937.258,1.937,1.612V14.2c0,1.29-.194,1.483-1.937,1.612v.58h6.07a6.336,6.336,0,0,0,3.745-.838,4.5,4.5,0,0,0,2-3.741A4.2,4.2,0,0,0,162.067,8.591Zm-6.328-7.481h2.066c2,0,2.906.967,2.906,3.225a3.781,3.781,0,0,1-.775,2.515c-.517.58-1.162.774-2.518.774H155.8V1.109Zm2.454,14.511h-.839c-1.291,0-1.485-.193-1.485-1.225v-6h2.26a3.033,3.033,0,0,1,2.518.774,3.9,3.9,0,0,1,.839,2.709C161.422,14.331,160.259,15.621,158.193,15.621Z" transform="translate(832.2 2431.605)" fill="rgba(0,155,213,0.6)"/></g><g transform="translate(-16 -8)" clip-path="url(#d)"><path d="M162.067,8.591a4.556,4.556,0,0,0-1.873-.774,3.616,3.616,0,0,0,2.648-3.547h0a3.794,3.794,0,0,0-1.421-3.031A5.285,5.285,0,0,0,158.128.4H151.8V.98c1.743.064,1.937.258,1.937,1.612V14.2c0,1.29-.194,1.483-1.937,1.612v.58h6.07a6.336,6.336,0,0,0,3.745-.838,4.5,4.5,0,0,0,2-3.741A4.2,4.2,0,0,0,162.067,8.591Zm-6.328-7.481h2.066c2,0,2.906.967,2.906,3.225a3.781,3.781,0,0,1-.775,2.515c-.517.58-1.162.774-2.518.774H155.8V1.109Zm2.454,14.511h-.839c-1.291,0-1.485-.193-1.485-1.225v-6h2.26a3.033,3.033,0,0,1,2.518.774,3.9,3.9,0,0,1,.839,2.709C161.422,14.331,160.259,15.621,158.193,15.621Z" transform="translate(832.2 2399.6)" fill="rgba(0,155,213,0.6)"/></g></g></svg>