<svg xmlns="http://www.w3.org/2000/svg" width="14.127" height="24" viewBox="0 0 14.127 24"><defs><style>.a{fill:#717171;}</style></defs><g transform="translate(-3118.814 -313.573)"><rect class="a" width="1" height="1" transform="translate(3125.387 334.573)"/><path class="a" d="M3130.458,313.573H3121.3a2.486,2.486,0,0,0-2.483,2.483V335.09a2.486,2.486,0,0,0,2.483,2.483h9.161a2.486,2.486,0,0,0,2.483-2.483V316.056A2.486,2.486,0,0,0,3130.458,313.573Zm-9.161,1h9.161a1.485,1.485,0,0,1,1.483,1.483v.255h-12.127v-.255A1.485,1.485,0,0,1,3121.3,314.573Zm10.644,2.738v15.275h-12.127V317.311Zm-1.483,19.262H3121.3a1.485,1.485,0,0,1-1.483-1.483v-1.5h12.127v1.5A1.485,1.485,0,0,1,3130.458,336.573Z"/></g></svg>