<?xml version="1.0" encoding="UTF-8"?>
<svg width="15px" height="24px" viewBox="0 0 15 24" version="1.1" xmlns="http://www.w3.org/2000/svg" xmlns:xlink="http://www.w3.org/1999/xlink">
    <!-- Generator: Sketch 63.1 (92452) - https://sketch.com -->
    <title>Combined Shape</title>
    <desc>Created with Sketch.</desc>
    <g id="Page-1" stroke="none" stroke-width="1" fill="none" fill-rule="evenodd">
        <g id="mobile" fill="#FFFFFF" fill-rule="nonzero">
            <path d="M11.644,0 C13.0158092,0 14.1283446,1.11119183 14.13,2.483 L14.13,2.483 L14.13,21.517 C14.128347,22.8876377 13.0176377,23.998347 11.647,24 L11.647,24 L2.486,24 C1.11536226,23.998347 0.00465303225,22.8876377 0.003,21.517 L0.003,21.517 L0.003,2.483 C0.00465303225,1.11236226 1.11536226,0.00165303224 2.486,0 L2.486,0 Z M13.13,20.017 L1.003,20.017 L1.003,21.517 C1.00410173,22.3355815 1.6674185,22.9988983 2.486,23.0000003 L2.486,23.0000003 L11.644,23.0000003 C12.4637528,23.0005528 13.1288961,22.3367523 13.13,21.517 L13.13,21.517 L13.13,20.017 Z M7.573,21 L7.573,22 L6.573,22 L6.573,21 L7.573,21 Z M13.127,3.738 L1,3.738 L1,19.013 L13.127,19.013 L13.127,3.738 Z M11.644,0.999999655 L2.486,0.999999655 C1.66624717,0.999447235 1.00110386,1.66324773 1,2.483 L1,2.483 L1,2.738 L13.127,2.738 L13.127,2.483 C13.1258983,1.6644185 12.4625815,1.00110173 11.644,0.999999655 L11.644,0.999999655 Z" id="Combined-Shape"></path>
        </g>
    </g>
</svg>