<svg xmlns="http://www.w3.org/2000/svg" width="194.399" height="375.123" viewBox="0 0 194.399 375.123"><g transform="translate(-623 -240.877)"><g transform="translate(12 -21.269)"><path d="M4443.03,3868.492v346.07a14.543,14.543,0,0,0,14.527,14.527H4622.9a14.542,14.542,0,0,0,14.524-14.527v-346.07a14.542,14.542,0,0,0-14.524-14.526H4457.557A14.543,14.543,0,0,0,4443.03,3868.492Z" transform="translate(-3832.03 -3591.82)" opacity="0.15"/><rect width="178" height="318" transform="translate(619 283)" fill="#fff"/><path d="M10.59,0A10.59,10.59,0,1,1,0,10.59,10.59,10.59,0,0,1,10.59,0Z" transform="translate(697.666 608.42)" fill="#fff"/><path d="M7664.7,4081.331a1.826,1.826,0,1,0-1.826-1.826A1.828,1.828,0,0,0,7664.7,4081.331Z" transform="translate(-6982.299 -3807.356)" fill="#fff"/><path d="M7686.563,4081.331h36.505a1.826,1.826,0,1,0,0-3.653h-36.505a1.826,1.826,0,0,0,0,3.653Z" transform="translate(-6993.729 -3807.356)" fill="#fff"/><rect width="30" height="248" transform="translate(631 319)" fill="aqua"/><rect width="30" height="248" transform="translate(673 319)" fill="aqua"/><rect width="30" height="248" transform="translate(714 319)" fill="aqua"/><rect width="31" height="248" transform="translate(756 319)" fill="aqua"/><g transform="translate(661.135 570.939)"><line x2="10.98" transform="translate(0 1.91)" fill="none" stroke="#707070" stroke-width="1"/><line y2="3.819" transform="translate(0 0)" fill="none" stroke="#707070" stroke-width="1"/><line y2="3.819" transform="translate(10.98 0)" fill="none" stroke="#707070" stroke-width="1"/></g><g transform="translate(703.146 570.939)"><line x2="10.98" transform="translate(0 1.91)" fill="none" stroke="#707070" stroke-width="1"/><line y2="3.819" transform="translate(0 0)" fill="none" stroke="#707070" stroke-width="1"/><line y2="3.819" transform="translate(10.98 0)" fill="none" stroke="#707070" stroke-width="1"/></g><g transform="translate(745.154 570.939)"><line x2="10.98" transform="translate(0 1.91)" fill="none" stroke="#707070" stroke-width="1"/><line y2="3.819" transform="translate(0 0)" fill="none" stroke="#707070" stroke-width="1"/><line y2="3.819" transform="translate(10.98 0)" fill="none" stroke="#707070" stroke-width="1"/></g><g transform="translate(631 311.244)"><line x2="29.656" transform="translate(0 1.91)" fill="none" stroke="#707070" stroke-width="1"/><line y2="3.819" transform="translate(0 0)" fill="none" stroke="#707070" stroke-width="1"/><line y2="3.819" transform="translate(29.656 0)" fill="none" stroke="#707070" stroke-width="1"/></g><g transform="translate(672.592 311.244)"><line x2="30.075" transform="translate(0 1.91)" fill="none" stroke="#707070" stroke-width="1"/><line y2="3.819" transform="translate(0 0)" fill="none" stroke="#707070" stroke-width="1"/><line y2="3.819" transform="translate(30.075 0)" fill="none" stroke="#707070" stroke-width="1"/></g><g transform="translate(714.601 311.244)"><line x2="30.075" transform="translate(0 1.91)" fill="none" stroke="#707070" stroke-width="1"/><line y2="3.819" transform="translate(0 0)" fill="none" stroke="#707070" stroke-width="1"/><line y2="3.819" transform="translate(30.075 0)" fill="none" stroke="#707070" stroke-width="1"/></g><g transform="translate(756.61 311.244)"><line x2="30.075" transform="translate(0 1.91)" fill="none" stroke="#707070" stroke-width="1"/><line y2="3.819" transform="translate(0 0)" fill="none" stroke="#707070" stroke-width="1"/><line y2="3.819" transform="translate(30.075 0)" fill="none" stroke="#707070" stroke-width="1"/></g><text transform="translate(642 307)" font-size="7" font-family="CorporateS-Bold, CorpoS" font-weight="700" opacity="0"><tspan x="0" y="0">40</tspan></text><text transform="translate(662 584)" font-size="7" font-family="CorporateS-Bold, CorpoS" font-weight="700" opacity="0"><tspan x="0" y="0">16</tspan></text><text transform="translate(642 307)" font-size="7" font-family="CorporateS-Bold, CorpoS" font-weight="700" opacity="0.001"><tspan x="0" y="0">80</tspan></text><text transform="translate(638 307)" font-size="12" font-family="Arial-BoldMT, Arial" font-weight="700"><tspan x="0" y="0">64</tspan></text><text transform="translate(660 589)" font-size="12" font-family="Arial-BoldMT, Arial" font-weight="700"><tspan x="0" y="0">24</tspan></text></g></g></svg>