<svg xmlns="http://www.w3.org/2000/svg" width="15.478" height="16" viewBox="0 0 15.478 16">
  <g id="molec" opacity="0.3">
    <ellipse id="Ellipse_686" data-name="Ellipse 686" cx="2.251" cy="2.251" rx="2.251" ry="2.251" transform="translate(9.006 2.934)"/>
    <path id="Path_2249" data-name="Path 2249" d="M355.062,141.16a3.2,3.2,0,0,0-2.111.79l-.018.016-.065.059h0c-1.672,1.631-5.076,3.272-7.7,1.934l-.029-.013a1.607,1.607,0,1,0,.177,2.767h0c1.572-.908,6.85-.154,8.384.576.03.014.059.027.086.039a3.216,3.216,0,1,0,1.282-6.167Z" transform="translate(-342.8 -131.593)"/>
    <path id="Path_2250" data-name="Path 2250" d="M358.965,26.447c.019.022.095.1.113.12,1.512,1.57,2.353,2.792,1.75,3.888a1.929,1.929,0,1,0,2.75-.641h0c-1.6-1.122-.844-2.943-.359-3.969h0a2.573,2.573,0,1,0-4.253.6Z" transform="translate(-357.072 -22.17)"/>
  </g>
</svg>
