<?xml version="1.0" encoding="UTF-8"?>
<svg width="128px" height="128px" viewBox="0 0 128 128" version="1.1" xmlns="http://www.w3.org/2000/svg" xmlns:xlink="http://www.w3.org/1999/xlink">
    <!-- Generator: Sketch 55.2 (78181) - https://sketchapp.com -->
    <title>Slice</title>
    <desc>Created with Sketch.</desc>
    <g id="Page-1" stroke="none" stroke-width="1" fill="none" fill-rule="evenodd">
        <g id="money">
            <g id="Group" transform="translate(23.028000, 8.000000)" fill="#000000" fill-rule="nonzero">
                <path d="M41.398,63.351 C31.573,61.163 32.777,55.23 32.825,54.972 C32.8496903,54.846807 32.862746,54.7195983 32.864,54.592 C32.9721257,53.1433037 33.5891831,51.7795431 34.606,50.742 C36.3919999,49.0939872 38.7734234,48.2466006 41.199,48.396 C48.148,48.396 49.237,53.488 49.28,53.696 C49.4257514,54.4715637 50.0228384,55.0838279 50.7945001,55.2489967 C51.5661618,55.4141655 52.361555,55.099952 52.812,54.452 C53.1045027,54.031564 53.2174963,53.5119372 53.126,53.008 C52.666,50.473 49.984,45.508 43.132,44.692 L43.132,40.419 C43.1079842,39.3578782 42.2408936,38.5101899 41.1795,38.5101899 C40.1181064,38.5101899 39.2510158,39.3578782 39.227,40.419 L39.227,44.664 C36.4465839,44.8613283 33.8276994,46.043833 31.841,47.999 C30.1238368,49.7033464 29.0988933,51.9833738 28.964,54.399 C28.826,55.42 27.808,64.288 40.54,67.129 C50.311,69.307 49.331,75.417 49.286,75.666 C49.258879,75.7938765 49.2454699,75.9242802 49.246,76.055 C49.1378726,77.505761 48.5196966,78.8714163 47.501,79.91 C46.049,81.349 43.773,82.079 40.736,82.079 C33.778,82.079 32.87,77.153 32.827,76.938 C32.7323915,76.4282206 32.4355286,75.9784175 32.004,75.691 C31.585272,75.3981398 31.0656335,75.2877166 30.564,75.385 C30.05469,75.4744394 29.6015992,75.7621161 29.304,76.185 C29.0048701,76.6048515 28.8883613,77.1278786 28.981,77.635 C29.457,80.261 32.074,85.179 39.226,85.835 L39.226,90.056 C39.2500158,91.1171218 40.1171064,91.9648101 41.1785,91.9648101 C42.2398936,91.9648101 43.1069842,91.1171218 43.131,90.056 L43.131,85.769 C45.7945412,85.5588523 48.3098673,84.4584633 50.272,82.645 C51.9714602,80.9287496 52.9923326,78.655408 53.146,76.245 C53.3756112,74.2039502 52.9926967,72.1407372 52.046,70.318 C50.264,66.873 46.681,64.528 41.398,63.351 Z" id="Path"></path>
                <path d="M48.973,-1.18563882e-07 L17.894,-1.18563882e-07 C13.4133513,-1.18563882e-07 9.11603685,1.77902844 5.94755223,4.94713798 C2.77906761,8.11524752 0.999,12.4123513 0.999,16.893 L0.999,95.107 C0.999,104.436746 8.56225372,112 17.892,112 L64.106,112 C68.5863022,112 72.8831028,110.220207 76.0511549,107.052155 C79.2192069,103.884103 80.999,99.5873022 80.999,95.107 L80.999,32.039 L48.973,-1.18563882e-07 Z M48.973,5.658 L75.344,32.038 L59.011,32.038 C53.4699069,32.0313877 48.9796123,27.5410931 48.973,22 L48.973,5.658 Z M76.999,95.107 C76.991284,102.224409 71.2234088,107.992284 64.106,108 L17.892,108 C10.7748194,107.991734 5.00726587,102.224181 4.999,95.107 L4.999,16.893 C5.00726587,9.77581937 10.7748194,4.00826587 17.892,4 L44.971,4 L44.971,22 C44.9798173,29.7493181 51.2596819,36.0291827 59.009,36.038 L76.999,36.038 L76.999,95.107 Z" id="Shape"></path>
            </g>
            <rect id="Rectangle" x="0" y="0" width="128" height="128"></rect>
        </g>
    </g>
</svg>