<svg xmlns="http://www.w3.org/2000/svg" width="16" height="16" viewBox="0 0 16 16">
  <g id="organ" opacity="0.3">
    <path id="Path_2251" data-name="Path 2251" d="M742.15,158.66a2.238,2.238,0,0,0-1.839.96h0a1.166,1.166,0,0,1-2.054.044l-.018-.028-.01-.016h0a2.24,2.24,0,0,0-3.677,0h0a1.166,1.166,0,0,1-2.054.044l-.018-.028-.01-.016h0a2.24,2.24,0,1,0,0,2.558h0l.01-.016c.006-.009.013-.018.018-.028a1.166,1.166,0,0,1,2.054.044h0a2.24,2.24,0,0,0,3.677,0h0l.01-.016c.006-.009.013-.018.018-.028a1.166,1.166,0,0,1,2.054.044h0a2.24,2.24,0,1,0,1.839-3.52Z" transform="translate(-728.39 -147.14)"/>
    <ellipse id="Ellipse_687" data-name="Ellipse 687" cx="2.24" cy="2.24" rx="2.24" ry="2.24" transform="translate(11.52 5.76)"/>
    <ellipse id="Ellipse_688" data-name="Ellipse 688" cx="2.24" cy="2.24" rx="2.24" ry="2.24" transform="translate(5.76 5.76)"/>
    <ellipse id="Ellipse_689" data-name="Ellipse 689" cx="2.24" cy="2.24" rx="2.24" ry="2.24" transform="translate(0 5.76)"/>
    <path id="Path_2252" data-name="Path 2252" d="M730.63,19.14a2.236,2.236,0,0,0,1.839-.961h0l.01-.016a.312.312,0,0,0,.018-.028,1.166,1.166,0,0,1,2.054.044h0a2.24,2.24,0,0,0,3.677,0h0l.01-.016c.006-.009.013-.018.018-.028a1.166,1.166,0,0,1,2.054.044h0a2.24,2.24,0,1,0,0-2.56h0a1.166,1.166,0,0,1-2.054.044l-.018-.028-.01-.016h0a2.24,2.24,0,0,0-3.677,0h0a1.166,1.166,0,0,1-2.054.044l-.018-.028-.01-.016h0a2.24,2.24,0,1,0-1.839,3.519Z" transform="translate(-728.39 -14.66)"/>
  </g>
</svg>
