<svg xmlns="http://www.w3.org/2000/svg" width="240" height="240" viewBox="0 0 240 240"><defs><style>.a{fill:none;}.b{fill:#c7c7c7;}.c{fill:#fff;}</style></defs><path class="a" d="M60,0,0,60H0L60,0Z"/><path class="a" d="M84,0,0,84H0L84,0Z"/><path class="b" d="M12,0,0,12V36L36,0Z"/><path class="b" d="M60,0,0,60V84L84,0Z"/><path class="b" d="M120,12,132,0H108L0,108v24l12-12Z"/><path class="b" d="M120,60,180,0H156L120,36h0L36,120,0,156v24l60-60Z"/><path class="b" d="M108,120l12-12h0L228,0H204L120,84h0L84,120h0L0,204v24L108,120Z"/><path class="b" d="M245,233l-12,12L125,353h24l84-84h0l36-36,84-84V125Z" transform="translate(-113.003 -113.003)"/><path class="b" d="M745.006,685l-60,60h0l-60,60h24l36-36h0l84-84h0l36-36v-24l-60,60Z" transform="translate(-565.005 -565.005)"/><path class="b" d="M1245.006,1137.007l-108,108h0l-12,12h24l108-108v-24l-12,12Z" transform="translate(-1017.007 -1017.007)"/><path class="b" d="M1649,1709l60-60v-24l-84,84Z" transform="translate(-1468.999 -1468.999)"/><path class="b" d="M2149,2161l12-12v-24l-36,36Z" transform="translate(-1921.001 -1921.001)"/><path class="c" d="M0,0V12L12,0Z"/><path class="c" d="M36,0,0,36V60L60,0Z"/><path class="c" d="M84,0,0,84v24L108,0Z"/><path class="c" d="M120,36h0L156,0H132L120,12,12,120,0,132v24l36-36Z"/><path class="c" d="M84,120l36-36h0L204,0H180L120,60,60,120,0,180H0v24H0l84-84Z"/><path class="c" d="M228,0,120,108h0l-12,12h0L0,228v12H12L120,132l12-12L240,12V0Z"/><path class="c" d="M459,495h0l-84,84h24l60-60h0l60-60h0l60-60V375l-84,84Z" transform="translate(-338.999 -338.999)"/><path class="c" d="M995,911h0l-84,84h0l-36,36h24l12-12h0l108-108h0l12-12V875l-36,36Z" transform="translate(-791.001 -791.001)"/><path class="c" d="M1399,1483l84-84v-24l-108,108Z" transform="translate(-1243.003 -1243.003)"/><path class="c" d="M1899,1935l36-36v-24l-60,60Z" transform="translate(-1695.005 -1695.005)"/><path class="c" d="M2387.007,2387.006v-12l-12,12Z" transform="translate(-2147.007 -2147.006)"/></svg>