<svg xmlns="http://www.w3.org/2000/svg" width="389.938" height="560.967" viewBox="0 0 389.938 560.967"><g transform="translate(-524.554 -169.371)"><path d="M4380.031,3875.689V4393.21a21.747,21.747,0,0,0,21.723,21.723h346.5a21.746,21.746,0,0,0,21.719-21.723V3875.689a21.746,21.746,0,0,0-21.719-21.723h-346.5A21.747,21.747,0,0,0,4380.031,3875.689Z" transform="translate(-3855.477 -3684.595)" opacity="0.15"/><rect width="367" height="490" transform="translate(536 194)" fill="#fff"/><path d="M6333.578,3886.923a5.876,5.876,0,1,1-5.875,5.876A5.878,5.878,0,0,1,6333.578,3886.923Z" transform="translate(-5614.107 -3711.19)" fill="#fff"/><rect width="19" height="400" transform="translate(563 240)" fill="aqua"/><rect width="19" height="400" transform="translate(589 240)" fill="aqua"/><rect width="19" height="400" transform="translate(615 240)" fill="aqua"/><rect width="18" height="400" transform="translate(642 240)" fill="aqua"/><rect width="19" height="400" transform="translate(669 240)" fill="aqua"/><rect width="19" height="400" transform="translate(696 240)" fill="aqua"/><rect width="19" height="400" transform="translate(722 240)" fill="aqua"/><rect width="19" height="400" transform="translate(749 240)" fill="aqua"/><rect width="19" height="400" transform="translate(776 240)" fill="aqua"/><rect width="19" height="400" transform="translate(802 240)" fill="aqua"/><rect width="19" height="400" transform="translate(829 240)" fill="aqua"/><rect width="19" height="400" transform="translate(856 240)" fill="aqua"/><g transform="translate(581.124 648)"><line x2="7.161" transform="translate(0 1.91)" fill="none" stroke="#707070" stroke-width="1"/><line y2="3.819" transform="translate(0 0)" fill="none" stroke="#707070" stroke-width="1"/><line y2="3.819" transform="translate(7.161 0)" fill="none" stroke="#707070" stroke-width="1"/></g><g transform="translate(607.855 648)"><line x2="7.161" transform="translate(0 1.91)" fill="none" stroke="#707070" stroke-width="1"/><line y2="3.819" transform="translate(0 0)" fill="none" stroke="#707070" stroke-width="1"/><line y2="3.819" transform="translate(7.161 0)" fill="none" stroke="#707070" stroke-width="1"/></g><g transform="translate(634.59 648)"><line x2="7.161" transform="translate(0 1.91)" fill="none" stroke="#707070" stroke-width="1"/><line y2="3.819" transform="translate(0 0)" fill="none" stroke="#707070" stroke-width="1"/><line y2="3.819" transform="translate(7.161 0)" fill="none" stroke="#707070" stroke-width="1"/></g><g transform="translate(661.321 648)"><line x2="7.161" transform="translate(0 1.91)" fill="none" stroke="#707070" stroke-width="1"/><line y2="3.819" transform="translate(0 0)" fill="none" stroke="#707070" stroke-width="1"/><line y2="3.819" transform="translate(7.161 0)" fill="none" stroke="#707070" stroke-width="1"/></g><g transform="translate(688.057 648)"><line x2="7.161" transform="translate(0 1.91)" fill="none" stroke="#707070" stroke-width="1"/><line y2="3.819" transform="translate(0 0)" fill="none" stroke="#707070" stroke-width="1"/><line y2="3.819" transform="translate(7.161 0)" fill="none" stroke="#707070" stroke-width="1"/></g><g transform="translate(714.789 648)"><line x2="7.161" transform="translate(0 1.91)" fill="none" stroke="#707070" stroke-width="1"/><line y2="3.819" transform="translate(0 0)" fill="none" stroke="#707070" stroke-width="1"/><line y2="3.819" transform="translate(7.161 0)" fill="none" stroke="#707070" stroke-width="1"/></g><g transform="translate(741.522 648)"><line x2="7.161" transform="translate(0 1.91)" fill="none" stroke="#707070" stroke-width="1"/><line y2="3.819" transform="translate(0 0)" fill="none" stroke="#707070" stroke-width="1"/><line y2="3.819" transform="translate(7.161 0)" fill="none" stroke="#707070" stroke-width="1"/></g><g transform="translate(768.257 648)"><line x2="7.161" transform="translate(0 1.91)" fill="none" stroke="#707070" stroke-width="1"/><line y2="3.819" transform="translate(0 0)" fill="none" stroke="#707070" stroke-width="1"/><line y2="3.819" transform="translate(7.161 0)" fill="none" stroke="#707070" stroke-width="1"/></g><g transform="translate(794.99 648)"><line x2="7.161" transform="translate(0 1.91)" fill="none" stroke="#707070" stroke-width="1"/><line y2="3.819" transform="translate(0 0)" fill="none" stroke="#707070" stroke-width="1"/><line y2="3.819" transform="translate(7.161 0)" fill="none" stroke="#707070" stroke-width="1"/></g><g transform="translate(821.722 648)"><line x2="7.161" transform="translate(0 1.91)" fill="none" stroke="#707070" stroke-width="1"/><line y2="3.819" transform="translate(0 0)" fill="none" stroke="#707070" stroke-width="1"/><line y2="3.819" transform="translate(7.161 0)" fill="none" stroke="#707070" stroke-width="1"/></g><g transform="translate(848.456 648)"><line x2="7.161" transform="translate(0 1.91)" fill="none" stroke="#707070" stroke-width="1"/><line y2="3.819" transform="translate(0 0)" fill="none" stroke="#707070" stroke-width="1"/><line y2="3.819" transform="translate(7.161 0)" fill="none" stroke="#707070" stroke-width="1"/></g><g transform="translate(563.026 228.181)"><line x2="18.618" transform="translate(0 1.91)" fill="none" stroke="#707070" stroke-width="1"/><line y2="3.819" transform="translate(0 0)" fill="none" stroke="#707070" stroke-width="1"/><line y2="3.819" transform="translate(18.618 0)" fill="none" stroke="#707070" stroke-width="1"/></g><g transform="translate(588.761 228.181)"><line x2="18.618" transform="translate(0 1.91)" fill="none" stroke="#707070" stroke-width="1"/><line y2="3.819" transform="translate(0 0)" fill="none" stroke="#707070" stroke-width="1"/><line y2="3.819" transform="translate(18.618 0)" fill="none" stroke="#707070" stroke-width="1"/></g><g transform="translate(615.494 228.181)"><line x2="18.618" transform="translate(0 1.91)" fill="none" stroke="#707070" stroke-width="1"/><line y2="3.819" transform="translate(0 0)" fill="none" stroke="#707070" stroke-width="1"/><line y2="3.819" transform="translate(18.618 0)" fill="none" stroke="#707070" stroke-width="1"/></g><g transform="translate(642.228 228.181)"><line x2="18.618" transform="translate(0 1.91)" fill="none" stroke="#707070" stroke-width="1"/><line y2="3.819" transform="translate(0 0)" fill="none" stroke="#707070" stroke-width="1"/><line y2="3.819" transform="translate(18.618 0)" fill="none" stroke="#707070" stroke-width="1"/></g><g transform="translate(668.96 228.181)"><line x2="18.618" transform="translate(0 1.91)" fill="none" stroke="#707070" stroke-width="1"/><line y2="3.819" transform="translate(0 0)" fill="none" stroke="#707070" stroke-width="1"/><line y2="3.819" transform="translate(18.618 0)" fill="none" stroke="#707070" stroke-width="1"/></g><g transform="translate(695.695 228.181)"><line x2="18.618" transform="translate(0 1.91)" fill="none" stroke="#707070" stroke-width="1"/><line y2="3.819" transform="translate(0 0)" fill="none" stroke="#707070" stroke-width="1"/><line y2="3.819" transform="translate(18.618 0)" fill="none" stroke="#707070" stroke-width="1"/></g><g transform="translate(722.427 228.181)"><line x2="18.618" transform="translate(0 1.91)" fill="none" stroke="#707070" stroke-width="1"/><line y2="3.819" transform="translate(0 0)" fill="none" stroke="#707070" stroke-width="1"/><line y2="3.819" transform="translate(18.618 0)" fill="none" stroke="#707070" stroke-width="1"/></g><g transform="translate(749.161 228.181)"><line x2="18.618" transform="translate(0 1.91)" fill="none" stroke="#707070" stroke-width="1"/><line y2="3.819" transform="translate(0 0)" fill="none" stroke="#707070" stroke-width="1"/><line y2="3.819" transform="translate(18.618 0)" fill="none" stroke="#707070" stroke-width="1"/></g><g transform="translate(775.893 228.181)"><line x2="18.618" transform="translate(0 1.91)" fill="none" stroke="#707070" stroke-width="1"/><line y2="3.819" transform="translate(0 0)" fill="none" stroke="#707070" stroke-width="1"/><line y2="3.819" transform="translate(18.618 0)" fill="none" stroke="#707070" stroke-width="1"/></g><g transform="translate(802.628 228.181)"><line x2="18.618" transform="translate(0 1.91)" fill="none" stroke="#707070" stroke-width="1"/><line y2="3.819" transform="translate(0 0)" fill="none" stroke="#707070" stroke-width="1"/><line y2="3.819" transform="translate(18.618 0)" fill="none" stroke="#707070" stroke-width="1"/></g><line x2="18.618" transform="translate(829.36 230.09)" fill="none" stroke="#707070" stroke-width="1"/><line y2="3.819" transform="translate(829.36 228.181)" fill="none" stroke="#707070" stroke-width="1"/><line y2="3.819" transform="translate(847.979 228.181)" fill="none" stroke="#707070" stroke-width="1"/><g transform="translate(856.094 228.181)"><line x2="18.618" transform="translate(0 1.91)" fill="none" stroke="#707070" stroke-width="1"/><line y2="3.819" transform="translate(0 0)" fill="none" stroke="#707070" stroke-width="1"/><line y2="3.819" transform="translate(18.618 0)" fill="none" stroke="#707070" stroke-width="1"/></g><text transform="translate(567 220)" font-size="7" font-family="CorporateS-Bold, CorpoS" font-weight="700" opacity="0"><tspan x="0" y="0">64</tspan></text><text transform="translate(567 221)" font-size="7" font-family="CorporateS-Bold, CorpoS" font-weight="700" opacity="0"><tspan x="0" y="0">56</tspan></text><text transform="translate(581 667)" font-size="7" font-family="CorporateS-Bold, CorpoS" font-weight="700" opacity="0"><tspan x="0" y="0">24</tspan></text><text transform="translate(577 667)" font-size="12" font-family="Arial-BoldMT, Arial" font-weight="700"><tspan x="0" y="0">16</tspan></text><text transform="translate(566 221)" font-size="12" font-family="Arial-BoldMT, Arial" font-weight="700"><tspan x="0" y="0">40</tspan></text><path d="M5302.665,4414.586a.239.239,0,1,1-.239-.239A.239.239,0,0,1,5302.665,4414.586Z" transform="translate(-4394.775 -3987.486)" fill="#fff" opacity="0"/><path d="M4215.355,4428.442a.239.239,0,1,1,.239.239A.239.239,0,0,1,4215.355,4428.442Z" transform="translate(-3685.553 -3994.728)" fill="#fff" opacity="0"/><path d="M7684.758,4077.721h.435a.022.022,0,0,0,0-.043h-.435a.022.022,0,0,0,0,.043Z" transform="translate(-6965.412 -3895.895)" fill="#fff" opacity="0"/></g></svg>