<svg xmlns="http://www.w3.org/2000/svg" width="562.274" height="385.291" viewBox="0 0 562.274 385.291"><g transform="translate(-438.863 -230.709)"><path d="M4200.031,4058.69v341.844a21.748,21.748,0,0,0,21.723,21.723h518.831a21.747,21.747,0,0,0,21.72-21.723V4058.69a21.747,21.747,0,0,0-21.72-21.723H4221.754A21.747,21.747,0,0,0,4200.031,4058.69Z" transform="translate(-3761.167 -3806.257)" opacity="0.15"/><rect width="489" height="367" transform="translate(467.287 239.002)" fill="#fff"/><path d="M5327.173,4426.838a12.493,12.493,0,1,1-12.494-12.491A12.494,12.494,0,0,1,5327.173,4426.838Z" transform="translate(-4337.178 -4003.484)" fill="#fff"/><path d="M4215.355,4434.08a5.876,5.876,0,1,1,5.876,5.877A5.878,5.878,0,0,1,4215.355,4434.08Z" transform="translate(-3769.176 -4010.726)" fill="#fff"/><rect width="26" height="301" transform="translate(507.287 275.002)" fill="aqua"/><rect width="28" height="301" transform="translate(541.287 275.002)" fill="aqua"/><rect width="28" height="301" transform="translate(576.287 275.002)" fill="aqua"/><rect width="26" height="301" transform="translate(611.287 275.002)" fill="aqua"/><rect width="27" height="301" transform="translate(645.287 275.002)" fill="aqua"/><rect width="26" height="301" transform="translate(680.287 275.002)" fill="aqua"/><rect width="27" height="301" transform="translate(713.287 275.002)" fill="aqua"/><rect width="28" height="301" transform="translate(747.287 275.002)" fill="aqua"/><rect width="26" height="301" transform="translate(783.287 275.002)" fill="aqua"/><rect width="26" height="301" transform="translate(817.287 275.002)" fill="aqua"/><rect width="28" height="301" transform="translate(850.287 275.002)" fill="aqua"/><rect width="26" height="301" transform="translate(885.287 275.002)" fill="aqua"/><g transform="translate(533.576 579.674)"><line x2="7.161" transform="translate(0 1.91)" fill="none" stroke="#707070" stroke-width="1"/><line y2="3.819" transform="translate(0 0)" fill="none" stroke="#707070" stroke-width="1"/><line y2="3.819" transform="translate(7.161 0)" fill="none" stroke="#707070" stroke-width="1"/></g><g transform="translate(568.948 579.674)"><line x2="7.161" transform="translate(0 1.91)" fill="none" stroke="#707070" stroke-width="1"/><line y2="3.819" transform="translate(0 0)" fill="none" stroke="#707070" stroke-width="1"/><line y2="3.819" transform="translate(7.161 0)" fill="none" stroke="#707070" stroke-width="1"/></g><g transform="translate(603.318 579.674)"><line x2="7.161" transform="translate(0 1.91)" fill="none" stroke="#707070" stroke-width="1"/><line y2="3.819" transform="translate(0 0)" fill="none" stroke="#707070" stroke-width="1"/><line y2="3.819" transform="translate(7.161 0)" fill="none" stroke="#707070" stroke-width="1"/></g><g transform="translate(637.692 579.674)"><line x2="7.161" transform="translate(0 1.91)" fill="none" stroke="#707070" stroke-width="1"/><line y2="3.819" transform="translate(0 0)" fill="none" stroke="#707070" stroke-width="1"/><line y2="3.819" transform="translate(7.161 0)" fill="none" stroke="#707070" stroke-width="1"/></g><g transform="translate(672.063 579.674)"><line x2="7.161" transform="translate(0 1.91)" fill="none" stroke="#707070" stroke-width="1"/><line y2="3.819" transform="translate(0 0)" fill="none" stroke="#707070" stroke-width="1"/><line y2="3.819" transform="translate(7.161 0)" fill="none" stroke="#707070" stroke-width="1"/></g><g transform="translate(706.435 579.674)"><line x2="7.161" transform="translate(0 1.91)" fill="none" stroke="#707070" stroke-width="1"/><line y2="3.819" transform="translate(0 0)" fill="none" stroke="#707070" stroke-width="1"/><line y2="3.819" transform="translate(7.161 0)" fill="none" stroke="#707070" stroke-width="1"/></g><g transform="translate(740.805 579.674)"><line x2="7.161" transform="translate(0 1.91)" fill="none" stroke="#707070" stroke-width="1"/><line y2="3.819" transform="translate(0 0)" fill="none" stroke="#707070" stroke-width="1"/><line y2="3.819" transform="translate(7.161 0)" fill="none" stroke="#707070" stroke-width="1"/></g><g transform="translate(775.176 579.674)"><line x2="7.161" transform="translate(0 1.91)" fill="none" stroke="#707070" stroke-width="1"/><line y2="3.819" transform="translate(0 0)" fill="none" stroke="#707070" stroke-width="1"/><line y2="3.819" transform="translate(7.161 0)" fill="none" stroke="#707070" stroke-width="1"/></g><g transform="translate(809.548 579.674)"><line x2="7.161" transform="translate(0 1.91)" fill="none" stroke="#707070" stroke-width="1"/><line y2="3.819" transform="translate(0 0)" fill="none" stroke="#707070" stroke-width="1"/><line y2="3.819" transform="translate(7.161 0)" fill="none" stroke="#707070" stroke-width="1"/></g><g transform="translate(843.919 579.674)"><line x2="7.161" transform="translate(0 1.91)" fill="none" stroke="#707070" stroke-width="1"/><line y2="3.819" transform="translate(0 0)" fill="none" stroke="#707070" stroke-width="1"/><line y2="3.819" transform="translate(7.161 0)" fill="none" stroke="#707070" stroke-width="1"/></g><g transform="translate(878.29 579.674)"><line x2="7.161" transform="translate(0 1.91)" fill="none" stroke="#707070" stroke-width="1"/><line y2="3.819" transform="translate(0 0)" fill="none" stroke="#707070" stroke-width="1"/><line y2="3.819" transform="translate(7.161 0)" fill="none" stroke="#707070" stroke-width="1"/></g><g transform="translate(507.287 266.512)"><line x2="26" transform="translate(0 1.91)" fill="none" stroke="#707070" stroke-width="1"/><line y2="3.819" transform="translate(0 0)" fill="none" stroke="#707070" stroke-width="1"/><line y2="3.819" transform="translate(26 0)" fill="none" stroke="#707070" stroke-width="1"/></g><g transform="translate(541.744 266.512)"><line x2="27.044" transform="translate(0 1.91)" fill="none" stroke="#707070" stroke-width="1"/><line y2="3.819" transform="translate(0 0)" fill="none" stroke="#707070" stroke-width="1"/><line y2="3.819" transform="translate(27.044 0)" fill="none" stroke="#707070" stroke-width="1"/></g><g transform="translate(576.586 266.512)"><line x2="27.701" transform="translate(0 1.91)" fill="none" stroke="#707070" stroke-width="1"/><line y2="3.819" transform="translate(0 0)" fill="none" stroke="#707070" stroke-width="1"/><line y2="3.819" transform="translate(27.701 0)" fill="none" stroke="#707070" stroke-width="1"/></g><g transform="translate(611.287 266.512)"><line x2="25.925" transform="translate(0 1.91)" fill="none" stroke="#707070" stroke-width="1"/><line y2="3.819" transform="translate(0 0)" fill="none" stroke="#707070" stroke-width="1"/><line y2="3.819" transform="translate(25.925 0)" fill="none" stroke="#707070" stroke-width="1"/></g><g transform="translate(645.589 266.512)"><line x2="26.411" transform="translate(0 1.91)" fill="none" stroke="#707070" stroke-width="1"/><line y2="3.819" transform="translate(0 0)" fill="none" stroke="#707070" stroke-width="1"/><line y2="3.819" transform="translate(26.411 0)" fill="none" stroke="#707070" stroke-width="1"/></g><g transform="translate(680.664 266.512)"><line x2="25.292" transform="translate(0 1.91)" fill="none" stroke="#707070" stroke-width="1"/><line y2="3.819" transform="translate(0 0)" fill="none" stroke="#707070" stroke-width="1"/><line y2="3.819" transform="translate(25.292 0)" fill="none" stroke="#707070" stroke-width="1"/></g><g transform="translate(713.577 266.512)"><line x2="26.208" transform="translate(0 1.91)" fill="none" stroke="#707070" stroke-width="1"/><line y2="3.819" transform="translate(0 0)" fill="none" stroke="#707070" stroke-width="1"/><line y2="3.819" transform="translate(26.208 0)" fill="none" stroke="#707070" stroke-width="1"/></g><g transform="translate(747.856 266.512)"><line x2="27.004" transform="translate(0 1.91)" fill="none" stroke="#707070" stroke-width="1"/><line y2="3.819" transform="translate(0 0)" fill="none" stroke="#707070" stroke-width="1"/><line y2="3.819" transform="translate(27.004 0)" fill="none" stroke="#707070" stroke-width="1"/></g><g transform="translate(783.532 266.512)"><line x2="25.538" transform="translate(0 1.91)" fill="none" stroke="#707070" stroke-width="1"/><line y2="3.819" transform="translate(0 0)" fill="none" stroke="#707070" stroke-width="1"/><line y2="3.819" transform="translate(25.538 0)" fill="none" stroke="#707070" stroke-width="1"/></g><g transform="translate(817.764 266.512)"><line x2="25.107" transform="translate(0 1.91)" fill="none" stroke="#707070" stroke-width="1"/><line y2="3.819" transform="translate(0 0)" fill="none" stroke="#707070" stroke-width="1"/><line y2="3.819" transform="translate(25.107 0)" fill="none" stroke="#707070" stroke-width="1"/></g><line x2="26.256" transform="translate(851.557 268.422)" fill="none" stroke="#707070" stroke-width="1"/><line y2="3.819" transform="translate(851.557 266.512)" fill="none" stroke="#707070" stroke-width="1"/><line y2="3.819" transform="translate(877.814 266.512)" fill="none" stroke="#707070" stroke-width="1"/><g transform="translate(885.929 266.512)"><line x2="24.912" transform="translate(0 1.91)" fill="none" stroke="#707070" stroke-width="1"/><line y2="3.819" transform="translate(0 0)" fill="none" stroke="#707070" stroke-width="1"/><line y2="3.819" transform="translate(24.912 0)" fill="none" stroke="#707070" stroke-width="1"/></g><text transform="translate(515.287 262.002)" font-size="7" font-family="CorporateS-Bold, CorpoS" font-weight="700" opacity="0"><tspan x="0" y="0">40</tspan></text><text transform="translate(514.287 261.002)" font-size="12" font-family="Arial-BoldMT, Arial" font-weight="700" letter-spacing="-0.01em"><tspan x="0" y="0">56</tspan></text><text transform="translate(533.287 593.002)" font-size="7" font-family="CorporateS-Bold, CorpoS" font-weight="700" opacity="0"><tspan x="0" y="0">24</tspan></text><text transform="translate(530.287 597.002)" font-size="12" font-family="Arial-BoldMT, Arial" font-weight="700" letter-spacing="-0.01em"><tspan x="0" y="0">16</tspan></text><path d="M.239,0A.239.239,0,1,1,0,.239.239.239,0,0,1,.239,0Z" transform="translate(707.646 235.005)" fill="#fff" opacity="0"/><path d="M6314.084,4974.231a.239.239,0,1,1,.238-.238A.238.238,0,0,1,6314.084,4974.231Z" transform="translate(-5602.877 -4363.051)" fill="#fff" opacity="0"/><path d="M6327.941,3886.923a.239.239,0,1,1-.239.239A.239.239,0,0,1,6327.941,3886.923Z" transform="translate(-5616.734 -3651.917)" fill="#fff" opacity="0"/></g></svg>