<svg xmlns="http://www.w3.org/2000/svg" width="27.122" height="24.014" viewBox="0 0 27.122 24.014"><path d="M26.853,21.042,15.277.991a1.982,1.982,0,0,0-3.432,0L.269,21.042a1.981,1.981,0,0,0,1.716,2.972H25.137a1.981,1.981,0,0,0,1.716-2.972Z" transform="translate(0)" fill="#eb0000"/><g transform="translate(12.037 5.231)"><g transform="translate(0.073 13.498)"><path d="M375.891,579.1a1.451,1.451,0,1,0,1.451,1.451A1.453,1.453,0,0,0,375.891,579.1Z" transform="translate(-374.44 -579.1)" fill="#fff"/></g><path d="M375.237,163.254a1.524,1.524,0,1,0-3.047,0c0,.027.006.052.008.078h-.006c.156,3.043.4,7.853.507,9.881h.009a1.006,1.006,0,0,0,2.01,0h.009l.507-9.881h-.006C375.231,163.305,375.237,163.28,375.237,163.254Z" transform="translate(-372.19 -161.73)" fill="#fff"/></g></svg>